<svg xmlns="http://www.w3.org/2000/svg" xmlns:xlink="http://www.w3.org/1999/xlink" width="64" height="64" viewBox="0 0 64 64">
  <defs>
    <style>
      .cls-1 {
        fill: #fff;
      }

      .cls-2 {
        clip-path: url(#clip-path);
      }

      .cls-3 {
        fill: #8c86f5;
        fill-rule: evenodd;
      }
    </style>
    <clipPath id="clip-path">
      <circle id="Ellipse_2054" data-name="Ellipse 2054" class="cls-1" cx="32" cy="32" r="32" transform="translate(-23717 -22993)"/>
    </clipPath>
  </defs>
  <g id="Group_19980" data-name="Group 19980" transform="translate(23717 22882)">
    <g id="Group_1037" data-name="Group 1037" transform="translate(0 111)">
      <circle id="Ellipse_1930" data-name="Ellipse 1930" class="cls-1" cx="32" cy="32" r="32" transform="translate(-23717 -22993)"/>
      <g id="Mask_Group_247" data-name="Mask Group 247" class="cls-2">
        <path id="ABR" class="cls-3" d="M27.11,0h9.778V12.258a20.608,20.608,0,0,0-9.778-.218ZM21.252,14.338,12.83,5.916,5.916,12.83l8.313,8.313A20.548,20.548,0,0,1,21.252,14.338ZM11.7,27.111H0v9.778H11.7a20.611,20.611,0,0,1,0-9.778Zm2.53,15.746L5.915,51.171l6.914,6.914,8.423-8.423A20.547,20.547,0,0,1,14.228,42.857Zm12.882,9.1V64h9.778V51.742a20.61,20.61,0,0,1-9.778.218Zm15.3-2.634,8.758,8.758,6.914-6.914L49.217,42.3A20.548,20.548,0,0,1,42.412,49.326Zm9-12.438H64V27.111H51.411a20.608,20.608,0,0,1,0,9.778ZM49.217,21.7l8.867-8.866L51.17,5.916l-8.758,8.758A20.549,20.549,0,0,1,49.217,21.7Z" transform="translate(-23717 -22993)"/>
      </g>
    </g>
  </g>
</svg>
