<svg xmlns="http://www.w3.org/2000/svg" xmlns:xlink="http://www.w3.org/1999/xlink" width="64" height="64" viewBox="0 0 64 64">
  <defs>
    <style>
      .cls-1 {
        fill: #fff;
      }

      .cls-2 {
        clip-path: url(#clip-path);
      }

      .cls-3 {
        fill: #b8dcaa;
      }

      .cls-4 {
        fill: #98ce88;
      }

      .cls-5 {
        fill: #fefefd;
      }

      .cls-6 {
        fill: #d0e8c8;
      }

      .cls-7 {
        fill: #51b848;
      }

      .cls-8 {
        fill: #4ab749;
      }

      .cls-9 {
        fill: #36b34a;
      }

      .cls-10 {
        fill: #76c26a;
      }

      .cls-11 {
        fill: #fefefe;
      }

      .cls-12 {
        fill: #38b44a;
      }

      .cls-13 {
        fill: #31ae4a;
      }

      .cls-14 {
        fill: #2faa4a;
      }

      .cls-15 {
        fill: #2ca549;
      }

      .cls-16 {
        fill: #2b9145;
      }

      .cls-17 {
        fill: #2b9d48;
      }

      .cls-18 {
        fill: #2b9e48;
      }

      .cls-19 {
        fill: #2ba249;
      }

      .cls-20 {
        fill: #2b9947;
      }

      .cls-21 {
        fill: #2b9446;
      }

      .cls-22 {
        fill: #2c8e44;
      }

      .cls-23 {
        fill: #2a9546;
      }

      .cls-24 {
        fill: #2a9746;
      }

      .cls-25 {
        fill: #33b24a;
      }

      .cls-26 {
        fill: #30ab4a;
      }

      .cls-27 {
        fill: #2ea849;
      }

      .cls-28 {
        fill: #32ad4a;
      }

      .cls-29 {
        fill: #2b9a47;
      }

      .cls-30 {
        fill: #2ba449;
      }

      .cls-31 {
        fill: #2b9847;
      }
    </style>
    <clipPath id="clip-path">
      <circle id="Ellipse_1805" data-name="Ellipse 1805" class="cls-1" cx="32" cy="32" r="32" transform="translate(-20493 -24525)"/>
    </clipPath>
  </defs>
  <g id="Group_19977" data-name="Group 19977" transform="translate(20493 24525)">
    <g id="Mask_Group_567" data-name="Mask Group 567" class="cls-2">
      <g id="Layer_2" data-name="Layer 2" transform="translate(-20492.951 -24525)">
        <g id="Layer_1" data-name="Layer 1">
          <path id="Path_32518" data-name="Path 32518" class="cls-3" d="M33.355,0a.071.071,0,0,0,0,.056H30.562a.077.077,0,0,0,0-.056Z"/>
          <path id="Path_32519" data-name="Path 32519" class="cls-4" d="M63.9,31.031v1.878l-.052.006v-1.9Z"/>
          <path id="Path_32520" data-name="Path 32520" class="cls-5" d="M32.689,63.942V64H31.172v-.058Z"/>
          <path id="Path_32521" data-name="Path 32521" class="cls-6" d="M63.848,32.915l.052-.006v.667h-.052Z"/>
          <path id="Path_32522" data-name="Path 32522" class="cls-6" d="M63.9,31.031l-.053-.006v-.664H63.9Z"/>
          <path id="Path_32523" data-name="Path 32523" class="cls-7" d="M63.848,30.361v3.223a31.375,31.375,0,0,1-9.874,21.53A31.237,31.237,0,0,1,38.808,63.2a29.068,29.068,0,0,1-4.368.632l-1.752.114H31.172c-.36-.021-.722-.042-1.082-.067-.149-.01-.3-.032-.446-.048.187-.115.372-.231.56-.342q.742-.435,1.484-.862c.557-.321,1.116-.638,1.672-.959.583-.337,1.163-.677,1.744-1.011.556-.322,1.11-.647,1.67-.962.506-.284,1.027-.551,1.536-.835a4.95,4.95,0,0,0,.439-.306c.561-.312,1.125-.621,1.683-.939.253-.143.494-.3.741-.455.418-.23.839-.458,1.255-.694a4.217,4.217,0,0,0,.379-.274L43.9,55.58l.969-.547c.219-.119.44-.234.655-.359s.454-.282.681-.423a1.429,1.429,0,0,0,.193-.076c.835-.476,1.671-.952,2.5-1.433.276-.159.543-.332.814-.506.183.01.253-.118.332-.253q1.886-3.276,3.779-6.549c.04-.068.075-.139.112-.21-.048-.09-.09-.171-.134-.253l-7.77-13.46a1.527,1.527,0,0,0-.126-.2c-.009-.011-.063.014-.1.023a3.1,3.1,0,0,0-.36.143c-.2.11-.4.235-.6.35L40.628,34.25c-.487.274-.972.552-1.462.821a1.044,1.044,0,0,1-.24.063c.058-.115.111-.235.176-.348q2.141-3.709,4.283-7.417a.379.379,0,0,0,.018-.439q-2.181-3.756-4.349-7.52a1.334,1.334,0,0,0-.172-.2c-.1.048-.2.09-.3.145q-1.7.973-3.4,1.953a5.232,5.232,0,0,0-.437.315,1.882,1.882,0,0,0-.279.1c-.253.139-.506.288-.758.435q-.535.311-1.068.632l-.72.367c.056-.106.106-.215.167-.318q2.154-3.757,4.322-7.5a.446.446,0,0,0,0-.518q-2.156-3.716-4.3-7.44a2.1,2.1,0,0,0-.185-.23,1.77,1.77,0,0,0-.166.072L29.01,8.808c-.741.425-1.485.843-2.224,1.264-.181.1-.349.227-.523.342-.119.052-.243.1-.355.159q-.94.537-1.876,1.082c-.329.191-.653.388-.979.581-.126.063-.253.12-.379.19l-2.831,1.638c-.037.018-.073.033-.109.053l-1.985,1.137c-.416.243-.827.493-1.24.739-.334.182-.67.36-1,.547L13.6,17.632c-.157.088-.313.177-.469.267L10.869,19.21l-.418.239-1.469.834c-.641.367-1.273.734-1.9,1.1-.593.34-1.188.676-1.781,1.017q-1.126.647-2.245,1.3a1.608,1.608,0,0,0-.222.082c-.485.276-.966.559-1.452.83-.178.1-.331.265-.562.24.164-.655.3-1.316.5-1.963A32.009,32.009,0,0,1,20.59,2.106,31.378,31.378,0,0,1,27.371.353a31.768,31.768,0,0,1,3.194-.3h2.793A31.222,31.222,0,0,1,49.019,4.972,31.6,31.6,0,0,1,62.466,22.488a28.749,28.749,0,0,1,1.2,5.642C63.746,28.871,63.788,29.616,63.848,30.361Z"/>
          <path id="Path_32524" data-name="Path 32524" class="cls-8" d="M.815,24.849c.231.025.379-.142.562-.24.487-.272.967-.555,1.452-.83a1.608,1.608,0,0,1,.222-.082.864.864,0,0,1-.126.183,5.03,5.03,0,0,1-.651.385c-.289.133-.3.355-.148.591q.919,1.431,1.834,2.87c.6.933,1.185,1.868,1.783,2.8.852,1.33,1.711,2.654,2.562,3.986.823,1.288,1.643,2.583,2.456,3.874q.7,1.1,1.4,2.186a.358.358,0,0,0,.339.215.758.758,0,0,1-.047.109c-.253.408-.506.813-.748,1.225-.321.541-.632,1.086-.945,1.632-.286.506-.565,1.011-.847,1.517-.081.04-.164.077-.243.126C8.614,46,7.555,46.606,6.51,47.223a3.549,3.549,0,0,0-1.371,1.113c.1.126.2.265.318.4.417.506.839,1,1.254,1.505s.8,1,1.208,1.5.852,1.011,1.275,1.527c.454.549.907,1.1,1.355,1.653q.73.9,1.446,1.814a.821.821,0,0,1,.087.244c-.541-.452-1.1-.885-1.62-1.36A31.966,31.966,0,0,1,4.7,48.672a31.276,31.276,0,0,1-2.693-5.51,30.756,30.756,0,0,1-1.116-3.6C.685,38.686.53,37.8.387,36.914a31.423,31.423,0,0,1-.342-6.572c.028-.768.109-1.547.209-2.318.1-.821.244-1.643.379-2.457C.671,25.324.758,25.088.815,24.849Z"/>
          <path id="Path_32525" data-name="Path 32525" class="cls-8" d="M38.749,58.545a4.951,4.951,0,0,1-.439.306c-.506.284-1.026.551-1.536.835-.56.315-1.113.639-1.67.962-.581.337-1.161.677-1.744,1.011-.556.321-1.115.632-1.672.959q-.743.428-1.484.862c-.188.111-.373.227-.56.342l-.473-.021-.425-.047c-.337-.037-.676-.066-1.011-.111-.416-.056-.833-.109-1.244-.188-.821-.159-1.643-.308-2.456-.506a29.974,29.974,0,0,1-4.661-1.579,28.769,28.769,0,0,1-4.264-2.236c-.657-.425-1.3-.872-1.945-1.309a1.478,1.478,0,0,1-.126-.12,1.83,1.83,0,0,0,.92-.253c1-.565,2-1.125,2.993-1.692.379-.217.758-.45,1.137-.676.561-.312,1.125-.622,1.683-.939.253-.143.494-.3.741-.455.559-.311,1.118-.618,1.673-.934.294-.167.579-.349.867-.523l.119-.057-4.023-6.97c.379-.641.749-1.264,1.12-1.886a.984.984,0,0,0,.114.265c.278.331.567.652.851.978.5.578.992,1.16,1.5,1.734s1.045,1.168,1.567,1.753c.161.179.32.361.478.543.379.44.758.885,1.148,1.318.364.393.379.463-.075.743-.562.353-1.137.688-1.7,1.038-.2.126-.389.283-.591.413-.277.176-.306.262-.158.567.317.653.632,1.307.949,1.96q.556,1.137,1.113,2.285c.291.6.578,1.2.868,1.8.164.335.33.67.506,1,.09.176.126.187.311.11.139-.059.274-.126.411-.193.479-.234.964-.454,1.434-.705.559-.3,1.1-.622,1.653-.939.3-.177.6-.361.9-.542l1.273-.728c.339-.185.679-.367,1.011-.559.153-.086.294-.192.442-.289l.545-.243a3.97,3.97,0,0,1,.4.253c.288.234.565.482.845.724.2.171.392.345.589.516.409.354.835.69,1.225,1.065A.953.953,0,0,0,38.749,58.545Z"/>
          <path id="Path_32526" data-name="Path 32526" class="cls-9" d="M18.083,55.091c-.379.226-.758.459-1.137.676-1,.567-2,1.127-2.993,1.692a1.83,1.83,0,0,1-.92.253l-.475-.354c.013-.138-.077-.144-.176-.138l-.3-.239a.821.821,0,0,0-.087-.244q-.717-.912-1.446-1.814c-.447-.554-.9-1.1-1.355-1.653-.423-.506-.854-1.011-1.275-1.527s-.8-1-1.208-1.5-.837-1-1.254-1.505c-.115-.138-.222-.281-.318-.4a3.549,3.549,0,0,1,1.371-1.113C7.555,46.6,8.614,46,9.666,45.4c.078-.045.162-.082.243-.126a1.722,1.722,0,0,1,.2.239q1.863,3.219,3.716,6.445a.48.48,0,0,0,.5.281c.483-.014.967,0,1.45.01a.543.543,0,0,0,.139.417c.562.68,1.137,1.356,1.675,2.051A1.256,1.256,0,0,0,18.083,55.091Z"/>
          <path id="Path_32527" data-name="Path 32527" class="cls-10" d="M28.748,63.759l.425.047Z"/>
          <path id="Path_32528" data-name="Path 32528" class="cls-8" d="M12.385,57.216c.1-.006.188,0,.176.138Z"/>
          <path id="Path_32529" data-name="Path 32529" class="cls-11" d="M15.78,52.24c-.483,0-.967-.024-1.45-.01a.48.48,0,0,1-.5-.281Q11.986,48.72,10.117,45.5a1.723,1.723,0,0,0-.2-.239c.282-.506.561-1.011.847-1.517.311-.546.624-1.091.945-1.632.244-.412.506-.816.748-1.225a.758.758,0,0,0,.047-.109,1.632,1.632,0,0,0,.126-.2q2.721-4.708,5.434-9.414c.039-.068.07-.144.1-.216.054-.083.111-.166.162-.253.4-.689.8-1.378,1.2-2.069.19-.331.37-.666.556-1,.115-.2.229-.411.346-.614.2-.34.4-.679.594-1.019.272-.466.541-.934.811-1.4l.039-.056.028-.062a1.5,1.5,0,0,0,.126-.2q.789-1.361,1.573-2.724c.15-.262.294-.527.441-.791.276-.468.555-.934.827-1.4q.656-1.137,1.306-2.275.738-1.264,1.476-2.535c.186-.322.363-.65.543-.974l.042-.063.029-.059c.054-.083.114-.163.164-.253q1.384-2.363,2.75-4.737c.253-.436.5-.876.742-1.314a2.1,2.1,0,0,1,.185.234q2.149,3.719,4.3,7.44a.446.446,0,0,1,0,.518q-2.171,3.738-4.33,7.493c-.061.1-.111.212-.167.318l-.8,1.383q-.331.576-.666,1.153l-.042.063-.027.057-.952,1.643L28.2,29.573c-.19.317-.385.632-.57.954-.325.566-.645,1.137-.967,1.7-.3.506-.6,1.011-.9,1.525-.23.4-.451.8-.677,1.2a1.488,1.488,0,0,0-.126.2q-.845,1.464-1.687,2.927c-.04.068-.07.143-.1.215l-1.264,2.19c-.191.318-.379.632-.569.955-.36.626-.714,1.255-1.07,1.882s-.739,1.245-1.12,1.886l4.015,6.971-.119.057c-.11-.006-.22-.015-.331-.015H20.263c-.282,0-.564.01-.845.015-.1,0-.2-.015-.3-.015H16.651C16.361,52.226,16.071,52.235,15.78,52.24Z"/>
          <path id="Path_32530" data-name="Path 32530" class="cls-11" d="M38.875,19.216a1.334,1.334,0,0,1,.172.2q2.175,3.759,4.349,7.52a.379.379,0,0,1-.018.439Q41.23,31.079,39.1,34.791c-.064.112-.118.233-.176.348h0l-.053.075-.422.724c-.11.179-.225.355-.33.538q-.447.785-.885,1.575l-.718,1.221c-.03.057-.061.115-.092.172q-.454.789-.909,1.576l-1.074,1.868-.987,1.671-.653,1.17c-.078.126-.159.253-.236.379-.206.34-.409.682-.614,1.024-.1-.164-.195-.326-.291-.49q-.612-1.049-1.226-2.1c-.092-.14-.193-.276-.274-.422-.214-.387-.408-.784-.632-1.167-.719-1.25-1.447-2.5-2.17-3.743l.632-1.125.871-1.543a1.041,1.041,0,0,0,.072-.095q.662-1.137,1.322-2.286A1.155,1.155,0,0,0,30.31,34c.142-.246.279-.494.423-.739.274-.465.551-.929.825-1.39l1-1.744q.335-.6.674-1.208c.024-.018.057-.029.07-.052q.6-1.036,1.185-2.076c.145-.241.294-.482.436-.725q.506-.872,1.011-1.749a1.245,1.245,0,0,0,.075-.191c.162-.259.331-.514.485-.779q.969-1.668,1.929-3.339C38.587,19.743,38.73,19.479,38.875,19.216Z"/>
          <path id="Path_32531" data-name="Path 32531" class="cls-12" d="M18.175,30.964c-.035.072-.066.148-.1.216q-2.718,4.708-5.434,9.414c-.04.07-.087.134-.126.2a.358.358,0,0,1-.339-.215q-.7-1.089-1.4-2.186c-.819-1.29-1.633-2.586-2.456-3.874-.851-1.332-1.71-2.654-2.562-3.986-.6-.933-1.188-1.868-1.783-2.8L2.122,24.854c-.153-.236-.142-.463.153-.589a5.03,5.03,0,0,0,.65-.379c.058-.039.088-.126.126-.183q1.12-.655,2.245-1.3c.593-.341,1.188-.677,1.781-1.017.632-.365,1.27-.733,1.907-1.1l1.469-.834.417-.241a.809.809,0,0,0,.1.493c.253.379.484.765.727,1.145q1.185,1.857,2.373,3.709c.6.942,1.2,1.884,1.8,2.823Q17.019,29.173,18.175,30.964Z"/>
          <path id="Path_32532" data-name="Path 32532" class="cls-5" d="M45.8,31.334c.033-.009.087-.034.1-.023a1.527,1.527,0,0,1,.126.2L53.8,44.977c.044.078.086.159.134.253-.038.071-.072.142-.112.21q-1.9,3.276-3.779,6.549c-.078.135-.149.263-.332.253-.07,0-.14-.014-.211-.014H44.415c-.07,0-.14.01-.21.015H41.779l-1.022-.029.059-.2c.053-.1.1-.206.161-.306.2-.349.413-.7.619-1.043l.11-.182.134-.241.04-.058.024-.053.045-.07c.071-.142.143-.282.215-.423.187-.321.372-.643.56-.963s.388-.648.583-.973l.844-1.429c.2-.348.4-.7.605-1.048L41.279,39.2c.072-.126.133-.23.192-.336l.677-1.211c.179-.3.361-.593.536-.892L44.454,33.7Q45.132,32.517,45.8,31.334Z"/>
          <path id="Path_32533" data-name="Path 32533" class="cls-13" d="M18.175,30.964q-1.154-1.787-2.305-3.574c-.6-.939-1.2-1.882-1.8-2.823q-1.187-1.86-2.373-3.713c-.243-.379-.476-.768-.727-1.145a.809.809,0,0,1-.1-.5L13.127,17.9c.155-.09.312-.178.469-.267a2.631,2.631,0,0,0,.157.355c.183.3.379.59.571.885.594.93,1.184,1.864,1.779,2.794q1.24,1.944,2.485,3.881c.379.6.758,1.207,1.148,1.8.082.126.136.31.351.278-.186.332-.367.667-.556,1-.4.691-.8,1.38-1.2,2.069C18.286,30.792,18.229,30.874,18.175,30.964Z"/>
          <path id="Path_32534" data-name="Path 32534" class="cls-14" d="M20.095,27.639c-.215.032-.269-.152-.351-.278-.387-.6-.758-1.2-1.148-1.8q-1.24-1.941-2.485-3.881c-.6-.93-1.185-1.864-1.779-2.794-.19-.3-.388-.588-.571-.885a2.632,2.632,0,0,1-.157-.355c.632-.364,1.271-.73,1.908-1.091.331-.187.667-.365,1-.547a1.819,1.819,0,0,0,.126.392c.219.379.452.737.685,1.1q1.3,2.032,2.607,4.064l1.659,2.593c.083.126.152.287.324.336l-.028.062-.039.056c-.27.466-.54.934-.811,1.4-.2.34-.4.679-.594,1.019C20.317,27.228,20.2,27.434,20.095,27.639Z"/>
          <path id="Path_32535" data-name="Path 32535" class="cls-15" d="M21.907,24.488c-.172-.049-.24-.2-.324-.336q-.833-1.294-1.659-2.593-1.3-2.032-2.61-4.064c-.233-.365-.466-.729-.685-1.1A1.819,1.819,0,0,1,16.5,16c.413-.246.824-.5,1.24-.739l1.985-1.137c.035-.02.072-.035.109-.053a1.854,1.854,0,0,0,.143.45c.621.987,1.256,1.964,1.883,2.946.445.7.87,1.4,1.33,2.084a6.565,6.565,0,0,0,.858,1.231c-.147.264-.291.53-.441.791q-.785,1.364-1.573,2.724C22,24.358,21.951,24.421,21.907,24.488Z"/>
          <path id="Path_32536" data-name="Path 32536" class="cls-16" d="M42.148,37.652l-.677,1.211c-.059.106-.12.21-.192.336l3.478,6.027c-.2.351-.4.7-.605,1.048q-.421.715-.844,1.429a1.669,1.669,0,0,1-.244-.294c-.236-.468-.455-.945-.682-1.417q-.506-1.049-1.019-2.1-.805-1.643-1.613-3.286c-.014-.028-.028-.054-.039-.082-.1-.227-.073-.315.126-.463.144-.107.284-.219.43-.33-.082-.2-.149-.379-.227-.549q-.705-1.554-1.417-3.106c-.028-.059-.114-.094-.172-.139l.422-.724.053-.075h0a1.044,1.044,0,0,0,.246-.068c.49-.269.976-.547,1.462-.821.08.216.145.439.239.648.339.752.686,1.5,1.031,2.25C41.978,37.317,42.065,37.482,42.148,37.652Z"/>
          <path id="Path_32537" data-name="Path 32537" class="cls-17" d="M40.821,52.015l-.059.2,1.022.029a.744.744,0,0,0,.106.243c.153.157.324.3.49.441.43.379.862.744,1.293,1.117.188.164.369.339.561.5s.426.329.639.492l-.969.547c-.618-.528-1.24-1.054-1.855-1.585-.506-.433-1-.875-1.5-1.312a.379.379,0,0,0-.5-.062c-.138.083-.288.148-.425.231-.334.2-.461.174-.632-.185-.23-.471-.451-.947-.68-1.418q-.506-1.035-1-2.069c-.312-.643-.622-1.289-.935-1.934Q35.7,45.877,35.028,44.5c-.142-.291-.289-.578-.432-.867a.653.653,0,0,1-.1-.516c.02-.063-.037-.15-.059-.227l1.074-1.868c.061.045.142.08.177.14.083.149.143.311.219.464a.872.872,0,0,0,.183.3c.144.115.11.219.037.34-.03.051-.063.1-.094.147.291.61.573,1.212.861,1.811.322.672.651,1.342.976,2.015s.641,1.326.964,1.987c.536,1.1,1.077,2.19,1.61,3.286a1.25,1.25,0,0,0,.378.5Z"/>
          <path id="Path_32538" data-name="Path 32538" class="cls-18" d="M24.054,20.775a6.69,6.69,0,0,1-.858-1.231c-.46-.682-.885-1.39-1.33-2.084-.632-.982-1.264-1.959-1.883-2.946a1.854,1.854,0,0,1-.143-.45q1.418-.818,2.835-1.632c.126-.07.253-.126.379-.19a1.183,1.183,0,0,0,.073.282c.1.186.221.359.335.537q.56.878,1.12,1.753c.455.712.914,1.419,1.366,2.132a.24.24,0,0,0,.24.144q-.652,1.137-1.306,2.275C24.609,19.842,24.33,20.307,24.054,20.775Z"/>
          <path id="Path_32539" data-name="Path 32539" class="cls-19" d="M34.437,42.889c.023.077.08.164.059.227a.653.653,0,0,0,.1.516c.143.289.291.576.432.867l1.343,2.745c.313.645.623,1.29.935,1.934q.506,1.035,1,2.069c.229.471.45.947.68,1.418.176.359.3.389.632.185.136-.083.287-.148.425-.231a.379.379,0,0,1,.5.062c.5.437.995.878,1.5,1.312.615.531,1.237,1.057,1.855,1.585l-1.091.607c-.01-.016-.015-.039-.03-.052-.632-.538-1.275-1.072-1.9-1.615-.411-.355-.8-.741-1.216-1.083-.471-.379-.474-.339-.9-.09-.259.152-.533.277-.8.415-.225-.45-.452-.9-.674-1.35-.346-.706-.688-1.414-1.031-2.122-.3-.626-.6-1.251-.909-1.877q-.6-1.225-1.194-2.445c-.231-.47-.469-.936-.7-1.4Z"/>
          <path id="Path_32540" data-name="Path 32540" class="cls-20" d="M26.186,17.091a.24.24,0,0,1-.24-.144c-.452-.713-.911-1.421-1.366-2.132q-.561-.873-1.12-1.753c-.114-.178-.234-.351-.335-.537a1.183,1.183,0,0,1-.073-.282c.326-.193.651-.391.979-.581l1.877-1.082c.112-.063.236-.107.355-.159a3.783,3.783,0,0,0,.173.44c.106.192.236.372.355.556.407.632.816,1.264,1.216,1.9a.278.278,0,0,0,.27.147l-.029.059-.042.063c-.181.325-.358.652-.543.974Q26.927,15.826,26.186,17.091Z"/>
          <path id="Path_32541" data-name="Path 32541" class="cls-9" d="M38.749,58.545a1.007,1.007,0,0,1-.885-.353c-.389-.379-.815-.712-1.225-1.065-.2-.171-.392-.345-.589-.516-.281-.243-.557-.49-.845-.724a3.969,3.969,0,0,0-.4-.253c.094-.067.19-.126.279-.2.148-.115.369-.138.449-.344a.939.939,0,0,0,.227-.058c.392-.219.777-.445,1.165-.67l.607-.3c.177.147.355.291.53.44s.359.32.542.476l1.624,1.39c.312.265.632.527.94.79-.246.153-.489.312-.741.455C39.874,57.925,39.3,58.233,38.749,58.545Z"/>
          <path id="Path_32542" data-name="Path 32542" class="cls-21" d="M28.277,13.458a.278.278,0,0,1-.27-.147c-.4-.632-.809-1.264-1.216-1.9-.119-.185-.253-.364-.355-.556a3.783,3.783,0,0,1-.173-.44c.174-.115.342-.239.523-.342.739-.427,1.484-.845,2.224-1.264q1.373-.786,2.741-1.579a1.77,1.77,0,0,1,.166-.072c-.246.439-.49.878-.742,1.314q-1.365,2.363-2.739,4.73C28.391,13.3,28.331,13.375,28.277,13.458Z"/>
          <path id="Path_32543" data-name="Path 32543" class="cls-22" d="M42.148,37.652c-.083-.169-.171-.335-.253-.506-.345-.749-.693-1.5-1.031-2.25-.094-.21-.159-.432-.239-.648l4.216-2.421c.2-.115.4-.24.6-.35a3.1,3.1,0,0,1,.36-.143L44.451,33.7,42.682,36.76C42.51,37.059,42.328,37.354,42.148,37.652Z"/>
          <path id="Path_32544" data-name="Path 32544" class="cls-23" d="M34.5,26.793q-.591,1.039-1.185,2.076c-.013.023-.045.034-.07.052-.167-.071-.219-.231-.286-.379q-.272-.591-.533-1.184c-.221-.5-.432-1-.662-1.49-.209-.447-.436-.885-.656-1.326l.8-1.383.72-.367a1.362,1.362,0,0,0,.058.23c.214.478.435.952.648,1.429q.474,1.06.943,2.122C34.322,26.667,34.358,26.793,34.5,26.793Z"/>
          <path id="Path_32545" data-name="Path 32545" class="cls-16" d="M34.5,26.793c-.143,0-.179-.116-.224-.215q-.474-1.06-.943-2.122c-.214-.478-.435-.952-.648-1.429a1.362,1.362,0,0,1-.058-.23q.535-.313,1.068-.632c.253-.147.506-.3.758-.435a1.846,1.846,0,0,1,.281-.1c.1.225.206.451.307.677.235.522.466,1.045.7,1.567.054.12.118.239.276.253a1.245,1.245,0,0,1-.075.191l-1.011,1.749C34.8,26.305,34.646,26.54,34.5,26.793Z"/>
          <path id="Path_32546" data-name="Path 32546" class="cls-14" d="M41.173,57.151c-.313-.263-.632-.524-.94-.79q-.815-.69-1.624-1.39c-.183-.157-.36-.32-.542-.476s-.353-.293-.53-.44l.425-.3c.267-.138.541-.263.8-.415.423-.253.426-.294.9.09.42.342.805.728,1.216,1.083.632.543,1.27,1.077,1.9,1.615.015.013.02.035.03.052a4.216,4.216,0,0,1-.379.274C42.012,56.694,41.591,56.921,41.173,57.151Z"/>
          <path id="Path_32547" data-name="Path 32547" class="cls-22" d="M36.019,24.121c-.158-.009-.221-.126-.276-.253-.236-.522-.468-1.045-.7-1.567-.1-.226-.2-.452-.307-.677a5.015,5.015,0,0,1,.436-.315q1.7-.982,3.4-1.953c.1-.056.2-.1.3-.145-.145.263-.288.527-.439.787q-.962,1.671-1.929,3.339C36.354,23.607,36.185,23.862,36.019,24.121Z"/>
          <path id="Path_32548" data-name="Path 32548" class="cls-24" d="M44.866,55.029c-.214-.163-.431-.321-.639-.492s-.379-.332-.561-.5c-.431-.379-.863-.743-1.293-1.117-.167-.144-.337-.284-.49-.441a.744.744,0,0,1-.106-.243H44.2c-.028.183.11.276.22.372.372.322.751.632,1.126.953.183.155.365.313.54.48a.787.787,0,0,1,.115.2c-.227.142-.451.288-.681.423S45.088,54.911,44.866,55.029Z"/>
          <path id="Path_32549" data-name="Path 32549" class="cls-22" d="M46.205,54.247a.787.787,0,0,0-.115-.2c-.174-.167-.356-.325-.54-.48-.379-.318-.758-.632-1.126-.953-.11-.1-.253-.188-.22-.372.07,0,.14-.015.21-.015h5.091c.071,0,.142.009.211.014-.27.168-.538.341-.814.506-.833.482-1.668.957-2.5,1.433A1.428,1.428,0,0,1,46.205,54.247Z"/>
          <path id="Path_32550" data-name="Path 32550" class="cls-12" d="M20.263,43.328c.356-.632.71-1.256,1.07-1.882.185-.321.379-.632.569-.955.075.253.143.506.226.746.038.114.111.216.157.327.082.2.054.269-.126.4a3.476,3.476,0,0,0-.351.283c-.187.181-.2.3-.033.5s.359.407.541.608c.209.231.423.459.632.694.342.4.674.8,1.019,1.192.372.422.758.837,1.13,1.255.176.195.35.389.522.586q.584.67,1.165,1.342c.236.274.465.555.708.821a.341.341,0,0,1,.085.387.466.466,0,0,0,.044.4c.185.379.36.766.545,1.148q.506,1.035,1,2.068.9,1.835,1.8,3.665A.35.35,0,0,1,31.01,57c.058.262.188.437.489.417.013,0,.029.024.043.038-.3.181-.6.365-.9.542-.549.317-1.094.639-1.653.939-.47.253-.955.471-1.434.705-.136.067-.272.134-.411.193-.181.077-.221.066-.311-.11-.172-.331-.337-.666-.506-1-.291-.6-.578-1.2-.868-1.8q-.556-1.137-1.113-2.285c-.317-.653-.632-1.307-.949-1.96-.148-.306-.119-.392.158-.567.2-.126.387-.287.591-.413.564-.35,1.137-.685,1.7-1.038.449-.281.439-.35.075-.743-.4-.426-.768-.881-1.148-1.316-.158-.182-.317-.364-.478-.543-.522-.585-1.05-1.164-1.567-1.753s-1-1.156-1.5-1.734c-.283-.326-.573-.647-.851-.978a.984.984,0,0,1-.116-.265Z"/>
          <path id="Path_32551" data-name="Path 32551" class="cls-25" d="M31.536,57.455c-.014-.014-.03-.039-.043-.038-.3.02-.431-.155-.489-.417a.35.35,0,0,0-.039-.082q-.9-1.833-1.8-3.665-.506-1.031-1-2.068c-.185-.379-.36-.766-.545-1.148a.466.466,0,0,1-.044-.4.341.341,0,0,0-.085-.387c-.243-.267-.471-.547-.708-.821q-.581-.674-1.165-1.342c-.172-.2-.346-.392-.522-.586-.379-.418-.758-.833-1.13-1.255-.345-.393-.676-.8-1.019-1.192-.2-.235-.418-.463-.632-.694-.182-.2-.368-.4-.541-.608s-.154-.315.033-.5a3.475,3.475,0,0,1,.351-.283c.182-.134.21-.2.126-.4-.045-.111-.119-.214-.157-.327-.083-.245-.152-.5-.226-.746q.632-1.093,1.264-2.19c.155.015.173.155.22.253.272.591.531,1.188.806,1.776a1.038,1.038,0,0,1,.126.575l-.9.547-.667.426a1.8,1.8,0,0,0-.27.126c-.253.16-.267.253-.076.468.262.3.522.61.789.91.542.608,1.088,1.211,1.632,1.816q.253.281.5.566c.354.409.7.824,1.06,1.232.217.253.449.488.67.736.161.179.315.364.471.547.21.244.421.485.632.73a.4.4,0,0,0,.49.107c.253-.095.327-.07.45.176.1.2.178.406.274.6.3.632.6,1.252.907,1.878q.541,1.115,1.084,2.229c.286.589.562,1.183.857,1.769a2.493,2.493,0,0,0,.6.958Z"/>
          <path id="Path_32552" data-name="Path 32552" class="cls-13" d="M32.809,56.727a2.493,2.493,0,0,1-.6-.958c-.294-.584-.571-1.178-.857-1.769q-.542-1.117-1.084-2.229c-.3-.626-.608-1.251-.907-1.878-.1-.2-.176-.407-.274-.6-.126-.245-.192-.27-.45-.176a.4.4,0,0,1-.49-.107c-.206-.245-.417-.487-.632-.73-.157-.183-.311-.368-.471-.547-.221-.253-.452-.487-.67-.736-.358-.408-.706-.823-1.06-1.232q-.246-.286-.5-.566c-.543-.605-1.089-1.208-1.632-1.816-.267-.3-.527-.605-.789-.91-.191-.221-.179-.307.076-.468a1.805,1.805,0,0,1,.27-.126.967.967,0,0,0,.1.3c.23.291.474.57.72.848.379.421.758.835,1.13,1.254q.253.279.5.565c.36.417.715.839,1.081,1.252s.758.835,1.129,1.255c.167.187.325.379.49.57.23.265.464.527.693.794a.379.379,0,0,0,.465.1c.168-.067.331-.147.493-.227.028-.015.035-.067.053-.1l.545-.243a.574.574,0,0,1,.431.476.667.667,0,0,0,.059.139q.58,1.194,1.163,2.39c.26.535.514,1.07.775,1.605.445.914.894,1.826,1.337,2.743a.428.428,0,0,0,.358.283c-.148.1-.289.2-.442.289C33.491,56.367,33.148,56.542,32.809,56.727Z"/>
          <path id="Path_32553" data-name="Path 32553" class="cls-26" d="M34.265,55.879a.428.428,0,0,1-.358-.283c-.444-.916-.892-1.829-1.337-2.742-.26-.535-.514-1.07-.775-1.605q-.58-1.2-1.163-2.39a.667.667,0,0,1-.059-.139.574.574,0,0,0-.431-.476l.425-.3.848-.425a.428.428,0,0,1,.358.284q.367.78.743,1.555.6,1.225,1.2,2.445c.235.48.478.957.713,1.437q.406.829.8,1.661a.3.3,0,0,0,.31.195c-.08.206-.3.229-.449.344-.09.071-.186.134-.279.2Z"/>
          <path id="Path_32554" data-name="Path 32554" class="cls-27" d="M15.78,52.24c.291,0,.581-.014.871-.015h2.467c.1,0,.2.01.3.015a3.141,3.141,0,0,0,.253.466c.265.339.552.661.832.991-.246.152-.489.312-.741.455-.559.317-1.122.632-1.683.939a1.256,1.256,0,0,1-.489-.379c-.543-.7-1.112-1.371-1.675-2.051A.543.543,0,0,1,15.78,52.24Z"/>
          <path id="Path_32555" data-name="Path 32555" class="cls-18" d="M20.507,53.7c-.279-.33-.566-.652-.832-.991a3.14,3.14,0,0,1-.253-.466c.282,0,.564-.014.845-.015h2.453c.111,0,.221.009.331.015-.288.174-.573.356-.867.523C21.625,53.081,21.065,53.386,20.507,53.7Z"/>
          <path id="Path_32556" data-name="Path 32556" class="cls-27" d="M28.866,36.545q-.433.771-.871,1.543l-.632,1.125-.425.183c.018-.135.083-.253.013-.408-.262-.555-.506-1.121-.758-1.681q-.433-.964-.875-1.926c-.067-.144-.148-.281-.224-.42.226-.4.447-.805.677-1.2.3-.506.6-1.017.9-1.525a1.18,1.18,0,0,1,.185.225c.179.379.349.767.521,1.151.224.506.442,1.011.671,1.517.183.4.379.8.566,1.2C28.661,36.432,28.724,36.536,28.866,36.545Z"/>
          <path id="Path_32557" data-name="Path 32557" class="cls-28" d="M25.092,34.961c.076.139.157.276.224.42q.441.961.875,1.926c.253.56.493,1.126.758,1.681.071.153,0,.273-.013.408l-.729.483c-.2.1-.412.2-.609.308a2.8,2.8,0,0,0-.3.235l-.9.487h-.061a1.038,1.038,0,0,0-.126-.575c-.276-.588-.535-1.184-.806-1.776-.047-.1-.064-.243-.22-.253.035-.072.064-.147.1-.215q.842-1.464,1.687-2.927A1.034,1.034,0,0,1,25.092,34.961Z"/>
          <path id="Path_32558" data-name="Path 32558" class="cls-19" d="M28.866,36.545c-.142-.009-.2-.112-.253-.224-.19-.4-.379-.8-.566-1.2-.229-.506-.447-1.011-.671-1.517-.172-.379-.341-.771-.521-1.151a1.18,1.18,0,0,0-.188-.226c.322-.569.642-1.137.967-1.7.185-.321.379-.632.57-.954a1.728,1.728,0,0,0,.071.317c.193.441.4.878.6,1.317q.591,1.3,1.18,2.6c.056.126.126.2.272.187a1.155,1.155,0,0,1-.061.164q-.66,1.137-1.322,2.286a1.041,1.041,0,0,1-.073.1Z"/>
          <path id="Path_32559" data-name="Path 32559" class="cls-17" d="M30.32,34c-.147.018-.216-.066-.272-.187q-.588-1.3-1.18-2.6c-.2-.439-.4-.876-.6-1.317a1.728,1.728,0,0,1-.071-.317l1.221-2.121c.109.008.142.08.182.171.263.588.538,1.17.8,1.758.224.494.433,1,.661,1.489.157.336.334.664.506,1-.274.464-.551.928-.825,1.39C30.6,33.505,30.458,33.753,30.32,34Z"/>
          <path id="Path_32560" data-name="Path 32560" class="cls-29" d="M31.569,31.867c-.167-.332-.344-.66-.506-1-.227-.493-.437-.995-.661-1.489-.264-.588-.54-1.17-.8-1.758-.04-.091-.073-.163-.182-.171l.952-1.643a2.275,2.275,0,0,1,.161.253c.244.519.483,1.041.722,1.563.118.253.226.516.342.773.231.514.465,1.026.694,1.542a.253.253,0,0,0,.279.182Z"/>
          <path id="Path_32561" data-name="Path 32561" class="cls-24" d="M32.573,30.123a.253.253,0,0,1-.279-.182c-.229-.516-.463-1.027-.694-1.542-.116-.253-.225-.517-.342-.773-.239-.522-.478-1.044-.722-1.563a2.275,2.275,0,0,0-.161-.253l.027-.057.042-.063.666-1.153c.22.441.447.885.656,1.326.23.492.441.993.662,1.49q.264.594.533,1.184c.067.144.119.3.286.379Q32.909,29.518,32.573,30.123Z"/>
          <path id="Path_32562" data-name="Path 32562" class="cls-21" d="M28.206,13.581l.042-.063Z"/>
          <path id="Path_32563" data-name="Path 32563" class="cls-29" d="M30.443,25.692l-.042.063Z"/>
          <path id="Path_32564" data-name="Path 32564" class="cls-15" d="M21.84,24.605l.039-.056Z"/>
          <path id="Path_32565" data-name="Path 32565" class="cls-23" d="M38.448,35.939c.058.045.144.08.172.139q.715,1.551,1.417,3.106c.078.173.145.351.227.548-.145.111-.286.222-.43.33-.2.148-.222.235-.126.463.011.028.025.054.039.082l1.613,3.286q.512,1.046,1.019,2.1c.227.471.446.949.682,1.417a1.668,1.668,0,0,0,.244.294c-.195.325-.391.648-.583.973s-.373.642-.56.963c-.1-.2-.191-.4-.287-.594q-.489-1.011-.976-2.012c-.321-.661-.639-1.323-.962-1.983q-.748-1.536-1.5-3.066c-.083-.172-.172-.342-.253-.514-.126-.264-.126-.291.1-.483.1-.082.195-.159.294-.24a2.527,2.527,0,0,1-.2-.3c-.182-.379-.351-.768-.532-1.149-.2-.417-.406-.83-.608-1.245l.885-1.575C38.223,36.294,38.338,36.119,38.448,35.939Z"/>
          <path id="Path_32566" data-name="Path 32566" class="cls-27" d="M35.537,55.091a.3.3,0,0,1-.31-.195q-.4-.83-.8-1.661c-.235-.48-.478-.957-.713-1.437q-.6-1.221-1.2-2.445-.379-.775-.743-1.555a.428.428,0,0,0-.358-.284l.062-.12.469-.263c.2-.341.408-.684.614-1.024.077-.126.158-.253.236-.379.1.233.182.469.289.7.315.665.632,1.324.959,1.985s.648,1.342.977,2.012q.9,1.833,1.8,3.665c.043.09.073.186.11.278-.388.225-.773.451-1.165.67a.939.939,0,0,1-.227.057Z"/>
          <path id="Path_32567" data-name="Path 32567" class="cls-29" d="M40.821,52.015a1.25,1.25,0,0,1-.373-.5c-.533-1.1-1.074-2.191-1.61-3.286-.324-.661-.643-1.324-.964-1.987s-.653-1.342-.976-2.015c-.288-.6-.57-1.2-.861-1.811.03-.047.063-.1.094-.147.073-.126.107-.225-.037-.34a.872.872,0,0,1-.183-.3c-.076-.153-.135-.315-.219-.464-.035-.061-.116-.095-.177-.14l.909-1.576c.061.047.148.08.176.142q.367.792.709,1.6a.261.261,0,0,1,0,.216.469.469,0,0,0-.064.65c.043.08.076.166.115.246q.459.952.92,1.9.541,1.113,1.083,2.226.864,1.763,1.731,3.525c.035.072.056.152.092.222a3.032,3.032,0,0,0,.221.392c.039.054.126.069.2.1-.206.348-.415.694-.619,1.043A2.29,2.29,0,0,0,40.821,52.015Z"/>
          <path id="Path_32568" data-name="Path 32568" class="cls-24" d="M37.23,38.052c.2.415.409.828.608,1.245.181.379.35.768.532,1.149a2.528,2.528,0,0,0,.2.3c-.1.081-.2.158-.294.24-.224.192-.227.219-.1.483.085.172.173.342.253.514q.758,1.532,1.5,3.066c.322.66.641,1.322.962,1.983s.65,1.341.976,2.012c.1.2.191.4.287.594-.072.142-.144.282-.215.423l-.045.07-.024.053-.04.058-.13.241a.292.292,0,0,1-.3-.206c-.071-.155-.133-.315-.207-.469-.313-.653-.632-1.306-.947-1.958-.33-.679-.657-1.36-.99-2.037l-1.8-3.665a2.21,2.21,0,0,1-.116-.277c-.083-.253-.082-.253.157-.359.118-.051.216-.106.2-.281-.226-.021-.3-.21-.373-.379-.2-.45-.391-.9-.6-1.35-.042-.091-.144-.153-.219-.227Z"/>
          <path id="Path_32569" data-name="Path 32569" class="cls-30" d="M36.93,54.363c-.037-.092-.067-.188-.11-.278l-1.8-3.665c-.329-.67-.652-1.341-.977-2.012s-.645-1.321-.959-1.985c-.107-.226-.193-.463-.289-.7l.653-1.17c.235.468.473.934.7,1.4q.6,1.221,1.194,2.445c.3.626.605,1.251.909,1.877.344.708.685,1.415,1.031,2.122.221.451.449.9.674,1.35l-.426.3Z"/>
          <path id="Path_32570" data-name="Path 32570" class="cls-24" d="M31.946,47.132l-.469.262a1.154,1.154,0,0,1-.245-.159c-.27-.3-.528-.605-.794-.907q-.675-.77-1.355-1.538c-.445-.506-.885-1.011-1.335-1.517-.521-.586-1.045-1.168-1.568-1.753-.147-.164-.3-.327-.436-.506-.157-.195-.3-.4-.451-.6a2.8,2.8,0,0,1,.3-.235c.2-.112.406-.207.609-.308a1.622,1.622,0,0,0,.138.225q.618.717,1.244,1.427c.372.421.758.833,1.127,1.251.193.216.379.439.575.655.3.336.6.675.907,1a.7.7,0,0,0,.235.106q.614,1.049,1.226,2.1C31.751,46.806,31.848,46.967,31.946,47.132Z"/>
          <path id="Path_32571" data-name="Path 32571" class="cls-16" d="M30.429,44.545a.7.7,0,0,1-.235-.106c-.308-.327-.608-.666-.907-1-.195-.216-.379-.439-.575-.655-.379-.418-.758-.83-1.127-1.251q-.632-.709-1.244-1.427a1.623,1.623,0,0,1-.138-.225l.729-.483.425-.183c.723,1.247,1.451,2.494,2.17,3.743.22.379.415.78.632,1.167A4.1,4.1,0,0,0,30.429,44.545Z"/>
          <path id="Path_32572" data-name="Path 32572" class="cls-31" d="M36.512,39.273c.075.075.177.136.219.227.207.446.4.9.6,1.35.077.176.147.364.373.379.019.174-.08.23-.2.281-.239.106-.24.11-.157.359a2.211,2.211,0,0,0,.116.277l1.8,3.665c.332.677.66,1.359.99,2.037q.474.978.947,1.958c.075.154.136.313.207.469a.292.292,0,0,0,.3.206l-.11.182c-.067-.033-.157-.048-.2-.1a3.033,3.033,0,0,1-.221-.392c-.037-.071-.057-.15-.092-.222q-.864-1.769-1.731-3.525-.545-1.111-1.083-2.226-.463-.952-.92-1.9c-.039-.081-.072-.167-.115-.246a.467.467,0,0,1,.064-.65c.037-.034.03-.154,0-.216q-.345-.8-.709-1.6c-.028-.062-.115-.095-.176-.142C36.451,39.388,36.482,39.33,36.512,39.273Z"/>
          <path id="Path_32573" data-name="Path 32573" class="cls-7" d="M38.926,35.141l-.053.075Z"/>
          <path id="Path_32574" data-name="Path 32574" class="cls-31" d="M41.9,50.132l.045-.07Z"/>
          <path id="Path_32575" data-name="Path 32575" class="cls-31" d="M41.84,50.243l.04-.058Z"/>
          <path id="Path_32576" data-name="Path 32576" class="cls-15" d="M24.325,40.909h.067c.135.187.263.379.409.557.186.225.389.433.581.653.363.417.717.84,1.082,1.255s.758.837,1.137,1.256c.154.172.3.348.456.522.379.44.758.885,1.146,1.319.345.393.691.785,1.044,1.172a3.89,3.89,0,0,0,.331.3l-.425.3-.545.243a1.214,1.214,0,0,1-.284-.168c-.283-.3-.555-.609-.825-.919-.363-.416-.717-.84-1.082-1.254s-.758-.837-1.129-1.255c-.154-.172-.306-.346-.458-.521-.367-.426-.73-.854-1.1-1.276-.351-.4-.717-.787-1.062-1.194a2.375,2.375,0,0,1-.241-.444Z"/>
          <path id="Path_32577" data-name="Path 32577" class="cls-26" d="M23.416,41.453a2.375,2.375,0,0,0,.241.444c.345.407.71.795,1.062,1.194.37.422.734.851,1.1,1.276.152.174.3.349.458.521.379.418.758.833,1.129,1.255s.719.838,1.082,1.254c.27.31.542.619.825.919a1.214,1.214,0,0,0,.284.168c-.018.034-.025.086-.053.1-.162.081-.325.161-.493.227a.379.379,0,0,1-.465-.1c-.229-.267-.463-.528-.693-.794-.166-.19-.324-.379-.49-.57-.379-.42-.758-.833-1.129-1.255s-.72-.835-1.081-1.252q-.246-.287-.5-.565c-.379-.418-.758-.833-1.13-1.254-.246-.278-.49-.557-.72-.848a.967.967,0,0,1-.1-.3Z"/>
          <path id="Path_32578" data-name="Path 32578" class="cls-17" d="M30.567,47.939a3.89,3.89,0,0,1-.331-.3c-.353-.387-.7-.779-1.044-1.172-.379-.437-.758-.885-1.146-1.319-.152-.174-.3-.35-.456-.522-.379-.42-.758-.834-1.137-1.256s-.719-.838-1.082-1.255c-.192-.22-.4-.428-.581-.653-.147-.177-.274-.37-.409-.557l.907-.487c.149.2.294.406.451.6.139.172.289.335.436.506.523.585,1.048,1.167,1.568,1.753.447.506.885,1.011,1.335,1.517s.9,1.025,1.355,1.538c.265.3.523.61.794.907a1.154,1.154,0,0,0,.245.159l-.062.12Z"/>
        </g>
      </g>
    </g>
  </g>
</svg>
