<svg xmlns="http://www.w3.org/2000/svg" xmlns:xlink="http://www.w3.org/1999/xlink" width="64" height="64" viewBox="0 0 64 64">
  <defs>
    <style>
      .cls-1 {
        fill: #fff;
      }

      .cls-2 {
        clip-path: url(#clip-path);
      }

      .cls-3 {
        fill: #2e3148;
      }

      .cls-4, .cls-5, .cls-7 {
        fill: none;
      }

      .cls-4, .cls-5 {
        stroke: #fff;
      }

      .cls-4 {
        stroke-width: 0.96px;
      }

      .cls-5 {
        stroke-width: 0.96px;
      }

      .cls-6 {
        stroke: none;
      }
    </style>
    <clipPath id="clip-path">
      <circle id="Ellipse_2096" data-name="Ellipse 2096" class="cls-1" cx="32" cy="32" r="32" transform="translate(-22733 -23593)"/>
    </clipPath>
  </defs>
  <g id="Mask_Group_305" data-name="Mask Group 305" class="cls-2" transform="translate(22733 23593)">
    <g id="Group_962" data-name="Group 962" transform="translate(-9185.48 -8912.04)">
      <circle id="Ellipse_2085" data-name="Ellipse 2085" class="cls-3" cx="32" cy="32" r="32" transform="translate(-13547.52 -14680.96)"/>
      <g id="Ellipse_2086" data-name="Ellipse 2086" class="cls-4" transform="translate(-13521.28 -14672)">
        <ellipse class="cls-6" cx="5.76" cy="23.36" rx="5.76" ry="23.36"/>
        <ellipse class="cls-7" cx="5.76" cy="23.36" rx="5.28" ry="22.88"/>
      </g>
      <g id="Ellipse_2087" data-name="Ellipse 2087" class="cls-5" transform="matrix(0.5, 0.866, -0.866, 0.5, -13498.17, -14665.309)">
        <ellipse class="cls-6" cx="5.76" cy="23.36" rx="5.76" ry="23.36"/>
        <ellipse class="cls-7" cx="5.76" cy="23.36" rx="5.28" ry="22.88"/>
      </g>
      <g id="Ellipse_2088" data-name="Ellipse 2088" class="cls-5" transform="matrix(0.5, -0.866, 0.866, 0.5, -13538.631, -14655.332)">
        <ellipse class="cls-6" cx="5.76" cy="23.36" rx="5.76" ry="23.36"/>
        <ellipse class="cls-7" cx="5.76" cy="23.36" rx="5.28" ry="22.88"/>
      </g>
      <circle id="Ellipse_2089" data-name="Ellipse 2089" class="cls-1" cx="3.2" cy="3.2" r="3.2" transform="translate(-13518.72 -14652.16)"/>
      <circle id="Ellipse_2090" data-name="Ellipse 2090" class="cls-1" cx="2.56" cy="2.56" r="2.56" transform="translate(-13506.56 -14662.4)"/>
      <circle id="Ellipse_2091" data-name="Ellipse 2091" class="cls-1" cx="2.56" cy="2.56" r="2.56" transform="translate(-13534.08 -14656)"/>
      <circle id="Ellipse_2092" data-name="Ellipse 2092" class="cls-1" cx="2.56" cy="2.56" r="2.56" transform="translate(-13521.92 -14635.52)"/>
    </g>
  </g>
</svg>
