<svg xmlns="http://www.w3.org/2000/svg" xmlns:xlink="http://www.w3.org/1999/xlink" width="64" height="64" viewBox="0 0 64 64">
  <defs>
    <style>
      .cls-1 {
        fill: #fff;
      }

      .cls-2 {
        clip-path: url(#clip-path);
      }

      .cls-3 {
        fill: #e84142;
      }
    </style>
    <clipPath id="clip-path">
      <circle id="Ellipse_1807" data-name="Ellipse 1807" class="cls-1" cx="32" cy="32" r="32" transform="translate(-24465 -24032)"/>
    </clipPath>
  </defs>
  <g id="Mask_Group_336" data-name="Mask Group 336" class="cls-2" transform="translate(24465 24032)">
    <g id="avalanche-avax-logo" transform="translate(-24465 -24032)">
      <circle id="Ellipse_2157" data-name="Ellipse 2157" class="cls-3" cx="32" cy="32" r="32"/>
      <path id="Path_25515" data-name="Path 25515" class="cls-1" d="M43.288,32.831c1.109-1.915,2.9-1.915,4.006,0l6.9,12.12c1.109,1.915.2,3.477-2.016,3.477H38.274c-2.192,0-3.1-1.562-2.016-3.477ZM29.934,9.5c1.109-1.915,2.872-1.915,3.981,0l1.537,2.772,3.628,6.375a6.623,6.623,0,0,1,0,5.77L26.91,45.506a6.4,6.4,0,0,1-4.989,2.923h-10.1c-2.217,0-3.124-1.537-2.016-3.477Z"/>
    </g>
  </g>
</svg>
