<svg xmlns="http://www.w3.org/2000/svg" xmlns:xlink="http://www.w3.org/1999/xlink" width="64" height="64" viewBox="0 0 64 64">
  <defs>
    <style>
      .cls-1 {
        fill: #fff;
      }

      .cls-2 {
        clip-path: url(#clip-path);
      }

      .cls-3 {
        fill: #2d2d74;
      }

      .cls-4 {
        fill: #fdfefe;
      }

      .cls-5 {
        fill: #2c2c74;
      }

      .cls-6 {
        fill: #3d518a;
      }

      .cls-7 {
        fill: #252164;
      }
    </style>
    <clipPath id="clip-path">
      <circle id="Ellipse_2204" data-name="Ellipse 2204" class="cls-1" cx="32" cy="32" r="32" transform="translate(-23773 -24913)"/>
    </clipPath>
  </defs>
  <g id="Mask_Group_369" data-name="Mask Group 369" class="cls-2" transform="translate(23773 24913)">
    <g id="BLU" transform="translate(-23772.982 -24913)">
      <path id="Path_28294" data-name="Path 28294" class="cls-3" d="M109.839,3.745A32,32,0,1,1,77.863,35.531,31.966,31.966,0,0,1,109.839,3.745Zm-.014,61.29A29.268,29.268,0,1,0,80.577,35.712a29.27,29.27,0,0,0,29.248,29.323Z" transform="translate(-77.862 -3.745)"/>
      <path id="Path_28295" data-name="Path 28295" class="cls-4" d="M109.822,65.031A29.266,29.266,0,1,1,139.1,35.985,29.282,29.282,0,0,1,109.822,65.031Zm-7.768-36.387a1.466,1.466,0,0,0-.013.148q0,3.014,0,6.028c0,.068.006.135.011.233h7.835a8.546,8.546,0,0,1,3.156.6c.075.029.144.073.25.125a8.967,8.967,0,0,1-3.579.693q-4.214-.009-8.428,0h-.329a1.563,1.563,0,0,1-.021-.174c0-3.009-.028-6.019.014-9.027a8.237,8.237,0,0,1,2.231-5.6,8.682,8.682,0,0,1,8.908-2.724,8.927,8.927,0,0,1,6.646,7.989,10.006,10.006,0,0,1-.283,2.977,16.958,16.958,0,0,1,5,4.767c.053-.1.085-.163.115-.224a15.135,15.135,0,0,0,1.516-5A14.625,14.625,0,0,0,123.722,21a15.082,15.082,0,0,0-12.142-8.7,14.493,14.493,0,0,0-7.032.831A15.363,15.363,0,0,0,94.48,27.612q0,7.5,0,14.995v.321h15.371a15.022,15.022,0,0,0,7.041-1.721c.394-.206.782-.425,1.173-.638a8.871,8.871,0,0,1-5.2,11.775,8.421,8.421,0,0,1-7.043-.444,8.84,8.84,0,0,1-4.912-7.828H94.478a14.573,14.573,0,0,0,.469,3.668,15.42,15.42,0,0,0,14.249,11.583,14.917,14.917,0,0,0,5.761-.868,15.37,15.37,0,0,0,2.329-27.936,14.849,14.849,0,0,0-6.424-1.89c-.229-.014-.457-.04-.685-.041H102.3a1.142,1.142,0,0,0-.241.055Z" transform="translate(-77.862 -3.745)"/>
      <path id="Path_28296" data-name="Path 28296" class="cls-5" d="M110.861,28.63a14.848,14.848,0,0,1,6.424,1.89,15.376,15.376,0,0,1-2.329,27.937,15.308,15.308,0,0,1-13.91-1.907,15.23,15.23,0,0,1-6.1-8.816,14.567,14.567,0,0,1-.468-3.665h6.428a8.84,8.84,0,0,0,4.912,7.828,8.421,8.421,0,0,0,7.043.444,8.871,8.871,0,0,0,5.2-11.775c-.392.213-.779.432-1.173.638a15.022,15.022,0,0,1-7.041,1.721H94.482V27.608a15.362,15.362,0,0,1,10.067-14.474,14.493,14.493,0,0,1,7.036-.831A15.093,15.093,0,0,1,123.726,21a14.625,14.625,0,0,1,1.366,8.446,15.135,15.135,0,0,1-1.516,5c-.03.061-.063.125-.115.224a16.959,16.959,0,0,0-5-4.767,10.006,10.006,0,0,0,.283-2.977,8.92,8.92,0,0,0-6.646-7.989,8.682,8.682,0,0,0-8.908,2.724,8.237,8.237,0,0,0-2.238,5.6c-.041,3-.013,6.018-.014,9.027a1.565,1.565,0,0,0,.021.174h8.757a8.967,8.967,0,0,0,3.579-.7,2.72,2.72,0,0,0-.25-.125,8.546,8.546,0,0,0-3.156-.6q-3.752-.008-7.5,0h-.338c0-.1-.011-.165-.011-.233V28.79a1.466,1.466,0,0,1,.012-.148,3.3,3.3,0,0,0,.382.043H110C110.286,28.684,110.572,28.644,110.861,28.63Zm-9.975-1.654-.028-.013v9.39h.028Z" transform="translate(-77.862 -3.745)"/>
      <path id="Path_28297" data-name="Path 28297" class="cls-6" d="M110.861,28.63c-.288.019-.575.054-.862.054h-7.564a3.3,3.3,0,0,1-.382-.043,1.142,1.142,0,0,1,.25-.055h7.88C110.4,28.59,110.632,28.616,110.861,28.63Z" transform="translate(-77.862 -3.745)"/>
      <path id="Path_28298" data-name="Path 28298" class="cls-7" d="M100.886,26.976v9.381h-.028V26.964Z" transform="translate(-77.862 -3.745)"/>
    </g>
  </g>
</svg>
