<svg xmlns="http://www.w3.org/2000/svg" xmlns:xlink="http://www.w3.org/1999/xlink" width="64" height="64" viewBox="0 0 64 64">
  <defs>
    <style>
      .cls-1, .cls-6 {
        fill: #fff;
      }

      .cls-2 {
        clip-path: url(#clip-path);
      }

      .cls-3 {
        clip-path: url(#clip-path-2);
      }

      .cls-4 {
        fill: #103f68;
      }

      .cls-5, .cls-7 {
        fill: none;
      }

      .cls-5 {
        stroke: #fff;
        stroke-width: 2.125px;
      }

      .cls-5, .cls-6, .cls-7 {
        fill-rule: evenodd;
      }

      .cls-7 {
        stroke: #979797;
        stroke-width: 0.125px;
      }
    </style>
    <clipPath id="clip-path">
      <circle id="Ellipse_1807" data-name="Ellipse 1807" class="cls-1" cx="32" cy="32" r="32" transform="translate(-24123 -23674)"/>
    </clipPath>
    <clipPath id="clip-path-2">
      <circle id="Ellipse_2221" data-name="Ellipse 2221" class="cls-1" cx="32" cy="32" r="32" transform="translate(-24083 -9037)"/>
    </clipPath>
  </defs>
  <g id="Group_1000" data-name="Group 1000" transform="translate(24123 24234)">
    <g id="Group_720" data-name="Group 720" transform="translate(0 -560)">
      <g id="Mask_Group_11" data-name="Mask Group 11" class="cls-2">
        <g id="Mask_Group_471" data-name="Mask Group 471" class="cls-3" transform="translate(-40 -14637)">
          <g id="Page-1" transform="translate(-24083 -9037)">
            <circle id="Oval" class="cls-4" cx="32" cy="32" r="32"/>
            <path id="Polygon" class="cls-5" d="M32.188,11.164,50.232,21.582V42.418L32.188,52.836,14.143,42.418V21.582Z"/>
            <path id="Path" class="cls-6" d="M24.379,19.561l-1.686,7.632H41.121l-1.8-7.632Z"/>
            <path id="Path-2" class="cls-6" d="M22.626,29.8l-4.989,3.74,6.8,11.908h2.735l3.212-3.02v-1.5l-3.335-3.2v-5.1Z"/>
            <path id="Path-2-2" data-name="Path-2" class="cls-6" d="M38.372-29.745l-4.989-3.742,6.8-11.908h2.735l3.211,3.02v1.5l-3.335,3.2v5.1Z" transform="translate(79.513) rotate(180)"/>
            <path id="Path-3" class="cls-7"/>
            <path id="Path-4" class="cls-6" d="M27.068,28.362l1.623,4.257-.5,4.771,7.4-.024-.452-4.747,1.6-4.257Z"/>
          </g>
        </g>
      </g>
    </g>
  </g>
</svg>
