<svg xmlns="http://www.w3.org/2000/svg" xmlns:xlink="http://www.w3.org/1999/xlink" width="64" height="64" viewBox="0 0 64 64">
  <defs>
    <style>
      .cls-1 {
        fill: #fff;
      }

      .cls-2 {
        clip-path: url(#clip-path);
      }

      .cls-3, .cls-4 {
        fill: #43b446;
      }

      .cls-4 {
        opacity: 0.61;
      }
    </style>
    <clipPath id="clip-path">
      <circle id="Ellipse_2446" data-name="Ellipse 2446" class="cls-1" cx="32" cy="32" r="32" transform="translate(-22083 -24761)"/>
    </clipPath>
  </defs>
  <g id="Group_19971" data-name="Group 19971" transform="translate(22083 24761)">
    <circle id="Ellipse_1806" data-name="Ellipse 1806" class="cls-1" cx="32" cy="32" r="32" transform="translate(-22083 -24761)"/>
    <g id="Mask_Group_504" data-name="Mask Group 504" class="cls-2">
      <g id="layer1" transform="translate(-22163.178 -24785.246)">
        <g id="g829" transform="translate(58.829 64.744)">
          <path id="circle822" class="cls-3" d="M32.029.028a32,32,0,1,0,32,32,32,32,0,0,0-32-32Zm0,3.113A28.887,28.887,0,1,1,3.142,32.028,28.887,28.887,0,0,1,32.029,3.142Z" transform="translate(21.32 -40.527)"/>
          <g id="g830" transform="translate(5.19 -0.827)">
            <g id="g867" transform="translate(-873.529 -994.029)">
              <path id="path4846" class="cls-3" d="M918.547,996.7a10.454,10.454,0,0,1-8.483-7.023,8.139,8.139,0,0,1-.506-3.29,8.389,8.389,0,0,1,.5-3.334,10.453,10.453,0,0,1,8.849-7.064c.8-.082,4.776-.082,5.523,0a10.425,10.425,0,0,1,7.694,16.044,10.553,10.553,0,0,1-6.953,4.614,55.192,55.192,0,0,1-6.626.053Z"/>
              <g id="g4886" transform="translate(519.836 795.651)">
                <path id="path4882" class="cls-3" d="M399.322,169.971a20.633,20.633,0,0,0-20.533,18.008h5.464a15.291,15.291,0,0,1,15.07-12.6l2.824-.011-.022-5.4Zm-20.533,23.456a20.7,20.7,0,0,0,20.533,18.008l2.808-.011v-5.4h-2.808a15.3,15.3,0,0,1-15.07-12.6Z"/>
                <path id="path4884" class="cls-4" d="M402.016,169.971l-.011,5.4,2.356.011a15.291,15.291,0,0,1,15.069,12.6h5.459a20.7,20.7,0,0,0-20.528-18.008Zm17.415,23.456a15.3,15.3,0,0,1-15.07,12.6l-2.286-.011.022,5.41,2.264.011a20.633,20.633,0,0,0,20.528-18.008Z"/>
              </g>
            </g>
          </g>
        </g>
      </g>
    </g>
  </g>
</svg>
