<svg xmlns="http://www.w3.org/2000/svg" xmlns:xlink="http://www.w3.org/1999/xlink" width="64" height="64" viewBox="0 0 64 64">
  <defs>
    <style>
      .cls-1 {
        fill: #fff;
      }

      .cls-2 {
        clip-path: url(#clip-path);
      }

      .cls-3 {
        fill: url(#linear-gradient);
      }
    </style>
    <clipPath id="clip-path">
      <circle id="Ellipse_1806" data-name="Ellipse 1806" class="cls-1" cx="32" cy="32" r="32" transform="translate(-22411 -24761)"/>
    </clipPath>
    <linearGradient id="linear-gradient" y1="-28.715" x2="1" y2="-28.715" gradientUnits="objectBoundingBox">
      <stop offset="0" stop-color="#ff0003"/>
      <stop offset="0.231" stop-color="#fb1e20"/>
      <stop offset="0.514" stop-color="#ff0010"/>
      <stop offset="0.777" stop-color="#ff0003"/>
      <stop offset="1" stop-color="#ff4f51"/>
    </linearGradient>
  </defs>
  <g id="Mask_Group_485" data-name="Mask Group 485" class="cls-2" transform="translate(22411 24761)">
    <g id="DNA_Logo" data-name="DNA Logo" transform="translate(-22411 -24761)">
      <path id="Path_29602" data-name="Path 29602" class="cls-3" d="M64,32A32,32,0,1,1,32,0,32,32,0,0,1,64,32Zm0,0"/>
      <g id="Group_13055" data-name="Group 13055">
        <path id="Path_29603" data-name="Path 29603" class="cls-1" d="M39.7,34.341A1.875,1.875,0,0,0,37.682,37.5c4.58,2.933,9.261,6.993,9.261,14.875a1.875,1.875,0,0,0,3.75,0C50.693,42.628,44.82,37.618,39.7,34.341Zm0,0"/>
        <path id="Path_29604" data-name="Path 29604" class="cls-1" d="M41.61,46.639H18.038A14.5,14.5,0,0,1,19.976,43.1H35a1.875,1.875,0,0,0,0-3.75h-11.3a62.583,62.583,0,0,1,9.177-5.566c4.251-2.266,8.646-4.61,11.993-7.891a18.7,18.7,0,0,0,5.818-14.014,1.875,1.875,0,0,0-3.75,0,18.44,18.44,0,0,1-.115,2.072H22.39a1.875,1.875,0,0,0,0,3.75H45.93a14.538,14.538,0,0,1-1.969,3.544H29.254a1.875,1.875,0,0,0,0,3.75h10.93A57.752,57.752,0,0,1,32,30c-9.045-4.851-14.943-8.833-14.943-18.125a1.875,1.875,0,0,0-3.75,0,18.673,18.673,0,0,0,5.644,13.841,40.159,40.159,0,0,0,9.1,6.41,40.808,40.808,0,0,0-8.927,6.235,18.7,18.7,0,0,0-5.818,14.014,1.875,1.875,0,0,0,3.75,0,18.427,18.427,0,0,1,.105-1.986H41.61a1.875,1.875,0,0,0,0-3.75Zm0,0"/>
      </g>
    </g>
  </g>
</svg>
