<svg xmlns="http://www.w3.org/2000/svg" xmlns:xlink="http://www.w3.org/1999/xlink" width="64" height="64" viewBox="0 0 64 64">
  <defs>
    <style>
      .cls-1 {
        fill: #fff;
      }

      .cls-2 {
        clip-path: url(#clip-path);
      }

      .cls-3 {
        fill: #b78b3a;
      }

      .cls-4 {
        fill: #c09353;
      }

      .cls-5 {
        fill: #d7bc45;
      }

      .cls-6 {
        fill: #c49b59;
      }

      .cls-7 {
        fill: #e4d267;
      }

      .cls-8 {
        fill: #c8a652;
      }

      .cls-9 {
        fill: #d4b863;
      }

      .cls-10 {
        fill: #cca662;
      }

      .cls-11 {
        fill: #f7f1a1;
      }

      .cls-12 {
        fill: #ecdf7b;
      }

      .cls-13 {
        fill: #ddc37a;
      }

      .cls-14 {
        fill: #f1e795;
      }

      .cls-15 {
        fill: #c09a47;
      }

      .cls-16 {
        fill: #ddc553;
      }

      .cls-17 {
        fill: #d7b971;
      }

      .cls-18 {
        fill: #efe487;
      }

      .cls-19 {
        fill: #e7d583;
      }

      .cls-20 {
        fill: #3e3c36;
      }

      .cls-21 {
        fill: #272520;
      }

      .cls-22 {
        fill: #302e29;
      }

      .cls-23 {
        fill: #9f6c29;
      }

      .cls-24 {
        fill: #4f371f;
      }

      .cls-25 {
        fill: #f0b66d;
      }

      .cls-26 {
        fill: #835a27;
      }

      .cls-27 {
        fill: #714e26;
      }

      .cls-28 {
        fill: #5f4223;
      }

      .cls-29 {
        fill: #fada59;
      }

      .cls-30 {
        fill: #f3f2f1;
      }
    </style>
    <clipPath id="clip-path">
      <circle id="Ellipse_1807" data-name="Ellipse 1807" class="cls-1" cx="32" cy="32" r="32" transform="translate(-23895 -24032)"/>
    </clipPath>
  </defs>
  <g id="Group_13546" data-name="Group 13546" transform="translate(23895 24032)">
    <g id="Mask_Group_589" data-name="Mask Group 589" class="cls-2">
      <g id="b" transform="translate(-23895 -24031.998)">
        <g id="c">
          <g id="Group_13545" data-name="Group 13545">
            <path id="Path_32768" data-name="Path 32768" class="cls-3" d="M56.905,52.062a30.7,30.7,0,0,1-7.234,6.681,29.782,29.782,0,0,1-9.185,4.139c-1.659.432-3.378.631-5.071.935.174-.268.351-.534.525-.8a31.666,31.666,0,0,0,8.433-2.332,32.2,32.2,0,0,0,11.479-8.5l1.053-.125Z"/>
            <path id="Path_32769" data-name="Path 32769" class="cls-4" d="M7.185,11.838a31.053,31.053,0,0,1,14.1-10A29.068,29.068,0,0,1,28.025.266c-.088.252-.174.506-.262.757-.169.042-.338.1-.509.127a29.1,29.1,0,0,0-11.2,4.042,58.973,58.973,0,0,0-5.714,4.269,20.839,20.839,0,0,0-2.1,2.244Z"/>
            <path id="Path_32770" data-name="Path 32770" class="cls-5" d="M56.791,11.829a26.926,26.926,0,0,1,4.326,7l-.664.284c-.373-.712-.7-1.455-1.129-2.129-1.007-1.585-2.066-3.139-3.1-4.706l.571-.447Z"/>
            <path id="Path_32771" data-name="Path 32771" class="cls-5" d="M5.649,50.2a26.039,26.039,0,0,1-3.322-6.193l.715-.157q1.617,2.975,3.236,5.95Z"/>
            <path id="Path_32772" data-name="Path 32772" class="cls-6" d="M7.185,11.838l1.053-.132L5.228,15.8l-.807-.012Q5.8,13.813,7.183,11.838Z"/>
            <path id="Path_32773" data-name="Path 32773" class="cls-7" d="M11.014,56.16q-1.723-1.749-3.445-3.5c.139-.2.28-.405.419-.609q1.8,1.839,3.595,3.678l-.569.428Z"/>
            <path id="Path_32774" data-name="Path 32774" class="cls-7" d="M62.077,21.189q.65,2.444,1.3,4.886l-.662.134q-.671-2.436-1.344-4.87l.708-.15Z"/>
            <path id="Path_32775" data-name="Path 32775" class="cls-8" d="M61.131,45.2q-1.152,2.116-2.3,4.232l-.979.118q1.218-2.119,2.438-4.24Z"/>
            <path id="Path_32776" data-name="Path 32776" class="cls-9" d="M30,63.923l-4.817-.632.733-.571,4.349.539c-.088.222-.176.442-.266.664Z"/>
            <path id="Path_32777" data-name="Path 32777" class="cls-7" d="M1.587,42.045Q1.043,39.865.5,37.686l.742-.132q.5,2.048,1,4.1l-.653.4Z"/>
            <path id="Path_32778" data-name="Path 32778" class="cls-6" d="M27.764,1.023c.088-.252.174-.506.262-.757L32.113,0l-.659.749Z"/>
            <path id="Path_32779" data-name="Path 32779" class="cls-10" d="M31.454.749c.218-.25.439-.5.657-.749l3.56.252L35.41.9,31.454.749Z"/>
            <path id="Path_32780" data-name="Path 32780" class="cls-11" d="M43.192,2.077q1.651.719,3.3,1.441c-.139.192-.277.382-.416.572L42.649,2.617l.541-.541Z"/>
            <path id="Path_32781" data-name="Path 32781" class="cls-11" d="M19.856,61.659q-1.588-.769-3.177-1.536l.43-.565,3.14,1.458-.393.645Z"/>
            <path id="Path_32782" data-name="Path 32782" class="cls-12" d="M1.238,37.554.5,37.686q-.2-1.781-.405-3.56l.676-.148Q1,35.767,1.238,37.554Z"/>
            <path id="Path_32783" data-name="Path 32783" class="cls-13" d="M1.118,23.686q.531-1.643,1.062-3.285l.78.009q-.579,1.649-1.159,3.3l-.683-.023Z"/>
            <path id="Path_32784" data-name="Path 32784" class="cls-11" d="M0,30.7q.177-1.717.352-3.435c.252-.044.5-.088.754-.134l-.38,3.433L0,30.7Z"/>
            <path id="Path_32785" data-name="Path 32785" class="cls-11" d="M64,32.8q-.153,1.723-.308,3.445c-.241.039-.481.077-.72.118l.275-3.431Z"/>
            <path id="Path_32786" data-name="Path 32786" class="cls-14" d="M0,30.7l.726-.134.042,3.413-.676.148Q.047,32.411,0,30.7Z"/>
            <path id="Path_32787" data-name="Path 32787" class="cls-15" d="M57.848,49.55l.979-.118-1.922,2.631-1.053.125,2-2.637Z"/>
            <path id="Path_32788" data-name="Path 32788" class="cls-16" d="M56.791,11.829l-.571.447L54.048,9.9,54.79,9.6l2,2.228Z"/>
            <path id="Path_32789" data-name="Path 32789" class="cls-7" d="M54.788,9.6l-.742.294-2-1.879.384-.565Q53.608,8.526,54.788,9.6Z"/>
            <path id="Path_32790" data-name="Path 32790" class="cls-8" d="M30,63.923l.266-.664,3.033.005-.269.731Z"/>
            <path id="Path_32791" data-name="Path 32791" class="cls-16" d="M7.988,52.055c-.139.2-.28.405-.419.609L5.65,50.2l.629-.4q.856,1.125,1.71,2.253Z"/>
            <path id="Path_32792" data-name="Path 32792" class="cls-17" d="M35.41.9l.261-.646L38.6.715q-.291.3-.583.6-1.3-.206-2.605-.414Z"/>
            <path id="Path_32793" data-name="Path 32793" class="cls-10" d="M4.423,15.787l.807.012q-.674,1.25-1.346,2.5L3.1,18.281q.663-1.247,1.328-2.494Z"/>
            <path id="Path_32794" data-name="Path 32794" class="cls-12" d="M62.712,26.209l.662-.134q.2,1.387.389,2.772l-.657.132q-.2-1.384-.395-2.769Z"/>
            <path id="Path_32795" data-name="Path 32795" class="cls-12" d="M52.432,7.452c-.129.188-.255.377-.382.564l-2.131-1.59.53-.52q.993.771,1.985,1.545Z"/>
            <path id="Path_32796" data-name="Path 32796" class="cls-16" d="M62.077,21.189l-.708.15-.914-2.228.664-.284q.478,1.181.958,2.36Z"/>
            <path id="Path_32797" data-name="Path 32797" class="cls-12" d="M11.014,56.16l.569-.428,1.985,1.578-.6.428L11.014,56.16Z"/>
            <path id="Path_32798" data-name="Path 32798" class="cls-9" d="M61.131,45.2l-.844.111q.489-1.176.978-2.353l.847-.13q-.491,1.186-.981,2.371Z"/>
            <path id="Path_32799" data-name="Path 32799" class="cls-14" d="M43.192,2.077l-.541.541-2.381-.782.551-.551Z"/>
            <path id="Path_32800" data-name="Path 32800" class="cls-14" d="M62.97,36.365c.24-.039.481-.077.72-.118q-.222,1.247-.447,2.494l-.782.132Q62.714,37.618,62.97,36.365Z"/>
            <path id="Path_32801" data-name="Path 32801" class="cls-18" d="M50.445,5.906l-.53.52L47.762,5l.6-.43,2.087,1.337Z"/>
            <path id="Path_32802" data-name="Path 32802" class="cls-18" d="M12.97,57.738l.6-.428,1.966,1.325-.43.562L12.97,57.738Z"/>
            <path id="Path_32803" data-name="Path 32803" class="cls-15" d="M33.032,63.995l.269-.731q1.318-.124,2.638-.247c-.174.268-.351.534-.525.8Z"/>
            <path id="Path_32804" data-name="Path 32804" class="cls-14" d="M19.856,61.659l.393-.645,2.112.763c-.132.22-.262.442-.395.662l-2.112-.782Z"/>
            <path id="Path_32805" data-name="Path 32805" class="cls-17" d="M3.095,18.281c.262.005.525.011.787.018q-.462,1.054-.923,2.11l-.78-.009q.457-1.059.916-2.119Z"/>
            <path id="Path_32806" data-name="Path 32806" class="cls-13" d="M40.823,1.284l-.551.551-2.256-.523q.291-.3.583-.6,1.112.283,2.225.569Z"/>
            <path id="Path_32807" data-name="Path 32807" class="cls-19" d="M62.462,38.873l.782-.132q-.254,1.059-.509,2.117l-.8.123q.264-1.054.53-2.108Z"/>
            <path id="Path_32808" data-name="Path 32808" class="cls-16" d="M1.587,42.045l.653-.4.8,2.2-.715.157-.74-1.964Z"/>
            <path id="Path_32809" data-name="Path 32809" class="cls-13" d="M61.932,40.981l.8-.123q-.312.985-.625,1.971c-.282.044-.565.088-.847.13q.333-.988.668-1.978Z"/>
            <path id="Path_32810" data-name="Path 32810" class="cls-18" d="M63.107,28.979l.657-.132q.1,1.052.2,2.1l-.727.137Z"/>
            <path id="Path_32811" data-name="Path 32811" class="cls-19" d="M21.967,62.441c.132-.22.262-.442.395-.662l1.846.544c-.088.224-.178.446-.266.669l-1.974-.55Z"/>
            <path id="Path_32812" data-name="Path 32812" class="cls-14" d="M48.359,4.569c-.2.143-.4.287-.6.43L46.078,4.09c.139-.19.277-.382.416-.574q.933.526,1.865,1.053Z"/>
            <path id="Path_32813" data-name="Path 32813" class="cls-14" d="M63.239,31.088l.727-.137q.016.925.032,1.851l-.754.132q0-.922-.007-1.844Z"/>
            <path id="Path_32814" data-name="Path 32814" class="cls-14" d="M15.1,59.2l.428-.562q.79.462,1.578.923l-.43.565L15.1,59.2Z"/>
            <path id="Path_32815" data-name="Path 32815" class="cls-19" d="M1.118,23.686c.227.007.456.014.683.023q-.209.856-.416,1.71l-.757.13.49-1.862Z"/>
            <path id="Path_32816" data-name="Path 32816" class="cls-14" d="M.629,25.548l.757-.13-.28,1.712c-.252.044-.5.088-.754.134.092-.572.185-1.145.277-1.716Z"/>
            <path id="Path_32817" data-name="Path 32817" class="cls-13" d="M23.942,62.993c.088-.224.178-.446.266-.669l1.712.4-.733.571-1.245-.3Z"/>
            <path id="Path_32818" data-name="Path 32818" class="cls-3" d="M56.375,49.548c-1.217,1.42-2.332,2.943-3.671,4.238a28.946,28.946,0,0,1-15.8,7.9c-.666.109-1.342.159-2.013.236a2.963,2.963,0,0,1,.484-.479c.606-.373,1.244-.694,1.841-1.08a3.087,3.087,0,0,0,.555-.627,27.09,27.09,0,0,0,10.927-4.893c1.546-1.171,2.922-2.57,4.373-3.866.46-.166.932-.3,1.377-.5.653-.287,1.288-.616,1.929-.928Z"/>
            <path id="Path_32819" data-name="Path 32819" class="cls-4" d="M7.975,13.948c.528-.664,1.023-1.36,1.59-1.989A29.822,29.822,0,0,1,24.8,2.8c1.1-.273,2.233-.384,3.352-.571-.1.132-.166.3-.294.387-.453.3-.942.537-1.388.844-.465.319-.9.685-1.344,1.03A1.525,1.525,0,0,1,24.9,4.6a28.806,28.806,0,0,0-8.271,3.6,30.553,30.553,0,0,0-5.194,4.342,1.577,1.577,0,0,0-.62.014c-.548.268-1.059.609-1.6.884-.4.2-.823.343-1.236.511Z"/>
            <path id="Path_32820" data-name="Path 32820" class="cls-5" d="M7.185,49.025a23.958,23.958,0,0,1-2.922-5.4q.75-.486,1.5-.97l2.945,5.45-1.525.921Z"/>
            <path id="Path_32821" data-name="Path 32821" class="cls-5" d="M55.88,13.8q1.522,2.444,3.045,4.886l-1.5.8a.487.487,0,0,0-.113-.019l-.132-.262-.132-.264c-.046-.086-.09-.174-.136-.261s-.1-.169-.144-.254c-.127-.224-.255-.447-.382-.673l-.395-.661c-.086-.132-.173-.266-.261-.4l-.8-1.175-.391-.53c-.055-.125-.107-.252-.162-.377l1.5-.819Z"/>
            <path id="Path_32822" data-name="Path 32822" class="cls-10" d="M30.926,1.974l4.745.254c-.2.206-.4.41-.6.62-.3.326-.962.271-.983.905l-5.548.127c.336-.3.657-.624,1.011-.9.444-.352.912-.671,1.37-1Z"/>
            <path id="Path_32823" data-name="Path 32823" class="cls-9" d="M30.4,62.047q-2.225-.3-4.449-.594c.426-.259.868-.5,1.273-.787a3.609,3.609,0,0,0,.535-.594l4.745.22a3.273,3.273,0,0,1-.461.551c-.534.417-1.092.8-1.642,1.2Z"/>
            <path id="Path_32824" data-name="Path 32824" class="cls-7" d="M59.97,21.06q.637,2.114,1.275,4.229l-1.638.657a1.9,1.9,0,0,1-.185-.363c-.284-1.02-.558-2.041-.837-3.061.005-.079.012-.16.018-.24l-.085-.151-.032-.139,1.483-.932Z"/>
            <path id="Path_32825" data-name="Path 32825" class="cls-7" d="M50.98,8.771q1.643,1.535,3.288,3.068l-1.608.807c-.042,0-.086-.007-.129-.012l-.116-.116L52.4,12.5l-.116-.116-.016-.016-.111-.136h0l-.129-.134h0l-.13-.137-.539-.516-1.044-.923-.005-.005-.652-.53h0l-.146-.25,1.472-.969Z"/>
            <path id="Path_32826" data-name="Path 32826" class="cls-17" d="M3.521,22.387l1.527-3.7a7.016,7.016,0,0,0,.722-.192c.592-.224,1.177-.469,1.763-.7-.16.342-.321.685-.483,1.027l-.132.264c-.044.088-.088.174-.134.262s-.088.176-.132.262l-.132.264-.125.268-.116.275c-.093.215-.188.43-.282.646-.039.092-.076.185-.114.277l-.143.127a5.09,5.09,0,0,0-.793.211c-.486.215-.955.472-1.43.712Z"/>
            <path id="Path_32827" data-name="Path 32827" class="cls-9" d="M60.354,41.93q-.705,1.7-1.409,3.41c-.6.285-1.194.585-1.8.845a2.183,2.183,0,0,1-.634.07l1.844-3.827c.419.352.638-.122.946-.231.343-.123.59-.629,1.057-.266Z"/>
            <path id="Path_32828" data-name="Path 32828" class="cls-7" d="M11.273,53.772Q9.938,52.329,8.6,50.887q.8-.4,1.59-.807l2.563,2.707-1.485.985Z"/>
            <path id="Path_32829" data-name="Path 32829" class="cls-11" d="M1.943,30.565q.18-1.585.361-3.17c.215-.1.432-.19.646-.289.449-.21.9-.421,1.344-.631l-.014.139-.093.432q-.129,1.366-.261,2.73L3.873,34l-.116-1.98V29.839c-.349.148-.576.25-.808.342-.335.132-.671.257-1.006.386Z"/>
            <path id="Path_32830" data-name="Path 32830" class="cls-16" d="M5.765,42.654q-.75.486-1.5.97L3.116,40.319l1.59-.821,1.057,3.156Z"/>
            <path id="Path_32831" data-name="Path 32831" class="cls-11" d="M42.538,3.917l3.3,1.451q-.8.536-1.6,1.071l-3.2-1.3c.275-.224.548-.449.823-.673.225-.183.453-.365.678-.546Z"/>
            <path id="Path_32832" data-name="Path 32832" class="cls-12" d="M59.609,25.945l1.638-.657.539,3.165-1.666.661Q59.863,27.528,59.609,25.945Z"/>
            <path id="Path_32833" data-name="Path 32833" class="cls-11" d="M20.086,59.581l-2.737-1.333,1.7-1.048L21.7,58.4l-1.612,1.18Z"/>
            <path id="Path_32834" data-name="Path 32834" class="cls-10" d="M7.533,17.791c-.587.236-1.171.481-1.763.7a7.137,7.137,0,0,1-.722.192q.74-1.321,1.481-2.642a7.063,7.063,0,0,0,.969-.234c.634-.247,1.251-.537,1.874-.81q-.486.8-.97,1.592l-.012.012-.247.386-.016.016c-.13.213-.259.426-.389.641l-.009.011-.2.134Z"/>
            <path id="Path_32835" data-name="Path 32835" class="cls-6" d="M9.372,15c-.624.273-1.242.564-1.876.81a7.063,7.063,0,0,1-.969.234l1.448-2.1c.414-.167.84-.31,1.236-.511.544-.275,1.055-.616,1.6-.884a1.544,1.544,0,0,1,.62-.014c-.18.254-.359.506-.541.759l-.662.787-.53.655L9.372,15Z"/>
            <path id="Path_32836" data-name="Path 32836" class="cls-11" d="M62.027,32.537q-.114,1.522-.225,3.042c-.387.176-.784.335-1.157.535s-.572.134-.6-.308l-.062-.215q.114-1.131.229-2.26c.176-.067.358-.127.53-.2.43-.192.854-.393,1.282-.59Z"/>
            <path id="Path_32837" data-name="Path 32837" class="cls-12" d="M2.572,38.082q-.211-1.361-.421-2.721l1.728-.976.354,2.885-1.659.812Z"/>
            <path id="Path_32838" data-name="Path 32838" class="cls-6" d="M30.926,1.974c-.458.333-.928.652-1.37,1-.354.28-.675.6-1.011.9l-3.412.611c.447-.345.879-.713,1.344-1.03.446-.3.935-.548,1.388-.844.129-.083.2-.257.294-.387l2.767-.255Z"/>
            <path id="Path_32839" data-name="Path 32839" class="cls-12" d="M11.273,53.772l1.485-.985,2.255,1.886-1.627.942-2.112-1.844Z"/>
            <path id="Path_32840" data-name="Path 32840" class="cls-8" d="M30.4,62.047c.55-.4,1.108-.786,1.642-1.2a3.273,3.273,0,0,0,.461-.551l2.9-.132c-.25.236-.484.491-.754.7-.528.41-1.076.794-1.615,1.189-.879,0-1.758,0-2.635,0Z"/>
            <path id="Path_32841" data-name="Path 32841" class="cls-8" d="M56.507,46.256a2.253,2.253,0,0,0,.634-.07c.611-.261,1.2-.56,1.8-.845l-1.252,2.232c-.509.222-1.018.439-1.525.666-.469.21-.934.43-1.4.645l1.738-2.626Z"/>
            <path id="Path_32842" data-name="Path 32842" class="cls-15" d="M54.769,48.881c.467-.215.93-.435,1.4-.645.506-.227,1.016-.444,1.525-.666q-.658.988-1.317,1.976c-.643.312-1.277.639-1.929.928-.446.2-.918.336-1.377.5q.851-1.049,1.7-2.1Z"/>
            <path id="Path_32843" data-name="Path 32843" class="cls-16" d="M59.97,21.06l-1.483.932a.4.4,0,0,0-.114-.055.056.056,0,0,0-.035-.072c-.035-.1-.07-.2-.1-.3a.089.089,0,0,0-.041-.1l-.106-.262,0,0-.118-.273,0,0-.277-.648,0,0-.122-.269h0l-.134-.264h0l-.011-.254,1.5-.8,1.046,2.373Z"/>
            <path id="Path_32844" data-name="Path 32844" class="cls-16" d="M52.661,12.646l1.608-.807L55.88,13.8l-1.5.819c-.081-.048-.16-.1-.241-.141l0,0c-.218-.261-.437-.523-.657-.784l-.005-.005-.793-.9-.018-.134Z"/>
            <path id="Path_32845" data-name="Path 32845" class="cls-19" d="M2.566,25.948l.56-2.373c.426-.187.845-.389,1.28-.553a6.6,6.6,0,0,1,.833-.2c0,.12-.009.241-.012.361l-.005.011-.093.25-.037.151-.113.379c-.125.354-.248.708-.373,1.062-.22.079-.449.141-.661.24-.465.217-.921.449-1.381.676Z"/>
            <path id="Path_32846" data-name="Path 32846" class="cls-18" d="M13.384,55.616l1.627-.942,2.114,1.448-1.761.946Z"/>
            <path id="Path_32847" data-name="Path 32847" class="cls-18" d="M3.877,34.385l-1.728.976q-.1-1.276-.208-2.554.906-.394,1.812-.789L3.87,34l.005.387Z"/>
            <path id="Path_32848" data-name="Path 32848" class="cls-19" d="M61.374,38.209,60.766,40.6c-.338.122-.678.238-1.013.368s-.668.273-1,.41l.777-2.654c.1.465.349.155.52.085.447-.183.884-.395,1.326-.6Z"/>
            <path id="Path_32849" data-name="Path 32849" class="cls-7" d="M2.572,38.082l1.659-.812q.238,1.115.477,2.228l-1.59.821L2.573,38.08Z"/>
            <path id="Path_32850" data-name="Path 32850" class="cls-18" d="M60.118,29.113l1.666-.661q.119,1.054.236,2.107l-1.8.926-.1-2.373Z"/>
            <path id="Path_32851" data-name="Path 32851" class="cls-16" d="M10.195,50.08l-1.59.807q-.711-.93-1.42-1.862L8.71,48.1q.742.988,1.485,1.974Z"/>
            <path id="Path_32852" data-name="Path 32852" class="cls-14" d="M15.364,57.067l1.761-.946,1.92,1.078-1.7,1.048-1.985-1.18Z"/>
            <path id="Path_32853" data-name="Path 32853" class="cls-14" d="M3.755,32.018q-.906.394-1.812.789v-2.24c.335-.129.673-.254,1.006-.386.231-.092.458-.194.808-.342v2.181Z"/>
            <path id="Path_32854" data-name="Path 32854" class="cls-15" d="M33.039,62.052c.539-.395,1.087-.779,1.615-1.189.269-.21.5-.467.754-.7l2.358-.424a3.087,3.087,0,0,1-.555.627c-.6.386-1.235.706-1.841,1.08a2.963,2.963,0,0,0-.484.479Z"/>
            <path id="Path_32855" data-name="Path 32855" class="cls-14" d="M44.236,6.439l1.6-1.071q.927.513,1.855,1.029l-1.649.99-1.8-.946Z"/>
            <path id="Path_32856" data-name="Path 32856" class="cls-12" d="M50.98,8.771l-1.472.969L49,9.464h0L48.072,8.8h0l-.146-.227c.171-.153.336-.312.514-.458.273-.225.551-.444.828-.666q.856.661,1.714,1.319Z"/>
            <path id="Path_32857" data-name="Path 32857" class="cls-18" d="M49.266,7.452c-.277.222-.555.439-.828.666-.176.146-.343.3-.514.458L46.038,7.385q.824-.494,1.649-.99l1.58,1.057Z"/>
            <path id="Path_32858" data-name="Path 32858" class="cls-14" d="M60.218,31.486l1.8-.926c0,.659.005,1.319.007,1.978-.426.2-.852.4-1.282.59-.173.077-.352.136-.53.2l-.042-.791.044-1.055Z"/>
            <path id="Path_32859" data-name="Path 32859" class="cls-17" d="M34.092,3.753c.019-.636.678-.579.983-.905.2-.21.4-.414.6-.62l2.193.342c-.28.164-.576.306-.838.495-.375.269-.727.572-1.089.861l-1.844-.171Z"/>
            <path id="Path_32860" data-name="Path 32860" class="cls-18" d="M22.957,60.645l-1.545-.516c.354-.273.717-.534,1.057-.823a3.658,3.658,0,0,0,.416-.495l1.714.55a1.969,1.969,0,0,1-.366.484c-.409.289-.849.535-1.277.8Z"/>
            <path id="Path_32861" data-name="Path 32861" class="cls-19" d="M22.957,60.645c.428-.264.867-.509,1.277-.8a2.014,2.014,0,0,0,.366-.484q.941.227,1.879.456-.351.275-.7.548l-1.06.821-1.756-.541Z"/>
            <path id="Path_32862" data-name="Path 32862" class="cls-19" d="M39.234,2.88l1.707.424c-.31.255-.629.5-.928.77-.2.178-.365.387-.544.583l-1.819-.449c.213-.2.419-.405.643-.592C38.6,3.362,38.919,3.125,39.234,2.88Z"/>
            <path id="Path_32863" data-name="Path 32863" class="cls-14" d="M39.468,4.655c.18-.2.347-.405.544-.583.3-.269.618-.514.928-.77q.8.306,1.6.615l-.678.546q-.412.336-.823.673Z"/>
            <path id="Path_32864" data-name="Path 32864" class="cls-13" d="M39.234,2.88c-.315.245-.636.483-.942.736-.224.185-.43.393-.643.592l-1.712-.282c.361-.289.713-.592,1.089-.861.262-.188.557-.331.838-.495l1.37.31Z"/>
            <path id="Path_32865" data-name="Path 32865" class="cls-14" d="M2.566,25.948c.46-.227.916-.46,1.381-.676.211-.1.439-.16.659-.24-.1.481-.21.962-.314,1.443-.447.211-.895.423-1.344.631-.213.1-.432.194-.646.289q.132-.724.264-1.446Z"/>
            <path id="Path_32866" data-name="Path 32866" class="cls-13" d="M24.713,61.185q.531-.41,1.06-.821l.7-.548,1.284.257a3.609,3.609,0,0,1-.535.594c-.405.289-.847.527-1.273.787l-1.242-.269Z"/>
            <path id="Path_32867" data-name="Path 32867" class="cls-18" d="M61.374,38.209c-.44.2-.877.41-1.326.6-.171.07-.421.38-.52-.085q.1-.523.19-1.048l.079-.12a4.282,4.282,0,0,0,.653-.188c.4-.185.793-.4,1.189-.6-.088.483-.178.965-.266,1.45Z"/>
            <path id="Path_32868" data-name="Path 32868" class="cls-13" d="M5.24,22.818a6.922,6.922,0,0,0-.833.2c-.435.164-.854.366-1.28.553.13-.4.262-.791.393-1.187.476-.24.942-.5,1.43-.712a5.09,5.09,0,0,1,.793-.211v.261h0l-.245.664L5.49,22.4l-.093.245-.042.143a.635.635,0,0,0-.114.026Z"/>
            <path id="Path_32869" data-name="Path 32869" class="cls-14" d="M61.64,36.759c-.395.2-.784.419-1.189.6a4.493,4.493,0,0,1-.653.188l-.016-.018-.042-.106.079-.62.055-.171c.026-.25.051-.5.077-.749.033-.025.065-.051.1-.079.023.442.217.514.6.308s.77-.359,1.157-.535l-.164,1.18Z"/>
            <path id="Path_32870" data-name="Path 32870" class="cls-14" d="M22.885,58.811a3.658,3.658,0,0,1-.416.495c-.34.289-.7.55-1.057.823l-1.326-.548q.806-.589,1.612-1.18Z"/>
            <path id="Path_32871" data-name="Path 32871" class="cls-13" d="M58.751,41.374c.335-.137.666-.28,1-.41s.675-.247,1.013-.368l-.412,1.335c-.465-.363-.713.143-1.057.266-.306.109-.525.583-.946.231C58.485,42.077,58.617,41.724,58.751,41.374Z"/>
            <path id="Path_32872" data-name="Path 32872" d="M58.751,41.374c-.134.351-.266.7-.4,1.053l-1.844,3.827-1.738,2.626q-.851,1.049-1.7,2.1c-1.453,1.3-2.827,2.695-4.373,3.866a27.127,27.127,0,0,1-10.927,4.893l-2.358.424-2.9.132-4.745-.22-1.284-.257q-.941-.227-1.879-.456l-1.714-.55L21.7,58.4l-2.653-1.2-1.92-1.078L15.014,54.67l-2.255-1.886L10.2,50.077,8.712,48.1l-2.945-5.45L4.71,39.5q-.238-1.115-.477-2.228l-.354-2.885L3.873,34l.053-4.224c.5-.53,1.141-.4,1.76-.38l-.093,1.3-.188.134.188.134.044,1.952.34,3.213.451,2.344.65,2.112,1.036,2.4a2.028,2.028,0,0,0,.143.5c.842,1.4,1.629,2.848,2.568,4.185a34.978,34.978,0,0,0,2.436,2.815q1.178,1.054,2.358,2.11l3.3,2.249a17.014,17.014,0,0,0,4.738,2.124c1.927.43,3.836,1,5.788,1.245a21.334,21.334,0,0,0,4.9.007c1.74-.181,3.45-.646,5.173-.988a15.48,15.48,0,0,0,2.17-.712c1.58-.779,3.116-1.647,4.669-2.478l2.274-1.707q1.041-.925,2.08-1.851a23.171,23.171,0,0,0,5.661-8.44q.4-1.115.8-2.232l.53-1.978q.185-1,.368-1.99.135-1.456.271-2.91c.023-.129.044-.255.067-.384h1.756l.042.791q-.114,1.131-.229,2.26c-.012.1-.023.2-.035.3-.026.25-.051.5-.077.749l-.055.171-.079.62-.06.15c.014.032.026.063.039.1q-.1.523-.19,1.048l-.777,2.654Z"/>
            <path id="Path_32873" data-name="Path 32873" class="cls-20" d="M35.937,3.924l1.712.282,1.819.449,1.568.481,3.2,1.3,1.8.946,1.886,1.191c.049.076.1.15.146.225a2.546,2.546,0,0,1-.613-.178c-.638-.375-1.238-.821-1.892-1.162A8.882,8.882,0,0,0,43.13,6.4a13.671,13.671,0,0,0-3,.051c-.173.009-.338.164-.507.252-1.867-.315-3.731-.661-5.6-.937A19.852,19.852,0,0,0,27.755,6c-1.414.243-2.8.652-4.2.986-.188-.1-.372-.266-.564-.273-.768-.032-1.538-.032-2.306-.007a2.717,2.717,0,0,0-1.044.18A26.972,26.972,0,0,0,11.669,12.7a7.764,7.764,0,0,1-.75.622l-.026-.025c.18-.254.359-.506.541-.759a30.553,30.553,0,0,1,5.194-4.342A28.828,28.828,0,0,1,24.9,4.6a1.371,1.371,0,0,0,.232-.106l3.412-.611,5.548-.127q.922.085,1.844.171Z"/>
            <path id="Path_32874" data-name="Path 32874" class="cls-20" d="M54.929,15.526l.8,1.175c-.018.018-.037.033-.055.051l-.8-1.18.048-.046Z"/>
            <path id="Path_32875" data-name="Path 32875" class="cls-20" d="M56.388,17.76c.127.224.255.447.382.673l-.041.037c-.13-.22-.262-.442-.395-.662l.051-.048Z"/>
            <path id="Path_32876" data-name="Path 32876" class="cls-20" d="M55.993,17.1l.395.661-.051.048-.4-.659.053-.049Z"/>
            <path id="Path_32877" data-name="Path 32877" class="cls-20" d="M54.137,14.476c.081.048.16.1.241.141.055.125.107.252.162.377-.018.016-.035.033-.051.049L54.265,15l-.127-.53Z"/>
            <path id="Path_32878" data-name="Path 32878" class="cls-20" d="M54.538,15l.391.53-.048.046c-.132-.176-.264-.351-.4-.525L54.536,15Z"/>
            <path id="Path_32879" data-name="Path 32879" class="cls-20" d="M55.734,16.7c.086.132.173.266.261.4-.018.016-.035.032-.053.049l-.262-.4c.018-.018.037-.033.055-.051Z"/>
            <path id="Path_32880" data-name="Path 32880" class="cls-20" d="M56.77,18.432c.048.085.1.169.144.254l-.044.032c-.046-.083-.093-.166-.139-.248l.041-.037Z"/>
            <path id="Path_32881" data-name="Path 32881" class="cls-20" d="M56.914,18.686c.046.086.09.174.136.261L57,18.98c-.044-.088-.088-.176-.132-.262l.044-.032Z"/>
            <path id="Path_32882" data-name="Path 32882" class="cls-20" d="M57.05,18.947l.132.264-.046.033L57,18.98Z"/>
            <path id="Path_32883" data-name="Path 32883" class="cls-20" d="M57.18,19.211l.132.262-.046.035-.132-.264Z"/>
            <path id="Path_32884" data-name="Path 32884" class="cls-20" d="M57.425,19.491c0,.085.007.169.011.252l-.169-.236.046-.035a.407.407,0,0,1,.113.018Z"/>
            <path id="Path_32885" data-name="Path 32885" class="cls-21" d="M57.266,19.509l.169.236h0c.044.09.09.178.134.266h0c.041.088.081.178.122.268l0,0c.092.217.185.433.277.648l0,0c.039.092.079.181.118.273l0,0,.106.262a.089.089,0,0,1,.041.1c.035.1.07.2.1.3a.053.053,0,0,1,.035.072l.079.347c.046.079.09.159.134.238.278,1.022.551,2.043.837,3.061a1.958,1.958,0,0,0,.185.363q.256,1.585.511,3.169l.1,2.373-.044,1.055H58.418c-.155-1.744-.259-3.494-.481-5.229a29.163,29.163,0,0,0-.675-2.94c-.125-.352-.248-.7-.373-1.057l-.456-1.222q-.616-1.3-1.233-2.607a2.484,2.484,0,0,0-.159-.356q-1.332-1.992-2.67-3.981.946-.071,1.892-.144c.074.012.15.025.224.039.132.176.264.351.395.527l.8,1.18.262.4.4.659.393.662c.046.083.093.166.139.248s.088.176.132.262l.132.264.132.264Z"/>
            <path id="Path_32886" data-name="Path 32886" class="cls-20" d="M58.452,22.283l-.079-.347a.4.4,0,0,1,.114.055c.011.046.021.092.032.139a.69.69,0,0,0-.026.116l-.042.037Z"/>
            <path id="Path_32887" data-name="Path 32887" class="cls-20" d="M58.587,22.52c-.044-.079-.09-.159-.134-.238l.041-.035c.037.009.074.021.111.033C58.6,22.36,58.593,22.441,58.587,22.52Z"/>
            <path id="Path_32888" data-name="Path 32888" class="cls-16" d="M58.6,22.281c-.037-.012-.074-.025-.111-.033a.62.62,0,0,1,.026-.116l.085.151Z"/>
            <path id="Path_32889" data-name="Path 32889" class="cls-22" d="M54.263,15.007q-.946.071-1.892.144a31.337,31.337,0,0,0-5.613-5.015A29.351,29.351,0,0,0,39.63,6.7c.169-.088.335-.243.507-.252a13.671,13.671,0,0,1,3-.051,8.882,8.882,0,0,1,2.436,1.066c.653.342,1.254.787,1.892,1.162a2.546,2.546,0,0,0,.613.178h0c.306.222.615.44.923.661h0l.659.527h0c.217.178.433.354.652.532l.005.005a1.238,1.238,0,0,0,1.044.923l.539.516c.044.046.088.092.13.137h0l.129.132h0c.037.048.074.092.111.137l.016.016.116.118.014.014.116.116c.042.005.086.011.129.012.005.044.012.09.018.134l.793.9.005.005c.218.261.437.523.657.784l0,0,.127.53Z"/>
            <path id="Path_32890" data-name="Path 32890" class="cls-20" d="M51.357,11.447a1.236,1.236,0,0,1-1.044-.923Z"/>
            <path id="Path_32891" data-name="Path 32891" class="cls-20" d="M50.307,10.519l-.652-.53Z"/>
            <path id="Path_32892" data-name="Path 32892" class="cls-20" d="M49.654,9.987c-.22-.174-.439-.351-.659-.525l.513.277C49.557,9.821,49.606,9.9,49.654,9.987Z"/>
            <path id="Path_32893" data-name="Path 32893" class="cls-20" d="M52.026,12.1c-.044-.046-.088-.092-.13-.137C51.94,12.009,51.984,12.055,52.026,12.1Z"/>
            <path id="Path_32894" data-name="Path 32894" class="cls-20" d="M52.157,12.232l-.129-.132Z"/>
            <path id="Path_32895" data-name="Path 32895" class="cls-20" d="M52.4,12.5l-.116-.118Z"/>
            <path id="Path_32896" data-name="Path 32896" class="cls-20" d="M52.532,12.634l-.116-.116Z"/>
            <path id="Path_32897" data-name="Path 32897" class="cls-20" d="M52.269,12.37l-.111-.136Z"/>
            <path id="Path_32898" data-name="Path 32898" class="cls-20" d="M7.533,17.791l.2-.134c-.211.4-.421.8-.632,1.2l-.046-.035.483-1.027Z"/>
            <path id="Path_32899" data-name="Path 32899" class="cls-20" d="M6,21.06l.282-.646.03.019-.269.659L6,21.06Z"/>
            <path id="Path_32900" data-name="Path 32900" class="cls-20" d="M5.742,21.726v-.261c.048-.042.1-.085.141-.127l.03.019c-.058.123-.114.245-.171.368Z"/>
            <path id="Path_32901" data-name="Path 32901" class="cls-20" d="M6.92,19.082l.132-.264.046.035-.132.262-.044-.032Z"/>
            <path id="Path_32902" data-name="Path 32902" class="cls-20" d="M6.786,19.345c.044-.088.088-.174.134-.262l.044.032-.132.264Z"/>
            <path id="Path_32903" data-name="Path 32903" class="cls-20" d="M6.654,19.607c.044-.088.088-.176.132-.262l.046.033-.132.264-.046-.033Z"/>
            <path id="Path_32904" data-name="Path 32904" class="cls-20" d="M6.522,19.871l.132-.264.046.033-.132.264Z"/>
            <path id="Path_32905" data-name="Path 32905" class="cls-20" d="M5.885,21.337c.039-.092.076-.185.114-.277l.042.032-.127.264-.03-.019Z"/>
            <path id="Path_32906" data-name="Path 32906" class="cls-20" d="M6.279,20.414l.116-.275.041.03-.127.266-.032-.019Z"/>
            <path id="Path_32907" data-name="Path 32907" class="cls-20" d="M6.4,20.139l.125-.268.046.033c-.044.088-.086.176-.13.264l-.041-.03Z"/>
            <path id="Path_32908" data-name="Path 32908" class="cls-21" d="M6.438,20.169c.044-.088.086-.176.13-.264l.132-.264.132-.264.132-.264L7.1,18.85c.211-.4.421-.8.632-1.2l.009-.011c.13-.213.259-.426.389-.641l.016-.016.247-.386.012-.012.255-.132a2.091,2.091,0,0,1,.5-.1c.461.018.985-.266,1.354.252L8.738,19.6q-.433.869-.868,1.74l-.661,1.578q-.262.793-.521,1.587l-1,4.888c-.618-.023-1.261-.148-1.76.38q.129-1.366.261-2.73c.032-.144.063-.287.093-.432l.014-.139c.1-.481.21-.962.314-1.443.125-.354.248-.708.373-1.062.037-.127.076-.252.113-.379l.037-.151.093-.25.005-.011.127-.387.042-.143c.032-.081.062-.164.093-.245l.007-.014c.081-.222.164-.442.245-.664h0c.056-.123.114-.247.171-.368l.127-.264.269-.659c.042-.088.085-.176.127-.266Z"/>
            <path id="Path_32909" data-name="Path 32909" class="cls-14" d="M4.278,26.612c-.032.144-.063.287-.093.432C4.217,26.9,4.248,26.756,4.278,26.612Z"/>
            <path id="Path_32910" data-name="Path 32910" class="cls-20" d="M8.655,16.46l-.255.132q.486-.8.97-1.592l.328-.261.032.03L8.653,16.46Z"/>
            <path id="Path_32911" data-name="Path 32911" class="cls-20" d="M8.127,17c-.13.213-.259.426-.389.641C7.868,17.432,8,17.219,8.127,17Z"/>
            <path id="Path_32912" data-name="Path 32912" class="cls-20" d="M8.389,16.6l-.247.386Z"/>
            <path id="Path_32913" data-name="Path 32913" class="cls-20" d="M10.23,14.084l.662-.787.026.025q-.33.394-.661.791l-.03-.026Z"/>
            <path id="Path_32914" data-name="Path 32914" class="cls-20" d="M9.7,14.739l.53-.655.03.026-.528.659Z"/>
            <path id="Path_32915" data-name="Path 32915" class="cls-21" d="M59.952,35.886c.012-.1.023-.2.035-.3.021.072.041.143.062.215-.032.028-.063.055-.1.079Z"/>
            <path id="Path_32916" data-name="Path 32916" class="cls-20" d="M57.967,20.932c-.092-.217-.185-.433-.277-.648Z"/>
            <path id="Path_32917" data-name="Path 32917" class="cls-20" d="M58.337,21.863c-.035-.1-.07-.2-.1-.3C58.269,21.663,58.3,21.763,58.337,21.863Z"/>
            <path id="Path_32918" data-name="Path 32918" class="cls-20" d="M58.191,21.467l-.106-.262Z"/>
            <path id="Path_32919" data-name="Path 32919" class="cls-20" d="M58.084,21.2c-.039-.092-.079-.181-.118-.273C58,21.02,58.045,21.11,58.084,21.2Z"/>
            <path id="Path_32920" data-name="Path 32920" class="cls-20" d="M57.568,20.011c-.044-.088-.09-.176-.134-.266C57.478,19.833,57.524,19.921,57.568,20.011Z"/>
            <path id="Path_32921" data-name="Path 32921" class="cls-20" d="M57.687,20.278l-.122-.269Z"/>
            <path id="Path_32922" data-name="Path 32922" class="cls-20" d="M53.471,13.684l-.793-.9Z"/>
            <path id="Path_32923" data-name="Path 32923" class="cls-20" d="M54.131,14.475c-.218-.261-.437-.523-.657-.784C53.693,13.952,53.911,14.214,54.131,14.475Z"/>
            <path id="Path_32924" data-name="Path 32924" class="cls-20" d="M5.354,22.792l-.127.387c0-.12.009-.241.012-.361A.635.635,0,0,1,5.354,22.792Z"/>
            <path id="Path_32925" data-name="Path 32925" class="cls-20" d="M5.094,23.591c-.037.127-.076.252-.113.379C5.018,23.843,5.057,23.718,5.094,23.591Z"/>
            <path id="Path_32926" data-name="Path 32926" class="cls-20" d="M5.224,23.19l-.093.25C5.162,23.357,5.192,23.273,5.224,23.19Z"/>
            <path id="Path_32927" data-name="Path 32927" class="cls-20" d="M49,9.462c-.308-.218-.615-.439-.923-.657C48.38,9.023,48.687,9.244,49,9.462Z"/>
            <path id="Path_32928" data-name="Path 32928" class="cls-14" d="M59.718,37.672c-.012-.032-.025-.063-.039-.1a.642.642,0,0,1,.1-.044l.016.018-.079.12Z"/>
            <path id="Path_32929" data-name="Path 32929" class="cls-20" d="M5.742,21.726c-.081.222-.164.442-.245.664C5.578,22.168,5.661,21.948,5.742,21.726Z"/>
            <path id="Path_32930" data-name="Path 32930" class="cls-20" d="M5.49,22.4c-.032.081-.062.164-.093.245C5.428,22.568,5.458,22.485,5.49,22.4Z"/>
            <path id="Path_32931" data-name="Path 32931" class="cls-21" d="M59.819,36.807l.055-.171Z"/>
            <path id="Path_32932" data-name="Path 32932" class="cls-21" d="M59.782,37.534a.51.51,0,0,0-.1.044l.06-.15q.018.053.042.106Z"/>
            <path id="Path_32933" data-name="Path 32933" class="cls-23" d="M39.523,57.222c-1.723.342-3.435.807-5.173.988a21.433,21.433,0,0,1-4.9-.007c-1.95-.25-3.861-.815-5.788-1.245.137-.141.277-.28.414-.421A28.075,28.075,0,0,0,30.413,57.7a26.836,26.836,0,0,0,8.419-.884l.69.4Z"/>
            <path id="Path_32934" data-name="Path 32934" class="cls-24" d="M56.377,42.034a23.186,23.186,0,0,1-5.661,8.44l-.41-.28c.148-.208.289-.421.446-.622,1.052-1.353,2.181-2.653,3.137-4.07A39.847,39.847,0,0,0,55.843,41.9l.535.137Z"/>
            <path id="Path_32935" data-name="Path 32935" class="cls-24" d="M13.259,50.473a34.676,34.676,0,0,1-2.436-2.815c-.939-1.337-1.726-2.781-2.568-4.185a1.975,1.975,0,0,1-.143-.5c.136-.1.271-.192.407-.287.162.282.322.565.484.847A29.315,29.315,0,0,0,10.628,46.3c.993,1.347,2.1,2.612,3.162,3.91-.176.088-.352.178-.53.266Z"/>
            <path id="Path_32936" data-name="Path 32936" class="cls-25" d="M5.684,29.391l1-4.888.52.275-.713,3.657q-.122,2.238-.241,4.476h-.62l-.044-1.952v-.268l.093-1.3Z"/>
            <path id="Path_32937" data-name="Path 32937" class="cls-25" d="M57.263,24.372a29.053,29.053,0,0,1,.675,2.94c.222,1.735.328,3.486.481,5.229-.023.129-.044.255-.067.384h-.532l-.338-4.493-.835-4.065.615.005Z"/>
            <path id="Path_32938" data-name="Path 32938" class="cls-26" d="M39.523,57.222l-.69-.4A20.531,20.531,0,0,0,41,56.1c1.626-.742,3.221-1.55,4.828-2.332l.535.266c-1.554.831-3.089,1.7-4.669,2.478a15.637,15.637,0,0,1-2.17.712Z"/>
            <path id="Path_32939" data-name="Path 32939" class="cls-26" d="M24.072,56.535c-.137.141-.277.28-.414.421a17.036,17.036,0,0,1-4.738-2.124c.136-.134.269-.269.405-.4Q21.7,55.483,24.072,56.535Z"/>
            <path id="Path_32940" data-name="Path 32940" class="cls-27" d="M19.325,54.429c-.136.134-.269.269-.405.4l-3.3-2.249.546-.269,3.163,2.115Z"/>
            <path id="Path_32941" data-name="Path 32941" class="cls-28" d="M16.162,52.314l-.546.269q-1.178-1.054-2.358-2.11c.176-.088.352-.178.53-.266q1.186,1.054,2.374,2.107Z"/>
            <path id="Path_32942" data-name="Path 32942" class="cls-23" d="M5.635,32.911h.62l.264,3.181-.544.03-.34-3.213Z"/>
            <path id="Path_32943" data-name="Path 32943" class="cls-23" d="M57.821,32.926h.532q-.135,1.456-.271,2.91c-.174,0-.349,0-.523,0q.132-1.456.262-2.91Z"/>
            <path id="Path_32944" data-name="Path 32944" class="cls-28" d="M50.306,50.193l.41.282q-1.041.925-2.08,1.851l-.572-.144Z"/>
            <path id="Path_32945" data-name="Path 32945" class="cls-27" d="M48.063,52.181l.572.144-2.274,1.707c-.178-.088-.356-.178-.535-.266l2.235-1.585Z"/>
            <path id="Path_32946" data-name="Path 32946" class="cls-28" d="M8.518,42.688l-.407.287q-.518-1.2-1.037-2.4l.539-.129q.452,1.12.905,2.239Z"/>
            <path id="Path_32947" data-name="Path 32947" class="cls-28" d="M56.377,42.034l-.535-.137q.388-1.054.779-2.107l.56.012q-.4,1.115-.8,2.232Z"/>
            <path id="Path_32948" data-name="Path 32948" class="cls-26" d="M5.974,36.123l.544-.03q.214,1.049.426,2.1l-.521.275-.451-2.344Z"/>
            <path id="Path_32949" data-name="Path 32949" class="cls-27" d="M6.424,38.468l.521-.275q.333,1.128.668,2.256l-.539.129-.65-2.112Z"/>
            <path id="Path_32950" data-name="Path 32950" class="cls-27" d="M57.182,39.8c-.187,0-.373-.007-.56-.012l.544-1.978c.181,0,.365.007.546.012Z"/>
            <path id="Path_32951" data-name="Path 32951" class="cls-26" d="M57.712,37.825c-.181,0-.365-.007-.546-.012l.391-1.976c.174,0,.349,0,.523,0Q57.9,36.83,57.712,37.825Z"/>
            <path id="Path_32952" data-name="Path 32952" class="cls-21" d="M5.59,30.693v.268L5.4,30.827l.188-.134Z"/>
            <path id="Path_32953" data-name="Path 32953" class="cls-23" d="M8.738,19.6l1.77-2.989c.262-.319.528-.636.787-.958a24.8,24.8,0,0,1,5.613-5.309,32.747,32.747,0,0,1,6.647-3.357c1.4-.335,2.786-.745,4.2-.986a19.852,19.852,0,0,1,6.267-.236c1.874.277,3.738.622,5.6.937a29.287,29.287,0,0,1,7.128,3.438,31.269,31.269,0,0,1,5.613,5.015q1.337,1.989,2.67,3.981a2.163,2.163,0,0,1,.159.356l-.562.167c-.13-.2-.255-.4-.393-.588q-1.35-1.868-2.705-3.734c-1.118-1.106-2.154-2.314-3.369-3.3A25.135,25.135,0,0,0,28.9,6.476,24.66,24.66,0,0,0,18.79,9.932a25.893,25.893,0,0,0-6.422,5.476l-3.1,4.423L8.738,19.6Z"/>
            <path id="Path_32954" data-name="Path 32954" class="cls-22" d="M23.556,6.985a32.656,32.656,0,0,0-6.647,3.357A24.8,24.8,0,0,0,11.3,15.651c-.259.322-.525.639-.787.958-.37-.516-.893-.232-1.354-.25a2.091,2.091,0,0,0-.5.1l1.076-1.691.528-.659.661-.789a8.031,8.031,0,0,0,.75-.622,27.035,27.035,0,0,1,7.972-5.814,2.679,2.679,0,0,1,1.044-.18c.768-.025,1.538-.025,2.306.007.192.009.375.178.564.273Z"/>
            <path id="Path_32955" data-name="Path 32955" class="cls-3" d="M54.637,19.653l.562-.167,1.233,2.607-.576.167Q55.245,20.957,54.637,19.653Z"/>
            <path id="Path_32956" data-name="Path 32956" class="cls-15" d="M55.856,22.26l.576-.167c.153.407.3.815.458,1.222h-.632l-.4-1.057Z"/>
            <path id="Path_32957" data-name="Path 32957" class="cls-10" d="M56.257,23.317h.632c.125.352.248.7.373,1.057-.2,0-.41,0-.615-.005Z"/>
            <path id="Path_32958" data-name="Path 32958" class="cls-3" d="M8.738,19.6l.534.227q-.441.893-.884,1.784c-.173-.09-.345-.18-.518-.271Q8.3,20.469,8.738,19.6Z"/>
            <path id="Path_32959" data-name="Path 32959" class="cls-15" d="M7.871,21.34c.173.09.345.18.518.271q-.328.8-.653,1.592c-.174-.1-.349-.19-.525-.284l.661-1.578Z"/>
            <path id="Path_32960" data-name="Path 32960" class="cls-6" d="M7.211,22.919c.174.1.349.19.525.284-.176.527-.351,1.052-.527,1.578l-.52-.275q.262-.793.521-1.587Z"/>
            <path id="Path_32961" data-name="Path 32961" d="M57.557,35.836l-.391,1.976-.544,1.978q-.391,1.054-.779,2.107A39.881,39.881,0,0,1,53.888,45.5c-.956,1.418-2.085,2.718-3.137,4.07-.157.2-.3.414-.446.622q-1.12.993-2.242,1.989l-2.235,1.585c-1.608.782-3.2,1.592-4.828,2.332a20.134,20.134,0,0,1-2.166.719,26.837,26.837,0,0,1-8.419.884,28.076,28.076,0,0,1-6.341-1.166q-2.373-1.054-4.747-2.107l-3.163-2.115q-1.186-1.054-2.374-2.107c-1.06-1.3-2.168-2.563-3.162-3.91A29.092,29.092,0,0,1,9,43.537q-.243-.423-.484-.847-.452-1.12-.905-2.239-.333-1.128-.668-2.256-.214-1.049-.426-2.1l-.264-3.181q.122-2.238.241-4.476c2.938.005,5.878.014,8.816.009a2.934,2.934,0,0,0,.631-.144l1.02.856h.248q2.51-.489,5.018-.974c.042.166.086.331.129.5l-1.171.439-.141.083-3.012,1.03c.865.564,1.6,1.078,2.373,1.518a.946.946,0,0,0,.81-.021c1.522-.953,3.017-1.948,4.521-2.931l.144.132-4.011,3.688c.6.3,1.28.634,1.959.976a.542.542,0,0,0,.77-.227c.863-1.212,1.738-2.413,2.605-3.621.116-.16.215-.333.321-.5a12.737,12.737,0,0,1-2.417,4.838c.361.2.655.391.974.528,1.217.527,1.307.481,1.754-.77.051-.144.107-.287.153-.433q.428-1.39.854-2.783l.178.03c-.092,1.1-.143,2.2-.287,3.3-.188,1.43-.211,1.4,1.133,1.9.469.173.514.014.537-.372.041-.675.113-1.347.173-2.022l.079-.925.053-1.974.081-1.58c.041-.446-.176-.62-.579-.84-.911-.5-1.74-1.152-2.6-1.742l.28-.553c.734.477,1.451.988,2.216,1.409.24.132.613.021.925.021l.063-.25-.87-.791c.363-.049.727-.1,1.09-.146l.063.393,1.24.122.058-.382c.324-.111.671-.354.895.148l-.666.72.023.181a2.166,2.166,0,0,0,.863-.018c.724-.352,1.409-.784,2.11-1.184l.3.4a7.648,7.648,0,0,1-.7.546c-.747.456-1.506.889-2.26,1.332l.016,1.425.053,2.239.085,1.059c.063.916.125,1.83.2,2.873.557-.174,1.059-.3,1.529-.5a.6.6,0,0,0,.25-.5c-.074-.83-.2-1.652-.3-2.48-.076-.666-.127-1.333-.188-2l.178-.025c.491,1.494.983,2.989,1.517,4.608l2.348-.937a13.76,13.76,0,0,1-2.483-4.727,1.821,1.821,0,0,1,.41.454c.849,1.17,1.689,2.344,2.559,3.5.114.151.432.314.569.259.749-.3,1.471-.673,2.117-.979-1.423-1.337-2.758-2.591-4.092-3.845l.109-.125c1.534,1.015,3.063,2.033,4.6,3.035.171.111.444.247.588.185a7.3,7.3,0,0,0,2.482-1.7c-1.349-.5-2.633-.976-3.917-1.45.044-.171.086-.342.13-.511,1.166.225,2.351.382,3.494.7a2.142,2.142,0,0,0,2.515-.6,2.606,2.606,0,0,0,.624.155c2.948,0,5.9-.007,8.847-.012l.338,4.493q-.132,1.456-.262,2.91ZM32.114,31.218v-.842h-.24v4.011q-.013,5.419-.019,10.839a5.441,5.441,0,0,0,.164.851l.16-.636a2.039,2.039,0,0,0,.069-.379q.005-5.181,0-10.362a2.272,2.272,0,0,0-.086-.439L32.1,31.889c.005-.224.012-.447.018-.673Zm-.935,2.14-.042-.622-.2.016v.606c0,.347.005.692.007,1.039-.051.361-.132.72-.148,1.083-.111,2.5-.032,5.02-.361,7.487-.312,2.328.824,4.127,1.566,6.251.569-1.413,1.081-2.679,1.585-3.951a1.058,1.058,0,0,0,.062-.446c-.049-.921-.118-1.841-.164-2.762q-.174-3.485-.336-6.97l-.062-.56c-.026-.3-.055-.611-.081-.916V30.927l-.282.009q.082,1.8.166,3.593c.049,3.007.026,6.018.181,9.02a9.744,9.744,0,0,1-1.023,4.141,7.427,7.427,0,0,1-1.1-3.812q.061-3.754.12-7.507l.109-3.01Zm.875-4.424,1.27-1.122c-.484-.329-.923-.629-1.351-.918l-1.437.911c.534.4,1.013.754,1.517,1.131Zm-.764,2.561h-.065v.4h.065Zm1.435-2.457c-.03.076-.072.129-.062.167s.07.079.109.116c.028-.042.085-.092.079-.127s-.067-.088-.127-.157Zm-1.571,1.185-.048.111c.037.016.083.053.109.042s.033-.069.049-.106l-.111-.048Zm.875-.356-.018.048.07.007a.145.145,0,0,0-.012-.049c-.005-.007-.026,0-.041-.005Z"/>
            <path id="Path_32962" data-name="Path 32962" class="cls-21" d="M57.483,28.433q-4.423.011-8.847.012a2.606,2.606,0,0,1-.624-.155c.548-.574,1.1-1.148,1.642-1.721-3.086-.083-6.1-.164-9.108-.247l.005-.2c.363-.053.726-.127,1.09-.159,2.82-.236,5.642-.456,8.461-.7a1.106,1.106,0,0,0,.738-.326c.951-1.333,1.858-2.7,2.838-4.139a1.484,1.484,0,0,0-.324.033,34.992,34.992,0,0,1-14.919,3.524,1.154,1.154,0,0,0-.653.4c-.544.553-1.057,1.136-1.582,1.708-.1-.134-.2-.266-.3-.4.528-.574,1.059-1.148,1.626-1.763l-2.055-.433a11.388,11.388,0,0,1-.733,1.226c-.352.453-.775.851-1.166,1.272-.224-.5-.571-.259-.895-.148V22.427H31.317V26.08c-.363.049-.727.1-1.09.146l-1.793-2.343-1.915.417,1.376,1.538-.28.553c-.47-.544-.925-1.1-1.421-1.62a1.2,1.2,0,0,0-.712-.393,34.753,34.753,0,0,1-14.432-3.31,3.461,3.461,0,0,0-.486-.151l-.1.148c.875,1.282,1.744,2.57,2.638,3.84a.924.924,0,0,0,.576.358c1.83.21,3.662.4,5.5.565,1.467.129,2.938.206,4.407.3a41.592,41.592,0,0,1-9.377.322L15.945,28.3a2.789,2.789,0,0,1-.631.144q-4.407.005-8.816-.009l.713-3.657c.176-.527.351-1.052.527-1.578q.328-.8.653-1.592.441-.893.884-1.784l3.1-4.423,5.231.13.056.749h.791l.07-.75c.384,0,.77,0,1.154,0,.018.25.035.5.053.77h.8c.028-.271.055-.523.081-.773h1.631c.026.255.051.509.077.764h2.154c-.018-.269-.032-.506-.048-.742l1.747-.021c.019.254.039.507.056.75h.791l.07-.75q.753.005,1.5.012c-.025.248-.049.5-.074.747h.867c.062-.28.116-.528.173-.779l.719.019.285.722c.662.25.9-.049,1-.576a2.2,2.2,0,0,1,.123-.358l.676.213.174.749h.872c-.033-.28-.062-.514-.09-.749a1.336,1.336,0,0,1,1.546.661,2.3,2.3,0,0,0,2.781-.8l1.737.271c-.053.2-.106.409-.155.606.629.229.948-.055,1.108-.611a.105.105,0,0,0,.081-.056l1.2-.009a.113.113,0,0,0,.088.065c.1.211.208.424.3.616h.84c-.1-.277-.178-.5-.257-.724l1.666-.023c.026.254.051.507.077.763h2.154l-.048-.742c1.464-.007,2.927-.005,4.389-.03a2.939,2.939,0,0,0,.71-.194Q52.9,17.2,54.249,19.065c.137.192.262.393.393.588q.61,1.3,1.219,2.607l.4,1.057.391,1.052.835,4.065ZM33.039,21.17a.989.989,0,0,0-.969-1.022,1.017,1.017,0,1,0,.97,1.023Z"/>
            <path id="Path_32963" data-name="Path 32963" class="cls-22" d="M28.592,15.544q-.753-.005-1.5-.012V12.662H26.17v2.871l-1.747.021H23.169v-.729h1.192v-.75H23.169v-.74h1.3l-.033-.669H22.237v2.869H20.606V12.65h-.914v1.4H18.443v-1.4H17.6v2.894l-5.231-.13A25.893,25.893,0,0,1,18.788,9.93,24.66,24.66,0,0,1,28.9,6.475a25.135,25.135,0,0,1,19.271,5.559c1.215.986,2.251,2.195,3.369,3.3a2.939,2.939,0,0,1-.71.194c-1.464.025-2.927.023-4.389.03h-1.3V12.668h-.886v2.867l-1.666.023c-.351-.845-.687-1.7-1.066-2.533-.077-.173-.324-.393-.474-.379a.78.78,0,0,0-.535.391c-.405.865-.763,1.753-1.138,2.633L37.638,15.4c.6-1.969-.386-2.966-2.781-2.73v3.524a1.334,1.334,0,0,0-1.546-.661c-.206-.955-.412-1.911-.616-2.853-.675-.213-1.092-.076-1.222.685a18.286,18.286,0,0,1-.506,1.795c-.215-.676-.389-1.2-.55-1.738-.268-.888-.264-.888-1.212-.74l-.616,2.862Z"/>
            <path id="Path_32964" data-name="Path 32964" class="cls-29" d="M36.2,26.461c.525-.572,1.037-1.155,1.582-1.708a1.154,1.154,0,0,1,.653-.4A34.928,34.928,0,0,0,53.354,20.83a1.484,1.484,0,0,1,.324-.033c-.981,1.443-1.886,2.806-2.838,4.139a1.109,1.109,0,0,1-.738.326c-2.82.248-5.64.469-8.461.7-.365.03-.727.1-1.09.159l-.005.2,9.108.247-1.642,1.721a2.145,2.145,0,0,1-2.515.6c-1.143-.314-2.328-.47-3.494-.7l-2.3-.579-.063.185q1.115.454,2.228.907c1.284.476,2.566.951,3.917,1.45a7.321,7.321,0,0,1-2.482,1.7c-.144.063-.417-.074-.588-.185-1.539-1-3.07-2.022-4.6-3.035-.069-.009-.139-.018-.208-.025l.1.15L42.1,32.609c-.646.306-1.369.676-2.117.979-.137.056-.454-.107-.569-.259-.87-1.154-1.71-2.328-2.559-3.5a1.784,1.784,0,0,0-.41-.454A13.759,13.759,0,0,0,38.924,34.1l-2.348.937c-.532-1.619-1.025-3.114-1.517-4.608l-.178.025c.062.668.113,1.335.188,2,.093.828.224,1.65.3,2.48a.609.609,0,0,1-.25.5c-.47.2-.972.324-1.529.5-.072-1.043-.134-1.957-.2-2.873L33.307,32l-.053-2.239-.016-1.425c.754-.442,1.513-.877,2.26-1.332a7.135,7.135,0,0,0,.7-.546Z"/>
            <path id="Path_32965" data-name="Path 32965" class="cls-29" d="M15.942,28.3l-1.747-1.844a41.8,41.8,0,0,0,9.377-.322c-1.469-.1-2.94-.176-4.407-.3-1.835-.162-3.667-.358-5.5-.565a.924.924,0,0,1-.576-.358c-.895-1.27-1.763-2.557-2.638-3.84l.1-.148a3.461,3.461,0,0,1,.486.151,34.753,34.753,0,0,0,14.432,3.31,1.183,1.183,0,0,1,.712.393c.5.518.951,1.078,1.421,1.62.861.59,1.691,1.242,2.6,1.742.4.222.62.395.579.84q-.04.79-.083,1.58l-.053,1.974-.079.925c-.06.675-.132,1.347-.173,2.022-.023.386-.069.546-.537.372-1.344-.5-1.321-.465-1.133-1.9.144-1.092.2-2.2.287-3.3l-.178-.03q-.425,1.392-.854,2.783c-.046.146-.1.289-.153.433-.447,1.252-.539,1.3-1.754.77-.319-.137-.613-.331-.974-.528a12.737,12.737,0,0,0,2.417-4.838c-.106.167-.2.34-.321.5-.868,1.208-1.742,2.411-2.605,3.621a.541.541,0,0,1-.77.227c-.678-.342-1.358-.676-1.959-.976l4.011-3.688.174-.269-.07-.063-.25.2c-1.5.983-3,1.978-4.521,2.931a.94.94,0,0,1-.81.021c-.775-.44-1.506-.955-2.373-1.518l3.012-1.03.141-.083,1.171-.439,2.353-1.009-.074-.185-2.408.7-5.018.972H16.96q-.51-.425-1.02-.854Z"/>
            <path id="Path_32966" data-name="Path 32966" class="cls-29" d="M31.07,36.368q-.061,3.754-.12,7.507a7.427,7.427,0,0,0,1.1,3.812,9.737,9.737,0,0,0,1.023-4.141c-.155-3-.13-6.013-.181-9.02.039-.3.077-.609.116-.912.026.3.055.611.081.916.021.187.042.373.062.56q.166,3.485.336,6.97c.046.921.114,1.841.164,2.762a1.117,1.117,0,0,1-.062.446c-.5,1.272-1.016,2.538-1.585,3.951-.742-2.122-1.878-3.921-1.566-6.251.329-2.468.25-4.99.361-7.487.016-.363.1-.722.148-1.083q.061.985.123,1.971Z"/>
            <path id="Path_32967" data-name="Path 32967" class="cls-29" d="M27.891,25.839,26.515,24.3l1.915-.417c.609.8,1.2,1.569,1.793,2.343l.87.791-.063.25c-.312,0-.685.111-.925-.021-.766-.421-1.481-.934-2.216-1.409Z"/>
            <path id="Path_32968" data-name="Path 32968" class="cls-29" d="M33.571,26.36c.393-.421.814-.819,1.166-1.272a11.217,11.217,0,0,0,.733-1.226l2.055.433c-.567.616-1.1,1.189-1.626,1.763-.7.4-1.386.833-2.11,1.184a2.167,2.167,0,0,1-.863.018l-.023-.181.666-.72Z"/>
            <path id="Path_32969" data-name="Path 32969" class="cls-29" d="M31.313,26.08V22.427h1.362v3.785l-.058.382-1.24-.122Z"/>
            <path id="Path_32970" data-name="Path 32970" class="cls-29" d="M32.1,31.889q.032,1.186.062,2.373l.019,11.177-.16.636a5.441,5.441,0,0,1-.164-.851q0-5.419.019-10.839c.035-.254.081-.506.1-.759.048-.579.081-1.159.122-1.738Z"/>
            <path id="Path_32971" data-name="Path 32971" class="cls-29" d="M32.055,28.932c-.506-.375-.985-.733-1.517-1.131l1.437-.911c.426.291.867.588,1.351.918-.428.377-.844.745-1.27,1.122Z"/>
            <path id="Path_32972" data-name="Path 32972" class="cls-21" d="M32.178,45.441q-.011-5.588-.019-11.177a2.272,2.272,0,0,1,.086.439q.008,5.181,0,10.362a2.2,2.2,0,0,1-.069.379Z"/>
            <path id="Path_32973" data-name="Path 32973" class="cls-21" d="M22.228,28.183l2.408-.7.074.185L22.357,28.68c-.042-.166-.086-.331-.129-.5Z"/>
            <path id="Path_32974" data-name="Path 32974" class="cls-21" d="M41.871,28.7q-1.115-.454-2.228-.907l.063-.185,2.3.579c-.044.171-.088.342-.13.511Z"/>
            <path id="Path_32975" data-name="Path 32975" class="cls-3" d="M33.007,33.612c-.039.3-.077.609-.116.912q-.082-1.8-.166-3.593l.282-.009V33.61Z"/>
            <path id="Path_32976" data-name="Path 32976" class="cls-3" d="M31.07,36.368q-.061-.985-.123-1.971c0-.347-.005-.694-.009-1.039h.24q-.055,1.506-.109,3.01Z"/>
            <path id="Path_32977" data-name="Path 32977" class="cls-8" d="M32.1,31.889c-.039.579-.074,1.159-.122,1.738-.021.254-.067.506-.1.759v-3.1l.24-.069c-.005.224-.012.447-.018.673Z"/>
            <path id="Path_32978" data-name="Path 32978" class="cls-21" d="M32.114,31.218l-.24.069v-.909h.24Z"/>
            <path id="Path_32979" data-name="Path 32979" class="cls-21" d="M30.711,30.554c.028-.527.055-1.053.083-1.58C30.765,29.5,30.739,30.027,30.711,30.554Z"/>
            <path id="Path_32980" data-name="Path 32980" class="cls-21" d="M33.24,28.338l.016,1.425Z"/>
            <path id="Path_32981" data-name="Path 32981" class="cls-21" d="M31.179,33.358h-.24v-.606l.2-.016Z"/>
            <path id="Path_32982" data-name="Path 32982" class="cls-21" d="M33.307,32l.085,1.059Z"/>
            <path id="Path_32983" data-name="Path 32983" class="cls-21" d="M30.579,33.453l.079-.925Z"/>
            <path id="Path_32984" data-name="Path 32984" class="cls-21" d="M31.29,31.494v.4h-.065v-.4Z"/>
            <path id="Path_32985" data-name="Path 32985" class="cls-21" d="M32.727,29.037c.06.07.118.109.127.157s-.049.085-.079.127c-.039-.039-.1-.072-.109-.116s.032-.092.062-.167Z"/>
            <path id="Path_32986" data-name="Path 32986" class="cls-21" d="M33.152,35.089c-.021-.187-.042-.373-.062-.56Z"/>
            <path id="Path_32987" data-name="Path 32987" class="cls-21" d="M31.155,30.223l.111.048c-.016.037-.025.1-.049.106s-.072-.026-.109-.042l.048-.111Z"/>
            <path id="Path_32988" data-name="Path 32988" class="cls-21" d="M32.03,29.867c.014,0,.035,0,.041.005a.135.135,0,0,1,.012.049l-.07-.007.018-.048Z"/>
            <path id="Path_32989" data-name="Path 32989" class="cls-21" d="M16.962,29.157Z"/>
            <path id="Path_32990" data-name="Path 32990" class="cls-21" d="M21.185,29.118l-.141.083Z"/>
            <path id="Path_32991" data-name="Path 32991" class="cls-30" d="M28.592,15.544l.616-2.862c.948-.148.944-.148,1.212.74.16.534.335,1.062.55,1.738a18.286,18.286,0,0,0,.506-1.795c.13-.759.55-.9,1.222-.685.2.944.41,1.9.616,2.853.028.234.056.469.09.749h-.872l-.174-.749c-.081-.507-.164-1.015-.245-1.522L32,14.017c-.107.435-.213.87-.321,1.3a2.26,2.26,0,0,0-.123.358c-.093.527-.335.824-1,.576l-.285-.722q-.177-.721-.352-1.443l-.157.03-.208,1.393c-.055.248-.109.5-.173.779h-.867c.025-.25.049-.5.074-.747Z"/>
            <path id="Path_32992" data-name="Path 32992" class="cls-30" d="M17.6,15.533V12.639h.845v1.4h1.249v-1.4h.914v2.885l-.081.773h-.8c-.019-.269-.035-.52-.053-.77V14.9H18.464c.021.245.037.439.055.632l-.07.75h-.791l-.056-.749Z"/>
            <path id="Path_32993" data-name="Path 32993" class="cls-30" d="M34.86,16.194V12.669c2.394-.238,3.376.759,2.781,2.73a2.3,2.3,0,0,1-2.781.8Zm.854-2.767V15.5c.8.065,1.266-.312,1.277-1.02S36.551,13.4,35.715,13.427Z"/>
            <path id="Path_32994" data-name="Path 32994" class="cls-30" d="M22.237,15.533V12.664h2.195l.033.669h-1.3v.74h1.192v.75H23.169v.729h1.254c.016.236.03.472.048.742H22.316c-.026-.255-.051-.509-.077-.763Z"/>
            <path id="Path_32995" data-name="Path 32995" class="cls-30" d="M39.376,15.669c.375-.879.731-1.768,1.138-2.633a.779.779,0,0,1,.535-.391c.15-.012.4.206.474.379.379.833.715,1.686,1.066,2.533.079.224.159.447.257.724h-.84c-.093-.192-.2-.4-.3-.616l-.088-.065-1.2.009-.081.056c-.162.557-.479.84-1.108.611.051-.2.1-.4.155-.606ZM41.007,13.6c-.164.483-.294.863-.424,1.247h.886C41.316,14.434,41.182,14.07,41.007,13.6Z"/>
            <path id="Path_32996" data-name="Path 32996" class="cls-30" d="M44.254,15.533V12.666h.886v2.889h1.3c.016.236.03.472.048.742H44.331c-.026-.255-.051-.509-.077-.763Z"/>
            <path id="Path_32997" data-name="Path 32997" class="cls-30" d="M26.168,15.533V12.662h.918v2.869l-.07.75h-.791c-.018-.243-.037-.5-.056-.75Z"/>
            <path id="Path_32998" data-name="Path 32998" class="cls-29" d="M33.037,21.17a1.021,1.021,0,1,1-.97-1.023.988.988,0,0,1,.969,1.022ZM32,21.934c.261-.347.541-.558.53-.752s-.31-.377-.483-.565c-.19.174-.5.331-.532.53s.243.419.484.787Z"/>
            <path id="Path_32999" data-name="Path 32999" class="cls-22" d="M18.517,15.531l-.055-.632h1.207v.636l-1.154,0Z"/>
            <path id="Path_33000" data-name="Path 33000" class="cls-22" d="M29.555,15.512l.208-1.393.157-.03q.177.721.352,1.443l-.719-.019Z"/>
            <path id="Path_33001" data-name="Path 33001" class="cls-22" d="M31.681,15.322c.107-.435.213-.87.321-1.3l.109-.005c.081.507.164,1.015.245,1.522l-.676-.213Z"/>
            <path id="Path_33002" data-name="Path 33002" class="cls-22" d="M41.613,15.6l.088.065A.113.113,0,0,1,41.613,15.6Z"/>
            <path id="Path_33003" data-name="Path 33003" class="cls-22" d="M40.329,15.664l.081-.056A.108.108,0,0,1,40.329,15.664Z"/>
            <path id="Path_33004" data-name="Path 33004" d="M38,28.761l-.1-.15c.069.009.139.018.208.025C38.075,28.678,38.038,28.719,38,28.761Z"/>
            <path id="Path_33005" data-name="Path 33005" d="M25.737,28.8l.25-.2.07.063-.174.269-.144-.132Z"/>
            <path id="Path_33006" data-name="Path 33006" class="cls-22" d="M35.713,13.425c.837-.026,1.288.356,1.277,1.055s-.476,1.083-1.277,1.02Z"/>
            <path id="Path_33007" data-name="Path 33007" class="cls-20" d="M41.007,13.6c.173.469.308.833.461,1.247h-.886C40.713,14.462,40.844,14.082,41.007,13.6Z"/>
            <path id="Path_33008" data-name="Path 33008" class="cls-22" d="M32,21.934c-.241-.366-.513-.6-.484-.787s.343-.356.532-.53c.173.188.47.368.483.565s-.269.4-.53.752Z"/>
          </g>
        </g>
      </g>
    </g>
  </g>
</svg>
