<svg xmlns="http://www.w3.org/2000/svg" xmlns:xlink="http://www.w3.org/1999/xlink" width="64" height="64" viewBox="0 0 64 64">
  <defs>
    <style>
      .cls-1 {
        fill: #fff;
      }

      .cls-2 {
        clip-path: url(#clip-path);
      }

      .cls-3 {
        fill: #1a2952;
      }

      .cls-4 {
        fill: #ffd83e;
      }

      .cls-5 {
        fill: #f27022;
      }

      .cls-6 {
        fill: #827949;
      }

      .cls-7 {
        fill: #908448;
      }

      .cls-8 {
        fill: #573c3e;
      }

      .cls-9 {
        fill: #55574e;
      }
    </style>
    <clipPath id="clip-path">
      <circle id="Ellipse_5135" data-name="Ellipse 5135" class="cls-1" cx="32" cy="32" r="32" transform="translate(-21452 -22267)"/>
    </clipPath>
  </defs>
  <g id="Mask_Group_647" data-name="Mask Group 647" class="cls-2" transform="translate(21452 22267)">
    <g id="b" transform="translate(-21452 -22266.998)">
      <g id="c">
        <g id="Group_18970" data-name="Group 18970">
          <path id="Path_38222" data-name="Path 38222" class="cls-3" d="M33.216,64H30.752a.475.475,0,0,0-.1-.029c-.518-.035-1.036-.058-1.553-.1-.473-.041-.944-.1-1.414-.161q-.639-.085-1.274-.2A32.014,32.014,0,0,1,1.858,42.745,30.557,30.557,0,0,1,.41,37.093c-.1-.675-.206-1.351-.277-2.029-.067-.638-.115-1.279-.127-1.92-.016-.819,0-1.64.026-2.459.015-.533.061-1.065.1-1.6.025-.342.048-.685.1-1.024.084-.587.18-1.172.283-1.756a31.386,31.386,0,0,1,2.02-6.787A32.012,32.012,0,0,1,20.611,2.089,33.079,33.079,0,0,1,28.081.223C28.673.144,29.27.1,29.867.066,30.513.028,31.161,0,31.808,0s1.272.037,1.908.059c.28.01.562.011.841.037.448.042.895.1,1.341.155.567.073,1.14.122,1.7.238,1.056.22,2.116.436,3.152.731A31.984,31.984,0,0,1,62.258,21.583,30.794,30.794,0,0,1,63.649,27.3c.08.555.134,1.114.189,1.672.041.416.063.834.1,1.251.015.175.042.35.063.525v2.528c-.009.012-.025.022-.026.035-.035.468-.065.937-.1,1.405-.031.388-.045.78-.108,1.162-.188,1.127-.351,2.261-.605,3.373a31.415,31.415,0,0,1-5.014,11.2A31.991,31.991,0,0,1,41.152,62.659a27.948,27.948,0,0,1-4.735,1.017c-.8.094-1.61.174-2.416.256-.262.027-.524.043-.786.064ZM50.628,31.451c-.084-.943-.174-1.886-.248-2.83a.378.378,0,0,0-.236-.368,4.332,4.332,0,0,0-.043-.6,13.455,13.455,0,0,0-.367-1.55,18.839,18.839,0,0,0-6.44-9.057,17.7,17.7,0,0,0-6.707-3.268,15.775,15.775,0,0,0-2.922-.472c-.54-.028-1.08-.1-1.618-.088-.725.011-1.45.073-2.174.122a13.216,13.216,0,0,0-2.494.451,8.032,8.032,0,0,0-2.258.857,3.671,3.671,0,0,0-1.008.825,1.381,1.381,0,0,0-.2,1.512,2.878,2.878,0,0,0,.637.892,8.868,8.868,0,0,0,2.039,1.363,36.754,36.754,0,0,0,5.42,2.32c3.068,1.049,6.149,2.061,9.224,3.089.179.471.328.956.542,1.411a13.261,13.261,0,0,0,2.873,3.8,37.623,37.623,0,0,0,2.964,2.554A14.849,14.849,0,0,0,49.893,34c.177.093.359.174.587.284l.149-1.8V31.452ZM13.4,32.285c.012.259.016.519.038.778.035.416.073.832.125,1.247A18.033,18.033,0,0,0,14.6,38.466a18.842,18.842,0,0,0,12,11.315,16.768,16.768,0,0,0,3.084.651c.547.062,1.1.106,1.645.158l1.506,0c.423-.033.847-.048,1.267-.1.564-.073,1.13-.152,1.686-.27a18.982,18.982,0,0,0,6.867-2.932,17.592,17.592,0,0,0,6.574-7.99c.219-.538.392-1.1.591-1.658a.567.567,0,0,0-.084-.005c-.9.175-1.806.36-2.712.523a22.6,22.6,0,0,1-3.34.4c-.1,0-.191,0-.286,0l-1.8,0c-.238-.011-.477-.012-.715-.034-.545-.05-1.093-.081-1.632-.172-.8-.135-1.606-.278-2.392-.483A22.909,22.909,0,0,1,28.2,33.485a22.5,22.5,0,0,1-6.854-9.316,24.451,24.451,0,0,1-1.477-5.405c-.042-.271-.082-.542-.127-.845-.251.226-.485.427-.707.64a18.408,18.408,0,0,0-4.724,7.528,17.605,17.605,0,0,0-.9,5.236v.962Z"/>
          <path id="Path_38223" data-name="Path 38223" class="cls-4" d="M43.683,38.56a22.61,22.61,0,0,0,3.34-.4c.906-.163,1.808-.348,2.712-.523a.522.522,0,0,1,.084.005c-.2.562-.372,1.12-.591,1.658a17.59,17.59,0,0,1-6.574,7.99,18.978,18.978,0,0,1-6.867,2.932c-.556.117-1.122.2-1.686.27-.42.054-.844.069-1.267.1l-1.506,0c-.548-.052-1.1-.1-1.645-.158a16.8,16.8,0,0,1-3.084-.651,18.842,18.842,0,0,1-12-11.315,18.029,18.029,0,0,1-1.033-4.157c-.052-.414-.09-.83-.125-1.247-.022-.258-.026-.518-.038-.778v-.962a17.6,17.6,0,0,1,.9-5.236,18.4,18.4,0,0,1,4.724-7.528c.223-.213.456-.413.707-.64.045.3.085.574.127.845a24.433,24.433,0,0,0,1.477,5.405A22.5,22.5,0,0,0,28.2,33.484a22.909,22.909,0,0,0,8.662,4.386c.786.205,1.59.348,2.392.483.538.091,1.087.122,1.632.172.237.022.476.023.715.034a2.011,2.011,0,0,0,.2.022c.468,0,.937.009,1.405.007.159,0,.317-.019.476-.029Z"/>
          <path id="Path_38224" data-name="Path 38224" class="cls-4" d="M41.235,24.648c-3.075-1.028-6.156-2.04-9.224-3.089a36.788,36.788,0,0,1-5.42-2.32,8.868,8.868,0,0,1-2.039-1.363,2.875,2.875,0,0,1-.637-.892,1.382,1.382,0,0,1,.2-1.512,3.665,3.665,0,0,1,1.008-.825,8.032,8.032,0,0,1,2.258-.857,13.212,13.212,0,0,1,2.494-.451c.724-.049,1.449-.111,2.174-.122.539-.008,1.079.06,1.618.088a15.775,15.775,0,0,1,2.922.472,17.707,17.707,0,0,1,6.707,3.268,18.839,18.839,0,0,1,6.44,9.057,13.471,13.471,0,0,1,.367,1.55,4.283,4.283,0,0,1,.043.6c-.052-.027-.1-.053-.155-.082a32.8,32.8,0,0,0-5.442-2.429c-1.1-.385-2.207-.732-3.312-1.1Z"/>
          <path id="Path_38225" data-name="Path 38225" class="cls-5" d="M41.235,24.648c1.1.364,2.215.711,3.312,1.1a32.764,32.764,0,0,1,5.442,2.429c.051.029.1.054.155.082a.378.378,0,0,1,.236.368c.074.944.164,1.887.248,2.83v1.026l-.149,1.8c-.228-.11-.41-.192-.587-.284a14.773,14.773,0,0,1-2.279-1.581,37.681,37.681,0,0,1-2.964-2.554,13.267,13.267,0,0,1-2.873-3.8c-.214-.455-.363-.94-.542-1.411Z"/>
          <path id="Path_38226" data-name="Path 38226" class="cls-6" d="M43.683,38.56c-.158.01-.317.028-.476.029-.468,0-.937,0-1.405-.007a2.022,2.022,0,0,1-.2-.022l1.8,0c.1,0,.191,0,.286,0Z"/>
          <path id="Path_38227" data-name="Path 38227" class="cls-7" d="M31.328,50.59l1.506,0Z"/>
          <path id="Path_38228" data-name="Path 38228" class="cls-8" d="M50.628,32.477Z"/>
          <path id="Path_38229" data-name="Path 38229" class="cls-9" d="M13.4,31.323v0Z"/>
        </g>
      </g>
    </g>
  </g>
</svg>
