<svg xmlns="http://www.w3.org/2000/svg" xmlns:xlink="http://www.w3.org/1999/xlink" width="64" height="64" viewBox="0 0 64 64">
  <defs>
    <style>
      .cls-1 {
        fill: #fff;
      }

      .cls-2 {
        clip-path: url(#clip-path);
      }

      .cls-3 {
        fill: #7b3fe4;
      }
    </style>
    <clipPath id="clip-path">
      <circle id="Ellipse_5519" data-name="Ellipse 5519" class="cls-1" cx="32" cy="32" r="32" transform="translate(-20899 -19922)"/>
    </clipPath>
  </defs>
  <g id="Mask_Group_718" data-name="Mask Group 718" class="cls-2" transform="translate(20899 19922)">
    <g id="Primary_Token" data-name="Primary Token" transform="translate(-20899 -19922)">
      <circle id="Ellipse_5520" data-name="Ellipse 5520" class="cls-3" cx="32" cy="32" r="32"/>
      <path id="Path_40535" data-name="Path 40535" class="cls-1" d="M53.333,32.747V42.4a3.481,3.481,0,0,1-1.707,2.977L43.293,50.2a3.323,3.323,0,0,1-3.413,0l-8.333-4.817A3.481,3.481,0,0,1,29.84,42.4v-2.71l4.267-2.485v4.71l7.467,4.349,7.467-4.349V33.239L41.573,28.89,24.08,39.059a3.466,3.466,0,0,1-3.413,0l-8.333-4.837a3.482,3.482,0,0,1-1.667-2.974V21.594a3.481,3.481,0,0,1,1.707-2.977L20.706,13.8a3.353,3.353,0,0,1,3.413,0l8.333,4.817a3.481,3.481,0,0,1,1.707,2.977V24.3l-4.293,2.469V22.089L22.4,17.741l-7.467,4.349v8.667L22.4,35.105,39.893,24.936a3.466,3.466,0,0,1,3.413,0l8.333,4.837a3.481,3.481,0,0,1,1.693,2.974Z"/>
    </g>
  </g>
</svg>
