<svg xmlns="http://www.w3.org/2000/svg" xmlns:xlink="http://www.w3.org/1999/xlink" width="64" height="64" viewBox="0 0 64 64">
  <defs>
    <style>
      .cls-1 {
        fill: #fff;
      }

      .cls-2 {
        clip-path: url(#clip-path);
      }

      .cls-3 {
        clip-path: url(#clip-path-2);
      }

      .cls-4 {
        fill: #5b0b0b;
      }

      .cls-5 {
        clip-path: url(#clip-path-3);
      }
    </style>
    <clipPath id="clip-path">
      <circle id="Ellipse_5150" data-name="Ellipse 5150" class="cls-1" cx="32" cy="32" r="32" transform="translate(-21666 -21922)"/>
    </clipPath>
    <clipPath id="clip-path-2">
      <path id="Path_39194" data-name="Path 39194" d="M.787.787h64v64h-64Zm0,0"/>
    </clipPath>
    <clipPath id="clip-path-3">
      <path id="Path_39197" data-name="Path 39197" d="M7.519,11.366H58.23V54.445H7.519Zm0,0"/>
    </clipPath>
  </defs>
  <g id="Group_19983" data-name="Group 19983" transform="translate(21666 21922)">
    <g id="Mask_Group_666" data-name="Mask Group 666" class="cls-2">
      <g id="download" transform="translate(-21666.787 -21922.787)">
        <g id="Group_19284" data-name="Group 19284" class="cls-3">
          <path id="Path_39193" data-name="Path 39193" class="cls-4" d="M64.787,32.787q0,.785-.039,1.57t-.115,1.566q-.077.782-.193,1.559t-.269,1.547q-.153.771-.343,1.533t-.419,1.514q-.228.751-.492,1.491t-.566,1.465q-.3.726-.636,1.436-.671,1.421-1.481,2.769t-1.745,2.611q-.468.631-.966,1.238T56.5,54.277q-.528.582-1.083,1.137T54.277,56.5q-.582.527-1.189,1.026-1.215,1-2.523,1.87-.653.436-1.327.84-1.347.809-2.769,1.481-.71.335-1.437.636t-1.465.566q-.739.264-1.491.492t-1.514.419q-.762.191-1.533.343t-1.547.269q-.777.116-1.559.193t-1.566.115q-1.569.078-3.14,0-.784-.039-1.566-.115t-1.559-.193q-.777-.115-1.547-.269t-1.533-.343q-.761-.191-1.514-.419t-1.491-.492q-.74-.264-1.465-.566T19.1,61.715q-.71-.336-1.4-.706t-1.367-.775q-1.348-.807-2.611-1.744-.631-.468-1.238-.966T11.3,56.5q-.582-.528-1.137-1.083T9.076,54.277q-.527-.582-1.025-1.189-1-1.214-1.871-2.523-.436-.653-.84-1.327t-.775-1.367q-.37-.693-.706-1.4t-.636-1.437q-.3-.725-.566-1.465t-.492-1.491q-.228-.752-.419-1.514T1.4,39.029q-.154-.77-.269-1.547T.941,35.923q-.077-.782-.115-1.566t-.038-1.57q0-.786.038-1.57T.941,29.65q.077-.782.193-1.559T1.4,26.544q.153-.771.343-1.533T2.165,23.5q.228-.751.492-1.491t.566-1.465q.3-.726.636-1.436t.706-1.4q.37-.693.775-1.367a31.913,31.913,0,0,1,2.711-3.85q.5-.607,1.025-1.189t1.083-1.137Q10.715,9.6,11.3,9.076t1.189-1.025q1.214-1,2.523-1.871.653-.436,1.327-.84T17.7,4.565q.693-.37,1.4-.706t1.437-.636q.725-.3,1.465-.566T23.5,2.165q.752-.228,1.514-.419T26.544,1.4q.77-.154,1.547-.269T29.65.941q.782-.077,1.566-.115t1.57-.038q.785,0,1.57.038t1.566.115q.782.077,1.559.193t1.547.269q.771.153,1.533.343t1.514.419q.751.227,1.491.492t1.465.566q.726.3,1.436.636,1.421.671,2.769,1.481a31.912,31.912,0,0,1,3.85,2.711q.607.5,1.189,1.025t1.137,1.083q.556.555,1.083,1.137t1.026,1.189q1,1.215,1.87,2.523.436.653.84,1.327t.775,1.367q.37.693.706,1.4t.636,1.437q.3.725.566,1.465t.492,1.491q.228.752.419,1.514t.343,1.533q.154.77.269,1.547t.193,1.559q.077.782.115,1.566t.039,1.57Zm0,0"/>
        </g>
        <path id="Path_39195" data-name="Path 39195" class="cls-1" d="M22.54,30.947a1.979,1.979,0,0,0-1.453.21,1.92,1.92,0,0,0,.538,3.5,1.508,1.508,0,0,0,.484.053,1.892,1.892,0,0,0,1.829-1.452,1.959,1.959,0,0,0-.215-1.453,1.889,1.889,0,0,0-1.184-.856m22.053.157a1.978,1.978,0,0,0-1.453-.211,1.932,1.932,0,0,0-1.184.856,1.982,1.982,0,0,0-.215,1.453,1.94,1.94,0,0,0,1.829,1.453,1.484,1.484,0,0,0,.484-.054,1.919,1.919,0,0,0,.538-3.5"/>
        <g id="Group_19285" data-name="Group 19285" class="cls-5">
          <path id="Path_39196" data-name="Path 39196" class="cls-1" d="M24.8,33.417a2.806,2.806,0,0,1-3.439,1.991A2.774,2.774,0,0,1,22,29.924a3.146,3.146,0,0,1,.7.108A2.776,2.776,0,0,1,24.8,33.417Zm16.411-2.152a2.747,2.747,0,0,1,1.771-1.287,2.814,2.814,0,0,1,3.444,1.986,2.784,2.784,0,0,1-2.1,3.39,2.741,2.741,0,0,1-2.152-.323,2.63,2.63,0,0,1-1.292-1.722,2.786,2.786,0,0,1,.327-2.044ZM52.61,43.91c-2.529,3.385-6.618,5.376-12.048,5.861a.5.5,0,0,1-.542-.592.647.647,0,0,1,.273-.376,5.678,5.678,0,0,0,3.332-3.767A1.063,1.063,0,0,0,42.6,43.695h-.054a1.045,1.045,0,0,0-1.022.8,3.824,3.824,0,0,1-3.762,2.69,3.887,3.887,0,0,1-3.605-2.206.519.519,0,0,1,.269-.645c1.937-.588,5.107-2.363,5.107-4.193a2.255,2.255,0,0,0-1.292-1.991.441.441,0,0,1-.215-.484c.054-.43.166-.915.269-1.453a.83.83,0,0,1,1.453-.376,4.559,4.559,0,0,0,1.242,1.022,5.064,5.064,0,0,0,2.525.7,4.579,4.579,0,0,0,1.238-.162,4.943,4.943,0,0,0,3.605-6.027,4.556,4.556,0,0,0-.484-1.179.5.5,0,0,1,.592-.7,7.58,7.58,0,0,1,2.1,1.023,1.022,1.022,0,0,0,1.4-.162,1.09,1.09,0,0,0-.215-1.614c-3.982-2.8-9.735-2.368-12.91,1.13a17.364,17.364,0,0,0-3.067,7.044.444.444,0,0,1-.538.377,24.411,24.411,0,0,0-2.583-.108,26.858,26.858,0,0,0-2.69.108.483.483,0,0,1-.538-.377,16.711,16.711,0,0,0-3.063-7.044c-3.121-3.5-8.878-3.874-12.914-1.13a1.083,1.083,0,1,0,1.238,1.776,7.567,7.567,0,0,1,2.1-1.023.51.51,0,0,1,.592.7,4.528,4.528,0,0,0-.484,1.179A5.028,5.028,0,0,0,20.5,37.4a5.2,5.2,0,0,0,1.238.162,4.836,4.836,0,0,0,3.923-1.937.744.744,0,0,1,1.292.322,16.083,16.083,0,0,1,.323,1.776c0,.161-.054.376-.215.43a2.17,2.17,0,0,0-1.184,1.883c0,1.829,3.228,3.605,5.219,4.193a.5.5,0,0,1,.322.645,3.968,3.968,0,0,1-7.313-.484,1.038,1.038,0,0,0-1.023-.8h-.054A1.039,1.039,0,0,0,22,44.928a5.69,5.69,0,0,0,3.87,3.928,5.359,5.359,0,0,0,.215.807q-9.114-.484-13.232-5.968A16.153,16.153,0,0,1,10.169,31.48a5.954,5.954,0,0,1,.215-.646,20.4,20.4,0,0,1,3.224-4.408,15.475,15.475,0,0,0,2.959-4.143,6.526,6.526,0,0,0-1.883-7.529,1.035,1.035,0,0,0-1.56.269l-.054.108a1.05,1.05,0,0,0,.107,1.179c.915,1.238-4.246,1.453-3.282-1.018.215-.484.812-2.045,3.928-1.829a6.025,6.025,0,0,1,4.842,4.192,1.09,1.09,0,0,0,1.668.592c1.83-1.292,8.121-1.991,12.048-1.991h.646c3.982,0,10.218.7,12.048,1.991a1.1,1.1,0,0,0,1.668-.592,6.115,6.115,0,0,1,4.842-4.192c3.121-.216,3.709,1.345,3.924,1.829.973,2.471-4.193,2.255-3.277,1.018a1.067,1.067,0,0,0,.107-1.179l-.054-.108a1.051,1.051,0,0,0-1.614-.269,6.526,6.526,0,0,0-1.883,7.529,17.331,17.331,0,0,0,2.96,4.143,23.163,23.163,0,0,1,3.228,4.408c.049.161.161.43.215.645A15.8,15.8,0,0,1,52.61,43.905Zm4.838-12.645-.054-.161a7.282,7.282,0,0,1-.264-.856A13.938,13.938,0,0,0,54.865,26.8a.5.5,0,0,1,0-.645c1.937-2.152,4.251-7.749,2.8-11.457-.645-1.614-2.206-3.443-6.076-3.228a8.051,8.051,0,0,0-6.08,4.143.453.453,0,0,1-.592.215c-3.331-1.238-9.143-1.615-12.048-1.561a41.905,41.905,0,0,0-11.617,1.4,1.027,1.027,0,0,1-1.238-.43,7.959,7.959,0,0,0-5.865-3.767c-3.869-.215-5.43,1.614-6.076,3.228-1.453,3.655.861,9.3,2.794,11.457a.479.479,0,0,1,0,.645,14.907,14.907,0,0,0-2.256,3.444c-.054.215-.215.591-.269.856l-.054.161h.054A18.23,18.23,0,0,0,11.4,45.2c3.336,4.466,8.717,6.726,16.03,6.887a.385.385,0,0,1,.323.161,7.661,7.661,0,0,0,10.7-.053.472.472,0,0,1,.328-.162C45.83,51.815,51.05,49.5,54.278,45.2a18.853,18.853,0,0,0,3.17-13.932"/>
        </g>
      </g>
    </g>
  </g>
</svg>
