<svg xmlns="http://www.w3.org/2000/svg" xmlns:xlink="http://www.w3.org/1999/xlink" width="64" height="64" viewBox="0 0 64 64">
  <defs>
    <style>
      .cls-1 {
        fill: #fff;
      }

      .cls-2 {
        clip-path: url(#clip-path);
      }

      .cls-3 {
        fill: #42454d;
      }

      .cls-4, .cls-7 {
        fill: #fefeff;
      }

      .cls-4 {
        fill-rule: evenodd;
      }

      .cls-5 {
        fill: #e13f61;
      }

      .cls-6 {
        fill: #ffc437;
      }
    </style>
    <clipPath id="clip-path">
      <circle id="Ellipse_1807" data-name="Ellipse 1807" class="cls-1" cx="32" cy="32" r="32" transform="translate(-23781 -23674)"/>
    </clipPath>
  </defs>
  <g id="Group_1003" data-name="Group 1003" transform="translate(23781 24234)">
    <g id="Group_723" data-name="Group 723" transform="translate(0 -560)">
      <g id="Mask_Group_14" data-name="Mask Group 14" class="cls-2">
        <g id="Background" transform="translate(-23794.547 -23688.381)">
          <path id="Path_1" data-name="Path 1" class="cls-3" d="M44.411,14.39c-.164.006-.569.029-.9.05s-.765.054-.969.073-.679.073-1.057.119-.829.109-1,.138-.547.093-.828.143-.574.106-.652.125l-.458.106L38,15.27c-.126.029-.324.077-.44.107s-.512.14-.88.244-1.018.307-1.444.452-1.021.36-1.321.479-.681.273-.845.342-.4.174-.528.231l-.564.255c-.184.083-.636.306-1,.495s-.772.4-.9.474l-.74.423c-.281.161-.6.351-.7.422s-.341.223-.521.338-.529.35-.775.522L26.7,20.5c-.106.074-.463.345-.792.6s-.931.752-1.338,1.1-1.146,1.04-1.656,1.55-1.2,1.244-1.55,1.656-.848,1.014-1.109,1.349-.515.667-.564.739-.224.32-.39.552-.5.732-.742,1.109-.512.814-.6.969-.254.448-.371.652-.363.663-.548,1.021-.407.81-.494,1-.206.455-.263.581-.162.364-.231.528-.229.561-.354.88-.333.89-.461,1.268-.287.869-.353,1.092-.181.635-.257.916-.164.622-.195.757l-.128.564c-.04.174-.088.38-.107.458s-.075.371-.125.652-.114.653-.143.828-.082.555-.119.845-.083.671-.1.845-.064.666-.1,1.092c-.044.563-.06,1.184-.06,2.272s.017,1.708.06,2.272c.033.426.077.917.1,1.092s.066.555.1.845.09.671.119.845.093.547.143.828.106.574.125.652.067.284.107.458l.128.564c.031.136.119.477.195.757s.192.693.257.916.224.714.353,1.092.336.948.461,1.268.285.716.354.88.174.4.231.528.176.387.263.581.31.646.5,1,.395.754.466.88.248.435.392.687.452.751.681,1.109.554.842.72,1.074.341.481.39.552.3.4.564.739.761.942,1.109,1.349,1.04,1.146,1.55,1.656,1.244,1.2,1.656,1.55,1.009.844,1.338,1.1.685.528.792.6l.64.449c.246.173.571.392.722.487s.386.247.522.337.476.3.757.457l.74.423c.126.071.53.285.9.474s.82.412,1,.495l.564.255c.126.057.364.162.528.231s.569.232.9.36.924.343,1.321.478,1.023.33,1.391.434.764.214.88.244.314.079.44.107l.546.125.458.106c.077.019.371.075.652.125s.653.114.828.143.555.082.845.119.671.083.845.1.666.064,1.092.1c.563.044,1.184.06,2.272.06s1.708-.017,2.272-.06c.426-.033.917-.077,1.092-.1s.555-.066.845-.1.671-.09.845-.119.547-.093.828-.143.574-.106.652-.125l.458-.107.564-.128c.136-.031.477-.119.757-.195s.693-.192.916-.258.73-.23,1.127-.365.967-.343,1.268-.461.681-.273.845-.342.4-.174.528-.231l.581-.263c.194-.087.646-.31,1-.494s.818-.431,1.021-.548.5-.283.652-.37.591-.356.969-.6.877-.577,1.109-.742.481-.341.552-.39.4-.3.739-.564.942-.761,1.349-1.109,1.146-1.04,1.656-1.55,1.2-1.244,1.55-1.656.844-1.009,1.1-1.338.646-.852.865-1.162.6-.873.84-1.25.513-.814.6-.969.254-.448.37-.652.363-.663.548-1.021.407-.81.494-1,.206-.455.264-.581.149-.332.2-.458.207-.506.342-.845.355-.941.49-1.338.3-.9.364-1.127.182-.635.258-.916.164-.622.195-.757l.128-.564c.04-.174.088-.38.107-.458s.075-.371.124-.652.112-.637.139-.792.1-.678.157-1.162.123-1.087.143-1.338.054-.941.077-1.532c.032-.823.032-1.321,0-2.131-.023-.581-.057-1.263-.077-1.514s-.084-.854-.143-1.338-.13-1.007-.157-1.162-.09-.512-.139-.792-.105-.574-.124-.652-.067-.284-.107-.458l-.128-.564c-.031-.136-.119-.477-.195-.757s-.192-.693-.258-.916-.229-.73-.364-1.127-.355-1-.49-1.338-.289-.719-.342-.845-.144-.332-.2-.458-.176-.387-.264-.581-.31-.646-.494-1-.431-.818-.548-1.021-.283-.5-.37-.652-.357-.591-.6-.969-.621-.94-.84-1.25-.608-.833-.865-1.162-.752-.93-1.1-1.337-1.038-1.144-1.532-1.639-1.19-1.152-1.548-1.462-.967-.814-1.356-1.119-.769-.6-.846-.652-.33-.232-.564-.4-.733-.5-1.11-.743-.814-.512-.969-.6-.448-.254-.652-.37-.663-.363-1.021-.548-.81-.407-1-.494l-.564-.256c-.116-.053-.338-.151-.493-.217s-.567-.232-.916-.369-.935-.35-1.3-.475-.851-.28-1.074-.345-.635-.182-.916-.258-.622-.164-.757-.195l-.564-.128-.458-.107c-.077-.019-.371-.075-.652-.125s-.653-.114-.828-.143-.555-.082-.845-.119-.679-.084-.863-.1-.659-.062-1.057-.091-1.261-.059-1.919-.066S44.576,14.383,44.411,14.39Z"/>
          <path id="Path_2" data-name="Path 2" class="cls-4" d="M40.3,17.509a.086.086,0,0,1,.079.03,1.07,1.07,0,0,1-.326.236c-.189.11-.6.37-.907.578s-.785.539-1.057.737-.754.571-1.074.827-.787.649-1.039.871-.72.663-1.04.981-.755.768-.966,1-.583.66-.825.951-.641.8-.887,1.127-.637.884-.869,1.233-.573.888-.757,1.2-.478.833-.654,1.162-.425.828-.555,1.109-.3.669-.386.863-.253.622-.379.951-.326.892-.444,1.25-.27.842-.337,1.074-.186.676-.263.986-.18.754-.228.986-.128.668-.177.969-.121.807-.161,1.127-.1.874-.124,1.233-.07,1.056-.091,1.55-.028,1.191-.016,1.55.053,1.079.091,1.6.092,1.189.122,1.479.093.909.139,1.374.119,1.075.16,1.356.122.741.18,1.021.166.748.241,1.039.17.71.212.933.132.635.2.916.171.677.23.88.2.631.319.951.244.645.284.722.185.4.323.722.378.811.534,1.092.347.606.424.722.226.338.331.493a4.241,4.241,0,0,0,.367.466.673.673,0,0,0,.248.186,5.973,5.973,0,0,0,.687-.231c.339-.128.632-.248.652-.266a2.472,2.472,0,0,0-.045-.675c-.044-.353-.1-1.006-.114-1.452s-.034-1.309-.034-1.919.015-1.411.035-1.779.06-.963.089-1.321.086-.937.125-1.285.119-.959.177-1.356.176-1.078.263-1.514.235-1.094.33-1.462.255-.939.355-1.268.262-.821.359-1.092.288-.77.424-1.109.339-.814.45-1.057.325-.686.475-.986.353-.689.449-.863.312-.547.478-.828.463-.748.658-1.039.515-.742.711-1,.528-.681.737-.933.667-.749,1.016-1.106.856-.846,1.127-1.088.772-.664,1.113-.937.848-.663,1.127-.866.792-.56,1.141-.792.864-.56,1.145-.728.709-.415.951-.55.71-.381,1.039-.546.757-.368.951-.45.677-.275,1.074-.428.9-.356,1.127-.45a5.341,5.341,0,0,1,.5-.192c.053-.011.1-.036.1-.055a3.665,3.665,0,0,1,.643-.245c.354-.116.912-.291,1.241-.39s.939-.273,1.356-.387.987-.265,1.268-.335.843-.2,1.25-.3,1.033-.229,1.391-.3.937-.174,1.285-.231.9-.134,1.215-.173.835-.095,1.145-.124.9-.07,1.321-.092a10.41,10.41,0,0,1,1.321.006l.581.5c.32.276.936.858,1.371,1.292s1.057,1.1,1.382,1.477.589.691.584.7-.461.018-1.013.027-1.352.033-1.779.053-1.147.067-1.6.1-1.287.117-1.849.176-1.37.154-1.8.21-1.108.158-1.514.226-1.057.188-1.444.268-.982.215-1.321.3-.917.24-1.285.347-1.026.315-1.462.463-1.125.4-1.532.563-.97.4-1.25.521-.835.39-1.233.589-.912.468-1.145.6-.629.36-.88.51-.8.5-1.215.776-.987.672-1.268.882-.7.533-.933.721-.558.456-.722.6-.606.543-.981.895-.875.845-1.11,1.1-.556.6-.713.775-.441.507-.631.74-.536.676-.767.986-.63.88-.886,1.268-.6.926-.758,1.2-.4.683-.527.916-.362.676-.519.986-.4.825-.549,1.145-.391.9-.545,1.285-.385,1.021-.513,1.409-.288.9-.355,1.145-.17.639-.228.88-.145.639-.193.88-.113.583-.143.757-.085.571-.123.88-.087.857-.108,1.215c-.026.45-.028.956,0,1.638.019.542.051,1.062.071,1.153.035.157.045.169.169.189a1.875,1.875,0,0,0,.59-.093c.252-.063.529-.139.616-.169a1.069,1.069,0,0,0,.311-.2,1.948,1.948,0,0,0,.339-.513c.1-.2.278-.608.389-.9s.293-.758.4-1.039.23-.566.265-.634.34-.591.679-1.162.826-1.356,1.082-1.743.636-.926.845-1.2.564-.706.789-.966.632-.7.9-.969.7-.676.951-.9.662-.563.914-.761.7-.53.986-.738.782-.54,1.092-.738.833-.517,1.162-.708.916-.508,1.3-.7.9-.445,1.145-.553.718-.309,1.057-.444.949-.36,1.356-.5,1.041-.337,1.409-.442.93-.254,1.25-.331.9-.2,1.285-.284.982-.19,1.321-.246.941-.142,1.338-.192.983-.113,1.3-.142.874-.069,1.233-.089,1.214-.036,1.9-.036,1.432.017,1.655.037.714.075,1.092.123,1.027.142,1.444.211.971.164,1.233.213.713.137,1,.2.814.168,1.162.243.713.162.81.2.374.138.616.235.686.286.986.422.784.373,1.074.529.824.459,1.844,1.067l.023.37c.013.2.038.512.056.687s.043.848.055,1.5c.013.722.006,1.474-.019,1.937-.022.417-.063,1.019-.092,1.338s-.075.755-.1.969-.069.522-.09.687-.045.323-.054.352-.04.192-.069.361-.076.439-.1.6-.074.386-.1.5l-.143.616c-.051.223-.135.556-.185.74s-.144.517-.208.74-.211.69-.327,1.039-.252.745-.3.88-.107.278-.125.317-.088.213-.154.387-.242.595-.392.933-.44.949-.643,1.356-.544,1.041-.757,1.409-.555.93-.761,1.25-.56.842-.787,1.162-.609.828-.846,1.129-.679.832-.981,1.18-.9.988-1.338,1.422-1.075,1.037-1.422,1.338-.878.743-1.18.981-.809.619-1.129.846-.842.582-1.162.787-.827.516-1.127.689-.633.363-.74.422-.479.25-.828.425-.927.449-1.285.608-.81.35-1,.423-.424.164-.511.2-.5.183-.916.323-.939.306-1.162.37l-.74.208c-.184.05-.683.17-1.109.265s-.933.2-1.127.232-.424.075-.511.093-.277.048-.423.067l-.81.1c-.3.038-.768.087-1.039.109s-.762.053-1.092.07-.971.031-1.426.031-1.1-.014-1.426-.031-.821-.049-1.092-.07-.739-.071-1.039-.109l-.81-.1c-.145-.018-.336-.048-.423-.066s-.317-.06-.511-.093-.7-.137-1.127-.232S38.185,74.8,38,74.747l-.74-.208c-.223-.064-.746-.23-1.162-.37s-.828-.285-.916-.323-.317-.129-.511-.2-.646-.263-1-.423-.937-.433-1.285-.608-.721-.366-.828-.424S31.22,72,31.046,71.9s-.467-.274-.652-.384-.549-.337-.812-.506-.738-.493-1.057-.72-.826-.608-1.127-.845-.832-.679-1.18-.98-.988-.9-1.422-1.338S23.76,66.051,23.458,65.7s-.743-.878-.981-1.18-.613-.8-.834-1.111-.555-.8-.743-1.092-.411-.643-.5-.784a2.9,2.9,0,0,1-.155-.273c0-.01.016-.018.035-.018a1.132,1.132,0,0,1,.238.152c.111.083.322.225.467.315s.438.243.652.341.435.2.493.235l.493.262c.213.113.578.288.81.388s.652.258.933.35.764.224,1.074.293.778.157,1.039.2.7.089.969.112c.3.025.862.035,1.444.024.6-.011,1.108-.039,1.374-.076.232-.032.652-.105.933-.162s.729-.167.995-.245.678-.212.916-.3.614-.234.836-.33.572-.257.775-.359.489-.254.634-.338a2.574,2.574,0,0,1,.291-.154c.014,0,.026,1.862.026,8.276l.185.2a1.553,1.553,0,0,0,.282.247,2.963,2.963,0,0,0,.9.035c.441-.008.928-.032,1.083-.054s.6-.1.986-.166.99-.2,1.338-.283.983-.274,1.409-.416,1.108-.392,1.514-.556,1.017-.421,1.356-.571.949-.436,1.356-.636.946-.477,1.2-.616.632-.356.845-.483.584-.367.824-.534.637-.469.88-.672.577-.5.739-.652a8.254,8.254,0,0,0,.671-.776c.207-.271.442-.588.524-.7a3.935,3.935,0,0,0,.535-1.567c.038-.281.093-.741.123-1.021s.085-.907.123-1.391.087-1.277.11-1.761c.025-.535.031-1.233.016-1.779-.013-.494-.031-1.128-.039-1.409s-.031-.646-.052-.81-.068-.513-.106-.775-.141-.864-.229-1.338-.271-1.4-.407-2.06-.308-1.435-.382-1.726-.209-.774-.3-1.074a5.317,5.317,0,0,0-.245-.687,1.653,1.653,0,0,0-.27-.312,2.146,2.146,0,0,0-.392-.273,1.957,1.957,0,0,0-.361-.137c-.143-.032-.213-.019-.731.138-.315.1-.715.224-.889.286s-.507.188-.74.281-.621.259-.863.368-.591.281-.775.38-.477.266-.652.371-.491.311-.7.457-.538.386-.722.532-.468.386-.632.532-.441.424-.616.618-.415.48-.533.634a1.575,1.575,0,0,0-.306.58c-.051.164-.157.561-.237.88s-.216.835-.3,1.145-.239.817-.338,1.127-.237.776-.433,1.506l-1.074.57-2.254,1.195c-.649.344-1.209.66-1.244.7a.5.5,0,0,0-.085.166.318.318,0,0,1-.068.132.294.294,0,0,0-.046.176c0,.131,0,.133-.361.332-.2.11-.492.264-.652.343s-.485.221-.722.316-.677.253-.977.351-.744.234-.986.3-.686.169-.986.23-.792.142-1.092.182a13.624,13.624,0,0,1-1.532.092c-.617.012-1.171,0-1.479-.021-.271-.023-.7-.073-.951-.113s-.624-.111-.828-.159-.5-.127-.669-.177-.481-.162-.7-.25-.591-.252-.819-.366-.576-.307-.775-.43-.48-.307-.625-.411-.391-.289-.546-.413-.485-.41-.734-.637-.656-.634-.9-.9-.589-.659-.756-.863-.437-.56-.6-.792-.4-.6-.535-.82a2.03,2.03,0,0,0-.274-.4,5.321,5.321,0,0,1-.218-.818c-.1-.45-.208-.962-.238-1.136s-.07-.4-.09-.493-.05-.295-.068-.44-.065-.51-.1-.81-.088-.768-.109-1.039-.053-.762-.07-1.092-.032-.916-.033-1.3.01-.994.025-1.347a2.637,2.637,0,0,1,.062-.643,1.857,1.857,0,0,1,.153.467c.064.257.273.934.463,1.506s.488,1.4.664,1.831.424,1.03.553,1.321.336.706.46.925.369.622.546.9.475.724.665.995.539.747.778,1.057.553.706.7.88.451.523.677.775.5.547.618.656.562.5,1,.862.919.76,1.074.878.432.3.616.414.509.279.722.374.673.269,1.021.385.761.239.916.272a3.222,3.222,0,0,0,.564.059,1.634,1.634,0,0,0,.748-.181,2.7,2.7,0,0,0,.466-.206.543.543,0,0,1,.181-.114.994.994,0,0,0,.265-.185.349.349,0,0,0,.083-.185c0-.062-.048-.126-.164-.22-.091-.073-.411-.394-.713-.714s-.645-.7-.764-.845-.391-.509-.606-.809-.51-.744-.654-.986-.357-.63-.473-.863-.353-.732-.527-1.109-.384-.845-.466-1.039-.189-.455-.237-.581-.138-.372-.2-.546-.195-.578-.293-.9-.243-.819-.321-1.109-.2-.814-.281-1.162-.18-.872-.23-1.162-.123-.805-.163-1.145-.1-.854-.14-1.145-.087-.75-.11-1.021-.042-.913-.043-1.426.014-1.963.032-3.223.044-2.309.059-2.333.042-.444.062-.933.06-1.151.09-1.47.086-.819.124-1.109.125-.853.194-1.25.179-.983.247-1.3.186-.842.264-1.162.229-.89.336-1.268.271-.916.365-1.2.273-.772.4-1.092.268-.66.317-.757a1.422,1.422,0,0,1,.311-.37c.122-.106.469-.388.77-.626s.808-.618,1.127-.845.794-.551,1.057-.72.628-.4.812-.506.477-.282.652-.384.4-.232.511-.291.479-.249.828-.424.927-.449,1.285-.608.81-.35,1-.423.423-.164.511-.2.5-.183.916-.323.939-.306,1.162-.37L38,18.02c.184-.05.683-.17,1.109-.264s.854-.188.951-.207S40.266,17.511,40.3,17.509Zm6.287,1.475s.116.084.247.187.515.393.854.644.668.492.731.535.115.09.115.1a1.059,1.059,0,0,1-.273.147c-.15.067-.48.223-.732.348s-.68.355-.951.512-.731.444-1.021.639-.774.539-1.074.765-.752.579-1,.785-.466.373-.475.372-.16-.09-.335-.2-.5-.306-.722-.438a1.525,1.525,0,0,1-.493-.373.986.986,0,0,0-.37-.285l.3-.246c.164-.135.521-.419.792-.63s.7-.534.951-.716.751-.525,1.109-.761.889-.567,1.18-.737.671-.386.845-.48S46.581,18.984,46.586,18.983Zm-10.313,8.68c.03.009.13.032.222.052a5.811,5.811,0,0,1,.652.243c.266.113.615.248.775.3.268.086.287.1.247.158-.024.036-.147.189-.273.339s-.36.442-.52.647-.51.676-.778,1.044-.637.891-.82,1.162-.348.521-.367.554c-.031.056-.107.045-1.012-.141-.806-.166-.975-.211-.957-.255s.173-.306.359-.616.488-.793.671-1.074.485-.725.67-.986.5-.693.706-.96C36.1,27.8,36.236,27.652,36.274,27.664Zm27.079,5.13c.885,0,1.9.025,2.26.049s.762.054.9.067.461.047.722.076.777.1,1.145.159.817.133,1.328.225l.258.9c.142.494.322,1.1.4,1.356s.138.462.134.468-.331-.053-.728-.13-1.007-.188-1.356-.247-.879-.138-1.18-.177-.871-.1-1.268-.142-1.095-.094-1.55-.124-.954-.053-1.109-.053a.764.764,0,0,1-.337-.044,2.365,2.365,0,0,1-.228-.432c-.1-.213-.294-.609-.442-.88s-.34-.612-.429-.757a1.009,1.009,0,0,1-.144-.291C61.736,32.8,62.468,32.79,63.353,32.794Zm-7.724.772a.709.709,0,0,1,.2.182,3.155,3.155,0,0,1,.295.415c.073.126.2.348.293.493s.268.419.4.608a3.649,3.649,0,0,1,.241.37,1.074,1.074,0,0,1-.326.055c-.179.015-.508.051-.731.08s-.643.092-.933.14-.853.161-1.25.25-1.007.24-1.356.336a6.226,6.226,0,0,1-.675.163c-.023-.006-.351-.316-.731-.689s-.686-.685-.681-.693.183-.086.4-.173.665-.261,1-.387.941-.332,1.338-.459.991-.3,1.321-.387.726-.19.88-.229S55.609,33.568,55.629,33.566Zm-35.5,2.3c.005,0,.027.4.048.888s.062,1.221.09,1.638.1,1.2.16,1.743.1,1,.093,1.021-.318.245-.689.5-.69.467-.709.467-.043-.028-.052-.062S19,41.7,18.93,41.33s-.156-.859-.193-1.092-.1-.653-.138-.933-.1-.78-.215-1.708l.87-.87C19.73,36.248,20.126,35.859,20.132,35.863Zm11.3.052.124.019c.068.011.433.046.811.08s.691.066.7.073-.109.309-.253.672-.342.89-.442,1.171-.287.812-.655,1.849L31,39.8c-.617.015-.712.011-.712-.035,0-.029.072-.346.16-.7s.23-.889.316-1.18.218-.71.294-.933.191-.546.255-.717Zm15.34,1.17c.01,0,.186.155.39.343s.446.411.537.493a1.158,1.158,0,0,1,.166.167,2.155,2.155,0,0,1-.317.176c-.174.087-.5.264-.713.393s-.586.361-.819.516-.581.4-.775.546-.483.373-.933.745l-.52-.343a4.3,4.3,0,0,1-.525-.379,1.87,1.87,0,0,1,.318-.319c.178-.156.545-.462.816-.68s.723-.559,1-.759.7-.485.932-.633S46.759,37.086,46.77,37.086Zm-5.7,4.867.34.232c.187.127.415.284.674.466l-.339.361c-.187.2-.554.639-.816.977s-.493.636-.515.661-.137-.013-.5-.221c-.252-.146-.47-.265-.484-.264a.032.032,0,0,1-.026-.035,6.328,6.328,0,0,1,.4-.572c.219-.3.54-.712.713-.926l.434-.534Z"/>
          <path id="Path_3" data-name="Path 3" class="cls-5" d="M59.626,42.618c-.087.057-.4.253-.687.434s-.758.468-1.039.638-1,.593-1.6.941-1.337.781-1.638.961-.606.356-.679.392a.434.434,0,0,0-.133.083,1.246,1.246,0,0,0,.086.176c.048.087.177.357.287.6s.308.71.439,1.039.325.868.431,1.2.231.736.277.9l.084.306c.164-.118,1.4-1.022,2.853-2.084s2.673-1.937,2.712-1.944,2.091-.038,4.561-.069,4.554-.064,4.631-.072a.576.576,0,0,0,.238-.086.4.4,0,0,0,.129-.186,1.959,1.959,0,0,0,0-.484c-.018-.2-.072-.845-.119-1.426a5.266,5.266,0,0,0-.139-1.136.438.438,0,0,0-.168-.127c-.092-.038-1.05-.06-4.763-.107-2.557-.033-4.863-.058-5.124-.056C59.8,42.514,59.781,42.517,59.626,42.618Z"/>
          <path id="Path_4" data-name="Path 4" class="cls-6" d="M70.419,43.091a9.612,9.612,0,0,0,.051,1.039c.043.533.092,1.107.111,1.277a1,1,0,0,1-.011.437.494.494,0,0,1-.143.2c-.092.069-.153.075-.863.085l-.764.011c-.091.2-.184.41-.265.594a6.053,6.053,0,0,0-.255.74,3.152,3.152,0,0,0-.11,1.092,3.482,3.482,0,0,0,.055.9c.032.116.107.338.167.493a3.185,3.185,0,0,0,.246.493,3.915,3.915,0,0,0,.309.4,2.7,2.7,0,0,0,.417.354,2.556,2.556,0,0,0,.475.244,2.292,2.292,0,0,0,.493.1,1.621,1.621,0,0,0,.511-.04,2.567,2.567,0,0,0,.493-.187,2.241,2.241,0,0,0,.528-.412,2.671,2.671,0,0,0,.44-.564,4.087,4.087,0,0,0,.253-.564,4.845,4.845,0,0,0,.15-.6,4.25,4.25,0,0,0,.055-.581,3.955,3.955,0,0,0-.074-.634,6.6,6.6,0,0,0-.189-.7c-.063-.184-.195-.509-.292-.722s-.348-.712-.556-1.109-.539-1.047-.736-1.444-.383-.778-.414-.845C70.452,43.034,70.442,43.028,70.419,43.091Z"/>
          <path id="Path_5" data-name="Path 5" class="cls-7" d="M30.015,43.485l-.291.011c-.028.4-.052.764-.071,1.074s-.035.825-.035,1.145V46.3a6.311,6.311,0,0,1,.749-.053h.308c.024-.287.048-.766.069-1.25s.061-1.015.089-1.18.052-.311.052-.326a.816.816,0,0,0-.29-.019Z"/>
          <path id="Path_6" data-name="Path 6" class="cls-5" d="M49.483,45.507l-.687.212c-.252.079-.688.23-.969.337s-.741.3-1.021.423-.677.316-.88.424-.512.284-.687.389-.491.311-.7.457-.538.386-.722.532-.468.386-.632.532-.441.424-.616.618-.415.48-.533.634a1.575,1.575,0,0,0-.306.58c-.051.164-.157.561-.237.88s-.216.835-.3,1.145-.239.817-.338,1.127-.237.776-.306,1.035l-.127.471-3.328,1.765c-.649.344-1.209.66-1.244.7a.486.486,0,0,0-.085.166.22.22,0,0,1-.059.113A17.152,17.152,0,0,0,35.669,60c.005,1.062.009,3.8.009,6.077v4.147a2.782,2.782,0,0,0,.467.444,2.963,2.963,0,0,0,.9.035c.441-.008.928-.032,1.083-.054s.6-.1.986-.166.99-.2,1.338-.283.983-.274,1.409-.416,1.108-.392,1.514-.556,1.017-.421,1.356-.571.949-.436,1.356-.636.946-.477,1.2-.616.632-.356.845-.483.584-.367.824-.534.637-.469.88-.672.577-.5.739-.652a8.254,8.254,0,0,0,.671-.776c.207-.271.442-.588.524-.7a3.935,3.935,0,0,0,.535-1.567c.038-.281.093-.741.123-1.021s.085-.907.123-1.391.087-1.277.11-1.761c.025-.535.031-1.233.016-1.779-.013-.494-.031-1.128-.039-1.409s-.031-.646-.052-.81-.068-.513-.106-.775-.141-.864-.229-1.338-.271-1.4-.407-2.06-.308-1.435-.382-1.726-.209-.774-.3-1.074a5.317,5.317,0,0,0-.245-.687,1.666,1.666,0,0,0-.27-.313,2.074,2.074,0,0,0-.436-.287,1.894,1.894,0,0,0-.37-.133A.957.957,0,0,0,49.483,45.507Zm2.958.153c-.184.063-.485.187-.669.274a2.036,2.036,0,0,0-.414.243l-.08.085c.213.573.34.954.418,1.215s.206.721.284,1.021.22.9.316,1.338.231,1.078.3,1.426.156.879.194,1.18.079.673.091.828.029.385.038.511l.018.229a5.294,5.294,0,0,1,.684-.474c.291-.18.671-.435.845-.566a3.1,3.1,0,0,0,.439-.392,2.038,2.038,0,0,0,.229-.418,1.387,1.387,0,0,0,.1-.74,5.337,5.337,0,0,0-.044-.687c-.022-.116-.11-.441-.194-.722s-.38-1.1-.655-1.831-.544-1.448-.6-1.6-.155-.409-.227-.564a.74.74,0,0,0-.279-.379.482.482,0,0,0-.307-.094A2.234,2.234,0,0,0,52.441,45.659Z"/>
          <path id="Path_7" data-name="Path 7" class="cls-7" d="M20.559,45.892c-.384.194-.481.257-.469.306.008.034.051.181.094.326s.239.684.437,1.2.38,1,.4,1.074a1.909,1.909,0,0,0,.075.2c.027.055.076.04.48-.154l.456-.22s-.089-.259-.207-.568-.268-.738-.334-.951-.175-.629-.242-.925a1.5,1.5,0,0,0-.166-.535A5.3,5.3,0,0,0,20.559,45.892Zm17.1,1.063c-.157.3-.39.748-.518,1a2.592,2.592,0,0,0-.214.5.108.108,0,0,0,.088.035,1.891,1.891,0,0,1,.352.106,2.709,2.709,0,0,0,.317.106,6.018,6.018,0,0,0,.471-.678c.24-.373.493-.769.564-.88l.128-.2c-.665-.4-.867-.515-.88-.52A4,4,0,0,0,37.659,46.955Z"/>
          <path id="Path_8" data-name="Path 8" class="cls-6" d="M60.845,49.826c-.112.228-.34.667-.508.975s-.33.6-.359.652l-.157.267c-.057.1-.221.366-.366.6s-.6.936-1.023,1.564-.785,1.159-.814,1.18a1.379,1.379,0,0,0-.185.259,1.64,1.64,0,0,0-.132.247,2.257,2.257,0,0,1-.164.291c-.091.145-.257.427-.37.625s-.3.555-.415.792-.236.5-.268.59-.13.365-.217.616-.189.6-.227.775-.1.519-.137.766a7.214,7.214,0,0,0-.068,1.2,5.883,5.883,0,0,0,.069,1.136c.038.213.087.451.108.528s.076.26.122.405.133.383.195.528.169.367.238.493.22.372.336.546a6.7,6.7,0,0,0,.425.565c.118.136.358.379.532.54a6.172,6.172,0,0,0,.652.513c.184.121.446.277.581.346s.4.182.581.252a6.553,6.553,0,0,0,.669.2,4.078,4.078,0,0,0,1.109.08,4.224,4.224,0,0,0,1.127-.078,5.826,5.826,0,0,0,.722-.224c.2-.08.5-.218.669-.307s.379-.217.475-.285.3-.222.44-.342.345-.3.443-.407.25-.275.337-.381.23-.3.317-.423.221-.34.3-.475.2-.381.271-.546.171-.41.217-.546.108-.334.138-.44.087-.384.127-.616a8.754,8.754,0,0,0,.017-2.1c-.03-.16-.08-.4-.111-.537s-.116-.429-.19-.652-.2-.564-.279-.757-.253-.574-.385-.845-.374-.731-.537-1.021-.334-.592-.378-.669-.106-.181-.138-.229-.076-.12-.1-.158l-.157-.264-.169-.287c-.03-.051-.178-.3-.33-.546s-.339-.555-.417-.681-.252-.411-.388-.634-.264-.437-.287-.475-.067-.11-.1-.158-.093-.151-.137-.229l-.168-.3c-.049-.087-.123-.214-.165-.282s-.212-.369-.379-.669-.4-.728-.515-.951a2.778,2.778,0,0,0-.243-.415A1.785,1.785,0,0,0,60.845,49.826Z"/>
          <path id="Path_9" data-name="Path 9" class="cls-7" d="M30.359,49.555a2.789,2.789,0,0,1-.37.031l-.211,0c.041.4.1.872.167,1.313s.123.8.133.792.143-.057.294-.115c.272-.1.275-.107.254-.211-.012-.058-.031-.5-.043-.977a8.394,8.394,0,0,0-.044-.867Zm5.377,1.293c-.008.014-.079.185-.156.379s-.192.527-.253.74-.143.459-.18.546a.36.36,0,0,0-.047.176.541.541,0,0,0,.167.024,1.977,1.977,0,0,1,.252.027c.1.021.107.017.219-.27.062-.16.2-.466.3-.679s.232-.455.283-.537c.086-.138.089-.152.032-.179-.034-.016-.163-.068-.286-.114a1.016,1.016,0,0,1-.238-.111.056.056,0,0,0-.046-.026A.061.061,0,0,0,35.736,50.848Zm-12.632.82a2.831,2.831,0,0,1-.291.184.593.593,0,0,0-.2.149c0,.019.113.249.25.511s.378.686.536.942a3.64,3.64,0,0,0,.314.467,2.789,2.789,0,0,0,.326-.238l.3-.238c-.147-.245-.322-.531-.484-.792s-.361-.606-.443-.766a1.035,1.035,0,0,0-.183-.29A.347.347,0,0,0,23.1,51.668Zm7.555,1.8c-.116.018-.233.038-.259.044s-.02.148.088.679c.075.368.144.677.154.687a1.025,1.025,0,0,0,.291-.067c.261-.082.272-.09.259-.182-.007-.053-.063-.311-.124-.572s-.118-.511-.127-.555-.029-.077-.043-.074Z"/>
          <path id="Path_10" data-name="Path 10" class="cls-6" d="M68.554,53.7a2.636,2.636,0,0,0-.44.2,2.2,2.2,0,0,0-.317.263,2.576,2.576,0,0,0-.288.372,2.229,2.229,0,0,0-.2.475,2.183,2.183,0,0,0-.073.511A2.4,2.4,0,0,0,67.29,56a2.276,2.276,0,0,0,.158.423,2.4,2.4,0,0,0,.272.387,2.165,2.165,0,0,0,.362.319,2.68,2.68,0,0,0,.376.2,2.166,2.166,0,0,0,.44.112,1.964,1.964,0,0,0,.5,0,2.36,2.36,0,0,0,.44-.1,2.309,2.309,0,0,0,.37-.188,2.553,2.553,0,0,0,.352-.295,2.222,2.222,0,0,0,.305-.424,2.111,2.111,0,0,0,.189-.543,1.633,1.633,0,0,0,.036-.511,3.086,3.086,0,0,0-.079-.405,1.945,1.945,0,0,0-.535-.854,2.018,2.018,0,0,0-.471-.324,2.619,2.619,0,0,0-.414-.158,2.649,2.649,0,0,0-.458-.037A1.46,1.46,0,0,0,68.554,53.7Z"/>
          <path id="Path_11" data-name="Path 11" class="cls-7" d="M34.34,55.268c-.062.257-.121.538-.131.625l-.018.158c.287-.018.291-.022.4-.255.06-.131.155-.353.211-.493l.1-.255a4.352,4.352,0,0,0-.427-.245A2.736,2.736,0,0,0,34.34,55.268ZM25.3,55.43l-.256.164c.206.21.409.389.583.534s.394.33.489.41l.172.147c.24-.273.337-.388.371-.432s.052-.085.043-.091l-.264-.174a5.585,5.585,0,0,1-.555-.446c-.169-.156-.312-.282-.317-.28S25.436,55.339,25.3,55.43Zm5.742.733c-.073.008-.114.031-.114.065s.049.255.11.5a4.009,4.009,0,0,0,.132.472.475.475,0,0,0,.208-.018.582.582,0,0,0,.186-.058c0-.01-.032-.113-.071-.229a3.6,3.6,0,0,1-.115-.484c-.041-.259-.048-.273-.131-.267C31.191,56.148,31.1,56.156,31.037,56.163Zm15.417,1.362c-.9.45-1.812.911-2.025,1.026s-.76.416-1.215.671-1.081.6-1.391.773-.7.39-.863.488-.481.3-.7.447-.433.28-.467.293c-.056.022-.064.114-.083.984-.012.528-.011,1.808,0,2.844.024,1.881.024,1.885.1,2.025s.1.147.315.2l.234.062c6.462-3.174,6.611-3.251,6.774-3.426a5.215,5.215,0,0,0,.738-1.117c.066-.145.163-.383.216-.528s.134-.415.18-.6.117-.541.157-.792.082-.68.094-.951,0-.761-.02-1.109-.066-.8-.1-1.021-.079-.508-.111-.634a2.121,2.121,0,0,0-.115-.343.339.339,0,0,0-.073-.112C48.1,56.706,47.355,57.075,46.454,57.525Z"/>
          <path id="Path_12" data-name="Path 12" class="cls-5" d="M47.613,57.305a7.209,7.209,0,0,1-.772.469c-.242.125-.519.283-.616.351a.534.534,0,0,1-.2.108,8.448,8.448,0,0,0-.828.437c-.441.249-1.142.64-1.558.868s-1.288.687-1.937,1.022-1.291.67-1.426.745c-.235.132-.246.144-.24.26,0,.067.015.292.026.5l.02.379.969-.074c.252-.02.719-.067,1.039-.106s.763-.1.986-.142.579-.111.792-.157.586-.14.828-.207.678-.2.969-.3.655-.24.81-.315a2.387,2.387,0,0,0,.471-.306,2.06,2.06,0,0,0,.325-.4c.074-.126.209-.4.3-.6a7.354,7.354,0,0,0,.279-.775,7.56,7.56,0,0,0,.175-.81,1.963,1.963,0,0,0,0-.792c-.031-.213-.062-.39-.067-.392S47.8,57.172,47.613,57.305Z"/>
          <path id="Path_13" data-name="Path 13" class="cls-7" d="M27.656,57.428c-.082.046-.15.1-.15.12s.067.069.15.11.28.16.44.264c.256.167.3.183.352.141a2.469,2.469,0,0,1,.229-.141l.167-.093c-.751-.382-.984-.491-1-.489A.964.964,0,0,0,27.656,57.428Z"/>
          <path id="Path_14" data-name="Path 14" class="cls-6" d="M31.806,64.83c-.044.092-.151.294-.239.449s-.363.591-.61.969-.514.814-.592.969a4.247,4.247,0,0,0-.213.511,3.845,3.845,0,0,0-.108.458,3.331,3.331,0,0,0-.036.431,2.342,2.342,0,0,0,.037.387,2.818,2.818,0,0,0,.113.379,3.5,3.5,0,0,0,.163.352,2.079,2.079,0,0,0,.283.356,2.689,2.689,0,0,0,.372.31,1.986,1.986,0,0,0,.405.182,1.792,1.792,0,0,0,.528.069,2.269,2.269,0,0,0,.44-.04,2.781,2.781,0,0,0,.369-.149,1.821,1.821,0,0,0,.467-.349,1.755,1.755,0,0,0,.379-.528,2.943,2.943,0,0,0,.2-.572,2.088,2.088,0,0,0,.039-.546,2.613,2.613,0,0,0-.128-.59,5.789,5.789,0,0,0-.265-.634c-.085-.169-.4-.712-.7-1.206s-.589-1.005-.648-1.136a.664.664,0,0,0-.144-.238C31.9,64.662,31.849,64.738,31.806,64.83Zm-4.954.177a1.314,1.314,0,0,0-.335.187,1.279,1.279,0,0,0-.259.317.932.932,0,0,0-.119.437.94.94,0,0,0,.265.788,1.338,1.338,0,0,0,.31.26,1.3,1.3,0,0,0,.317.1,1.334,1.334,0,0,0,.37-.007,1.255,1.255,0,0,0,.335-.115,1.466,1.466,0,0,0,.293-.253.95.95,0,0,0,.207-.366,1.258,1.258,0,0,0,.039-.423.959.959,0,0,0-.119-.42,1.14,1.14,0,0,0-.279-.328,1.263,1.263,0,0,0-.352-.188,1.424,1.424,0,0,0-.335-.049A1.329,1.329,0,0,0,26.852,65.007Zm26.4,1.7a3.025,3.025,0,0,0-.458.106,3.775,3.775,0,0,0-.405.164,2.852,2.852,0,0,0-1.262,1.258,3.371,3.371,0,0,0-.217.608,2.67,2.67,0,0,0-.088.687,2.534,2.534,0,0,0,.087.66,2.786,2.786,0,0,0,.5,1.057,2.986,2.986,0,0,0,.364.391,4.048,4.048,0,0,0,.384.285,3.618,3.618,0,0,0,.458.23,3.056,3.056,0,0,0,.511.151,3.391,3.391,0,0,0,.669.025,2.543,2.543,0,0,0,.669-.1,3.976,3.976,0,0,0,.44-.172,3,3,0,0,0,.352-.206,3.865,3.865,0,0,0,.323-.263,3.818,3.818,0,0,0,.331-.362,3.025,3.025,0,0,0,.3-.493,4.223,4.223,0,0,0,.2-.511,2.476,2.476,0,0,0,.065-.7,2.777,2.777,0,0,0-.061-.7,3.42,3.42,0,0,0-.176-.475A3.711,3.711,0,0,0,56,67.92a3.626,3.626,0,0,0-.3-.365,3.055,3.055,0,0,0-.336-.3,3.855,3.855,0,0,0-.352-.222,4,4,0,0,0-.423-.193,2.883,2.883,0,0,0-.546-.126,4.069,4.069,0,0,0-.44-.035C53.536,66.677,53.377,66.692,53.251,66.709Zm-7.836,3.582a2.636,2.636,0,0,0-.44.2,2.195,2.195,0,0,0-.317.263,2.576,2.576,0,0,0-.288.372,2.229,2.229,0,0,0-.2.475,2.183,2.183,0,0,0-.073.511,2.4,2.4,0,0,0,.057.475,2.286,2.286,0,0,0,.158.423,2.4,2.4,0,0,0,.272.387,2.165,2.165,0,0,0,.362.319,2.682,2.682,0,0,0,.376.2,2.167,2.167,0,0,0,.44.112,1.964,1.964,0,0,0,.5,0,2.36,2.36,0,0,0,.44-.1,2.309,2.309,0,0,0,.37-.188,2.554,2.554,0,0,0,.352-.295,2.222,2.222,0,0,0,.305-.424,2.111,2.111,0,0,0,.189-.543,1.633,1.633,0,0,0,.036-.511,3.087,3.087,0,0,0-.079-.405,1.945,1.945,0,0,0-.535-.854,2.018,2.018,0,0,0-.471-.324,2.619,2.619,0,0,0-.414-.158A2.649,2.649,0,0,0,46,70.193,1.46,1.46,0,0,0,45.415,70.291Zm-7.326,1.238a1.448,1.448,0,0,0-.37.185,1.258,1.258,0,0,0-.454.608.987.987,0,0,0-.067.493,1.069,1.069,0,0,0,.116.493,1.59,1.59,0,0,0,.254.361,1.677,1.677,0,0,0,.336.246.907.907,0,0,0,.555.1.976.976,0,0,0,.564-.095,1.6,1.6,0,0,0,.348-.247,1.554,1.554,0,0,0,.262-.38,1.274,1.274,0,0,0,.084-.88,1.541,1.541,0,0,0-.175-.37,1.619,1.619,0,0,0-.293-.309,1.536,1.536,0,0,0-.4-.2,1.567,1.567,0,0,0-.387-.068A1.646,1.646,0,0,0,38.089,71.529Z"/>
        </g>
      </g>
    </g>
  </g>
</svg>
