<svg xmlns="http://www.w3.org/2000/svg" width="64" height="64" viewBox="0 0 64 64">
  <defs>
    <style>
      .cls-1 {
        fill: #fff;
      }

      .cls-2 {
        fill: #7f46f0;
      }

      .cls-2, .cls-3, .cls-4, .cls-5 {
        fill-rule: evenodd;
      }

      .cls-3 {
        fill: #d34fa0;
      }

      .cls-4 {
        fill: #0aa5e8;
      }

      .cls-5 {
        fill: #38e4de;
      }
    </style>
  </defs>
  <g id="Group_1005" data-name="Group 1005" transform="translate(23553 24234)">
    <g id="Group_725" data-name="Group 725" transform="translate(0 -560)">
      <g id="Group_715" data-name="Group 715">
        <circle id="Ellipse_1807" data-name="Ellipse 1807" class="cls-1" cx="32" cy="32" r="32" transform="translate(-23553 -23674)"/>
        <g id="Layer_x0020_1" transform="translate(-23545.908 -23666.908)">
          <g id="_2302127387760">
            <path id="Path_17415" data-name="Path 17415" class="cls-2" d="M75.509,178.873v6.961a12.1,12.1,0,0,1-12.082,12.082H55.183v-9.163h8.08a3.089,3.089,0,0,0,3.083-3.083v-8.08h9.163Z" transform="translate(-46.019 -148.1)"/>
            <path id="Path_17416" data-name="Path 17416" class="cls-3" d="M19.043,122.408H12.082A12.1,12.1,0,0,0,0,134.49v8.244H9.164v-8.08a3.089,3.089,0,0,1,3.083-3.083h8.08v-9.163Z" transform="translate(0 -102.082)"/>
            <path id="Path_17417" data-name="Path 17417" class="cls-4" d="M178.873,75.509h6.961a12.1,12.1,0,0,0,12.082-12.082V55.183h-9.163v8.08a3.089,3.089,0,0,1-3.083,3.083h-8.08v9.163Z" transform="translate(-148.1 -46.019)"/>
            <path id="Path_17418" data-name="Path 17418" class="cls-5" d="M122.408,19.043V12.082A12.1,12.1,0,0,1,134.49,0h8.244V9.164h-8.08a3.089,3.089,0,0,0-3.083,3.083v8.08h-9.163Z" transform="translate(-102.082)"/>
          </g>
        </g>
      </g>
    </g>
  </g>
</svg>
