<svg xmlns="http://www.w3.org/2000/svg" xmlns:xlink="http://www.w3.org/1999/xlink" width="64" height="64" viewBox="0 0 64 64">
  <defs>
    <style>
      .cls-1 {
        fill: #fff;
      }

      .cls-2 {
        clip-path: url(#clip-path);
      }

      .cls-3 {
        fill: url(#radial-gradient);
      }

      .cls-4 {
        fill: url(#radial-gradient-2);
      }

      .cls-5 {
        fill: url(#linear-gradient);
      }

      .cls-6 {
        fill: url(#linear-gradient-2);
      }

      .cls-7 {
        fill: url(#linear-gradient-3);
      }
    </style>
    <clipPath id="clip-path">
      <circle id="Ellipse_2548" data-name="Ellipse 2548" class="cls-1" cx="32" cy="32" r="32"/>
    </clipPath>
    <radialGradient id="radial-gradient" cx="0.468" cy="0.494" r="0.576" gradientTransform="matrix(0.752, 0.591, 0.434, -0.636, -3.907, 13.428)" gradientUnits="objectBoundingBox">
      <stop offset="0" stop-color="#88f5f8" stop-opacity="0.698"/>
      <stop offset="0.73" stop-color="#88f5f8" stop-opacity="0"/>
    </radialGradient>
    <radialGradient id="radial-gradient-2" cx="0.49" cy="0.476" r="0.459" gradientTransform="matrix(0.628, -0.763, -0.891, -0.779, 4.014, 7.937)" gradientUnits="objectBoundingBox">
      <stop offset="0" stop-color="#b4a7fe" stop-opacity="0.698"/>
      <stop offset="0.46" stop-color="#b4a7fe" stop-opacity="0"/>
    </radialGradient>
    <linearGradient id="linear-gradient" x1="0.148" y1="1.143" x2="1.28" y2="-0.092" gradientUnits="objectBoundingBox">
      <stop offset="0" stop-color="#8697ff"/>
      <stop offset="0.29" stop-color="#7a7bf5"/>
      <stop offset="0.76" stop-color="#6853e7"/>
      <stop offset="1" stop-color="#6144e1"/>
    </linearGradient>
    <linearGradient id="linear-gradient-2" x1="0.126" y1="1.595" x2="0.911" y2="0.75" gradientUnits="objectBoundingBox">
      <stop offset="0" stop-color="#afffff"/>
      <stop offset="0.68" stop-color="#5adfe6"/>
      <stop offset="1" stop-color="#36d1dc"/>
    </linearGradient>
    <linearGradient id="linear-gradient-3" x1="0.87" y1="2.966" x2="0.154" y2="3.681" gradientUnits="objectBoundingBox">
      <stop offset="0" stop-color="#f7971e"/>
      <stop offset="0.16" stop-color="#f9a616"/>
      <stop offset="0.47" stop-color="#fcbe0a"/>
      <stop offset="0.76" stop-color="#fecd03"/>
      <stop offset="1" stop-color="#ffd200"/>
    </linearGradient>
  </defs>
  <g id="Mask_Group_559" data-name="Mask Group 559" class="cls-2">
    <g id="Layer_2" data-name="Layer 2" transform="translate(-35.22 -42.091)">
      <g id="Layer_1" data-name="Layer 1" transform="translate(8.854 -1.671)">
        <g id="Group_13422" data-name="Group 13422" transform="translate(0)">
          <path id="Path_32468" data-name="Path 32468" class="cls-1" d="M51.173,82.671A32.279,32.279,0,1,0,18.894,50.392,32.279,32.279,0,0,0,51.173,82.671Z" transform="translate(7.227 25.703)"/>
          <path id="Path_32469" data-name="Path 32469" class="cls-3" d="M96.612,101.279c-14.3,19.529-45.949,20.659-70.707,2.55S-7.359,55.185,6.941,35.656,52.89,14.981,77.648,33.073,110.912,81.75,96.612,101.279Z" transform="translate(0.001 11.781)"/>
          <path id="Path_32470" data-name="Path 32470" class="cls-4" d="M109.053,17.093c26.453,22.45,32.8,58.458,14.154,80.44s-55.229,21.611-81.666-.839S8.714,38.219,27.371,16.237,82.584-5.358,109.053,17.093Z" transform="translate(-5.36 0)"/>
          <path id="Path_32471" data-name="Path 32471" class="cls-5" d="M60.766,30.36a2.711,2.711,0,0,0-1.017-1.792A27.711,27.711,0,0,0,42.77,23.4a27.712,27.712,0,0,0-16.947,5.165,2.711,2.711,0,0,0-1.017,1.792c-.533,4.212-1.372,19.8,14.106,28.212a8.07,8.07,0,0,0,7.715,0C62.137,50.164,61.3,34.573,60.766,30.36Z" transform="translate(15.631 33.5)"/>
          <path id="Path_32472" data-name="Path 32472" class="cls-6" d="M45.332,36.016a4.664,4.664,0,0,0-.581-1.21,4.5,4.5,0,0,0-.839-.9,6.458,6.458,0,0,0-1-.629,4.245,4.245,0,0,0-1.049-.355,4.616,4.616,0,0,0-1.017-.129H33.986a1.517,1.517,0,0,1-1.162-.436,1.953,1.953,0,0,1,0-2.421,1.469,1.469,0,0,1,1.162-.452H44.348a.759.759,0,0,0,.823-.71V27.155a.742.742,0,0,0-.742-.742H33.986a5.487,5.487,0,0,0-1.614.242,4.971,4.971,0,0,0-1.517.823,4.68,4.68,0,0,0-1.178,1.469,5.536,5.536,0,0,0,0,4.455,4.681,4.681,0,0,0,1.178,1.469,4.971,4.971,0,0,0,1.517.823,5.488,5.488,0,0,0,1.614.242h6.859a1.791,1.791,0,0,1,.662.129,1.466,1.466,0,0,1,.823.855,2.292,2.292,0,0,1,.113.678,1.7,1.7,0,0,1-.42,1.21,1.614,1.614,0,0,1-1.178.436H29.128a.71.71,0,0,0-.629,1.033l.823,1.614a.726.726,0,0,0,.646.387H40.845a5.648,5.648,0,0,0,1-.1,5.117,5.117,0,0,0,2.05-.968,3.454,3.454,0,0,0,.839-.9,4.439,4.439,0,0,0,.581-1.21,5.681,5.681,0,0,0,0-3.115Z" transform="translate(21.3 37.964)"/>
          <path id="Path_32473" data-name="Path 32473" class="cls-7" d="M34.965,33.829a4.455,4.455,0,1,0-4.551-4.471A4.519,4.519,0,0,0,34.965,33.829Z" transform="translate(24.243 35.761)"/>
        </g>
      </g>
    </g>
  </g>
</svg>
