<svg xmlns="http://www.w3.org/2000/svg" xmlns:xlink="http://www.w3.org/1999/xlink" width="64" height="64" viewBox="0 0 64 64">
  <defs>
    <style>
      .cls-1 {
        fill: #fff;
      }

      .cls-2 {
        clip-path: url(#clip-path);
      }

      .cls-3 {
        fill: url(#linear-gradient);
      }
    </style>
    <clipPath id="clip-path">
      <circle id="Ellipse_5290" data-name="Ellipse 5290" class="cls-1" cx="32" cy="32" r="32" transform="translate(-22116 -21705)"/>
    </clipPath>
    <linearGradient id="linear-gradient" x1="-2.452" y1="1.053" x2="-2.441" y2="1.053" gradientUnits="objectBoundingBox">
      <stop offset="0" stop-color="#109cf4"/>
      <stop offset="0.28" stop-color="#2e77f8"/>
      <stop offset="0.58" stop-color="#4859fc"/>
      <stop offset="0.83" stop-color="#5746fe"/>
      <stop offset="1" stop-color="#5d3fff"/>
    </linearGradient>
  </defs>
  <g id="Group_19986" data-name="Group 19986" transform="translate(22116 21705)">
    <g id="Mask_Group_672" data-name="Mask Group 672" class="cls-2">
      <g id="svgexport-1_1_" data-name="svgexport-1 (1)" transform="translate(-22116 -21705)">
        <path id="Path_40499" data-name="Path 40499" class="cls-3" d="M32,64A32,32,0,1,0,0,32,32,32,0,0,0,32,64Z"/>
        <path id="Path_40500" data-name="Path 40500" class="cls-1" d="M21.333,28.76,28,22.093h8l6.667,6.667L32,39.427Zm29.133-.08-6.933,6.933H38.547l6.92-6.933-7.04-6.987h4.96Zm-8.4,8.413L32,47.147,21.947,37.093h4.987L32,42.147l5.067-5.053ZM18.533,28.68l6.92,6.933H20.48L13.547,28.68l7.067-6.987H25.6Zm14.8,24.947,23.6-23.533a1.92,1.92,0,0,0,0-2.667L46.267,16.84a1.893,1.893,0,0,0-1.333-.56H18.96a1.88,1.88,0,0,0-.72.147,1.92,1.92,0,0,0-.613.413L7.067,27.413a1.92,1.92,0,0,0,0,2.667l23.6,23.6a1.867,1.867,0,0,0,2.667,0ZM19.68,19.8H44.307l9.027,8.96L32,50.093,10.667,28.76Z"/>
      </g>
    </g>
  </g>
</svg>
