<svg xmlns="http://www.w3.org/2000/svg" xmlns:xlink="http://www.w3.org/1999/xlink" width="64" height="64" viewBox="0 0 64 64">
  <defs>
    <style>
      .cls-1 {
        fill: #fff;
      }

      .cls-2 {
        clip-path: url(#clip-path);
      }

      .cls-3 {
        fill: url(#radial-gradient);
      }
    </style>
    <clipPath id="clip-path">
      <circle id="Ellipse_1892" data-name="Ellipse 1892" class="cls-1" cx="32" cy="32" r="32" transform="translate(-20651 -23593)"/>
    </clipPath>
    <radialGradient id="radial-gradient" cx="0.481" cy="0.007" r="1.503" gradientTransform="matrix(0, 1, 0.745, 0, -4.943, 6.717)" gradientUnits="objectBoundingBox">
      <stop offset="0" stop-color="#f4f3a4"/>
      <stop offset="1" stop-color="#d2d178"/>
    </radialGradient>
  </defs>
  <g id="Mask_Group_612" data-name="Mask Group 612" class="cls-2" transform="translate(20651 23593)">
    <g id="b" transform="translate(-20651 -23593)">
      <g id="c">
        <path id="Path_35143" data-name="Path 35143" class="cls-3" d="M32,64A32,32,0,1,0,0,32,32,32,0,0,0,32,64Z"/>
        <path id="Path_35144" data-name="Path 35144" d="M21.32,28.76l6.66-6.65h8.06l6.66,6.65L32,39.46,21.32,28.76Zm29.14-.08-6.93,6.93H38.55l6.93-6.93-7.04-6.99H43.4Zm-8.4,8.41L32,47.15,21.94,37.09h4.99L32,42.16l5.07-5.07ZM18.53,28.68l6.93,6.93H20.48l-6.93-6.93,7.06-6.99H25.6ZM33.34,53.63,56.93,30.09a1.907,1.907,0,0,0,0-2.68L46.33,16.82a1.685,1.685,0,0,0-.61-.41,1.963,1.963,0,0,0-.72-.14H18.96a1.963,1.963,0,0,0-.72.14,1.685,1.685,0,0,0-.61.41L7.07,27.41a1.907,1.907,0,0,0,0,2.68L30.66,53.68a1.883,1.883,0,0,0,2.66,0v-.05ZM19.68,19.8H44.31l8.97,8.96L32,50.04,10.72,28.76Z"/>
      </g>
    </g>
  </g>
</svg>
