<svg xmlns="http://www.w3.org/2000/svg" xmlns:xlink="http://www.w3.org/1999/xlink" width="64" height="64" viewBox="0 0 64 64">
  <defs>
    <style>
      .cls-1 {
        fill: #fff;
      }

      .cls-2 {
        clip-path: url(#clip-path);
      }

      .cls-3 {
        fill: #2c3851;
      }
    </style>
    <clipPath id="clip-path">
      <circle id="Ellipse_2547" data-name="Ellipse 2547" class="cls-1" cx="32" cy="32" r="32"/>
    </clipPath>
  </defs>
  <g id="Mask_Group_558" data-name="Mask Group 558" class="cls-2">
    <g id="_0x2D03bECE6747ADC00E1a131BBA1469C15fD11e03" data-name="0x2D03bECE6747ADC00E1a131BBA1469C15fD11e03" transform="translate(0 -0.001)">
      <circle id="Ellipse_2546" data-name="Ellipse 2546" class="cls-3" cx="32" cy="32" r="32"/>
      <g id="Group_13421" data-name="Group 13421" transform="translate(12.521 15.74)">
        <path id="Path_32465" data-name="Path 32465" class="cls-1" d="M32,50.573a11.132,11.132,0,0,1-7.923-3.282L15.8,39.012a11.216,11.216,0,0,1,0-15.845l4.14-4.14a11.132,11.132,0,0,1,7.923-3.282H36.14a11.132,11.132,0,0,1,7.923,3.282l4.14,4.14a11.218,11.218,0,0,1,0,15.845l-8.279,8.278A11.128,11.128,0,0,1,32,50.573ZM27.86,20.192a6.714,6.714,0,0,0-4.779,1.98l-4.14,4.14a6.766,6.766,0,0,0,0,9.557l8.279,8.278a6.757,6.757,0,0,0,9.557,0l8.279-8.278a6.766,6.766,0,0,0,0-9.557l-4.14-4.14a6.714,6.714,0,0,0-4.779-1.98H27.86Z" transform="translate(-12.521 -15.745)"/>
        <path id="Path_32466" data-name="Path 32466" class="cls-1" d="M32,44.617a6.394,6.394,0,0,1-4.551-1.886l-6.893-6.893a6.44,6.44,0,0,1,0-9.1L24,23.291a6.393,6.393,0,0,1,4.55-1.885h6.893A6.393,6.393,0,0,1,40,23.291l3.446,3.446a6.44,6.44,0,0,1,0,9.1l-6.893,6.893A6.386,6.386,0,0,1,32,44.617ZM28.554,25.808a1.993,1.993,0,0,0-1.438.6L23.669,29.85a2.038,2.038,0,0,0,0,2.876l6.893,6.893a2.06,2.06,0,0,0,2.876,0l6.893-6.894a2.037,2.037,0,0,0,0-2.876L36.883,26.4a1.993,1.993,0,0,0-1.438-.6H28.554Z" transform="translate(-12.521 -15.745)"/>
        <path id="Path_32467" data-name="Path 32467" class="cls-1" d="M32,39.151,24.451,31.6l4.736-4.736h5.627L39.55,31.6Z" transform="translate(-12.521 -15.745)"/>
      </g>
    </g>
  </g>
</svg>
