<svg xmlns="http://www.w3.org/2000/svg" xmlns:xlink="http://www.w3.org/1999/xlink" width="114" height="64" viewBox="0 0 114 64">
  <defs>
    <style>
      .cls-1, .cls-17 {
        fill: #fff;
      }

      .cls-2 {
        clip-path: url(#clip-path);
      }

      .cls-3 {
        clip-path: url(#clip-path-2);
      }

      .cls-4 {
        fill: #faf4e6;
      }

      .cls-5 {
        fill: #ffca28;
      }

      .cls-6 {
        fill: #ac752c;
      }

      .cls-7 {
        fill: #7d551f;
      }

      .cls-8 {
        fill: #ffb300;
      }

      .cls-9 {
        fill: #ffd54f;
      }

      .cls-10 {
        fill: #ffd770;
      }

      .cls-11 {
        fill: #ffea8c;
      }

      .cls-12 {
        clip-path: url(#clip-path-3);
      }

      .cls-13 {
        clip-path: url(#clip-path-4);
      }

      .cls-14 {
        clip-path: url(#clip-path-5);
      }

      .cls-15 {
        fill: #f0b90b;
        fill-rule: evenodd;
      }

      .cls-16 {
        clip-path: url(#clip-path-6);
      }

      .cls-17 {
        stroke: #f0b90b;
        stroke-width: 0.148px;
      }
    </style>
    <clipPath id="clip-path">
      <circle id="Ellipse_5688" data-name="Ellipse 5688" class="cls-1" cx="32" cy="32" r="32" transform="translate(-22355 -18210)"/>
    </clipPath>
    <clipPath id="clip-path-2">
      <circle id="Ellipse_5563" data-name="Ellipse 5563" class="cls-1" cx="32" cy="32" r="32" transform="translate(-24429 -24913)"/>
    </clipPath>
    <clipPath id="clip-path-3">
      <circle id="Ellipse_5689" data-name="Ellipse 5689" class="cls-1" cx="32" cy="32" r="32" transform="translate(-22305 -18210)"/>
    </clipPath>
    <clipPath id="clip-path-4">
      <circle id="Ellipse_5451" data-name="Ellipse 5451" class="cls-1" cx="32" cy="32" r="32" transform="translate(-21640 -19772)"/>
    </clipPath>
    <clipPath id="clip-path-5">
      <rect id="Rectangle_7551" data-name="Rectangle 7551" width="63.863" height="64" transform="translate(275.145 144.684)"/>
    </clipPath>
    <clipPath id="clip-path-6">
      <rect id="Rectangle_7550" data-name="Rectangle 7550" width="50.051" height="50.051" transform="translate(281.983 151.521)"/>
    </clipPath>
  </defs>
  <g id="Group_20334" data-name="Group 20334" transform="translate(22355 18210)">
    <g id="Mask_Group_902" data-name="Mask Group 902" class="cls-2">
      <g id="Mask_Group_761" data-name="Mask Group 761" class="cls-3" transform="translate(2074 6703)">
        <g id="token" transform="translate(-24435.59 -24919.59)">
          <path id="Path_40627" data-name="Path 40627" class="cls-4" d="M70.59,38.59a32,32,0,0,1-32,32q-1.385,0-2.745-.119A32,32,0,1,1,70.59,38.59Z"/>
          <path id="Path_40628" data-name="Path 40628" class="cls-5" d="M35.894,42.639s.241-3.407-4.118-7.151C25.545,30.136,24.83,28.955,30,29.793s8.927,5.164,8.927,5.164"/>
          <path id="Path_40629" data-name="Path 40629" class="cls-6" d="M25.016,52.058l-.159-2.176-4.3.314a.808.808,0,0,0-.747.865l.041.567a.808.808,0,0,0,.865.746Z"/>
          <path id="Path_40630" data-name="Path 40630" class="cls-7" d="M25.016,52.058l-.079-1.088-5.1.373.021.286a.808.808,0,0,0,.865.746Z"/>
          <path id="Path_40631" data-name="Path 40631" class="cls-8" d="M44.005,44.615a11.958,11.958,0,0,0-2.553-2.045c-.91-.561-1.893-1.006-2.853-1.475a10.426,10.426,0,0,0-2.541-1.066c-.042.059-.083.12-.126.179s-.089.118-.131.177c-.094.134-.2.268-.3.4-.014.016-.024.035-.038.051-.043.056-.086.113-.131.169s-.1.118-.143.177c-.1.131-.209.26-.318.386q-.482.572-1.012,1.116c-.059.062-.118.121-.177.179-.094.1-.19.193-.289.286-.071.071-.139.136-.209.2s-.139.131-.209.2c-.013.013-.032.029-.045.043-.107.1-.214.2-.327.292-.027.021-.051.045-.078.066a1.621,1.621,0,0,1-.131.115l-.134.113c-.112.094-.222.19-.337.281-.158.131-.324.259-.49.385-.131.1-.265.2-.4.3l-.075.054c-.112.08-.222.158-.334.235l-.011.008c-.179.126-.364.249-.551.369q-.575.373-1.181.715a20.606,20.606,0,0,1-2.264,1.106c-.332.143-.669.273-1.012.4H25.6c-.172.061-.345.123-.52.182-.152.051-.305.1-.46.149-.209.064-.417.124-.626.182h0s-.059.024-.155.071c-.027.016-.059.034-.094.051l-.051.032c-.019.011-.035.024-.054.035A2.727,2.727,0,0,0,22.568,50a.5.5,0,0,0-.019.051,2.6,2.6,0,0,0-.143,1.106,3.158,3.158,0,0,0,.1.634h0V51.8a1.833,1.833,0,0,0,.168.429A2.5,2.5,0,0,0,23.86,53.27a7.91,7.91,0,0,0,3.121.567,22.052,22.052,0,0,0,17.324-8.879C44.209,44.841,44.11,44.729,44.005,44.615Z"/>
          <path id="Path_40632" data-name="Path 40632" class="cls-9" d="M38.6,41.1a10.426,10.426,0,0,0-2.541-1.066c-.042.059-.083.12-.126.179s-.089.118-.131.177-.089.118-.134.177-.11.149-.166.224c-.014.016-.024.035-.038.051-.043.056-.086.113-.131.169s-.1.118-.143.177-.1.118-.149.179-.113.143-.169.207c-.1.117-.2.231-.3.346l-.056.064c-.049.054-.1.109-.143.163-.107.118-.214.235-.327.35-.061.064-.119.13-.182.193l-.177.179c-.1.1-.193.19-.289.286l-.209.2c-.07.066-.139.131-.209.2-.013.013-.032.029-.045.043-.107.1-.214.2-.327.292-.027.021-.051.045-.078.066l-.131.115-.134.113c-.112.094-.222.19-.337.281l-.307.241c-.059.048-.121.1-.182.143-.131.1-.265.2-.4.3l-.075.054c-.112.08-.222.158-.334.235l-.011.008c-.088.061-.177.118-.267.177s-.19.128-.286.192c-.136.089-.276.172-.412.257l-.225.134c-.179.11-.361.214-.543.321-.126.067-.246.134-.369.2-.187.1-.372.2-.557.286l-.382.184c-.19.091-.385.182-.584.268-.126.054-.246.109-.372.163-.219.091-.439.179-.661.262l-.254.1c-.032.014-.067.024-.1.037H25.6c-.172.061-.345.123-.52.182-.152.051-.307.1-.46.149-.209.064-.417.124-.626.182h0s-.059.024-.155.071c-.027.016-.059.034-.094.051l-.051.032c-.019.011-.035.024-.054.035A2.727,2.727,0,0,0,22.568,50a.5.5,0,0,0-.019.051,2.6,2.6,0,0,0-.143,1.106,3.158,3.158,0,0,0,.1.634h.037a22.094,22.094,0,0,0,5.939-.768q.393-.107.786-.227A21.924,21.924,0,0,0,40.589,42.65c.1-.133.187-.27.279-.4C40.128,41.824,39.357,41.466,38.6,41.1Z"/>
          <path id="Path_40633" data-name="Path 40633" class="cls-10" d="M44.879,44.148l-4.288-1.509-5.125-1.8c.014-.016.024-.034.038-.051.056-.075.112-.15.166-.224s.088-.118.134-.177.089-.117.131-.177c.113-.152.222-.307.329-.465.071-.1.136-.207.207-.308.134-.206.267-.412.39-.624.046-.071.089-.143.131-.214.014-.021.026-.042.04-.066.071-.129.143-.254.219-.383s.15-.273.225-.407c.083-.158.163-.319.243-.477l.2-.4c.066-.133.136-.289.206-.434.021-.048.043-.094.061-.139.043-.1.086-.192.126-.286a.086.086,0,0,0,.011-.021c.059-.143.121-.281.177-.429a.906.906,0,0,0,.04-.1l.032-.08c.038-.1.071-.2.11-.3.032-.081.064-.164.094-.244s.061-.164.091-.247l.021-.061c.016-.051.035-.1.051-.155s.035-.1.051-.161c.115-.35.222-.7.321-1.057.048-.179.1-.357.143-.535.067-.257.126-.514.179-.776l.019-.08a.5.5,0,0,1,.011-.064c.061-.3.115-.6.166-.908.016-.1.032-.206.045-.308s.027-.2.043-.307.03-.241.043-.364c.009-.071.016-.147.024-.222.016-.131.026-.265.037-.4s.021-.242.03-.362c.013-.214.024-.423.034-.637.006-.107.009-.214.009-.327v-.121a.881.881,0,0,0,0-.123c0-.08,0-.163.006-.244V27.1c0-.311-.014-.618-.029-.929v-.048c-.016-.282-.038-.565-.064-.848v-.011a36.079,36.079,0,0,1-.292-5.819,2.592,2.592,0,0,1,.808-1.914.958.958,0,0,1,.187-.1h0a1.551,1.551,0,0,1,.214-.056h0a.015.015,0,0,1,.011,0,2.96,2.96,0,0,1,1.882.385,7.533,7.533,0,0,1,2.13,1.847,22.039,22.039,0,0,1-.071,24.551Z"/>
          <path id="Path_40634" data-name="Path 40634" class="cls-11" d="M40.591,42.639A22.024,22.024,0,0,0,41.6,18.418c-.131-.214-.267-.434-.4-.643-.086-.136-.179-.27-.268-.4a1.55,1.55,0,0,0-.214.056h-.005a.958.958,0,0,0-.187.1,2.584,2.584,0,0,0-.808,1.914A36.077,36.077,0,0,0,40,25.266v.011q.04.429.064.848v.048c.016.311.026.618.029.929v.278c0,.08,0,.164-.006.244a.882.882,0,0,1,0,.123v.121c0,.109,0,.219-.009.327-.011.214-.021.429-.034.637-.009.121-.016.241-.03.362s-.024.267-.037.4c-.008.071-.016.147-.024.222-.013.124-.026.244-.043.364-.016.1-.029.206-.043.307s-.029.207-.045.308c-.051.3-.1.607-.166.908,0,.021-.009.043-.011.064l-.019.08c-.053.262-.112.519-.179.776q-.069.269-.143.535c-.1.357-.206.707-.321,1.057-.016.056-.032.107-.051.161s-.034.1-.051.155l-.021.061c-.029.083-.059.164-.091.247s-.061.163-.094.244c-.038.1-.071.2-.11.3l-.032.08c-.011.032-.026.064-.04.1-.056.143-.118.286-.177.429a.075.075,0,0,1-.011.021c-.04.1-.083.192-.126.286-.019.046-.04.091-.061.139-.071.143-.136.292-.206.434s-.131.267-.2.4c-.08.158-.16.319-.243.477-.071.134-.15.268-.225.407s-.147.254-.219.383c-.014.024-.026.046-.04.066-.043.071-.086.143-.131.214-.123.214-.257.418-.39.624-.071.1-.136.206-.207.308-.107.158-.214.313-.329.465-.042.059-.088.118-.131.177s-.089.118-.134.177-.11.149-.166.224c-.014.016-.024.035-.038.051Z"/>
          <path id="Path_40635" data-name="Path 40635" class="cls-5" d="M35.463,40.838s4.61,1.729,6.437,3.562c2.884,2.885,3.992,3.771,2.316,12.461-.061.317-.113.636-.149.957-.163,1.445-.322,5.106,5.367-3.368,6.842-10.194-2.863-13.061-2.863-13.061a25.622,25.622,0,0,0-11.108-.551Z"/>
        </g>
      </g>
    </g>
    <g id="Mask_Group_905" data-name="Mask Group 905" class="cls-12">
      <g id="Mask_Group_732" data-name="Mask Group 732" class="cls-13" transform="translate(-665 1562)">
        <g id="BUSD_1_" data-name="BUSD (1)" class="cls-14" transform="translate(-21915.076 -19916.684)">
          <path id="Path_40541" data-name="Path 40541" class="cls-15" d="M275.282,176.684a31.726,31.726,0,1,1,31.726,31.726,31.726,31.726,0,0,1-31.726-31.726Z"/>
          <g id="Group_20041" data-name="Group 20041" class="cls-16">
            <g id="Group_20040" data-name="Group 20040" class="cls-16">
              <g id="Group_20039" data-name="Group 20039" class="cls-16">
                <path id="Path_40542" data-name="Path 40542" class="cls-17" d="M24.956.1l6.157,6.287-15.5,15.459L9.451,15.712Z" transform="translate(282.12 151.658)"/>
                <path id="Path_40543" data-name="Path 40543" class="cls-17" d="M34.3,9.425l6.157,6.287L15.609,40.49,9.451,34.351Z" transform="translate(282.12 151.658)"/>
                <path id="Path_40544" data-name="Path 40544" class="cls-17" d="M6.261,18.744l6.157,6.287L6.261,31.17.1,25.031Z" transform="translate(282.12 151.658)"/>
                <path id="Path_40545" data-name="Path 40545" class="cls-17" d="M43.651,18.744l6.157,6.287L24.956,49.81,18.8,43.67Z" transform="translate(282.12 151.658)"/>
              </g>
            </g>
          </g>
        </g>
      </g>
    </g>
  </g>
</svg>
