<svg xmlns="http://www.w3.org/2000/svg" xmlns:xlink="http://www.w3.org/1999/xlink" width="114" height="64" viewBox="0 0 114 64">
  <defs>
    <style>
      .cls-1 {
        fill: #fff;
      }

      .cls-2 {
        clip-path: url(#clip-path);
      }

      .cls-3 {
        clip-path: url(#clip-path-2);
      }

      .cls-4 {
        fill: #f3ba2f;
      }

      .cls-5 {
        clip-path: url(#clip-path-3);
      }

      .cls-6 {
        fill: #7b3fe4;
      }
    </style>
    <clipPath id="clip-path">
      <circle id="Ellipse_5489" data-name="Ellipse 5489" class="cls-1" cx="32" cy="32" r="32" transform="translate(-22321 -19922)"/>
    </clipPath>
    <clipPath id="clip-path-2">
      <circle id="Ellipse_1807" data-name="Ellipse 1807" class="cls-1" cx="32" cy="32" r="32" transform="translate(-24465 -23674)"/>
    </clipPath>
    <clipPath id="clip-path-3">
      <circle id="Ellipse_5486" data-name="Ellipse 5486" class="cls-1" cx="32" cy="32" r="32" transform="translate(-22271 -19922)"/>
    </clipPath>
  </defs>
  <g id="Group_20004" data-name="Group 20004" transform="translate(22321 19922)">
    <g id="Mask_Group_708" data-name="Mask Group 708" class="cls-2">
      <g id="Group_997" data-name="Group 997" transform="translate(2144 4312)">
        <g id="Mask_Group_5" data-name="Mask Group 5" class="cls-3" transform="translate(0 -560)">
          <g id="BNB" transform="translate(-24465 -23674)">
            <path id="Path_118" data-name="Path 118" class="cls-4" d="M32,64A32,32,0,1,0,0,32,32,32,0,0,0,32,64Z"/>
            <path id="Path_119" data-name="Path 119" class="cls-1" d="M24.23,28.808,32,21.04l7.772,7.772,4.52-4.52L32,12,19.71,24.288ZM12,32l4.52-4.52L21.038,32l-4.52,4.52Zm12.23,3.192L32,42.96l7.772-7.772,4.52,4.518L32,52,19.71,39.712l-.006-.006ZM42.958,32l4.52-4.52L52,32l-4.52,4.52Zm-6.376,0h0L32,36.588l-4.582-4.58L27.408,32l.008-.006.8-.8.39-.39L32,27.412,36.584,32Z"/>
          </g>
        </g>
      </g>
    </g>
    <g id="Mask_Group_701" data-name="Mask Group 701" class="cls-5">
      <g id="Primary_Token" data-name="Primary Token" transform="translate(-22271 -19922)">
        <circle id="Ellipse_5516" data-name="Ellipse 5516" class="cls-6" cx="32" cy="32" r="32"/>
        <path id="Path_40534" data-name="Path 40534" class="cls-1" d="M53.333,32.747V42.4a3.481,3.481,0,0,1-1.707,2.977L43.293,50.2a3.323,3.323,0,0,1-3.413,0l-8.333-4.817A3.481,3.481,0,0,1,29.84,42.4v-2.71l4.267-2.485v4.71l7.467,4.349,7.467-4.349V33.239L41.573,28.89,24.08,39.059a3.466,3.466,0,0,1-3.413,0l-8.333-4.837a3.482,3.482,0,0,1-1.667-2.974V21.594a3.481,3.481,0,0,1,1.707-2.977L20.706,13.8a3.353,3.353,0,0,1,3.413,0l8.333,4.817a3.481,3.481,0,0,1,1.707,2.977V24.3l-4.293,2.469V22.089L22.4,17.741l-7.467,4.349v8.667L22.4,35.105,39.893,24.936a3.466,3.466,0,0,1,3.413,0l8.333,4.837a3.481,3.481,0,0,1,1.693,2.974Z"/>
      </g>
    </g>
  </g>
</svg>
