<svg xmlns="http://www.w3.org/2000/svg" xmlns:xlink="http://www.w3.org/1999/xlink" width="114" height="64" viewBox="0 0 114 64">
  <defs>
    <style>
      .cls-1 {
        fill: #fff;
      }

      .cls-2 {
        fill: none;
      }

      .cls-3 {
        clip-path: url(#clip-path);
      }

      .cls-4 {
        fill: #f0b90b;
      }

      .cls-5 {
        clip-path: url(#clip-path-2);
      }

      .cls-6 {
        clip-path: url(#clip-path-3);
      }

      .cls-7 {
        fill: url(#linear-gradient);
      }

      .cls-8 {
        clip-path: url(#clip-path-4);
      }

      .cls-9 {
        fill: url(#linear-gradient-2);
      }
    </style>
    <clipPath id="clip-path">
      <circle id="Ellipse_5539" data-name="Ellipse 5539" class="cls-1" cx="32" cy="32" r="32" transform="translate(-22108 -21537)"/>
    </clipPath>
    <clipPath id="clip-path-2">
      <rect id="Rectangle_7560" data-name="Rectangle 7560" class="cls-2" width="64" height="64"/>
    </clipPath>
    <clipPath id="clip-path-3">
      <path id="Path_40577" data-name="Path 40577" class="cls-2" d="M42.571,5.96a10.879,10.879,0,0,0-8.5,9.509c-.72,4.979.957,7.123.219,12.915C33,38.5,23.294,41.984,18.766,44.1c-2.621,1.211-8.981,4-13.883,6.128A31.99,31.99,0,0,0,55.862,24.475,31.8,31.8,0,0,0,48.894,4.552c-.077-.013-.155-.024-.245-.037-2.219.437-4.336,1.056-6.077,1.445" transform="translate(-4.883 -4.515)"/>
    </clipPath>
    <linearGradient id="linear-gradient" x1="-0.139" y1="0.939" x2="-0.095" y2="0.939" gradientUnits="objectBoundingBox">
      <stop offset="0" stop-color="#ff496a"/>
      <stop offset="1" stop-color="#e42648"/>
    </linearGradient>
    <clipPath id="clip-path-4">
      <path id="Path_40578" data-name="Path 40578" class="cls-2" d="M0,32A31.914,31.914,0,0,0,10.117,55.341l10.4-15.523c6.581,1.163,10.027-2.592,10.931-3.781,0-.011-.013-.011-.027-.024-4.941,5.677-18.5-.427-26.837-8.155-1.317-1.227-2.555-2.3-3.717-3.264A31.912,31.912,0,0,0,0,32M56.787,12.053c.08.011.168.011.245.024-.013-.024-.04-.04-.051-.064a1.01,1.01,0,0,0-.195.04m-36.141,9.3c-1.032-2.464.309-5.7.76-15.781.928.141,5.445,5.757,6.3,20.168,0,0-5.805-1.395-7.059-4.387M32,0A31.977,31.977,0,0,0,3.123,18.205c10.555,2.621,21.947,8.312,25.277,9.1,2.464-5.331,1.573-5.341,3.445-10.349,2.363-6.347,9.7-4.544,11.728-4.272,3.341.451,4.221-.733,11.264-1.869.349-.053.685-.1,1.021-.141A31.945,31.945,0,0,0,32,0Z"/>
    </clipPath>
    <linearGradient id="linear-gradient-2" x1="0.1" y1="1.005" x2="0.137" y2="1.005" gradientUnits="objectBoundingBox">
      <stop offset="0" stop-color="#1158f1"/>
      <stop offset="0.002" stop-color="#1158f1"/>
      <stop offset="1" stop-color="#119bed"/>
    </linearGradient>
  </defs>
  <g id="Group_20066" data-name="Group 20066" transform="translate(22150 21479)">
    <g id="Mask_Group_745" data-name="Mask Group 745" class="cls-3" transform="translate(-42 58)">
      <g id="BNB" transform="translate(-22108 -21537)">
        <circle id="Ellipse_5538" data-name="Ellipse 5538" class="cls-4" cx="32" cy="32" r="32"/>
        <path id="Path_40583" data-name="Path 40583" class="cls-1" d="M20.6,17.27l11.272-6.561L43.145,17.27,39,19.694l-7.128-4.137-7.128,4.137Zm22.544,8.275L39,23.121l-7.128,4.137-7.128-4.137L20.6,25.545v4.848l7.128,4.137v8.275l4.144,2.424,4.144-2.424V34.531l7.128-4.137Zm0,13.123V33.82L39,36.244v4.848Zm2.942,1.713-7.128,4.137v4.848l11.272-6.561V29.683l-4.144,2.424ZM41.943,21.408l4.144,2.424V28.68l4.144-2.424V21.408l-4.144-2.424ZM27.728,46.274v4.848l4.144,2.424,4.144-2.424V46.274L31.873,48.7ZM20.6,38.668l4.144,2.424V36.244L20.6,33.82Zm7.128-17.26,4.144,2.424,4.144-2.424-4.144-2.424Zm-10.07,2.424L21.8,21.408l-4.144-2.424-4.144,2.424v4.848l4.144,2.424Zm0,8.275-4.144-2.424V42.805l11.272,6.561V44.519l-7.128-4.137Z"/>
      </g>
    </g>
    <g id="Group_20065" data-name="Group 20065" transform="translate(-22100 -21479)">
      <g id="Group_20056" data-name="Group 20056">
        <g id="Group_20055" data-name="Group 20055" class="cls-5">
          <path id="Path_40576" data-name="Path 40576" class="cls-1" d="M32,64A32,32,0,1,0,0,32,32,32,0,0,0,32,64"/>
        </g>
      </g>
      <g id="Group_20058" data-name="Group 20058" transform="translate(13.021 12.04)">
        <g id="Group_20057" data-name="Group 20057" class="cls-6">
          <rect id="Rectangle_7561" data-name="Rectangle 7561" class="cls-7" width="60.229" height="59.439" transform="translate(-9.131 50.303) rotate(-79.712)"/>
        </g>
      </g>
      <g id="Group_20060" data-name="Group 20060">
        <g id="Group_20059" data-name="Group 20059" class="cls-8">
          <rect id="Rectangle_7562" data-name="Rectangle 7562" class="cls-9" width="71.204" height="72.234" transform="matrix(0.334, -0.943, 0.943, 0.334, -17.413, 49.175)"/>
        </g>
      </g>
    </g>
  </g>
</svg>
