<svg xmlns="http://www.w3.org/2000/svg" xmlns:xlink="http://www.w3.org/1999/xlink" width="114" height="64" viewBox="0 0 114 64">
  <defs>
    <style>
      .cls-1, .cls-10 {
        fill: #fff;
      }

      .cls-2 {
        clip-path: url(#clip-path);
      }

      .cls-3 {
        fill: #121122;
      }

      .cls-4 {
        fill: #f2f4f8;
      }

      .cls-10, .cls-4 {
        fill-rule: evenodd;
      }

      .cls-5 {
        fill: #6665dd;
      }

      .cls-6 {
        fill: #ff99a5;
      }

      .cls-7 {
        fill: #ffe600;
      }

      .cls-8 {
        clip-path: url(#clip-path-2);
      }

      .cls-9 {
        fill: #1969ff;
      }
    </style>
    <clipPath id="clip-path">
      <circle id="Ellipse_5692" data-name="Ellipse 5692" class="cls-1" cx="32" cy="32" r="32" transform="translate(-22022 -18965)"/>
    </clipPath>
    <clipPath id="clip-path-2">
      <circle id="Ellipse_5693" data-name="Ellipse 5693" class="cls-1" cx="32" cy="32" r="32" transform="translate(-21972 -18965)"/>
    </clipPath>
  </defs>
  <g id="Group_20266" data-name="Group 20266" transform="translate(22022 18965)">
    <g id="Mask_Group_849" data-name="Mask Group 849" class="cls-2">
      <g id="Boo" transform="translate(-22022 -18965)">
        <path id="Path_51310" data-name="Path 51310" class="cls-3" d="M0,32A32,32,0,1,0,32,0,32,32,0,0,0,0,32Z"/>
        <path id="Path_51311" data-name="Path 51311" class="cls-4" d="M9.655,23.892a22.416,22.416,0,0,0,.548,7.6,1.754,1.754,0,0,0,1.086.837,16.191,16.191,0,0,0-1.582,6.964c0,10.416,10.083,18.867,22.52,18.867s22.529-8.431,22.529-18.867a16.2,16.2,0,0,0-1.613-7.03,1.633,1.633,0,0,0,.91-.771,22.392,22.392,0,0,0,.546-7.6c-.366-3.378-1.525-4.41-5.006-3.544a19.21,19.21,0,0,0-5.9,2.686,26.35,26.35,0,0,0-23.045.06,19.184,19.184,0,0,0-5.985-2.746c-3.483-.865-4.64.166-5.008,3.544ZM22.768,38.784c-2.64-1.164-7.152-.87-7.152-.87s.212,4.248,2.8,5.69c3.072,1.708,8.784.862,8.784.862a7.677,7.677,0,0,0-4.434-5.69Zm14.668,5.689s5.712.846,8.784-.862c2.59-1.442,2.8-5.69,2.8-5.69s-4.512-.294-7.152.87a7.633,7.633,0,0,0-4.434,5.666v.016ZM31.1,47.467c0,.313.582.567,1.3.567s1.3-.254,1.3-.567-.581-.566-1.3-.566-1.3.244-1.3.566Z"/>
        <path id="Path_51312" data-name="Path 51312" class="cls-4" d="M57.893,44.852a18.543,18.543,0,0,0-6.606-1.245h0a.445.445,0,0,1,0-.889A19.24,19.24,0,0,1,58.133,44a.453.453,0,0,1,.308.54.448.448,0,0,1-.548.312ZM6.47,44.02a19.26,19.26,0,0,1,6.845-1.282v.005a.445.445,0,0,1,0,.889,18.528,18.528,0,0,0-6.608,1.244.448.448,0,0,1-.546-.31.455.455,0,0,1,.31-.547ZM11,46.567A12.114,12.114,0,0,1,14.378,46a.445.445,0,0,1,0,.889,11.174,11.174,0,0,0-3.08.517A6.88,6.88,0,0,0,8.627,48.69c-.42.39-1.048-.238-.627-.628a7.624,7.624,0,0,1,3-1.495Zm4.391,1.653a17.1,17.1,0,0,0-2.562,1.367A7.982,7.982,0,0,0,10.7,51.509a.446.446,0,0,0,.158.608.457.457,0,0,0,.61-.158,7.019,7.019,0,0,1,1.925-1.682,17.31,17.31,0,0,1,2.443-1.289.448.448,0,0,0,.16-.608.457.457,0,0,0-.608-.16Zm34.83-1.349a11.116,11.116,0,0,1,3.081.516,10.339,10.339,0,0,1,1.506.556,4.6,4.6,0,0,1,1.157.729c.42.388,1.05-.238.63-.63a7.542,7.542,0,0,0-3-1.495,12.07,12.07,0,0,0-3.378-.565.445.445,0,0,0,0,.89Zm.981,3.38a17.749,17.749,0,0,0-2.4-1.245V49a.45.45,0,0,1-.16-.608.46.46,0,0,1,.61-.158,11.057,11.057,0,0,1,4.686,3.289.448.448,0,0,1-.158.608.455.455,0,0,1-.608-.16A7.044,7.044,0,0,0,51.2,50.251Z"/>
        <path id="Path_51313" data-name="Path 51313" class="cls-5" d="M3.092,33.753c.41-.64,4.02-2.566,8.485-3.709a52.475,52.475,0,0,1,3.555-7.93c-.017,0,3.572-6.443,3.556-6.446a20.3,20.3,0,0,1-2.955-1.656,2.562,2.562,0,0,1-.428-.417.984.984,0,0,1-.142-.521,1.311,1.311,0,0,1,.3-.534,6.2,6.2,0,0,1,.793-.778,21,21,0,0,1,2.153-1.547c.356-.235.726-.464,1.09-.695,2.56-1.63,3.963-2.857,6.307-4.2,2.24-1.284,3.329-2.075,5.926-1.942C35,3.374,43.115,13.71,46.773,19.036A115.725,115.725,0,0,1,53,30.166c.26.065.495.127.712.191,3.328,1,6.592,2.464,7.39,3.4.711.828-2.4,1.2-5.46,1.731s-13.454.8-23.44.866-21.64-.267-24.177-.666-5.439-1.133-4.928-1.931Z"/>
        <path id="Path_51314" data-name="Path 51314" class="cls-6" d="M50.212,24.825s-6.578-1.648-18.168-1.648c-12.444,0-18.437,1.92-18.437,1.92s-.711,1.351-1.02,2.133-1.01,2.814-1.01,2.814a130.261,130.261,0,0,1,20.642-1.62,130.334,130.334,0,0,1,20.825,1.76s-1.051-2.46-1.68-3.508q-.561-.935-1.152-1.851Z"/>
        <path id="Path_51315" data-name="Path 51315" class="cls-7" d="M11.063,10.92c.754-.11,1.778,2.2,1.778,2.2s2.371-.638,2.741,0-1.667,2.17-1.667,2.17,1.23,2.164.84,2.614-2.583-.915-2.583-.915-1.673,1.884-2.218,1.6.073-2.74.073-2.74-2.367-1.006-2.2-1.6,2.628-.778,2.628-.778-.139-2.434.613-2.544Z"/>
      </g>
    </g>
    <g id="Mask_Group_850" data-name="Mask Group 850" class="cls-8">
      <g id="FTM" transform="translate(-21972 -18965)">
        <path id="Path_51316" data-name="Path 51316" class="cls-9" d="M32,64A32,32,0,1,0,0,32,32,32,0,0,0,32,64Z"/>
        <path id="Path_51317" data-name="Path 51317" class="cls-10" d="M34.4,25.8l7.2-4.2V30Zm7.2,18L32,49.4l-9.6-5.6V34L32,39.6,41.6,34ZM22.4,21.6l7.2,4.2L22.4,30Zm10.8,6.2L40.4,32l-7.2,4.2Zm-2.4,8.4L23.6,32l7.2-4.2Zm9.6-16.6L32,24.4l-8.4-4.8,8.4-5ZM20,18.8V45l12,6.8L44,45V18.8L32,12Z"/>
      </g>
    </g>
  </g>
</svg>
