<svg xmlns="http://www.w3.org/2000/svg" xmlns:xlink="http://www.w3.org/1999/xlink" width="114" height="64" viewBox="0 0 114 64">
  <defs>
    <style>
      .cls-1, .cls-23 {
        fill: #fff;
      }

      .cls-2 {
        clip-path: url(#clip-path);
      }

      .cls-3 {
        fill: #030303;
      }

      .cls-4 {
        fill: #71352b;
      }

      .cls-5 {
        fill: #e59873;
      }

      .cls-6 {
        fill: #e79974;
      }

      .cls-7 {
        fill: #048d92;
      }

      .cls-8 {
        fill: #038d92;
      }

      .cls-9 {
        fill: #029197;
      }

      .cls-10 {
        fill: #029196;
      }

      .cls-11 {
        fill: #038f94;
      }

      .cls-12 {
        fill: #029096;
      }

      .cls-13 {
        fill: #001f20;
      }

      .cls-14 {
        fill: #000f10;
      }

      .cls-15 {
        fill: #001d1e;
      }

      .cls-16 {
        fill: #001717;
      }

      .cls-17 {
        fill: #231f20;
      }

      .cls-18 {
        clip-path: url(#clip-path-2);
      }

      .cls-19 {
        clip-path: url(#clip-path-3);
      }

      .cls-20 {
        clip-path: url(#clip-path-4);
      }

      .cls-21 {
        fill: #103f68;
      }

      .cls-22, .cls-24 {
        fill: none;
      }

      .cls-22 {
        stroke: #fff;
        stroke-width: 2.125px;
      }

      .cls-22, .cls-23, .cls-24 {
        fill-rule: evenodd;
      }

      .cls-24 {
        stroke: #979797;
        stroke-width: 0.125px;
      }
    </style>
    <clipPath id="clip-path">
      <circle id="Ellipse_3487" data-name="Ellipse 3487" class="cls-1" cx="32" cy="32" r="32" transform="translate(-21969 -22269)"/>
    </clipPath>
    <clipPath id="clip-path-2">
      <circle id="Ellipse_5061" data-name="Ellipse 5061" class="cls-1" cx="32" cy="32" r="32" transform="translate(-24921 -24457)"/>
    </clipPath>
    <clipPath id="clip-path-3">
      <circle id="Ellipse_1807" data-name="Ellipse 1807" class="cls-1" cx="32" cy="32" r="32" transform="translate(-24123 -23674)"/>
    </clipPath>
    <clipPath id="clip-path-4">
      <circle id="Ellipse_2221" data-name="Ellipse 2221" class="cls-1" cx="32" cy="32" r="32" transform="translate(-24083 -9037)"/>
    </clipPath>
  </defs>
  <g id="Group_18847" data-name="Group 18847" transform="translate(21969 22269)">
    <g id="Mask_Group_640" data-name="Mask Group 640" class="cls-2">
      <g id="b" transform="translate(-21969 -22268.963)">
        <g id="c">
          <g id="Group_18842" data-name="Group 18842">
            <g id="Group_18841" data-name="Group 18841">
              <path id="Path_37247" data-name="Path 37247" class="cls-3" d="M28.68,0h6.2a.955.955,0,0,0,.294.173C36.756.447,38.365.612,39.92,1A31.983,31.983,0,1,1,.779,39.079c-.27-1.267-.521-2.54-.779-3.81V28.68c.19-.923.4-1.843.571-2.77A32.03,32.03,0,0,1,24.773.793C26.071.509,27.377.262,28.68,0ZM27.49,37.405a2.188,2.188,0,0,1,.327-2.653,29.523,29.523,0,0,1,2.109-2.134c.163-.15.5-.109.762-.155-.052.282-.014.649-.177.834-.641.723-1.347,1.392-2.031,2.078a1.052,1.052,0,0,0-.146,1.549,1.114,1.114,0,0,0,1.639.2c.577-.412,1.17-.809,1.7-1.273a2.416,2.416,0,0,1,2.058-.581,2.19,2.19,0,0,1,.669.379c-.222.132-.453.391-.663.373-1.11-.091-1.648.719-2.533,1.347H46.562c-.15-.968-.573-1.458-1.613-1.341a12.883,12.883,0,0,1-2.418,0,3.562,3.562,0,0,1-1.022-.422,3.565,3.565,0,0,1,.966-.332c1.112-.041,2.226-.016,3.407-.016-.1-.525-.175-.892-.262-1.328a16.754,16.754,0,0,1-1.777-.019c-.255-.027-.488-.268-.729-.412a2.195,2.195,0,0,1,.7-.34c.6-.051,1.207-.016,1.7-.016.352-1.5.669-2.859,1-4.265H45.446c-5.942,0-11.886-.01-17.828.014A2.038,2.038,0,0,1,26,28.233c-1.664-1.714-3.367-3.392-5.061-5.079a1.859,1.859,0,0,0-2.653-.251,1.84,1.84,0,0,0,.2,2.663c.768.785,1.567,1.541,2.315,2.344.167.179.181.5.266.756a2.738,2.738,0,0,1-.694.2c-1.841.017-3.683.043-5.522-.006a1.393,1.393,0,0,0-1.491.956,8.941,8.941,0,0,0-.041,6.669,1.336,1.336,0,0,0,1.413.935c2.875-.033,5.75-.014,8.622-.014h4.127Zm8.249-9.458a1.957,1.957,0,0,0,2.167-.43c1.885-1.95,3.825-3.847,5.74-5.769.192-.192.354-.418.566-.673a9.85,9.85,0,0,1-5.845-5.728L26.446,27.269a1.689,1.689,0,0,0,1.675.83,12.124,12.124,0,0,1,2.708.006,5.434,5.434,0,0,0,5.746-2.379.176.176,0,0,1,.068-.068c.321-.1.643-.2.964-.3a3.173,3.173,0,0,1-.34.974c-.428.54-.945,1.009-1.528,1.615Zm4.193-14.073c-.7.006-.906.426-.729.96a7.858,7.858,0,0,0,.884,1.9A8.292,8.292,0,0,0,44.1,20.065c1.044.387,1.588.027,1.419-.873-.358-1.907-3.221-4.838-5.133-5.252-.157-.035-.317-.049-.449-.068Zm9.993,19.342c-.305-1.178-.575-2.391-.952-3.569a1.163,1.163,0,0,0-.809-.7c-.278,0-.688.381-.822.69a8.484,8.484,0,0,0-.031,6.982c.134.315.54.748.781.725a1.28,1.28,0,0,0,.89-.717c.373-1.079.62-2.2.943-3.409ZM21.91,49.3a19,19,0,0,0,2.231-1.153c.08-.054-.276-.76-.4-1.083.091-.42.36-.908.243-1.273-.19-.6-1.337-.758-2.292-.412.064,1.158.128,2.338.216,3.921Zm9.74-.6c.5-1.258.381-3.042-.169-3.479L31.3,46.836l-1.66.224-.169-1.738-.367.041a8.232,8.232,0,0,0,.008,3.526l.34.01c.062-.391.124-.781.2-1.236.554-.078,1.085-.15,1.6-.222.124.389.222.7.4,1.263Zm1.483.3c.577-.4.976-.877,1.421-.925s.941.33,1.415.521c.019.192.171.126.163.1-.28-1.1-.546-2.206-.9-3.281-.035-.109-.83-.167-.929-.017a7.383,7.383,0,0,0-1.164,3.6Zm6.257-1.24c.272-.6.671-1.1.639-1.559-.021-.3-.63-.655-1.042-.816a2.033,2.033,0,0,0-1.133.029.712.712,0,0,0-.459.49c-.035.9-.012,1.8.035,2.7.008.15.231.29.492.589.058-.657.1-1.087.154-1.718l1.948,1.471c.047-.268.089-.354.064-.385-.266-.319-.542-.628-.7-.8ZM19.638,49.276c.206-.286.354-.525.535-.739.653-.764.579-1.205-.2-1.831-.307-.247-.762-.812-.676-.956.363-.622.8-.091,1.209.086.039.016.109-.045.321-.14-.428-.47-.818-.9-1.226-1.349a4.481,4.481,0,0,1-.552.791c-.649.591-.519,1.11.082,1.617a2.994,2.994,0,0,1,.527.42,4.115,4.115,0,0,1,.352.754,7.055,7.055,0,0,1-.929,0,1.909,1.909,0,0,1-.523-.239l-.148.185c.393.447.785.894,1.234,1.407ZM43.5,48.681q-1.489-.585-1.3-1.464l1.38-.237-.031-.241-1.5-.115c.016-.371.029-.682.045-.993.533-.087,1.007-.165,1.481-.241l-.033-.358c-.686.033-1.372.068-2.076.1a24.191,24.191,0,0,0,.031,2.7,1.4,1.4,0,0,0,.663,1.03c.375.136.884-.107,1.337-.187Zm-16.08-2.3.189-.342c-.365-.19-.752-.56-1.094-.523a1.543,1.543,0,0,0-1.09.711c-.111.235.278.744.507,1.087a8.05,8.05,0,0,0,.791.882c-.377-.017-.754-.039-1.131-.047-.051,0-.1.066-.43.294.568.183.974.445,1.335.391a1.24,1.24,0,0,0,.884-.686c.068-.27-.286-.68-.519-.978-.126-.161-.437-.173-.575-.33a2.025,2.025,0,0,1-.251-.63,1.957,1.957,0,0,1,.682-.157,2.6,2.6,0,0,1,.7.327Z"/>
              <path id="Path_37248" data-name="Path 37248" class="cls-4" d="M27.49,37.405H23.364c-2.875,0-5.75-.019-8.622.014a1.334,1.334,0,0,1-1.413-.935,8.941,8.941,0,0,1,.041-6.669,1.391,1.391,0,0,1,1.491-.956c1.839.049,3.681.023,5.522.006a2.609,2.609,0,0,0,.694-.2c-.086-.257-.1-.577-.266-.756-.748-.8-1.547-1.559-2.315-2.344a1.84,1.84,0,0,1-.2-2.663,1.859,1.859,0,0,1,2.653.251c1.695,1.685,3.4,3.363,5.061,5.079a2.038,2.038,0,0,0,1.615.659c5.942-.021,11.886-.014,17.828-.014h1.061c-.328,1.405-.645,2.762-1,4.265-.49,0-1.1-.033-1.7.016a2.175,2.175,0,0,0-.7.34c.243.144.474.383.729.412a16.754,16.754,0,0,0,1.777.019c.086.435.157.8.262,1.328-1.18,0-2.3-.025-3.407.016a3.457,3.457,0,0,0-.966.332,3.562,3.562,0,0,0,1.022.422,12.721,12.721,0,0,0,2.418,0c1.038-.117,1.464.375,1.613,1.341H31.212c.884-.626,1.423-1.436,2.533-1.347.21.017.441-.241.663-.373a2.19,2.19,0,0,0-.669-.379,2.427,2.427,0,0,0-2.058.581c-.533.465-1.125.861-1.7,1.273a1.114,1.114,0,0,1-1.639-.2,1.053,1.053,0,0,1,.146-1.549c.684-.686,1.39-1.353,2.031-2.078.163-.185.122-.55.177-.834-.259.047-.6,0-.762.155a29.521,29.521,0,0,0-2.109,2.134A2.188,2.188,0,0,0,27.5,37.4Z"/>
              <path id="Path_37249" data-name="Path 37249" class="cls-4" d="M35.739,27.947c.583-.6,1.1-1.075,1.528-1.615a3.173,3.173,0,0,0,.34-.974c-.321.1-.643.2-.964.3-.027.008-.051.041-.068.068a5.434,5.434,0,0,1-5.746,2.379,12.01,12.01,0,0,0-2.708-.006,1.689,1.689,0,0,1-1.675-.83L38.367,15.35a9.85,9.85,0,0,0,5.845,5.728c-.212.255-.373.478-.566.673-1.915,1.922-3.854,3.817-5.74,5.769a1.957,1.957,0,0,1-2.167.43Z"/>
              <path id="Path_37250" data-name="Path 37250" class="cls-5" d="M39.934,13.874c.132.019.293.035.449.068,1.913.416,4.774,3.347,5.133,5.252.169.9-.375,1.26-1.419.873a8.3,8.3,0,0,1-4.008-3.328,7.931,7.931,0,0,1-.884-1.9c-.177-.535.035-.954.729-.96Z"/>
              <path id="Path_37251" data-name="Path 37251" class="cls-6" d="M49.927,33.216c-.323,1.207-.57,2.331-.943,3.409a1.28,1.28,0,0,1-.89.717c-.239.023-.647-.41-.781-.725a8.477,8.477,0,0,1,.031-6.982c.136-.309.544-.692.822-.69a1.155,1.155,0,0,1,.809.7C49.351,30.826,49.622,32.039,49.927,33.216Z"/>
              <path id="Path_37252" data-name="Path 37252" class="cls-7" d="M21.91,49.3c-.087-1.584-.152-2.762-.216-3.921.954-.346,2.1-.185,2.292.412.117.365-.152.855-.243,1.273.122.323.48,1.028.4,1.083A19.462,19.462,0,0,1,21.912,49.3Zm.48-2.317c.544-.3.881-.488,1.217-.673v-.3l-1.312-.41c.037.533.056.83.1,1.384Zm.049.363.074,1.26,1.145-.564-.017-.262c-.352-.126-.7-.255-1.2-.433Z"/>
              <path id="Path_37253" data-name="Path 37253" class="cls-8" d="M31.65,48.7c-.181-.566-.28-.875-.4-1.263-.515.072-1.044.146-1.6.222-.072.455-.134.846-.2,1.236l-.34-.01a8.263,8.263,0,0,1-.008-3.526l.367-.041.169,1.738,1.66-.224.183-1.611c.55.437.663,2.222.169,3.479Z"/>
              <path id="Path_37254" data-name="Path 37254" class="cls-9" d="M33.133,49.007a7.383,7.383,0,0,1,1.164-3.6c.1-.148.894-.089.929.017.358,1.075.624,2.181.9,3.281.006.025-.146.091-.163-.1-.472-.19-.966-.57-1.415-.521s-.842.525-1.421.925ZM34,47.437h1.45c-.192-.6-.363-1.123-.533-1.648l-.237-.008L34,47.437Z"/>
              <path id="Path_37255" data-name="Path 37255" class="cls-10" d="M39.39,47.767c.154.175.43.484.7.8.025.029-.016.117-.064.385l-1.948-1.471c-.056.634-.1,1.061-.154,1.718-.259-.3-.484-.439-.492-.589-.047-.9-.068-1.8-.035-2.7a.712.712,0,0,1,.459-.49,2.016,2.016,0,0,1,1.133-.029c.412.161,1.02.513,1.042.816.031.465-.367.956-.639,1.559ZM37.9,46.974l.231.227a12.988,12.988,0,0,0,1.3-.548c.06-.033,0-.527-.087-.558-.375-.126-.853-.311-1.151-.171-.214.1-.2.682-.292,1.048Z"/>
              <path id="Path_37256" data-name="Path 37256" class="cls-11" d="M19.638,49.276c-.449-.511-.842-.958-1.234-1.407l.148-.185a1.878,1.878,0,0,0,.523.239,7.053,7.053,0,0,0,.929,0,4.388,4.388,0,0,0-.352-.754,2.924,2.924,0,0,0-.527-.42c-.6-.507-.729-1.026-.082-1.617a4.481,4.481,0,0,0,.552-.791l1.226,1.349c-.21.1-.282.157-.321.14-.408-.177-.847-.706-1.209-.086-.084.144.369.709.676.956.781.626.855,1.067.2,1.831-.181.212-.33.453-.535.739Z"/>
              <path id="Path_37257" data-name="Path 37257" class="cls-9" d="M43.5,48.681c-.451.08-.962.323-1.337.187a1.42,1.42,0,0,1-.663-1.03,24.667,24.667,0,0,1-.031-2.7l2.076-.1.033.358c-.474.078-.949.155-1.481.241-.014.311-.027.62-.045.993l1.5.115.031.241-1.38.237q-.192.877,1.3,1.464Z"/>
              <path id="Path_37258" data-name="Path 37258" class="cls-12" d="M27.42,46.385a2.543,2.543,0,0,0-.7-.327,1.948,1.948,0,0,0-.682.157,2.025,2.025,0,0,0,.251.63c.138.157.449.169.575.33.233.3.587.708.519.978a1.235,1.235,0,0,1-.884.686c-.36.054-.768-.208-1.335-.391.327-.227.379-.3.43-.294.377.008.754.029,1.131.047a8.255,8.255,0,0,1-.791-.882c-.231-.342-.618-.851-.507-1.087a1.547,1.547,0,0,1,1.09-.711c.342-.037.727.332,1.094.523l-.189.342Z"/>
              <path id="Path_37259" data-name="Path 37259" class="cls-13" d="M22.39,46.984c-.039-.554-.058-.851-.1-1.384l1.312.41v.3l-1.217.673Z"/>
              <path id="Path_37260" data-name="Path 37260" class="cls-14" d="M22.44,47.347l1.2.433.017.262-1.145.564-.074-1.26Z"/>
              <path id="Path_37261" data-name="Path 37261" class="cls-15" d="M34,47.439l.68-1.656.237.008c.169.525.34,1.05.533,1.648H34Z"/>
              <path id="Path_37262" data-name="Path 37262" class="cls-16" d="M37.9,46.974c.089-.367.078-.949.292-1.048.3-.14.777.045,1.151.171.087.029.148.525.087.558a13.183,13.183,0,0,1-1.3.548l-.231-.227Z"/>
            </g>
            <rect id="Rectangle_7203" data-name="Rectangle 7203" class="cls-17" width="0.711" height="0.711" rx="0.356" transform="matrix(0.866, 0.5, -0.5, 0.866, 41.281, 15.453)"/>
            <rect id="Rectangle_7204" data-name="Rectangle 7204" class="cls-17" width="0.711" height="0.711" rx="0.356" transform="matrix(0.866, 0.5, -0.5, 0.866, 43.399, 17.626)"/>
            <rect id="Rectangle_7205" data-name="Rectangle 7205" class="cls-17" width="0.711" height="0.711" rx="0.356" transform="matrix(0.866, 0.5, -0.5, 0.866, 40.352, 14.508)"/>
            <rect id="Rectangle_7206" data-name="Rectangle 7206" class="cls-17" width="0.711" height="0.711" rx="0.356" transform="matrix(0.866, 0.5, -0.5, 0.866, 42.321, 16.515)"/>
            <rect id="Rectangle_7207" data-name="Rectangle 7207" class="cls-17" width="0.711" height="0.711" rx="0.356" transform="matrix(0.866, 0.5, -0.5, 0.866, 44.44, 18.811)"/>
            <rect id="Rectangle_7208" data-name="Rectangle 7208" class="cls-17" width="0.711" height="0.711" rx="0.356" transform="translate(48.554 31.067) rotate(74.61)"/>
            <rect id="Rectangle_7209" data-name="Rectangle 7209" class="cls-17" width="0.711" height="0.711" rx="0.356" transform="translate(48.535 34.103) rotate(74.61)"/>
            <rect id="Rectangle_7210" data-name="Rectangle 7210" class="cls-17" width="0.711" height="0.711" rx="0.356" transform="translate(48.555 29.741) rotate(74.61)"/>
            <rect id="Rectangle_7211" data-name="Rectangle 7211" class="cls-17" width="0.711" height="0.711" rx="0.356" transform="translate(48.549 32.552) rotate(74.61)"/>
            <rect id="Rectangle_7212" data-name="Rectangle 7212" class="cls-17" width="0.711" height="0.711" rx="0.356" transform="translate(48.445 35.676) rotate(74.61)"/>
            <rect id="Rectangle_7213" data-name="Rectangle 7213" class="cls-17" width="0.711" height="0.711" rx="0.356" transform="matrix(-0.466, 0.885, -0.885, -0.466, 39.7, 21.396)"/>
            <rect id="Rectangle_7214" data-name="Rectangle 7214" class="cls-17" width="0.711" height="0.711" rx="0.356" transform="matrix(-0.466, 0.885, -0.885, -0.466, 35.685, 25.655)"/>
            <rect id="Rectangle_7215" data-name="Rectangle 7215" class="cls-17" width="0.711" height="0.711" rx="0.356" transform="matrix(-0.466, 0.885, -0.885, -0.466, 40.608, 20.432)"/>
            <rect id="Rectangle_7216" data-name="Rectangle 7216" class="cls-17" width="0.711" height="0.711" rx="0.356" transform="matrix(-0.466, 0.885, -0.885, -0.466, 38.941, 24.609)"/>
            <rect id="Rectangle_7217" data-name="Rectangle 7217" class="cls-17" width="0.711" height="0.711" rx="0.356" transform="matrix(-0.466, 0.885, -0.885, -0.466, 39.848, 23.643)"/>
            <rect id="Rectangle_7218" data-name="Rectangle 7218" class="cls-17" width="0.711" height="0.711" rx="0.356" transform="matrix(0.779, 0.627, -0.627, 0.779, 21.962, 26.53)"/>
            <rect id="Rectangle_7219" data-name="Rectangle 7219" class="cls-17" width="0.711" height="0.711" rx="0.356" transform="matrix(0.779, 0.627, -0.627, 0.779, 21.188, 25.455)"/>
            <rect id="Rectangle_7220" data-name="Rectangle 7220" class="cls-17" width="0.711" height="0.711" rx="0.356" transform="matrix(-0.466, 0.885, -0.885, -0.466, 36.755, 24.532)"/>
            <rect id="Rectangle_7221" data-name="Rectangle 7221" class="cls-17" width="0.711" height="0.711" rx="0.356" transform="matrix(-0.466, 0.885, -0.885, -0.466, 34.542, 26.737)"/>
            <rect id="Rectangle_7222" data-name="Rectangle 7222" class="cls-17" width="0.711" height="0.711" rx="0.356" transform="translate(16.298 36.167) rotate(160.96)"/>
            <rect id="Rectangle_7223" data-name="Rectangle 7223" class="cls-17" width="0.711" height="0.711" rx="0.356" transform="translate(17.845 36.08) rotate(160.96)"/>
            <rect id="Rectangle_7224" data-name="Rectangle 7224" class="cls-17" width="0.711" height="0.711" rx="0.356" transform="translate(14.723 36.174) rotate(160.96)"/>
            <rect id="Rectangle_7225" data-name="Rectangle 7225" class="cls-17" width="0.711" height="0.711" rx="0.356" transform="translate(26.849 33.016) rotate(160.96)"/>
            <rect id="Rectangle_7226" data-name="Rectangle 7226" class="cls-17" width="0.711" height="0.711" rx="0.356" transform="translate(28.396 32.932) rotate(160.96)"/>
            <rect id="Rectangle_7227" data-name="Rectangle 7227" class="cls-17" width="0.711" height="0.711" rx="0.356" transform="translate(25.274 33.024) rotate(160.96)"/>
            <rect id="Rectangle_7228" data-name="Rectangle 7228" class="cls-17" width="0.711" height="0.711" rx="0.356" transform="translate(39.202 36.119) rotate(160.96)"/>
            <rect id="Rectangle_7229" data-name="Rectangle 7229" class="cls-17" width="0.711" height="0.711" rx="0.356" transform="translate(40.749 36.033) rotate(160.96)"/>
            <rect id="Rectangle_7230" data-name="Rectangle 7230" class="cls-17" width="0.711" height="0.711" rx="0.356" transform="translate(37.625 36.129) rotate(160.96)"/>
            <rect id="Rectangle_7231" data-name="Rectangle 7231" class="cls-17" width="0.597" height="0.711" rx="0.297" transform="translate(44.304 31.748) rotate(160.96)"/>
            <rect id="Rectangle_7232" data-name="Rectangle 7232" class="cls-17" width="0.597" height="0.711" rx="0.297" transform="translate(45.626 31.741) rotate(160.96)"/>
            <rect id="Rectangle_7233" data-name="Rectangle 7233" class="cls-17" width="0.597" height="0.711" rx="0.297" transform="translate(41.146 33.644) rotate(160.96)"/>
            <rect id="Rectangle_7234" data-name="Rectangle 7234" class="cls-17" width="0.597" height="0.711" rx="0.297" transform="translate(42.469 33.638) rotate(160.96)"/>
            <rect id="Rectangle_7235" data-name="Rectangle 7235" class="cls-17" width="0.597" height="0.711" rx="0.297" transform="translate(22.688 35.14) rotate(160.96)"/>
            <rect id="Rectangle_7236" data-name="Rectangle 7236" class="cls-17" width="0.597" height="0.711" rx="0.297" transform="translate(24.008 35.131) rotate(160.96)"/>
          </g>
        </g>
      </g>
    </g>
    <g id="Mask_Group_644" data-name="Mask Group 644" class="cls-18" transform="translate(3002 2188)">
      <g id="Group_720" data-name="Group 720" transform="translate(-798 -783)">
        <g id="Mask_Group_11" data-name="Mask Group 11" class="cls-19">
          <g id="Mask_Group_471" data-name="Mask Group 471" class="cls-20" transform="translate(-40 -14637)">
            <g id="Page-1" transform="translate(-24083 -9037)">
              <circle id="Oval" class="cls-21" cx="32" cy="32" r="32"/>
              <path id="Polygon" class="cls-22" d="M32.188,11.164,50.232,21.582V42.418L32.188,52.836,14.143,42.418V21.582Z"/>
              <path id="Path" class="cls-23" d="M24.379,19.561l-1.686,7.632H41.121l-1.8-7.632Z"/>
              <path id="Path-2" class="cls-23" d="M22.626,29.8l-4.989,3.74,6.8,11.908h2.735l3.212-3.02v-1.5l-3.335-3.2v-5.1Z"/>
              <path id="Path-2-2" data-name="Path-2" class="cls-23" d="M38.372-29.745l-4.989-3.742,6.8-11.908h2.735l3.211,3.02v1.5l-3.335,3.2v5.1Z" transform="translate(79.513) rotate(180)"/>
              <path id="Path-3" class="cls-24"/>
              <path id="Path-4" class="cls-23" d="M27.068,28.362l1.623,4.257-.5,4.771,7.4-.024-.452-4.747,1.6-4.257Z"/>
            </g>
          </g>
        </g>
      </g>
    </g>
  </g>
</svg>
