<svg xmlns="http://www.w3.org/2000/svg" xmlns:xlink="http://www.w3.org/1999/xlink" width="114" height="64" viewBox="0 0 114 64">
  <defs>
    <style>
      .cls-1 {
        fill: #fff;
      }

      .cls-2 {
        clip-path: url(#clip-path);
      }

      .cls-3 {
        fill: #030303;
      }

      .cls-4 {
        fill: #71352b;
      }

      .cls-5 {
        fill: #e59873;
      }

      .cls-6 {
        fill: #e79974;
      }

      .cls-7 {
        fill: #048d92;
      }

      .cls-8 {
        fill: #038d92;
      }

      .cls-9 {
        fill: #029197;
      }

      .cls-10 {
        fill: #029196;
      }

      .cls-11 {
        fill: #038f94;
      }

      .cls-12 {
        fill: #029096;
      }

      .cls-13 {
        fill: #001f20;
      }

      .cls-14 {
        fill: #000f10;
      }

      .cls-15 {
        fill: #001d1e;
      }

      .cls-16 {
        fill: #001717;
      }

      .cls-17 {
        fill: #231f20;
      }

      .cls-18 {
        clip-path: url(#clip-path-2);
      }

      .cls-19 {
        fill: #040303;
      }

      .cls-20 {
        fill: #332623;
      }

      .cls-21 {
        fill: #a56f47;
      }

      .cls-22 {
        fill: #1c0a02;
      }

      .cls-23 {
        fill: #eeedec;
      }

      .cls-24 {
        fill: #ea986c;
      }

      .cls-25 {
        fill: #eae8e8;
      }

      .cls-26 {
        fill: #f0efee;
      }

      .cls-27 {
        fill: #df5626;
      }

      .cls-28 {
        fill: #dd5526;
      }

      .cls-29 {
        fill: #db5426;
      }

      .cls-30 {
        fill: #d65226;
      }

      .cls-31 {
        fill: #e15626;
      }

      .cls-32 {
        fill: #cd4f25;
      }

      .cls-33 {
        fill: #331609;
      }

      .cls-34 {
        fill: #d7d5d5;
      }

      .cls-35 {
        fill: #8a5f3e;
      }

      .cls-36 {
        fill: #ea5a26;
      }

      .cls-37 {
        fill: #f3a071;
      }

      .cls-38 {
        fill: #46322a;
      }

      .cls-39 {
        fill: #f6f5f4;
      }

      .cls-40 {
        fill: #a36e47;
      }

      .cls-41 {
        fill: #3d2f28;
      }

      .cls-42 {
        fill: #413e3f;
      }

      .cls-43 {
        fill: #49382e;
      }

      .cls-44 {
        fill: #dbdada;
      }

      .cls-45 {
        fill: #eb9567;
      }

      .cls-46 {
        fill: #e55c29;
      }
    </style>
    <clipPath id="clip-path">
      <circle id="Ellipse_5169" data-name="Ellipse 5169" class="cls-1" cx="32" cy="32" r="32" transform="translate(-21755 -22269)"/>
    </clipPath>
    <clipPath id="clip-path-2">
      <circle id="Ellipse_5167" data-name="Ellipse 5167" class="cls-1" cx="32" cy="32" r="32" transform="translate(-22083 -22269)"/>
    </clipPath>
  </defs>
  <g id="Group_19280" data-name="Group 19280" transform="translate(21830 21922)">
    <g id="Mask_Group_664" data-name="Mask Group 664" class="cls-2" transform="translate(-75 347)">
      <g id="b" transform="translate(-21755 -22268.963)">
        <g id="c">
          <g id="Group_19276" data-name="Group 19276">
            <g id="Group_19275" data-name="Group 19275">
              <path id="Path_39172" data-name="Path 39172" class="cls-3" d="M28.68,0h6.2a.955.955,0,0,0,.294.173C36.756.447,38.365.612,39.92,1A31.983,31.983,0,1,1,.779,39.079c-.27-1.267-.521-2.54-.779-3.81V28.68c.19-.923.4-1.843.571-2.77A32.03,32.03,0,0,1,24.773.793C26.071.509,27.377.262,28.68,0ZM27.49,37.405a2.188,2.188,0,0,1,.327-2.653,29.523,29.523,0,0,1,2.109-2.134c.163-.15.5-.109.762-.155-.052.282-.014.649-.177.834-.641.723-1.347,1.392-2.031,2.078a1.052,1.052,0,0,0-.146,1.549,1.114,1.114,0,0,0,1.639.2c.577-.412,1.17-.809,1.7-1.273a2.416,2.416,0,0,1,2.058-.581,2.19,2.19,0,0,1,.669.379c-.222.132-.453.391-.663.373-1.11-.091-1.648.719-2.533,1.347H46.562c-.15-.968-.573-1.458-1.613-1.341a12.883,12.883,0,0,1-2.418,0,3.562,3.562,0,0,1-1.022-.422,3.565,3.565,0,0,1,.966-.332c1.112-.041,2.226-.016,3.407-.016-.1-.525-.175-.892-.262-1.328a16.754,16.754,0,0,1-1.777-.019c-.255-.027-.488-.268-.729-.412a2.195,2.195,0,0,1,.7-.34c.6-.051,1.207-.016,1.7-.016.352-1.5.669-2.859,1-4.265H45.446c-5.942,0-11.886-.01-17.828.014A2.038,2.038,0,0,1,26,28.233c-1.664-1.714-3.367-3.392-5.061-5.079a1.859,1.859,0,0,0-2.653-.251,1.84,1.84,0,0,0,.2,2.663c.768.785,1.567,1.541,2.315,2.344.167.179.181.5.266.756a2.738,2.738,0,0,1-.694.2c-1.841.017-3.683.043-5.522-.006a1.393,1.393,0,0,0-1.491.956,8.941,8.941,0,0,0-.041,6.669,1.336,1.336,0,0,0,1.413.935c2.875-.033,5.75-.014,8.622-.014h4.127Zm8.249-9.458a1.957,1.957,0,0,0,2.167-.43c1.885-1.95,3.825-3.847,5.74-5.769.192-.192.354-.418.566-.673a9.85,9.85,0,0,1-5.845-5.728L26.446,27.269a1.689,1.689,0,0,0,1.675.83,12.124,12.124,0,0,1,2.708.006,5.434,5.434,0,0,0,5.746-2.379.176.176,0,0,1,.068-.068c.321-.1.643-.2.964-.3a3.173,3.173,0,0,1-.34.974c-.428.54-.945,1.009-1.528,1.615Zm4.193-14.073c-.7.006-.906.426-.729.96a7.858,7.858,0,0,0,.884,1.9A8.292,8.292,0,0,0,44.1,20.065c1.044.387,1.588.027,1.419-.873-.358-1.907-3.221-4.838-5.133-5.252-.157-.035-.317-.049-.449-.068Zm9.993,19.342c-.305-1.178-.575-2.391-.952-3.569a1.163,1.163,0,0,0-.809-.7c-.278,0-.688.381-.822.69a8.484,8.484,0,0,0-.031,6.982c.134.315.54.748.781.725a1.28,1.28,0,0,0,.89-.717c.373-1.079.62-2.2.943-3.409ZM21.91,49.3a19,19,0,0,0,2.231-1.153c.08-.054-.276-.76-.4-1.083.091-.42.36-.908.243-1.273-.19-.6-1.337-.758-2.292-.412.064,1.158.128,2.338.216,3.921Zm9.74-.6c.5-1.258.381-3.042-.169-3.479L31.3,46.836l-1.66.224-.169-1.738-.367.041a8.232,8.232,0,0,0,.008,3.526l.34.01c.062-.391.124-.781.2-1.236.554-.078,1.085-.15,1.6-.222.124.389.222.7.4,1.263Zm1.483.3c.577-.4.976-.877,1.421-.925s.941.33,1.415.521c.019.192.171.126.163.1-.28-1.1-.546-2.206-.9-3.281-.035-.109-.83-.167-.929-.017a7.383,7.383,0,0,0-1.164,3.6Zm6.257-1.24c.272-.6.671-1.1.639-1.559-.021-.3-.63-.655-1.042-.816a2.033,2.033,0,0,0-1.133.029.712.712,0,0,0-.459.49c-.035.9-.012,1.8.035,2.7.008.15.231.29.492.589.058-.657.1-1.087.154-1.718l1.948,1.471c.047-.268.089-.354.064-.385-.266-.319-.542-.628-.7-.8ZM19.638,49.276c.206-.286.354-.525.535-.739.653-.764.579-1.205-.2-1.831-.307-.247-.762-.812-.676-.956.363-.622.8-.091,1.209.086.039.016.109-.045.321-.14-.428-.47-.818-.9-1.226-1.349a4.481,4.481,0,0,1-.552.791c-.649.591-.519,1.11.082,1.617a2.994,2.994,0,0,1,.527.42,4.115,4.115,0,0,1,.352.754,7.055,7.055,0,0,1-.929,0,1.909,1.909,0,0,1-.523-.239l-.148.185c.393.447.785.894,1.234,1.407ZM43.5,48.681q-1.489-.585-1.3-1.464l1.38-.237-.031-.241-1.5-.115c.016-.371.029-.682.045-.993.533-.087,1.007-.165,1.481-.241l-.033-.358c-.686.033-1.372.068-2.076.1a24.191,24.191,0,0,0,.031,2.7,1.4,1.4,0,0,0,.663,1.03c.375.136.884-.107,1.337-.187Zm-16.08-2.3.189-.342c-.365-.19-.752-.56-1.094-.523a1.543,1.543,0,0,0-1.09.711c-.111.235.278.744.507,1.087a8.05,8.05,0,0,0,.791.882c-.377-.017-.754-.039-1.131-.047-.051,0-.1.066-.43.294.568.183.974.445,1.335.391a1.24,1.24,0,0,0,.884-.686c.068-.27-.286-.68-.519-.978-.126-.161-.437-.173-.575-.33a2.025,2.025,0,0,1-.251-.63,1.957,1.957,0,0,1,.682-.157,2.6,2.6,0,0,1,.7.327Z"/>
              <path id="Path_39173" data-name="Path 39173" class="cls-4" d="M27.49,37.405H23.364c-2.875,0-5.75-.019-8.622.014a1.334,1.334,0,0,1-1.413-.935,8.941,8.941,0,0,1,.041-6.669,1.391,1.391,0,0,1,1.491-.956c1.839.049,3.681.023,5.522.006a2.609,2.609,0,0,0,.694-.2c-.086-.257-.1-.577-.266-.756-.748-.8-1.547-1.559-2.315-2.344a1.84,1.84,0,0,1-.2-2.663,1.859,1.859,0,0,1,2.653.251c1.695,1.685,3.4,3.363,5.061,5.079a2.038,2.038,0,0,0,1.615.659c5.942-.021,11.886-.014,17.828-.014h1.061c-.328,1.405-.645,2.762-1,4.265-.49,0-1.1-.033-1.7.016a2.175,2.175,0,0,0-.7.34c.243.144.474.383.729.412a16.754,16.754,0,0,0,1.777.019c.086.435.157.8.262,1.328-1.18,0-2.3-.025-3.407.016a3.457,3.457,0,0,0-.966.332,3.562,3.562,0,0,0,1.022.422,12.721,12.721,0,0,0,2.418,0c1.038-.117,1.464.375,1.613,1.341H31.212c.884-.626,1.423-1.436,2.533-1.347.21.017.441-.241.663-.373a2.19,2.19,0,0,0-.669-.379,2.427,2.427,0,0,0-2.058.581c-.533.465-1.125.861-1.7,1.273a1.114,1.114,0,0,1-1.639-.2,1.053,1.053,0,0,1,.146-1.549c.684-.686,1.39-1.353,2.031-2.078.163-.185.122-.55.177-.834-.259.047-.6,0-.762.155a29.521,29.521,0,0,0-2.109,2.134A2.188,2.188,0,0,0,27.5,37.4Z"/>
              <path id="Path_39174" data-name="Path 39174" class="cls-4" d="M35.739,27.947c.583-.6,1.1-1.075,1.528-1.615a3.173,3.173,0,0,0,.34-.974c-.321.1-.643.2-.964.3-.027.008-.051.041-.068.068a5.434,5.434,0,0,1-5.746,2.379,12.01,12.01,0,0,0-2.708-.006,1.689,1.689,0,0,1-1.675-.83L38.367,15.35a9.85,9.85,0,0,0,5.845,5.728c-.212.255-.373.478-.566.673-1.915,1.922-3.854,3.817-5.74,5.769a1.957,1.957,0,0,1-2.167.43Z"/>
              <path id="Path_39175" data-name="Path 39175" class="cls-5" d="M39.934,13.874c.132.019.293.035.449.068,1.913.416,4.774,3.347,5.133,5.252.169.9-.375,1.26-1.419.873a8.3,8.3,0,0,1-4.008-3.328,7.931,7.931,0,0,1-.884-1.9c-.177-.535.035-.954.729-.96Z"/>
              <path id="Path_39176" data-name="Path 39176" class="cls-6" d="M49.927,33.216c-.323,1.207-.57,2.331-.943,3.409a1.28,1.28,0,0,1-.89.717c-.239.023-.647-.41-.781-.725a8.477,8.477,0,0,1,.031-6.982c.136-.309.544-.692.822-.69a1.155,1.155,0,0,1,.809.7C49.351,30.826,49.622,32.039,49.927,33.216Z"/>
              <path id="Path_39177" data-name="Path 39177" class="cls-7" d="M21.91,49.3c-.087-1.584-.152-2.762-.216-3.921.954-.346,2.1-.185,2.292.412.117.365-.152.855-.243,1.273.122.323.48,1.028.4,1.083A19.462,19.462,0,0,1,21.912,49.3Zm.48-2.317c.544-.3.881-.488,1.217-.673v-.3l-1.312-.41c.037.533.056.83.1,1.384Zm.049.363.074,1.26,1.145-.564-.017-.262c-.352-.126-.7-.255-1.2-.433Z"/>
              <path id="Path_39178" data-name="Path 39178" class="cls-8" d="M31.65,48.7c-.181-.566-.28-.875-.4-1.263-.515.072-1.044.146-1.6.222-.072.455-.134.846-.2,1.236l-.34-.01a8.263,8.263,0,0,1-.008-3.526l.367-.041.169,1.738,1.66-.224.183-1.611c.55.437.663,2.222.169,3.479Z"/>
              <path id="Path_39179" data-name="Path 39179" class="cls-9" d="M33.133,49.007a7.383,7.383,0,0,1,1.164-3.6c.1-.148.894-.089.929.017.358,1.075.624,2.181.9,3.281.006.025-.146.091-.163-.1-.472-.19-.966-.57-1.415-.521s-.842.525-1.421.925ZM34,47.437h1.45c-.192-.6-.363-1.123-.533-1.648l-.237-.008L34,47.437Z"/>
              <path id="Path_39180" data-name="Path 39180" class="cls-10" d="M39.39,47.767c.154.175.43.484.7.8.025.029-.016.117-.064.385l-1.948-1.471c-.056.634-.1,1.061-.154,1.718-.259-.3-.484-.439-.492-.589-.047-.9-.068-1.8-.035-2.7a.712.712,0,0,1,.459-.49,2.016,2.016,0,0,1,1.133-.029c.412.161,1.02.513,1.042.816.031.465-.367.956-.639,1.559ZM37.9,46.974l.231.227a12.988,12.988,0,0,0,1.3-.548c.06-.033,0-.527-.087-.558-.375-.126-.853-.311-1.151-.171-.214.1-.2.682-.292,1.048Z"/>
              <path id="Path_39181" data-name="Path 39181" class="cls-11" d="M19.638,49.276c-.449-.511-.842-.958-1.234-1.407l.148-.185a1.878,1.878,0,0,0,.523.239,7.053,7.053,0,0,0,.929,0,4.388,4.388,0,0,0-.352-.754,2.924,2.924,0,0,0-.527-.42c-.6-.507-.729-1.026-.082-1.617a4.481,4.481,0,0,0,.552-.791l1.226,1.349c-.21.1-.282.157-.321.14-.408-.177-.847-.706-1.209-.086-.084.144.369.709.676.956.781.626.855,1.067.2,1.831-.181.212-.33.453-.535.739Z"/>
              <path id="Path_39182" data-name="Path 39182" class="cls-9" d="M43.5,48.681c-.451.08-.962.323-1.337.187a1.42,1.42,0,0,1-.663-1.03,24.667,24.667,0,0,1-.031-2.7l2.076-.1.033.358c-.474.078-.949.155-1.481.241-.014.311-.027.62-.045.993l1.5.115.031.241-1.38.237q-.192.877,1.3,1.464Z"/>
              <path id="Path_39183" data-name="Path 39183" class="cls-12" d="M27.42,46.385a2.543,2.543,0,0,0-.7-.327,1.948,1.948,0,0,0-.682.157,2.025,2.025,0,0,0,.251.63c.138.157.449.169.575.33.233.3.587.708.519.978a1.235,1.235,0,0,1-.884.686c-.36.054-.768-.208-1.335-.391.327-.227.379-.3.43-.294.377.008.754.029,1.131.047a8.255,8.255,0,0,1-.791-.882c-.231-.342-.618-.851-.507-1.087a1.547,1.547,0,0,1,1.09-.711c.342-.037.727.332,1.094.523l-.189.342Z"/>
              <path id="Path_39184" data-name="Path 39184" class="cls-13" d="M22.39,46.984c-.039-.554-.058-.851-.1-1.384l1.312.41v.3l-1.217.673Z"/>
              <path id="Path_39185" data-name="Path 39185" class="cls-14" d="M22.44,47.347l1.2.433.017.262-1.145.564-.074-1.26Z"/>
              <path id="Path_39186" data-name="Path 39186" class="cls-15" d="M34,47.439l.68-1.656.237.008c.169.525.34,1.05.533,1.648H34Z"/>
              <path id="Path_39187" data-name="Path 39187" class="cls-16" d="M37.9,46.974c.089-.367.078-.949.292-1.048.3-.14.777.045,1.151.171.087.029.148.525.087.558a13.183,13.183,0,0,1-1.3.548l-.231-.227Z"/>
            </g>
            <rect id="Rectangle_7489" data-name="Rectangle 7489" class="cls-17" width="0.711" height="0.711" rx="0.356" transform="matrix(0.866, 0.5, -0.5, 0.866, 41.281, 15.453)"/>
            <rect id="Rectangle_7490" data-name="Rectangle 7490" class="cls-17" width="0.711" height="0.711" rx="0.356" transform="matrix(0.866, 0.5, -0.5, 0.866, 43.399, 17.626)"/>
            <rect id="Rectangle_7491" data-name="Rectangle 7491" class="cls-17" width="0.711" height="0.711" rx="0.356" transform="matrix(0.866, 0.5, -0.5, 0.866, 40.352, 14.508)"/>
            <rect id="Rectangle_7492" data-name="Rectangle 7492" class="cls-17" width="0.711" height="0.711" rx="0.356" transform="matrix(0.866, 0.5, -0.5, 0.866, 42.321, 16.515)"/>
            <rect id="Rectangle_7493" data-name="Rectangle 7493" class="cls-17" width="0.711" height="0.711" rx="0.356" transform="matrix(0.866, 0.5, -0.5, 0.866, 44.44, 18.811)"/>
            <rect id="Rectangle_7494" data-name="Rectangle 7494" class="cls-17" width="0.711" height="0.711" rx="0.356" transform="translate(48.554 31.067) rotate(74.61)"/>
            <rect id="Rectangle_7495" data-name="Rectangle 7495" class="cls-17" width="0.711" height="0.711" rx="0.356" transform="translate(48.535 34.103) rotate(74.61)"/>
            <rect id="Rectangle_7496" data-name="Rectangle 7496" class="cls-17" width="0.711" height="0.711" rx="0.356" transform="translate(48.555 29.741) rotate(74.61)"/>
            <rect id="Rectangle_7497" data-name="Rectangle 7497" class="cls-17" width="0.711" height="0.711" rx="0.356" transform="translate(48.549 32.552) rotate(74.61)"/>
            <rect id="Rectangle_7498" data-name="Rectangle 7498" class="cls-17" width="0.711" height="0.711" rx="0.356" transform="translate(48.445 35.676) rotate(74.61)"/>
            <rect id="Rectangle_7499" data-name="Rectangle 7499" class="cls-17" width="0.711" height="0.711" rx="0.356" transform="matrix(-0.466, 0.885, -0.885, -0.466, 39.7, 21.396)"/>
            <rect id="Rectangle_7500" data-name="Rectangle 7500" class="cls-17" width="0.711" height="0.711" rx="0.356" transform="matrix(-0.466, 0.885, -0.885, -0.466, 35.685, 25.655)"/>
            <rect id="Rectangle_7501" data-name="Rectangle 7501" class="cls-17" width="0.711" height="0.711" rx="0.356" transform="matrix(-0.466, 0.885, -0.885, -0.466, 40.608, 20.432)"/>
            <rect id="Rectangle_7502" data-name="Rectangle 7502" class="cls-17" width="0.711" height="0.711" rx="0.356" transform="matrix(-0.466, 0.885, -0.885, -0.466, 38.941, 24.609)"/>
            <rect id="Rectangle_7503" data-name="Rectangle 7503" class="cls-17" width="0.711" height="0.711" rx="0.356" transform="matrix(-0.466, 0.885, -0.885, -0.466, 39.848, 23.643)"/>
            <rect id="Rectangle_7504" data-name="Rectangle 7504" class="cls-17" width="0.711" height="0.711" rx="0.356" transform="matrix(0.779, 0.627, -0.627, 0.779, 21.962, 26.53)"/>
            <rect id="Rectangle_7505" data-name="Rectangle 7505" class="cls-17" width="0.711" height="0.711" rx="0.356" transform="matrix(0.779, 0.627, -0.627, 0.779, 21.188, 25.455)"/>
            <rect id="Rectangle_7506" data-name="Rectangle 7506" class="cls-17" width="0.711" height="0.711" rx="0.356" transform="matrix(-0.466, 0.885, -0.885, -0.466, 36.755, 24.532)"/>
            <rect id="Rectangle_7507" data-name="Rectangle 7507" class="cls-17" width="0.711" height="0.711" rx="0.356" transform="matrix(-0.466, 0.885, -0.885, -0.466, 34.542, 26.737)"/>
            <rect id="Rectangle_7508" data-name="Rectangle 7508" class="cls-17" width="0.711" height="0.711" rx="0.356" transform="translate(16.298 36.167) rotate(160.96)"/>
            <rect id="Rectangle_7509" data-name="Rectangle 7509" class="cls-17" width="0.711" height="0.711" rx="0.356" transform="translate(17.845 36.08) rotate(160.96)"/>
            <rect id="Rectangle_7510" data-name="Rectangle 7510" class="cls-17" width="0.711" height="0.711" rx="0.356" transform="translate(14.723 36.174) rotate(160.96)"/>
            <rect id="Rectangle_7511" data-name="Rectangle 7511" class="cls-17" width="0.711" height="0.711" rx="0.356" transform="translate(26.849 33.016) rotate(160.96)"/>
            <rect id="Rectangle_7512" data-name="Rectangle 7512" class="cls-17" width="0.711" height="0.711" rx="0.356" transform="translate(28.396 32.932) rotate(160.96)"/>
            <rect id="Rectangle_7513" data-name="Rectangle 7513" class="cls-17" width="0.711" height="0.711" rx="0.356" transform="translate(25.274 33.024) rotate(160.96)"/>
            <rect id="Rectangle_7514" data-name="Rectangle 7514" class="cls-17" width="0.711" height="0.711" rx="0.356" transform="translate(39.202 36.119) rotate(160.96)"/>
            <rect id="Rectangle_7515" data-name="Rectangle 7515" class="cls-17" width="0.711" height="0.711" rx="0.356" transform="translate(40.749 36.033) rotate(160.96)"/>
            <rect id="Rectangle_7516" data-name="Rectangle 7516" class="cls-17" width="0.711" height="0.711" rx="0.356" transform="translate(37.625 36.129) rotate(160.96)"/>
            <rect id="Rectangle_7517" data-name="Rectangle 7517" class="cls-17" width="0.597" height="0.711" rx="0.297" transform="translate(44.304 31.748) rotate(160.96)"/>
            <rect id="Rectangle_7518" data-name="Rectangle 7518" class="cls-17" width="0.597" height="0.711" rx="0.297" transform="translate(45.626 31.741) rotate(160.96)"/>
            <rect id="Rectangle_7519" data-name="Rectangle 7519" class="cls-17" width="0.597" height="0.711" rx="0.297" transform="translate(41.146 33.644) rotate(160.96)"/>
            <rect id="Rectangle_7520" data-name="Rectangle 7520" class="cls-17" width="0.597" height="0.711" rx="0.297" transform="translate(42.469 33.638) rotate(160.96)"/>
            <rect id="Rectangle_7521" data-name="Rectangle 7521" class="cls-17" width="0.597" height="0.711" rx="0.297" transform="translate(22.688 35.14) rotate(160.96)"/>
            <rect id="Rectangle_7522" data-name="Rectangle 7522" class="cls-17" width="0.597" height="0.711" rx="0.297" transform="translate(24.008 35.131) rotate(160.96)"/>
          </g>
        </g>
      </g>
    </g>
    <g id="Mask_Group_662" data-name="Mask Group 662" class="cls-18" transform="translate(303 347)">
      <g id="b-2" data-name="b" transform="translate(-22082.961 -22269)">
        <g id="c-2" data-name="c">
          <g id="Group_19272" data-name="Group 19272">
            <path id="Path_39056" data-name="Path 39056" class="cls-19" d="M0,35.32V28.731c.064-.1.165-.185.185-.29.272-1.454.453-2.927.807-4.36A31.982,31.982,0,1,1,39.077,63.217c-1.392.3-2.8.525-4.2.783h-6.2c-.923-.19-1.843-.4-2.77-.571A32.029,32.029,0,0,1,.793,39.227C.509,37.928.262,36.622,0,35.32Zm32.354,7.361.208.274c.912.661,1.808,1.343,2.744,1.965a3.125,3.125,0,0,0,.964.251l0,0c.212.128.426.257.638.383l.066-.006.043.051c.383.587.77.573,1.162.012l.552-.42c.482-.1.707-.311.34-.779l.1-.367a2.79,2.79,0,0,0,.346-.77,14.145,14.145,0,0,0,.016-1.559c1.59.262,2.989.552,4.4.7.744.08,1.666.465,2.157-.566.194-.177.389-.356.585-.533a1.42,1.42,0,0,0,.019-2.309q-.481-.682-.962-1.366l-.4-.13-.542.039a11.46,11.46,0,0,0-1.5-.468c-.832-.144-1.679-.2-2.531-.3.346-.6.638-1.116.931-1.629a3.959,3.959,0,0,0,.7-.721,9.42,9.42,0,0,0,.754-7.644c-.857,2.132-1.477,2.97-3.609,2.919v-.395c.1-.058.3-.1.307-.177.373-2.385.758-4.778-.288-7.1a2.948,2.948,0,0,0-.6-.663h0A2.293,2.293,0,0,0,37.4,19.625h0l-.777-.387-.19-.19-.583-.395c-.323-.387-.643-.774-.966-1.158l-.391-.585v-.192a15.684,15.684,0,0,0-.412-2.231c-.379-1.151-.88-2.26-1.331-3.386h0l-.585-.776c-.321-.257-.643-.513-.964-.772l-.776-.585h0l-.389-.391c-.128-.064-.255-.128-.383-.19-.457-.21-.912-.422-1.487-.688l.126,1.04q.487,1.481.976,2.96c-.076.262-.146.529-.225.789-.468,1.52-1.668,2.83-1.331,4.583a3.408,3.408,0,0,0-.043.937c.521,2.156,1.075,4.3,1.617,6.453q-.213.673-.428,1.347l-1.535.212-.19-.19-.389-.779h0c-.13-.192-.259-.387-.389-.581h0l-.389-.387h0l-.389-.581h0l-.389-.581h0c-.155-.373-.309-.748-.461-1.114-.305,1.193-.585,2.288-.869,3.382-.072.274-.161.542-.241.814-1.39,1.112-1.485,2.744-1.734,4.315a3.1,3.1,0,0,0-.179.772,8.928,8.928,0,0,0,2.949,6.375l-1.184.408c-.035-.041-.068-.086-.1-.128l-1.45-.391-.1.253.373.511a2.544,2.544,0,0,1-.692-.231,1.224,1.224,0,0,0-1.992.43A5.12,5.12,0,0,0,19,39.66a1.826,1.826,0,0,0,.787,2.183,2.99,2.99,0,0,0,2.933-.152,1.814,1.814,0,0,0,.282-2.292c.148.074.41.132.424.227.087.6.121,1.217.179,1.907a6.144,6.144,0,0,0,.958-.107c1.648-.439,3.289-.9,4.931-1.361a.233.233,0,0,0,.144.1l.2.387q.968.875,1.934,1.751l0,0,.589.391-.008-.01ZM30.185,55.616c.109.025.22.051.328.074.076-.76.152-1.518.251-2.49.694.983,1.234,1.751,1.775,2.519l.28-.113a5.953,5.953,0,0,0,.173-3.376l-.325-.029c-.072.69-.144,1.378-.235,2.241-.7-.91-1.294-1.675-1.885-2.441l-.362.179v3.438Zm-6.317-1.67c.064-.525.286-1.04.13-1.388-.262-.593-1.423-.69-2.229-.323.06,1.2.119,2.387.194,3.913a18.863,18.863,0,0,0,2.218-1.168c.1-.066-.216-.727-.315-1.032Zm17.7.379L43.4,55.748l.235-.268-.96-1.085c.091.017.181.035.272.054.194-.482.678-1.135.517-1.409a2.155,2.155,0,0,0-1.446-.836c-1.1-.142-1.275.1-1.259,1.232a13.806,13.806,0,0,0,.111,1.444c.039.33.124.657.189.985l.325-.021c.056-.443.113-.886.192-1.522Zm-12.881-.3a1.725,1.725,0,0,0-1.724-1.691A1.676,1.676,0,0,0,25.32,54.09a1.587,1.587,0,0,0,1.6,1.57,1.671,1.671,0,0,0,1.767-1.635Zm-10.025.468-.206.222c.4.459.811.917,1.283,1.456.348-.61.935-1.178.875-1.664s-.776-.9-1.168-1.38c-.115-.14-.206-.447-.132-.56a.679.679,0,0,1,.568-.225,2.866,2.866,0,0,1,.735.354l.2-.183c-.383-.441-.764-.882-1.215-1.405a4.8,4.8,0,0,1-.371.75c-.776,1.017-.758,1.207.245,1.973.154.117.354.2.445.358s.19.455.111.568a.643.643,0,0,1-.568.173,3.9,3.9,0,0,1-.8-.433Zm16.811-.844c-.571-1.819,1.225-1.081,1.664-1.963l-2.4.328q.029,3.633.626,4.006c0-.544-.163-1.125.047-1.495.2-.352.787-.482,1.205-.711l-.043-.167h-1.1Zm10.113-1.205,1.477-.2-.019-.282h-2.08A24.692,24.692,0,0,0,45,54.741a1.374,1.374,0,0,0,.717.989c.358.117.844-.159,1.462-.311-.647-.517-1.467.344-1.615-.684-.19-1.322,1.186-.424,1.569-1.162l-1.545-.1V52.446Zm-7.019,3.182c.711-.739.651-2.793,0-3.269ZM24.846,20.177c.853-.867.822-1.471,0-1.944Z"/>
            <path id="Path_39057" data-name="Path 39057" class="cls-20" d="M46.09,41.849c-.494,1.03-1.413.645-2.157.566-1.415-.152-2.814-.439-4.4-.7a14.145,14.145,0,0,1-.016,1.559,2.764,2.764,0,0,1-.346.77c-.008-.641,0-1.283-.023-1.924-.023-.811-.27-1.415-1.261-1.176-.542.13-1.071.315-1.607.476l-.023-.711,1.077-.659c-.437-.3-.849-.585-1.261-.867l-.527-.13c-.233-.171-.466-.344-.7-.515l.5-.348c.023.328.06.6.515.375a8.518,8.518,0,0,1,.966-.35c.363-.01.84.126,1.075-.052,1.279-.978,2.5-2.033,3.736-3.061l.058.054c-.293.513-.587,1.024-.931,1.627.849.1,1.7.155,2.531.3a11.665,11.665,0,0,1,1.5.468c-.189.126-.379.253-.568.377-.243-.807-.688-.443-1.094-.175a4.741,4.741,0,0,0-.529.463,3.147,3.147,0,0,0-4.4.338c-.021.023.109.181.169.274v.336l-1.638-.239c1.052.914,1.866,1.629,2.692,2.33a.75.75,0,0,0,.363.1q1.227.184,2.453.36l.439-.463c.974,1.131,2.163,1.034,3.413.6Z"/>
            <path id="Path_39058" data-name="Path 39058" class="cls-21" d="M22.193,38.115l-.373-.511.1-.253,1.452.391-.474.274.1.173.474-.319,1.184-.408q1.055.749,2.113,1.5l-2.327.669.109.346,2.671-.783,2.231.581.047.3c-1.642.455-3.283.919-4.931,1.361a5.686,5.686,0,0,1-.958.107c-.058-.692-.091-1.3-.179-1.907-.014-.093-.276-.152-.424-.227l.031.008c-.264-.43-.527-.859-.791-1.289h-.058Z"/>
            <path id="Path_39059" data-name="Path 39059" class="cls-22" d="M34.49,16.715v.192l.391.585c.323.387.643.774.966,1.158l.583.395.19.19.777.389h0l1.551,1.743h0a16.706,16.706,0,0,1,.871,2.824c.122.914.48,1.926-.249,2.795-.006-.418-.017-.836-.019-1.252a6.326,6.326,0,0,0-2.869-5.571c-.373-.251-.713-.548-1.083-.8a4.8,4.8,0,0,1-2.107-3.71,7.666,7.666,0,0,0-4.053-6.377l-.416-.07.008-.01.029-.612.008-.008.581-.19c.128.064.255.128.383.19l.389.391h0q.388.292.776.585c.321.257.643.513.964.772l.585.776h0c.381,1.378.746,2.764,1.151,4.136.15.507.391.989.591,1.481Z"/>
            <path id="Path_39060" data-name="Path 39060" class="cls-23" d="M22.193,38.115h-.006l.064,0c.264.43.527.859.791,1.289l-.031-.008a1.811,1.811,0,0,1-.282,2.292,2.99,2.99,0,0,1-2.933.152,1.827,1.827,0,0,1-.787-2.183,5.011,5.011,0,0,1,.5-1.345,1.223,1.223,0,0,1,1.992-.43,2.522,2.522,0,0,0,.692.231ZM20.1,39.341a1.222,1.222,0,0,0-.237.29,1.163,1.163,0,0,0,.5,1.64c.564.29,1.2.542,1.72-.142a1.765,1.765,0,0,0-.144-2.033c-.064-.054-.272.06-.412.1l-1.425.146Z"/>
            <path id="Path_39061" data-name="Path 39061" class="cls-24" d="M29.5,40.066l-.047-.3L27.5,38.42l-.723-.735-.235-.231.006.008c-.078-.332-.175-.661-.227-1-.124-.807-.237-1.615-.317-2.426-.006-.058.3-.146.461-.222.214,4.912,5.069,6.622,9.081,5.232l.527.13c-1.491.968-3.188.91-4.861.974L30.228,40l-.439.157a.105.105,0,0,0-.144,0,.238.238,0,0,1-.144-.1Z"/>
            <path id="Path_39062" data-name="Path 39062" class="cls-25" d="M44.22,37.925c.189-.126.379-.253.568-.377l.542-.039.4.13q.481.682.962,1.366c-.006.77-.014,1.539-.019,2.309-.194.177-.389.356-.585.533-1.25.437-2.439.535-3.413-.6a.09.09,0,0,0-.056-.117c-.045-.2-.091-.4-.136-.6l.051-.35.159-.546L42.64,39.6l.058.041.62-.783.9-.929Zm1.522,3.022h0c.6-.4.412-.915.167-1.407-.3-.606-.814-.476-1.318-.323L44.9,38.2l-.27-.148-.634,1.127c-.694.762-.744,1.481-.148,2.089.463.472,1.221.346,1.9-.317Z"/>
            <path id="Path_39063" data-name="Path 39063" class="cls-26" d="M36.274,41.417c.535-.159,1.065-.344,1.607-.476.991-.239,1.238.367,1.261,1.176.019.641.017,1.283.023,1.924l-.1.367c-.113.26-.227.521-.34.779l-.552.42L37.013,45.6l-.043-.051-.066.006c-.212-.128-.426-.257-.638-.383l0,0a2.855,2.855,0,0,1-.768-2.859l.774-.9Zm1.166-.227a2.588,2.588,0,0,0-1.011,3.022,1.289,1.289,0,0,0,.884.69,1.3,1.3,0,0,0,.96-.606,1.426,1.426,0,0,0-1.209-2.231c.1-.224.192-.445.377-.875Z"/>
            <path id="Path_39064" data-name="Path 39064" class="cls-20" d="M29.027,9.2l.416.07A4.929,4.929,0,0,1,29,13.625a5.644,5.644,0,0,0-.387,4.919c.393,1.223.851,2.432,1.121,3.681.282,1.3.362,2.638-.807,3.654-.023-.025-.049-.049-.072-.074q.213-.673.428-1.345a3.066,3.066,0,0,0,.189-1.172c-.55-2.082-1.168-4.146-1.763-6.218-.336-1.755.863-3.063,1.331-4.583.08-.262.152-.527.225-.789l-.239-2.5Z"/>
            <path id="Path_39065" data-name="Path 39065" class="cls-27" d="M27.5,38.42l1.955,1.349-2.231-.581-.453-.231q-1.055-.749-2.113-1.5a8.925,8.925,0,0,1-2.949-6.375,3.167,3.167,0,0,1,.179-.772,24.96,24.96,0,0,0,.847,3.419A11.268,11.268,0,0,0,24.226,35.9l-.006-.01,1.172.974-.006-.006L27.5,38.418Z"/>
            <path id="Path_39066" data-name="Path 39066" class="cls-27" d="M30.185,55.616V52.177L30.546,52c.591.766,1.184,1.532,1.885,2.441.089-.863.163-1.551.235-2.241l.325.029a5.951,5.951,0,0,1-.173,3.376l-.28.113c-.54-.768-1.081-1.535-1.775-2.519-.1.972-.173,1.73-.251,2.49-.109-.025-.22-.051-.328-.074Z"/>
            <path id="Path_39067" data-name="Path 39067" class="cls-28" d="M23.866,53.948c.1.305.412.966.315,1.032a18.862,18.862,0,0,1-2.218,1.168c-.076-1.526-.136-2.717-.194-3.913.807-.367,1.967-.268,2.229.323.154.348-.068.863-.13,1.388ZM22.317,52.4c.084.6.13.935.2,1.448l1.4-.958-1.6-.492Zm.21,3.092,1.1-.682-1.1-.762V55.5Z"/>
            <path id="Path_39068" data-name="Path 39068" class="cls-20" d="M39.532,29.7c2.132.051,2.752-.787,3.609-2.919a9.427,9.427,0,0,1-.754,7.644,3.827,3.827,0,0,1-.7.721l-.058-.054c1.277-1.946,1.372-4.126,1.331-6.451L41.3,29.9q-.883-.1-1.765-.2Z"/>
            <path id="Path_39069" data-name="Path 39069" class="cls-29" d="M41.567,54.327c-.08.634-.136,1.079-.192,1.522l-.325.021c-.064-.328-.15-.653-.189-.985a13.847,13.847,0,0,1-.111-1.444c-.016-1.135.165-1.376,1.259-1.232a2.151,2.151,0,0,1,1.446.836c.161.274-.323.927-.517,1.409-.091-.017-.181-.035-.272-.054l.96,1.085-.235.268-1.829-1.423Zm-.274-.538.332.272c.43-.2.871-.381,1.277-.62.049-.029-.043-.507-.144-.536a1.878,1.878,0,0,0-1.158-.136c-.214.1-.214.663-.309,1.02Z"/>
            <path id="Path_39070" data-name="Path 39070" class="cls-28" d="M28.688,54.026a1.669,1.669,0,0,1-1.767,1.635,1.583,1.583,0,0,1-1.6-1.57,1.673,1.673,0,0,1,1.644-1.755,1.722,1.722,0,0,1,1.724,1.691Zm-.431.22,0-.466c-.416-.3-.8-.777-1.256-.869-.682-.134-1.044.379-1.053,1.061s.344,1.2,1.03,1.088C27.439,54.984,27.833,54.529,28.257,54.245Z"/>
            <path id="Path_39071" data-name="Path 39071" class="cls-29" d="M18.663,54.494a3.812,3.812,0,0,0,.8.433.633.633,0,0,0,.568-.173c.08-.113-.012-.4-.111-.568s-.293-.241-.445-.358c-1-.764-1.02-.956-.245-1.973a4.8,4.8,0,0,0,.371-.75c.451.521.834.962,1.215,1.405l-.2.183a2.774,2.774,0,0,0-.735-.354.679.679,0,0,0-.568.225c-.076.113.016.42.132.56.393.476,1.106.882,1.168,1.38s-.527,1.055-.875,1.664l-1.283-1.456.206-.222Z"/>
            <path id="Path_39072" data-name="Path 39072" class="cls-30" d="M35.474,53.651h1.1l.043.167c-.418.227-1,.36-1.205.711-.21.369-.047.95-.047,1.495q-.6-.375-.626-4.006l2.4-.328c-.439.882-2.235.144-1.664,1.963Z"/>
            <path id="Path_39073" data-name="Path 39073" class="cls-31" d="M45.588,52.446v1.032l1.545.1c-.383.739-1.761-.159-1.569,1.162.15,1.028.968.167,1.615.684-.618.152-1.1.428-1.462.311A1.374,1.374,0,0,1,45,54.741a24.7,24.7,0,0,1-.033-2.779h2.08l.019.282-1.477.2Z"/>
            <path id="Path_39074" data-name="Path 39074" class="cls-20" d="M24.226,35.905a11.182,11.182,0,0,1-1.491-2.171,25.031,25.031,0,0,1-.847-3.419c.247-1.57.344-3.2,1.734-4.315l.07.062a7.84,7.84,0,0,0,.509,9.448c.066.089.019.262.025.395Z"/>
            <path id="Path_39075" data-name="Path 39075" class="cls-20" d="M35.5,42.313a2.856,2.856,0,0,0,.768,2.859,3.085,3.085,0,0,1-.964-.251c-.937-.624-1.833-1.306-2.744-1.965l-.208-.274.008.01-.589-.391,0,0-.832-1.155.5-.54a.285.285,0,0,1,.14.126l.189.208.49.659.268.7q1.175.773,2.35,1.547a5.752,5.752,0,0,1,.2-.863,4.17,4.17,0,0,1,.416-.671Z"/>
            <path id="Path_39076" data-name="Path 39076" class="cls-28" d="M27.707,17.071c.595,2.07,1.215,4.134,1.763,6.218a3.1,3.1,0,0,1-.189,1.172c-.544-2.15-1.1-4.3-1.617-6.453a3.408,3.408,0,0,1,.043-.937Z"/>
            <path id="Path_39077" data-name="Path 39077" class="cls-22" d="M27.13,25.827l.19.19.781.536c-.669.47-1.172.266-1.586-.373-.5-.77-1.013-1.528-1.522-2.292l.2-.97h0c.13.192.259.387.389.581h0c.13.192.259.387.389.581h0l.389.387h0c.13.192.259.387.389.581h0l.389.777Z"/>
            <path id="Path_39078" data-name="Path 39078" class="cls-20" d="M39.571,26.988c.729-.869.371-1.881.249-2.795a16.76,16.76,0,0,0-.871-2.824,2.948,2.948,0,0,1,.6.663c1.046,2.323.661,4.715.288,7.1-.012.074-.2.119-.309.177.008-.645.017-1.291.025-1.934l.016-.387Z"/>
            <path id="Path_39079" data-name="Path 39079" class="cls-32" d="M38.57,55.627V52.358C39.221,52.834,39.281,54.887,38.57,55.627Z"/>
            <path id="Path_39080" data-name="Path 39080" class="cls-20" d="M25.192,22.92q-.1.484-.2.97-.65,1.087-1.3,2.173L23.621,26c.082-.272.171-.54.241-.814.284-1.094.564-2.189.869-3.382.152.367.307.741.461,1.116Z"/>
            <path id="Path_39081" data-name="Path 39081" class="cls-20" d="M34.49,16.715c-.2-.494-.441-.974-.591-1.481-.4-1.372-.77-2.758-1.151-4.136.451,1.127.952,2.237,1.331,3.386a15.962,15.962,0,0,1,.412,2.231Z"/>
            <path id="Path_39082" data-name="Path 39082" class="cls-33" d="M39.555,27.374c-.008.645-.017,1.291-.025,1.934V29.7q.883.1,1.765.2l-2.218.772c.192-1.326.334-2.311.476-3.3Z"/>
            <path id="Path_39083" data-name="Path 39083" class="cls-27" d="M29.027,9.2l.239,2.5q-.487-1.481-.976-2.96c.249.152.5.3.744.457l-.008.01Z"/>
            <path id="Path_39084" data-name="Path 39084" class="cls-34" d="M24.846,20.177V18.233C25.668,18.706,25.7,19.312,24.846,20.177Z"/>
            <path id="Path_39085" data-name="Path 39085" class="cls-20" d="M29.034,9.193c-.249-.152-.5-.3-.744-.457L28.164,7.7c.575.266,1.032.476,1.487.688-.194.064-.389.126-.581.19l-.084-.041.078.047-.029.612Z"/>
            <path id="Path_39086" data-name="Path 39086" class="cls-35" d="M30.945,41.149l.832,1.155q-.968-.875-1.934-1.751l.21-.222a1.01,1.01,0,0,1,.169.054l.721.764Z"/>
            <path id="Path_39087" data-name="Path 39087" class="cls-20" d="M38.949,21.369q-.776-.872-1.551-1.745A2.3,2.3,0,0,1,38.949,21.369Z"/>
            <path id="Path_39088" data-name="Path 39088" class="cls-20" d="M46.673,41.314c.006-.77.014-1.539.019-2.309A1.42,1.42,0,0,1,46.673,41.314Z"/>
            <path id="Path_39089" data-name="Path 39089" class="cls-20" d="M28.1,26.554l-.781-.536,1.535-.212c.023.025.047.049.072.074l-.826.674Z"/>
            <path id="Path_39090" data-name="Path 39090" class="cls-20" d="M37.013,45.6l1.162.012C37.783,46.17,37.394,46.183,37.013,45.6Z"/>
            <path id="Path_39091" data-name="Path 39091" class="cls-20" d="M31.2,9.551l-.776-.585Z"/>
            <path id="Path_39092" data-name="Path 39092" class="cls-20" d="M38.727,45.188c.113-.26.227-.521.34-.779C39.435,44.879,39.207,45.089,38.727,45.188Z"/>
            <path id="Path_39093" data-name="Path 39093" class="cls-20" d="M32.749,11.1l-.585-.776Z"/>
            <path id="Path_39094" data-name="Path 39094" class="cls-20" d="M37.4,19.625l-.777-.389Z"/>
            <path id="Path_39095" data-name="Path 39095" class="cls-20" d="M27.13,25.827l-.389-.779C26.871,25.306,27,25.567,27.13,25.827Z"/>
            <path id="Path_39096" data-name="Path 39096" class="cls-20" d="M36.432,19.048l-.583-.395Z"/>
            <path id="Path_39097" data-name="Path 39097" class="cls-20" d="M34.883,17.493l-.391-.585Z"/>
            <path id="Path_39098" data-name="Path 39098" class="cls-20" d="M26.741,25.05l-.389-.583Z"/>
            <path id="Path_39099" data-name="Path 39099" class="cls-20" d="M25.578,23.5l-.389-.583Z"/>
            <path id="Path_39100" data-name="Path 39100" class="cls-20" d="M25.967,24.082l-.389-.583Z"/>
            <path id="Path_39101" data-name="Path 39101" class="cls-20" d="M36.265,45.169c.212.128.426.257.638.383C36.69,45.423,36.477,45.295,36.265,45.169Z"/>
            <path id="Path_39102" data-name="Path 39102" class="cls-21" d="M30.055,40.331l-.21.222c-.066-.128-.132-.259-.2-.387a.1.1,0,0,1,.144,0c.089.056.179.115.266.171Z"/>
            <path id="Path_39103" data-name="Path 39103" class="cls-20" d="M45.732,37.639l-.4-.13Z"/>
            <path id="Path_39104" data-name="Path 39104" class="cls-20" d="M26.354,24.469l-.389-.389Z"/>
            <path id="Path_39105" data-name="Path 39105" class="cls-35" d="M31.773,42.3l.589.391Z"/>
            <path id="Path_39106" data-name="Path 39106" class="cls-20" d="M30.424,8.966l-.389-.391Z"/>
            <path id="Path_39107" data-name="Path 39107" class="cls-35" d="M32.354,42.683l.208.274Z"/>
            <path id="Path_39108" data-name="Path 39108" class="cls-36" d="M28.1,26.554l.826-.674c1.168-1.017,1.088-2.356.807-3.654-.27-1.25-.729-2.459-1.121-3.681A5.644,5.644,0,0,1,29,13.625a4.93,4.93,0,0,0,.443-4.352,7.661,7.661,0,0,1,4.053,6.377,4.8,4.8,0,0,0,2.107,3.71c.369.257.709.554,1.083.8a6.332,6.332,0,0,1,2.869,5.571c0,.418.012.836.019,1.252-.006.128-.01.259-.016.387-.142.985-.286,1.973-.476,3.3L41.3,29.9l1.662-1.256C43,30.97,42.9,33.151,41.627,35.1c-1.24,1.028-2.459,2.084-3.736,3.061-.235.179-.709.043-1.075.052l-.012.016.2-.041a4.82,4.82,0,0,0,1.491-6.393,26.425,26.425,0,0,1-1.133-2.564c-.293.428-.653,1.013-1.079,1.547a4.806,4.806,0,0,1-.826.667c-.206-.369-.6-.752-.579-1.106a11.051,11.051,0,0,1,.5-2.433c.33-1.1.678-2.19.043-3.265a2.592,2.592,0,0,1,.441-3.6,4.6,4.6,0,0,0-3.883,3.432c-.284,1.032-.274,2.159-1.318,2.949A16.194,16.194,0,0,0,28.51,29.8a5.685,5.685,0,0,0-.564,3.633c-.4-.533-.8-1.067-1.221-1.625l-.268,2.006c-.161.074-.466.163-.461.222.08.811.192,1.619.317,2.426.052.336.15.665.227,1l-1.158-.6.006.006L24.216,35.9l.006.01c-.006-.134.041-.307-.025-.395a7.837,7.837,0,0,1-.509-9.448q.65-1.087,1.3-2.173c.507.764,1.022,1.522,1.522,2.292.414.639.917.845,1.586.373Z"/>
            <path id="Path_39109" data-name="Path 39109" class="cls-37" d="M36.817,38.208a8.657,8.657,0,0,0-.966.35c-.455.227-.494-.045-.515-.375l-.017.054c.964-.606,1.166-1.753.56-3.127-.175.346-.352.7-.529,1.052-.154-1.911-.171-1.9-1.563-3.4a2.485,2.485,0,0,1-.453-1.123,2.367,2.367,0,0,0-2.062-2.014c.074.517.365,1.158.187,1.611a3.33,3.33,0,0,0-.021,2.338,7.382,7.382,0,0,1,.146,1.462l-.286.043-.89-1.2c-.673,1.526-1.66,2.9-.3,4.564a4.6,4.6,0,0,1-3.153-4.08c.447.052,1.085.688,1.164-.381.305-.014.61-.027,1-.047-.074-.422-.134-.731-.181-1.042-.323-2.134-.1-4.039,2.01-5.269a3.082,3.082,0,0,0,1.427-2.595,3.543,3.543,0,0,1,1.7-2.863c.07-.043.272.124.412.194a2.147,2.147,0,0,0-.216,2.527,4.842,4.842,0,0,1,.62,2.873l.006-.012-.2.595.008-.016-.2.6.006-.014a16.6,16.6,0,0,0-.492,2.544c-.017.328.426.774.77.983.134.082.575-.34.877-.533l1.114-1.052a3.506,3.506,0,0,0,.354.976,5.793,5.793,0,0,1,1.053,4.344q-.7.918-1.407,1.835c-.014.025-.043.056-.037.076a.713.713,0,0,0,.072.13l.012-.016Z"/>
            <path id="Path_39110" data-name="Path 39110" class="cls-38" d="M34.478,22.373c-.14-.07-.34-.237-.412-.194a3.548,3.548,0,0,0-1.7,2.863,3.077,3.077,0,0,1-1.427,2.595c-2.111,1.23-2.332,3.135-2.01,5.269.047.311.107.62.181,1.042-.383.017-.69.031-1,.047l-1.236-.715c.027.414.051.756.072,1.1a4.6,4.6,0,0,0,3.153,4.08c-1.361-1.66-.371-3.038.3-4.564l.89,1.2.286-.043a7.382,7.382,0,0,0-.146-1.462,3.34,3.34,0,0,1,.021-2.338c.179-.455-.113-1.094-.187-1.611a2.367,2.367,0,0,1,2.062,2.014,2.485,2.485,0,0,0,.453,1.123c1.392,1.5,1.409,1.485,1.563,3.4l.529-1.052c.606,1.374.4,2.521-.56,3.127.2-.612.395-1.225.6-1.846l-1.23.21a3.918,3.918,0,0,1,.045-.63,2.371,2.371,0,0,0-1-2.779c-.385-.286-.536-.894-.774-1.366-.257-.511-.49-1.034-.8-1.687a10.347,10.347,0,0,0-.56,2.177c-.014.651.34,1.3.371,1.965.017.379-.288.774-.447,1.162l-1.065-.569c-1.075,1.829-.713,3.427,1.044,4.049a3.815,3.815,0,0,0,3.339-.391c.233.171.466.344.7.515-4.012,1.39-8.867-.321-9.081-5.232l.268-2.006,1.221,1.623.566.152V29.8a16.1,16.1,0,0,1,2.148-2.385c1.044-.789,1.032-1.914,1.318-2.949a4.6,4.6,0,0,1,3.883-3.432,2.592,2.592,0,0,0-.441,3.6c.636,1.073.288,2.167-.043,3.265a11.1,11.1,0,0,0-.5,2.433c-.023.354.373.737.579,1.106a4.732,4.732,0,0,0,.826-.667c.426-.535.785-1.12,1.079-1.547A26.217,26.217,0,0,0,38.5,31.79a4.82,4.82,0,0,1-1.491,6.393l-.233-.165q.7-.918,1.409-1.835c1.357-2.243.1-4.025-1.053-5.9l-.354.577-1.114,1.052a1.385,1.385,0,0,1-1.2-1.479c-.027-.5.027-1.009.045-1.514l-.006.014.2-.6-.008.016c.066-.2.134-.4.2-.595l-.006.012a3.268,3.268,0,0,0,.15-3.1,14.726,14.726,0,0,1-.556-2.3ZM30.121,38.457l-.076.06c.021.023.043.064.066.066s.051-.035.076-.054Z"/>
            <path id="Path_39111" data-name="Path 39111" class="cls-39" d="M34.84,38.533a3.814,3.814,0,0,1-3.339.391c-1.757-.622-2.119-2.22-1.044-4.049.358.19.711.379,1.065.569.159-.389.465-.783.447-1.162-.031-.661-.385-1.314-.371-1.965a10.348,10.348,0,0,1,.56-2.177c.309.653.542,1.176.8,1.687.237.472.389,1.083.774,1.366a2.37,2.37,0,0,1,1,2.779,4.163,4.163,0,0,0-.045.63l1.23-.21c-.2.622-.4,1.234-.6,1.846l.017-.054-.5.348Z"/>
            <path id="Path_39112" data-name="Path 39112" class="cls-21" d="M31.586,40.733a.281.281,0,0,0-.14-.124c-.08-.152-.159-.3-.239-.457,1.673-.064,3.37,0,4.861-.974l1.261.867-1.077.659c-1.691.717-1.885,1.094-1.368,3.141q-1.175-.773-2.35-1.547c.126-.138.251-.278.43-.474l-.7-.227-.49-.659c-.062-.07-.126-.138-.189-.208Z"/>
            <path id="Path_39113" data-name="Path 39113" class="cls-40" d="M42.236,41.715q-1.227-.178-2.453-.36a.772.772,0,0,1-.363-.1c-.826-.7-1.64-1.417-2.692-2.33l1.639.239,3.081.655q.4.948.791,1.9Z"/>
            <path id="Path_39114" data-name="Path 39114" class="cls-40" d="M38.366,38.826c-.06-.1-.19-.253-.169-.274a3.147,3.147,0,0,1,4.4-.338l-1.129,1.374-3.1-.76Z"/>
            <path id="Path_39115" data-name="Path 39115" d="M41.47,39.586,42.6,38.212a4.741,4.741,0,0,1,.529-.463c.406-.266.851-.63,1.094.175l-.9.929c-.6-.049-.731.272-.62.783L42.64,39.6l.054.045-.385.132.225.414c-.017.117-.033.233-.051.35.045.2.091.4.136.6a.09.09,0,0,1,.056.117l-.439.463q-.4-.948-.791-1.9l.023-.231Z"/>
            <path id="Path_39116" data-name="Path 39116" d="M34.883,43.847c-.515-2.047-.323-2.424,1.368-3.141l.023.711-.774.9a4.17,4.17,0,0,0-.416.671,5.752,5.752,0,0,0-.2.863Z"/>
            <path id="Path_39117" data-name="Path 39117" class="cls-41" d="M41.47,39.586c-.008.076-.016.154-.023.231l-3.081-.655v-.336l3.1.76Z"/>
            <path id="Path_39118" data-name="Path 39118" class="cls-41" d="M26.77,38.959c.15.078.3.154.453.231l-2.671.783-.109-.346Z"/>
            <path id="Path_39119" data-name="Path 39119" class="cls-19" d="M23.04,39.408c-.264-.43-.527-.859-.791-1.289C22.513,38.548,22.776,38.978,23.04,39.408Z"/>
            <path id="Path_39120" data-name="Path 39120" class="cls-19" d="M23.474,37.87,23,38.189l-.1-.173.474-.274Q23.421,37.806,23.474,37.87Z"/>
            <path id="Path_39121" data-name="Path 39121" class="cls-42" d="M21.528,39.194c.142-.037.348-.152.412-.1a1.761,1.761,0,0,1,.144,2.033c-.517.684-1.156.431-1.72.142a1.166,1.166,0,0,1-.5-1.64,1.271,1.271,0,0,1,.237-.29l.206.2c-.27.523-.451,1.028.237,1.386.4.01.976.183,1.168-.014.225-.231.163-.787.142-1.2-.01-.183-.227-.354-.35-.531l.019.014Z"/>
            <path id="Path_39122" data-name="Path 39122" class="cls-42" d="M20.1,39.341l1.425-.146-.019-.014c-.128.472-.259.945-.387,1.419l-.779-.315.1-.175.692-.1a4.857,4.857,0,0,0-.474-.573c-.047-.041-.227.066-.346.1l-.206-.2Z"/>
            <path id="Path_39123" data-name="Path 39123" class="cls-43" d="M31.207,40.152l.239.457c-.167.179-.332.36-.5.54q-.362-.382-.721-.764c0-.128,0-.257,0-.385l.982.152Z"/>
            <path id="Path_39124" data-name="Path 39124" class="cls-20" d="M25.386,36.863l1.158.6-.006-.008c.078.078.157.155.235.231l.723.735-2.111-1.557Z"/>
            <path id="Path_39125" data-name="Path 39125" class="cls-20" d="M30.226,40c0,.128,0,.257,0,.385a1.009,1.009,0,0,0-.169-.054c-.089-.056-.177-.115-.266-.171L30.228,40Z"/>
            <path id="Path_39126" data-name="Path 39126" class="cls-36" d="M26.776,37.685c-.078-.078-.157-.155-.235-.231C26.618,37.532,26.7,37.61,26.776,37.685Z"/>
            <path id="Path_39127" data-name="Path 39127" class="cls-44" d="M43.993,39.176c.212-.375.422-.752.634-1.127l.27.148-.309,1.02.006-.006c-.089.121-.179.241-.266.363.192.344.387.688.579,1.032l.544-.435c-.3-.084-.457.029-.6.019-.068-.006-.2-.288-.159-.381a.947.947,0,0,1,.369-.358,2.116,2.116,0,0,1,.647.661,2.219,2.219,0,0,1,.035.84h0q-1.948.161-1.749-1.775Z"/>
            <path id="Path_39128" data-name="Path 39128" class="cls-42" d="M45.738,40.949a2.219,2.219,0,0,0-.035-.84,2.158,2.158,0,0,0-.647-.661.947.947,0,0,0-.369.358c-.041.1.091.377.159.381.146.012.3-.1.6-.019l-.544.435c-.192-.344-.387-.688-.579-1.032.089-.121.179-.241.266-.363l-.006.006c.5-.152,1.017-.284,1.318.323.245.494.43,1-.167,1.409Z"/>
            <path id="Path_39129" data-name="Path 39129" class="cls-42" d="M43.993,39.176q-.2,1.936,1.749,1.771c-.676.663-1.434.789-1.9.317-.6-.608-.544-1.328.148-2.089Z"/>
            <path id="Path_39130" data-name="Path 39130" class="cls-20" d="M42.7,39.637c-.111-.511.021-.832.62-.783Z"/>
            <path id="Path_39131" data-name="Path 39131" class="cls-20" d="M42.535,40.189l-.225-.414.385-.132c-.052.183-.1.363-.159.546Z"/>
            <path id="Path_39132" data-name="Path 39132" class="cls-20" d="M42.62,41.134c-.045-.2-.091-.4-.136-.6C42.529,40.735,42.576,40.935,42.62,41.134Z"/>
            <path id="Path_39133" data-name="Path 39133" class="cls-42" d="M37.441,41.19c-.185.43-.28.651-.377.875A1.426,1.426,0,0,1,38.272,44.3a1.3,1.3,0,0,1-.96.606,1.289,1.289,0,0,1-.884-.69,2.589,2.589,0,0,1,1.011-3.022Zm-.474,1.328-.3.043c.056.589.084,1.184.2,1.761a.623.623,0,0,0,.552.241,2.975,2.975,0,0,0,.663-.6c-1.368.144-.939-.888-1.11-1.448Zm1.1.674-.019.15a.21.21,0,0,0,.037-.062.277.277,0,0,0-.017-.086Z"/>
            <path id="Path_39134" data-name="Path 39134" class="cls-20" d="M24.22,35.9l1.172.974Z"/>
            <path id="Path_39135" data-name="Path 39135" class="cls-33" d="M22.317,52.4l1.6.492-1.4.958c-.072-.513-.119-.851-.2-1.448Z"/>
            <path id="Path_39136" data-name="Path 39136" class="cls-22" d="M22.527,55.5V54.051l1.1.762c-.313.194-.624.389-1.1.682Z"/>
            <path id="Path_39137" data-name="Path 39137" class="cls-33" d="M41.293,53.789c.1-.356.093-.921.309-1.02a1.865,1.865,0,0,1,1.158.136c.1.031.19.509.144.536-.406.239-.847.42-1.277.62l-.332-.272Z"/>
            <path id="Path_39138" data-name="Path 39138" class="cls-22" d="M28.255,54.247c-.424.286-.818.739-1.275.814-.686.113-1.04-.4-1.03-1.088s.371-1.2,1.053-1.061c.459.089.84.566,1.256.869Z"/>
            <path id="Path_39139" data-name="Path 39139" class="cls-43" d="M32.265,41.6c.2.064.4.13.7.227-.179.2-.3.336-.43.474l-.268-.7Z"/>
            <path id="Path_39140" data-name="Path 39140" class="cls-43" d="M31.586,40.733c.062.07.126.138.189.208C31.713,40.871,31.649,40.8,31.586,40.733Z"/>
            <path id="Path_39141" data-name="Path 39141" class="cls-22" d="M29.063,8.581l-.078-.047.084.041-.008.008Z"/>
            <path id="Path_39142" data-name="Path 39142" class="cls-45" d="M28.513,29.8v3.784l-.566-.152a5.678,5.678,0,0,1,.566-3.631Z"/>
            <path id="Path_39143" data-name="Path 39143" class="cls-20" d="M36.768,38.02l.233.165-.2.041a.712.712,0,0,1-.072-.13c-.006-.019.023-.051.037-.076Z"/>
            <path id="Path_39144" data-name="Path 39144" class="cls-46" d="M36.77,30.865l.354-.577c1.151,1.872,2.41,3.654,1.053,5.9a5.8,5.8,0,0,0-1.053-4.344,3.445,3.445,0,0,1-.354-.976Z"/>
            <path id="Path_39145" data-name="Path 39145" class="cls-46" d="M34.478,22.373a15,15,0,0,0,.556,2.3,3.279,3.279,0,0,1-.15,3.1,4.871,4.871,0,0,0-.62-2.873,2.147,2.147,0,0,1,.216-2.527Z"/>
            <path id="Path_39146" data-name="Path 39146" class="cls-46" d="M34.5,28.924c-.017.505-.072,1.013-.045,1.514a1.384,1.384,0,0,0,1.2,1.479c-.3.192-.741.614-.877.533-.344-.208-.787-.653-.77-.983a16.643,16.643,0,0,1,.492-2.544Z"/>
            <path id="Path_39147" data-name="Path 39147" class="cls-46" d="M26.955,34.377c-.023-.34-.045-.682-.072-1.1L28.119,34C28.039,35.065,27.4,34.432,26.955,34.377Z"/>
            <path id="Path_39148" data-name="Path 39148" class="cls-46" d="M34.7,28.338l-.2.6Z"/>
            <path id="Path_39149" data-name="Path 39149" class="cls-46" d="M34.889,27.759c-.066.2-.134.4-.2.595C34.754,28.156,34.822,27.958,34.889,27.759Z"/>
            <path id="Path_39150" data-name="Path 39150" class="cls-37" d="M30.119,38.457l.066.072c-.025.019-.052.056-.076.054s-.045-.043-.066-.066Z"/>
            <path id="Path_39151" data-name="Path 39151" class="cls-23" d="M21.12,40.6c.128-.472.259-.945.387-1.419.122.177.34.348.35.531.021.41.084.966-.142,1.2-.192.2-.764.023-1.168.014.19-.109.383-.216.573-.325Z"/>
            <path id="Path_39152" data-name="Path 39152" class="cls-34" d="M21.12,40.6l-.573.325c-.688-.358-.507-.865-.237-1.386.119-.039.3-.146.346-.1a4.533,4.533,0,0,1,.474.573l-.692.1-.1.175.779.315Z"/>
            <path id="Path_39153" data-name="Path 39153" class="cls-25" d="M44.593,39.211c-.089.121-.179.241-.266.363C44.416,39.454,44.506,39.334,44.593,39.211Z"/>
            <path id="Path_39154" data-name="Path 39154" class="cls-44" d="M36.964,42.517c.171.562-.259,1.592,1.11,1.448a2.933,2.933,0,0,1-.663.6.623.623,0,0,1-.552-.241c-.113-.577-.14-1.172-.2-1.761l.3-.043Z"/>
            <path id="Path_39155" data-name="Path 39155" class="cls-44" d="M38.066,43.194a.288.288,0,0,1,.017.086.171.171,0,0,1-.037.062l.019-.15Z"/>
          </g>
        </g>
      </g>
    </g>
  </g>
</svg>
