<svg xmlns="http://www.w3.org/2000/svg" xmlns:xlink="http://www.w3.org/1999/xlink" width="114" height="64" viewBox="0 0 114 64">
  <defs>
    <style>
      .cls-1, .cls-6 {
        fill: #fff;
      }

      .cls-2 {
        clip-path: url(#clip-path);
      }

      .cls-3 {
        clip-path: url(#clip-path-2);
      }

      .cls-4 {
        fill: #f0b90b;
      }

      .cls-4, .cls-8 {
        fill-rule: evenodd;
      }

      .cls-5 {
        clip-path: url(#clip-path-3);
      }

      .cls-6 {
        stroke: #f0b90b;
        stroke-width: 0.148px;
      }

      .cls-7 {
        clip-path: url(#clip-path-6);
      }

      .cls-8 {
        fill: #231f20;
      }
    </style>
    <clipPath id="clip-path">
      <circle id="Ellipse_5597" data-name="Ellipse 5597" class="cls-1" cx="32" cy="32" r="32" transform="translate(-21640 -19772)"/>
    </clipPath>
    <clipPath id="clip-path-2">
      <rect id="Rectangle_7570" data-name="Rectangle 7570" width="63.863" height="64" transform="translate(275.145 144.684)"/>
    </clipPath>
    <clipPath id="clip-path-3">
      <rect id="Rectangle_7569" data-name="Rectangle 7569" width="50.051" height="50.051" transform="translate(281.983 151.521)"/>
    </clipPath>
    <clipPath id="clip-path-6">
      <circle id="Ellipse_5599" data-name="Ellipse 5599" class="cls-1" cx="32" cy="32" r="32" transform="translate(-21710 -19474)"/>
    </clipPath>
  </defs>
  <g id="Group_20105" data-name="Group 20105" transform="translate(21760 19474)">
    <g id="Mask_Group_779" data-name="Mask Group 779" class="cls-2" transform="translate(-120 298)">
      <g id="BUSD_1_" data-name="BUSD (1)" class="cls-3" transform="translate(-21915.076 -19916.684)">
        <path id="Path_40667" data-name="Path 40667" class="cls-4" d="M275.282,176.684a31.726,31.726,0,1,1,31.727,31.726A31.726,31.726,0,0,1,275.282,176.684Z"/>
        <g id="Group_20101" data-name="Group 20101" class="cls-5">
          <g id="Group_20100" data-name="Group 20100" class="cls-5">
            <g id="Group_20099" data-name="Group 20099" class="cls-5">
              <path id="Path_40668" data-name="Path 40668" class="cls-6" d="M24.956.105l6.157,6.287-15.5,15.459L9.451,15.712Z" transform="translate(282.12 151.658)"/>
              <path id="Path_40669" data-name="Path 40669" class="cls-6" d="M34.3,9.425l6.157,6.287L15.609,40.49,9.451,34.351Z" transform="translate(282.12 151.658)"/>
              <path id="Path_40670" data-name="Path 40670" class="cls-6" d="M6.261,18.744l6.157,6.287L6.261,31.17.1,25.031Z" transform="translate(282.12 151.658)"/>
              <path id="Path_40671" data-name="Path 40671" class="cls-6" d="M43.651,18.744l6.157,6.287L24.956,49.81,18.8,43.67Z" transform="translate(282.12 151.658)"/>
            </g>
          </g>
        </g>
      </g>
    </g>
    <circle id="Ellipse_5575" data-name="Ellipse 5575" class="cls-1" cx="32" cy="32" r="32" transform="translate(-21710 -19474)"/>
    <g id="Mask_Group_781" data-name="Mask Group 781" class="cls-7">
      <g id="Products" transform="translate(-21709.973 -19474)">
        <g id="Artboard" transform="translate(-235.487 -86.974)">
          <g id="Group-10-Copy" transform="translate(235.487 86.974)">
            <g id="Group-3">
              <path id="Fill-1" class="cls-8" d="M31.973,60.8A28.8,28.8,0,1,1,60.749,32,28.788,28.788,0,0,1,31.973,60.8m0-60.8A32.006,32.006,0,0,0,9.363,54.626h0l0,0h0A31.986,31.986,0,1,0,31.973,0"/>
            </g>
            <path id="Fill-4" class="cls-8" d="M14.391,46.12a21.209,21.209,0,0,1-.481-16.946,20.6,20.6,0,0,1,18.9-12.641q.007-1.424.013-2.848c0-.15,0-.555,0-.555s-.425-.006-.6,0A24.637,24.637,0,0,0,16.08,19.947,23.765,23.765,0,0,0,9.17,34.179a22.219,22.219,0,0,0,4.6,16.28l.06.074a17.884,17.884,0,0,0,5.336,4.624,25.651,25.651,0,0,0,11.363,3.1A22.657,22.657,0,0,1,14.391,46.12"/>
            <path id="Fill-6" class="cls-8" d="M49.557,50.271q-1.019.091-2.041.148c-5.728.32-12.059.185-17.116-2.858a14.876,14.876,0,0,1-3.693-3.131c-3.64-4.3-3.512-10.792,1.145-14.333a9.923,9.923,0,0,1,13.431,1.444c.29.35.926,1.149.926,1.149s1.068-.558,1.408-.725l.106-.052.071-.035.182-.089.09-.044.808-.4.446-.219-.013-.021a13.412,13.412,0,0,0-3.691-3.987,13.726,13.726,0,0,0-9.839-2.365A13.129,13.129,0,0,0,20.692,35.372c-.947,5.713,1.939,11.191,6.681,14.377C32.3,53.058,38.5,53.518,44.348,53.28c1.369-.056,4.165-.288,4.156-.336a29.128,29.128,0,0,0,3.188-2.991s-1.848.291-2.135.317"/>
            <path id="Fill-8" class="cls-8" d="M39.7,55.822Q38.66,55.8,37.622,55.7c-5.71-.543-11.538-2.687-15.307-7.147A16.159,16.159,0,0,1,19.06,33.357a15.118,15.118,0,0,1,8.784-9.229,15.33,15.33,0,0,1,10.982-.02s.677-1.461.743-1.6l.011-.024.024-.051.048-.1c.216-.457.424-.921.652-1.372a19.462,19.462,0,0,0-14.659.335,18.413,18.413,0,0,0-7.19,27.884,22.851,22.851,0,0,0,7.92,6.386A30.526,30.526,0,0,0,38.61,58.239a26.024,26.024,0,0,0,6.518-2.724,28.975,28.975,0,0,1-3.859.3q-.784.024-1.569.006"/>
          </g>
        </g>
      </g>
    </g>
  </g>
</svg>
