<svg xmlns="http://www.w3.org/2000/svg" xmlns:xlink="http://www.w3.org/1999/xlink" width="114" height="64" viewBox="0 0 114 64">
  <defs>
    <style>
      .cls-1, .cls-10, .cls-11, .cls-12, .cls-13, .cls-14, .cls-15, .cls-16, .cls-17, .cls-6, .cls-9 {
        fill: #fff;
      }

      .cls-2 {
        clip-path: url(#clip-path);
      }

      .cls-3 {
        clip-path: url(#clip-path-2);
      }

      .cls-4 {
        fill: #f0b90b;
        fill-rule: evenodd;
      }

      .cls-5 {
        clip-path: url(#clip-path-3);
      }

      .cls-6 {
        stroke: #f0b90b;
        stroke-width: 0.148px;
      }

      .cls-7 {
        clip-path: url(#clip-path-6);
      }

      .cls-8 {
        fill: #00d4d5;
      }

      .cls-9 {
        opacity: 0.9;
      }

      .cls-10 {
        opacity: 0.8;
      }

      .cls-11 {
        opacity: 0.4;
      }

      .cls-12 {
        opacity: 0.2;
      }

      .cls-13 {
        opacity: 0.3;
      }

      .cls-14 {
        opacity: 0.7;
      }

      .cls-15 {
        opacity: 0.6;
      }

      .cls-16 {
        opacity: 0.95;
      }

      .cls-17 {
        opacity: 0.55;
      }
    </style>
    <clipPath id="clip-path">
      <circle id="Ellipse_5598" data-name="Ellipse 5598" class="cls-1" cx="32" cy="32" r="32" transform="translate(-21640 -19772)"/>
    </clipPath>
    <clipPath id="clip-path-2">
      <rect id="Rectangle_7574" data-name="Rectangle 7574" width="63.863" height="64" transform="translate(275.145 144.684)"/>
    </clipPath>
    <clipPath id="clip-path-3">
      <rect id="Rectangle_7573" data-name="Rectangle 7573" width="50.051" height="50.051" transform="translate(281.983 151.521)"/>
    </clipPath>
    <clipPath id="clip-path-6">
      <circle id="Ellipse_5613" data-name="Ellipse 5613" class="cls-1" cx="32" cy="32" r="32" transform="translate(-21546 -19474)"/>
    </clipPath>
  </defs>
  <g id="Group_20131" data-name="Group 20131" transform="translate(21596 19474)">
    <g id="Mask_Group_780" data-name="Mask Group 780" class="cls-2" transform="translate(44 298)">
      <g id="BUSD_1_" data-name="BUSD (1)" class="cls-3" transform="translate(-21915.076 -19916.684)">
        <path id="Path_40672" data-name="Path 40672" class="cls-4" d="M275.282,176.684a31.726,31.726,0,1,1,31.727,31.726A31.726,31.726,0,0,1,275.282,176.684Z"/>
        <g id="Group_20104" data-name="Group 20104" class="cls-5">
          <g id="Group_20103" data-name="Group 20103" class="cls-5">
            <g id="Group_20102" data-name="Group 20102" class="cls-5">
              <path id="Path_40673" data-name="Path 40673" class="cls-6" d="M24.956.105l6.157,6.287-15.5,15.459L9.451,15.712Z" transform="translate(282.12 151.658)"/>
              <path id="Path_40674" data-name="Path 40674" class="cls-6" d="M34.3,9.425l6.157,6.287L15.609,40.49,9.451,34.351Z" transform="translate(282.12 151.658)"/>
              <path id="Path_40675" data-name="Path 40675" class="cls-6" d="M6.261,18.744l6.157,6.287L6.261,31.17.1,25.031Z" transform="translate(282.12 151.658)"/>
              <path id="Path_40676" data-name="Path 40676" class="cls-6" d="M43.651,18.744l6.157,6.287L24.956,49.81,18.8,43.67Z" transform="translate(282.12 151.658)"/>
            </g>
          </g>
        </g>
      </g>
    </g>
    <g id="Mask_Group_793" data-name="Mask Group 793" class="cls-7">
      <g id="iotex-iotx-logo" transform="translate(-21546 -19474)">
        <circle id="Ellipse_5614" data-name="Ellipse 5614" class="cls-8" cx="32" cy="32" r="32"/>
        <g id="Group_20130" data-name="Group 20130">
          <path id="Path_40707" data-name="Path 40707" class="cls-1" d="M33.038,10V20.914l9.476-5.45Z"/>
          <path id="Path_40708" data-name="Path 40708" class="cls-9" d="M42.514,15.464V26.378l9.474-5.464Z"/>
          <path id="Path_40709" data-name="Path 40709" class="cls-10" d="M33.038,20.914V31.828l9.476-5.45Zm9.476,5.466V37.292l9.474-5.464Z"/>
          <path id="Path_40710" data-name="Path 40710" class="cls-10" d="M33.038,31.828V42.742l9.476-5.45Z"/>
          <path id="Path_40711" data-name="Path 40711" class="cls-1" d="M42.514,37.292V48.206l9.474-5.464Z"/>
          <path id="Path_40712" data-name="Path 40712" class="cls-11" d="M8.546,20.546V31.46L18.022,26Z"/>
          <path id="Path_40713" data-name="Path 40713" class="cls-12" d="M20.5,24.6V35.518l9.46-5.45Z"/>
          <path id="Path_40714" data-name="Path 40714" class="cls-13" d="M13.476,31.506V42.42l9.474-5.464Z"/>
          <path id="Path_40715" data-name="Path 40715" class="cls-9" d="M19.72,39.742V50.656l9.46-5.464Z"/>
          <path id="Path_40716" data-name="Path 40716" class="cls-14" d="M32.96,44.44V55.356l9.46-5.466Z"/>
          <path id="Path_40717" data-name="Path 40717" class="cls-9" d="M22.078,19.214V30.13l9.46-5.45Z"/>
          <path id="Path_40718" data-name="Path 40718" class="cls-10" d="M33.038,10V20.914l-9.476-5.45Z"/>
          <path id="Path_40719" data-name="Path 40719" class="cls-15" d="M22.078,14.64V25.552L12.6,20.088Z"/>
          <path id="Path_40720" data-name="Path 40720" class="cls-15" d="M31.554,20.04V30.956L22.078,25.49Z"/>
          <path id="Path_40721" data-name="Path 40721" class="cls-16" d="M20.456,24.6V35.518l-9.476-5.45Z"/>
          <path id="Path_40722" data-name="Path 40722" class="cls-15" d="M33.038,31.828V42.742l-9.46-5.45Z"/>
          <path id="Path_40723" data-name="Path 40723" class="cls-17" d="M13.476,34.37V45.284L4,39.818Z"/>
          <path id="Path_40724" data-name="Path 40724" class="cls-1" d="M51.988,20.914V31.828l-9.474-5.45Z"/>
          <path id="Path_40725" data-name="Path 40725" class="cls-16" d="M42.514,26.38V37.292l-9.476-5.464Z"/>
          <path id="Path_40726" data-name="Path 40726" class="cls-9" d="M51.988,31.828V42.742l-9.474-5.45Z"/>
          <path id="Path_40727" data-name="Path 40727" class="cls-14" d="M42.514,37.292V48.206l-9.476-5.464Z"/>
          <path id="Path_40728" data-name="Path 40728" class="cls-11" d="M30.94,41.84V52.754L21.466,47.3Z"/>
          <path id="Path_40729" data-name="Path 40729" class="cls-1" d="M42.514,15.464V26.378l-9.476-5.464Z"/>
        </g>
      </g>
    </g>
  </g>
</svg>
