<svg xmlns="http://www.w3.org/2000/svg" xmlns:xlink="http://www.w3.org/1999/xlink" width="114" height="64" viewBox="0 0 114 64">
  <defs>
    <style>
      .cls-1, .cls-8 {
        fill: #fff;
      }

      .cls-2 {
        clip-path: url(#clip-path);
      }

      .cls-3 {
        clip-path: url(#clip-path-2);
      }

      .cls-4 {
        clip-path: url(#clip-path-3);
      }

      .cls-5 {
        clip-path: url(#clip-path-4);
      }

      .cls-6 {
        fill: #103f68;
      }

      .cls-7, .cls-9 {
        fill: none;
      }

      .cls-7 {
        stroke: #fff;
        stroke-width: 2.125px;
      }

      .cls-12, .cls-7, .cls-8, .cls-9 {
        fill-rule: evenodd;
      }

      .cls-9 {
        stroke: #979797;
        stroke-width: 0.125px;
      }

      .cls-10 {
        clip-path: url(#clip-path-5);
      }

      .cls-11 {
        fill: url(#linear-gradient);
      }

      .cls-12 {
        fill: url(#linear-gradient-2);
      }
    </style>
    <clipPath id="clip-path">
      <circle id="Ellipse_5690" data-name="Ellipse 5690" class="cls-1" cx="32" cy="32" r="32" transform="translate(-22199 -18848)"/>
    </clipPath>
    <clipPath id="clip-path-2">
      <circle id="Ellipse_5611" data-name="Ellipse 5611" class="cls-1" cx="32" cy="32" r="32" transform="translate(-24921 -24457)"/>
    </clipPath>
    <clipPath id="clip-path-3">
      <circle id="Ellipse_1807" data-name="Ellipse 1807" class="cls-1" cx="32" cy="32" r="32" transform="translate(-24123 -23674)"/>
    </clipPath>
    <clipPath id="clip-path-4">
      <circle id="Ellipse_2221" data-name="Ellipse 2221" class="cls-1" cx="32" cy="32" r="32" transform="translate(-24083 -9037)"/>
    </clipPath>
    <clipPath id="clip-path-5">
      <circle id="Ellipse_5691" data-name="Ellipse 5691" class="cls-1" cx="32" cy="32" r="32" transform="translate(-22149 -18848)"/>
    </clipPath>
    <linearGradient id="linear-gradient" x1="0.154" y1="-5.796" x2="-0.713" y2="-5.296" gradientUnits="objectBoundingBox">
      <stop offset="0" stop-color="#fff"/>
      <stop offset="1" stop-color="#989898"/>
    </linearGradient>
    <linearGradient id="linear-gradient-2" y1="0.5" x2="1" y2="0.5" gradientUnits="objectBoundingBox">
      <stop offset="0" stop-color="#415986"/>
      <stop offset="0.99" stop-color="#03316c"/>
    </linearGradient>
  </defs>
  <g id="Group_20299" data-name="Group 20299" transform="translate(22199 18848)">
    <g id="Mask_Group_876" data-name="Mask Group 876" class="cls-2">
      <g id="Mask_Group_791" data-name="Mask Group 791" class="cls-3" transform="translate(2722 5609)">
        <g id="Group_720" data-name="Group 720" transform="translate(-798 -783)">
          <g id="Mask_Group_11" data-name="Mask Group 11" class="cls-4">
            <g id="Mask_Group_471" data-name="Mask Group 471" class="cls-5" transform="translate(-40 -14637)">
              <g id="Page-1" transform="translate(-24083 -9037)">
                <circle id="Oval" class="cls-6" cx="32" cy="32" r="32"/>
                <path id="Polygon" class="cls-7" d="M32.188,11.164,50.232,21.582V42.418L32.188,52.836,14.143,42.418V21.582Z"/>
                <path id="Path" class="cls-8" d="M24.379,19.561l-1.686,7.632H41.121l-1.8-7.632Z"/>
                <path id="Path-2" class="cls-8" d="M22.626,29.8l-4.989,3.74,6.8,11.908h2.735l3.212-3.02v-1.5l-3.335-3.2v-5.1Z"/>
                <path id="Path-2-2" data-name="Path-2" class="cls-8" d="M38.372-29.745l-4.989-3.742,6.8-11.908h2.735l3.211,3.02v1.5l-3.335,3.2v5.1Z" transform="translate(79.513) rotate(180)"/>
                <path id="Path-3" class="cls-9"/>
                <path id="Path-4" class="cls-8" d="M27.068,28.362l1.623,4.257-.5,4.771,7.4-.024-.452-4.747,1.6-4.257Z"/>
              </g>
            </g>
          </g>
        </g>
      </g>
    </g>
    <g id="Mask_Group_879" data-name="Mask Group 879" class="cls-10">
      <g id="Layer_2-2" transform="translate(-22149 -18848)">
        <g id="Group_20297" data-name="Group 20297">
          <path id="Path_51399" data-name="Path 51399" class="cls-11" d="M32,63.266a31.162,31.162,0,1,1,12.17-2.453A31.278,31.278,0,0,1,32,63.266h0Z"/>
          <path id="Path_51400" data-name="Path 51400" class="cls-1" d="M32,1.468A30.41,30.41,0,1,1,20.116,3.861,30.545,30.545,0,0,1,32,1.468M32,0A32,32,0,1,0,64,32,32,32,0,0,0,32,0Z"/>
          <path id="Path_51401" data-name="Path 51401" class="cls-12" d="M12.246,20.823,32.154,9.337,52.061,20.823v22.97L32.154,55.278,12.246,43.793V20.823Zm12.049-1.556H39.974l1.875,7.975H22.46l1.835-7.975Zm3.989,18.664.519-4.985L27.088,28.48H37.222l-1.676,4.466.478,4.985h-7.74Zm11.729,8.374H37.18L33.79,43.2V41.6L37.3,38.25v-5.3l4.588-2.991L47.115,33.9Zm-12.806.04L30.6,43.194V41.6l-3.511-3.35v-5.3L22.46,29.994,17.194,33.9l7.141,12.442h2.873Z"/>
        </g>
      </g>
    </g>
  </g>
</svg>
