<svg xmlns="http://www.w3.org/2000/svg" xmlns:xlink="http://www.w3.org/1999/xlink" width="114" height="64" viewBox="0 0 114 64">
  <defs>
    <style>
      .cls-1, .cls-5 {
        fill: #fff;
      }

      .cls-2 {
        clip-path: url(#clip-path);
      }

      .cls-3 {
        fill: #103f68;
      }

      .cls-4, .cls-6 {
        fill: none;
      }

      .cls-4 {
        stroke: #fff;
        stroke-width: 2.125px;
      }

      .cls-4, .cls-5, .cls-6 {
        fill-rule: evenodd;
      }

      .cls-6 {
        stroke: #979797;
        stroke-width: 0.125px;
      }

      .cls-7 {
        clip-path: url(#clip-path-4);
      }

      .cls-8 {
        fill: #e4bd26;
      }

      .cls-9 {
        fill: #e4bd25;
      }

      .cls-10 {
        fill: #e5be29;
      }

      .cls-11 {
        fill: #e4be28;
      }

      .cls-12 {
        fill: #e7c02d;
      }

      .cls-13 {
        fill: #e5c12e;
      }

      .cls-14 {
        fill: #e8c234;
      }

      .cls-15 {
        fill: #e5c336;
      }

      .cls-16 {
        fill: #e8bf2d;
      }

      .cls-17 {
        fill: #e3c332;
      }

      .cls-18 {
        fill: #e2c231;
      }

      .cls-19 {
        fill: #ecbd2c;
      }

      .cls-20 {
        fill: #e5c431;
      }

      .cls-21 {
        fill: #eec221;
      }

      .cls-22 {
        fill: #ebbe2c;
      }

      .cls-23 {
        fill: #eebd2c;
      }

      .cls-24 {
        fill: #e0c12e;
      }
    </style>
    <clipPath id="clip-path">
      <circle id="Ellipse_2539" data-name="Ellipse 2539" class="cls-1" cx="32" cy="32" r="32"/>
    </clipPath>
    <clipPath id="clip-path-4">
      <circle id="Ellipse_2540" data-name="Ellipse 2540" class="cls-1" cx="30" cy="30" r="30" transform="translate(-20935 -24761)"/>
    </clipPath>
  </defs>
  <g id="Group_13394" data-name="Group 13394" transform="translate(20988 24759)">
    <g id="Mask_Group_549" data-name="Mask Group 549" class="cls-2" transform="translate(-20988 -24759)">
      <g id="Group_720" data-name="Group 720">
        <g id="Mask_Group_11" data-name="Mask Group 11" class="cls-2">
          <g id="Mask_Group_471" data-name="Mask Group 471" class="cls-2">
            <g id="Page-1">
              <circle id="Oval" class="cls-3" cx="32" cy="32" r="32"/>
              <path id="Polygon" class="cls-4" d="M32.188,11.164,50.232,21.582V42.418L32.188,52.836,14.143,42.418V21.582Z" transform="translate(0)"/>
              <path id="Path" class="cls-5" d="M24.379,19.561l-1.686,7.632H41.121l-1.8-7.632Z" transform="translate(0)"/>
              <path id="Path-2" class="cls-5" d="M22.626,29.8l-4.989,3.74,6.8,11.908h2.735l3.212-3.02v-1.5l-3.335-3.2v-5.1Z"/>
              <path id="Path-2-2" data-name="Path-2" class="cls-5" d="M4.989,15.65,0,11.908,6.8,0H9.535l3.211,3.02v1.5L9.411,7.72v5.1Z" transform="translate(46.13 45.395) rotate(180)"/>
              <path id="Path-3" class="cls-6" transform="translate(0)"/>
              <path id="Path-4" class="cls-5" d="M27.068,28.362l1.623,4.257-.5,4.771,7.4-.024-.452-4.747,1.6-4.257Z"/>
            </g>
          </g>
        </g>
      </g>
    </g>
    <circle id="Ellipse_1806" data-name="Ellipse 1806" class="cls-1" cx="32" cy="32" r="32" transform="translate(-20938 -24759)"/>
    <g id="Mask_Group_550" data-name="Mask Group 550" class="cls-7" transform="translate(-1 4)">
      <g id="Layer_2" data-name="Layer 2" transform="translate(-20931.047 -24761)">
        <g id="Layer_1" data-name="Layer 1" transform="translate(0)">
          <g id="mcxiAs.tif">
            <path id="Path_31130" data-name="Path 31130" class="cls-8" d="M37.975,14.237c.178.651.343,1.187.467,1.732.763,3.364,1.517,6.732,2.3,10.212H13.085c.511-2.42.988-4.782,1.511-7.134.346-1.558.28-3.723,1.271-4.47,1.072-.807,3.159-.312,4.8-.333,5.193-.019,10.386,0,15.576,0Z" transform="translate(-0.781 -0.842)"/>
            <path id="Path_31131" data-name="Path 31131" class="cls-8" d="M42.312,31.332l7.654,5.582c-.283.514-.536,1-.813,1.47Q44.8,45.73,40.474,53.069c-.891,1.508-3.956,2.143-5.339,1.031s-2.763-2.349-4.106-3.57a2.5,2.5,0,0,1,.062-3.311c1.187-1.156,2.47-2.221,3.582-3.442a3.533,3.533,0,0,0,.844-1.987c.15-2.053.134-4.115.184-6.171Z" transform="translate(-1.815 -1.868)"/>
            <path id="Path_31132" data-name="Path 31132" class="cls-9" d="M4.409,36.881c2.452-1.788,4.776-3.508,7.137-5.174a1.215,1.215,0,0,1,1.069-.037c1.91,1.137,3.8,2.315,5.651,3.548a1.713,1.713,0,0,1,.567,1.146,8.751,8.751,0,0,1,0,2.47c-.567,3.115.623,5.358,3.159,7.075a9.346,9.346,0,0,1,1.246,1.153,2.492,2.492,0,0,1-.022,3.526c-1.146,1.047-2.287,2.106-3.517,3.047a4.847,4.847,0,0,1-1.922.748c-2.215.464-3.489-.48-4.582-2.492C10.468,46.865,7.428,42,4.409,36.881Z" transform="translate(-0.263 -1.882)"/>
            <path id="Path_31133" data-name="Path 31133" class="cls-10" d="M27.013,0c1.072,2.053,1.994,3.825,2.925,5.607a3.34,3.34,0,0,0,3.645,2.047c.9-.215,2.567-2.514,2.582-3.576A6.093,6.093,0,0,1,36.477,1.9c.972,1.4,2.3,2.688,2.8,4.237.355,1.112-.52,2.564-.654,3.881-.162,1.6-.844,2.072-2.492,2.04-6.128-.115-12.255-.047-18.379-.047H15.948c-.433-1.832-.885-3.576-1.274-5.327a1.246,1.246,0,0,1,.174-.86,24.392,24.392,0,0,1,3.019-3.788V3.663c0,1.436,1.558,3.772,2.651,3.991,1.514.312,2.744-.486,3.738-2.389C25.113,3.617,25.979,1.972,27.013,0Z" transform="translate(-0.875)"/>
            <path id="Path_31134" data-name="Path 31134" class="cls-11" d="M21.308,41.865c1.287-4.695.963-9.034-1.766-13.28H34.965a16.168,16.168,0,0,0-1.76,13.28Z" transform="translate(-1.166 -1.705)"/>
            <path id="Path_31135" data-name="Path 31135" class="cls-8" d="M32.826,55.225c.193.956.43,2.149.673,3.339.019.1.093.193.09.287-.028,1-3.639,4.461-4.673,4.47h-.156c-4.6.019-4.738-.053-7.215-3.878a1.29,1.29,0,0,1-.259-.816c.231-1.246.526-2.467.741-3.427a27.759,27.759,0,0,0,2.642-1.754,5.069,5.069,0,0,1,5.408-.034C30.863,54.06,31.8,54.54,32.826,55.225Z" transform="translate(-1.27 -3.139)"/>
            <path id="Path_31136" data-name="Path 31136" class="cls-12" d="M46.134,46.172c2.05-3.579,4.05-7.193,6.177-10.722a2.444,2.444,0,0,0-.04-2.906c-2.953-4.969-5.828-9.987-8.722-14.99-.312-.533-.57-1.093-.85-1.642.312-.031.648-.059.972-.1.234-.028.464-.069.7-.1q5.162,8.825,10.3,17.666a1.486,1.486,0,0,1,.034,1.246c-2.181,3.788-4.414,7.545-6.635,11.308Z" transform="translate(-2.547 -0.937)"/>
            <path id="Path_31137" data-name="Path 31137" class="cls-12" d="M2.128,38.484C1.458,37.4.748,36.334.146,35.21a1.508,1.508,0,0,1-.022-1.246c1.779-3.112,3.614-6.187,5.442-9.271L6.592,26C5.3,28.294,4.1,30.643,2.685,32.858c-.826,1.274-.935,2.293.044,3.427a3.386,3.386,0,0,1,.386.829Z" transform="translate(-0.001 -1.472)"/>
            <path id="Path_31138" data-name="Path 31138" class="cls-13" d="M6.271,23.313l6.853-12.049a2.981,2.981,0,0,1,.05,3.48c-1.648,2.614-3.168,5.3-4.738,7.962Z" transform="translate(-0.374 -0.672)"/>
            <path id="Path_31139" data-name="Path 31139" class="cls-14" d="M12.466,53.788c1.206,3.311,3.7,4.174,6.99,3.311-.128,1.651-.935,1.841-2.181,2-2.738.343-4.539-.533-5.467-3.153a14.993,14.993,0,0,0-.91-1.782Z" transform="translate(-0.65 -3.207)"/>
            <path id="Path_31140" data-name="Path 31140" class="cls-15" d="M44.729,53.363c-.935,1.648-1.782,3.339-2.825,4.913-.265.4-1.1.517-1.692.6a10.117,10.117,0,0,1-1.838-.05c-.04-2.068,1.688-.555,2.657-1.224l-1.947-.411a2.313,2.313,0,0,0,2.455-1.558c.751-1.433,1.654-2.785,2.492-4.171C44.265,52.092,44.5,52.728,44.729,53.363Z" transform="translate(-2.289 -3.069)"/>
            <path id="Path_31141" data-name="Path 31141" class="cls-16" d="M7.914,49.079,3.942,42.245,5.531,41.9l4.081,7.037Z" transform="translate(-0.236 -2.498)"/>
            <path id="Path_31142" data-name="Path 31142" class="cls-17" d="M44.286,15.445c-.234.034-.464.075-.7.1-.312.037-.648.065-.972.1-1.075-1.277-1.788-2.62-.623-4.414Z" transform="translate(-2.469 -0.67)"/>
            <path id="Path_31143" data-name="Path 31143" class="cls-18" d="M5.43,41.658l-1.6.349L2.253,39.271,3.246,37.9Q4.346,39.779,5.43,41.658Z" transform="translate(-0.135 -2.26)"/>
            <path id="Path_31144" data-name="Path 31144" class="cls-19" d="M12.37,53.589l-1.583.377q-.754-1.28-1.5-2.561l1.246-.966Z" transform="translate(-0.554 -3.008)"/>
            <path id="Path_31145" data-name="Path 31145" class="cls-20" d="M46.272,48.089l1.931-.237-1.262,2.181a4.984,4.984,0,0,1-1.159.623c-.209.053-.5-.252-.757-.4Z" transform="translate(-2.685 -2.853)"/>
            <path id="Path_31146" data-name="Path 31146" class="cls-21" d="M38.93,57.555l1.947.411c-.969.67-2.7-.844-2.657,1.224l-.383-.153-1.558-.016-.5-.959,2.492-.511Z" transform="translate(-2.134 -3.432)"/>
            <path id="Path_31147" data-name="Path 31147" class="cls-22" d="M44.989,50.369c.255.143.548.449.757.4a4.984,4.984,0,0,0,1.159-.623Q46,51.7,45.088,53.256c-.231-.623-.464-1.271-.695-1.91C44.593,51.041,44.789,50.705,44.989,50.369Z" transform="translate(-2.648 -2.99)"/>
            <path id="Path_31148" data-name="Path 31148" class="cls-23" d="M6.251,24.037l2.181-.623Q7.7,24.66,6.961,25.925L5.936,24.614Z" transform="translate(-0.355 -1.396)"/>
            <path id="Path_31149" data-name="Path 31149" class="cls-24" d="M10.455,50.376q-.623.486-1.246.966L8.153,49.526l1.707-.146Z" transform="translate(-0.487 -2.945)"/>
            <path id="Path_31150" data-name="Path 31150" class="cls-15" d="M38.246,57.548l-2.492.511c.069-.2.134-.558.209-.561C36.732,57.483,37.489,57.523,38.246,57.548Z" transform="translate(-2.133 -3.429)"/>
            <path id="Path_31151" data-name="Path 31151" class="cls-15" d="M36.294,59.115l1.558.016Z" transform="translate(-2.165 -3.525)"/>
          </g>
        </g>
      </g>
    </g>
  </g>
</svg>
