<svg xmlns="http://www.w3.org/2000/svg" xmlns:xlink="http://www.w3.org/1999/xlink" width="114" height="64" viewBox="0 0 114 64">
  <defs>
    <style>
      .cls-1, .cls-3 {
        fill: #fff;
      }

      .cls-1 {
        stroke: #707070;
        stroke-width: 3px;
      }

      .cls-2, .cls-8 {
        fill: none;
      }

      .cls-4 {
        clip-path: url(#clip-path);
      }

      .cls-5 {
        clip-path: url(#clip-path-2);
      }

      .cls-6 {
        fill: rgba(12,101,177,0.85);
      }

      .cls-7 {
        fill: rgba(45,157,216,0.85);
      }

      .cls-8 {
        stroke: #000;
      }

      .cls-9 {
        clip-path: url(#clip-path-3);
      }

      .cls-10 {
        fill: #7b3fe4;
      }

      .cls-11 {
        stroke: none;
      }
    </style>
    <clipPath id="clip-path">
      <circle id="Ellipse_5553" data-name="Ellipse 5553" class="cls-1" cx="32" cy="32" r="32" transform="translate(-20782 -19786)"/>
    </clipPath>
    <clipPath id="clip-path-2">
      <rect id="Rectangle_7563" data-name="Rectangle 7563" class="cls-2" width="64" height="64"/>
    </clipPath>
    <clipPath id="clip-path-3">
      <circle id="Ellipse_5558" data-name="Ellipse 5558" class="cls-3" cx="32" cy="32" r="32" transform="translate(-20899 -19922)"/>
    </clipPath>
  </defs>
  <g id="Group_20075" data-name="Group 20075" transform="translate(20782 19786)">
    <circle id="Ellipse_5560" data-name="Ellipse 5560" class="cls-3" cx="32" cy="32" r="32" transform="translate(-20782 -19786)"/>
    <g id="Mask_Group_759" data-name="Mask Group 759" class="cls-4">
      <g id="FIN" class="cls-5" transform="translate(-20782 -19786)">
        <path id="Path_40621" data-name="Path 40621" class="cls-3" d="M32,32,0,32A32,32,0,1,0,32,0,32,32,0,0,0,0,32Z"/>
        <path id="Path_40622" data-name="Path 40622" class="cls-6" d="M25.415,48.636c0-3.415.051-6.831-.028-10.25A2.7,2.7,0,0,1,26.571,35.9c2.08-1.6,4.006-3.4,6-5.109,1.314-1.125,2.671-2.2,3.919-3.4a.676.676,0,0,1,.787-.151c1.385.574,2.81,1.03,4.24,1.48a.835.835,0,0,1,.645.594c.074.339-.182.508-.4.7q-2.461,2.159-4.909,4.331c-1.673,1.482-3.345,2.972-5.028,4.449a.809.809,0,0,0-.337.676c.02.835,0,1.665,0,2.5,0,.149-.095.369.091.436s.28-.125.4-.23c1.4-1.189,2.8-2.389,4.2-3.585.655-.56,1.314-1.125,1.966-1.689a.774.774,0,0,1,.891-.153c1.352.548,2.7,1.065,4.055,1.615.675.278.72.737.165,1.216Q39.331,43.02,35.4,46.449c-1.182,1.014-2.365,2.081-3.538,3.1a.82.82,0,0,0-.308.7c0,2.676.024,5.351,0,8.028,0,.52.175.577.615.575a26.6,26.6,0,0,0,24.75-17.569A26.9,26.9,0,0,0,41.341,6.875,26.411,26.411,0,0,0,7.931,20.534,26.951,26.951,0,0,0,20.854,56.39q.553.259,1.115.494a14.057,14.057,0,0,0,1.369.51c.357.107.54.256.5.676a8.775,8.775,0,0,0,0,1.516c.037.452-.088.5-.494.369a27.653,27.653,0,0,1-8.784-4.58C6.6,49.074,2.735,40.806,3.073,30.684A28.871,28.871,0,0,1,56.9,17.126,29.385,29.385,0,0,1,42.653,59.2,28.4,28.4,0,0,1,26,60.656c-.466-.1-.6-.311-.6-.778C25.425,56.134,25.415,52.39,25.415,48.636Z"/>
        <path id="Path_40623" data-name="Path 40623" class="cls-7" d="M25.236,21.27V8.961c0-.76.169-.949.939-1.014A30.828,30.828,0,0,1,30.5,7.715a19.113,19.113,0,0,1,7.795,1.814,11.251,11.251,0,0,1,6.4,8.765A18.342,18.342,0,0,1,43.68,26.97a1.012,1.012,0,0,1-1.286.631l-.038-.014q-1.925-.625-3.845-1.284a1.015,1.015,0,0,1-.676-1.5,12.5,12.5,0,0,0,.676-5.954A4.743,4.743,0,0,0,35.166,14.9a8.28,8.28,0,0,0-3.315-.712c-.4.02-.513.125-.513.53.016,4.73,0,9.46.022,14.208a1.6,1.6,0,0,1-.6,1.351c-1.486,1.314-2.942,2.659-4.419,3.982-.2.18-.392.478-.74.291s-.361-.554-.361-.9Z"/>
      </g>
    </g>
    <g id="Ellipse_5562" data-name="Ellipse 5562" class="cls-8" transform="translate(-20782 -19786)">
      <circle class="cls-11" cx="32" cy="32" r="32"/>
      <circle class="cls-2" cx="32" cy="32" r="31.5"/>
    </g>
    <g id="Mask_Group_758" data-name="Mask Group 758" class="cls-9" transform="translate(167 136)">
      <g id="Primary_Token" data-name="Primary Token" transform="translate(-20899 -19922)">
        <circle id="Ellipse_5557" data-name="Ellipse 5557" class="cls-10" cx="32" cy="32" r="32"/>
        <path id="Path_40620" data-name="Path 40620" class="cls-3" d="M53.333,32.747V42.4a3.481,3.481,0,0,1-1.707,2.977L43.293,50.2a3.323,3.323,0,0,1-3.413,0l-8.333-4.817A3.481,3.481,0,0,1,29.84,42.4v-2.71l4.267-2.485v4.71l7.467,4.349,7.467-4.349V33.239L41.573,28.89,24.08,39.059a3.466,3.466,0,0,1-3.413,0l-8.333-4.837a3.482,3.482,0,0,1-1.667-2.974V21.594a3.481,3.481,0,0,1,1.707-2.977L20.706,13.8a3.353,3.353,0,0,1,3.413,0l8.333,4.817a3.481,3.481,0,0,1,1.707,2.977V24.3l-4.293,2.469V22.089L22.4,17.741l-7.467,4.349v8.667L22.4,35.105,39.893,24.936a3.466,3.466,0,0,1,3.413,0l8.333,4.837a3.481,3.481,0,0,1,1.693,2.974Z"/>
      </g>
    </g>
  </g>
</svg>
