<svg xmlns="http://www.w3.org/2000/svg" xmlns:xlink="http://www.w3.org/1999/xlink" width="64" height="64" viewBox="0 0 64 64">
  <defs>
    <style>
      .cls-1 {
        fill: #fff;
      }

      .cls-2 {
        clip-path: url(#clip-path);
      }

      .cls-3 {
        fill: #7e7467;
      }

      .cls-4 {
        fill: #e2dfd9;
      }

      .cls-5 {
        fill: #c2bbb2;
        fill-rule: evenodd;
      }

      .cls-6 {
        clip-path: url(#clip-path-2);
      }
    </style>
    <clipPath id="clip-path">
      <circle id="Ellipse_5788" data-name="Ellipse 5788" class="cls-1" cx="32" cy="32" r="32" transform="translate(-21006 -18012)"/>
    </clipPath>
    <clipPath id="clip-path-2">
      <rect id="Rectangle_7610" data-name="Rectangle 7610" class="cls-1" width="44.229" height="32.25" transform="translate(8.042 13.319)"/>
    </clipPath>
  </defs>
  <g id="Mask_Group_951" data-name="Mask Group 951" class="cls-2" transform="translate(21006 18012)">
    <g id="GIDDY" transform="translate(-21004.156 -18012)">
      <path id="Path_51469" data-name="Path 51469" class="cls-3" d="M60.312,33.882V30.156C58.6,15.152,45.581,3.765,30.118,3.765A30.351,30.351,0,0,0,0,30.156v3.726a30.156,30.156,0,0,0,60.312,0Z"/>
      <path id="Path_51470" data-name="Path 51470" class="cls-3" d="M60.313,30.156A30.156,30.156,0,1,1,30.156,0,30.156,30.156,0,0,1,60.313,30.156Z"/>
      <path id="Path_51471" data-name="Path 51471" class="cls-4" d="M56.471,32A26.353,26.353,0,1,1,30.118,5.647,26.353,26.353,0,0,1,56.471,32Z"/>
      <path id="Path_51472" data-name="Path 51472" class="cls-5" d="M30.156,56.368A26.212,26.212,0,1,0,3.944,30.156,26.212,26.212,0,0,0,30.156,56.368Zm0,3.944A30.156,30.156,0,1,0,0,30.156,30.156,30.156,0,0,0,30.156,60.312Z"/>
      <g id="Group_20357" data-name="Group 20357" class="cls-6">
        <path id="Path_51473" data-name="Path 51473" class="cls-3" d="M47.877,26.057a7.19,7.19,0,0,0-6.7.806l-2.49-11.154a3.048,3.048,0,0,0-3.893-2.246l-10.734,3.4a4.66,4.66,0,0,0-3.14,3.428L19.3,27.513c-3.509-2.574-6.222-1.956-7.67-1.231-2.936,1.477-4.228,4.992-3.29,8.964,1.214,5.14,5.965,10.323,13.852,10.323,7.126,0,11.833-5.587,15.614-10.075,3.629-4.308,5.992-6.893,8.738-5.87A2.782,2.782,0,0,1,48.39,33.11c-.648,3.592-5.417,8.649-13.991,8.649v3.816c7.672,0,16.4-4.408,17.732-11.783A6.565,6.565,0,0,0,47.877,26.057ZM34.9,33.038c-3.613,4.285-7.349,8.723-12.708,8.723-5.808,0-9.283-3.712-10.152-7.391-.392-1.663-.289-3.886,1.294-4.677,1.624-.815,3.651.676,5.03,2.02l-.915,4.1h3.9l3.166-14.179a1.887,1.887,0,0,1,1.272-1.387l8.124-2.571a1.182,1.182,0,0,1,1.509.87l2.477,11.1C36.874,30.7,35.884,31.874,34.9,33.038Z"/>
      </g>
    </g>
  </g>
</svg>
