<svg xmlns="http://www.w3.org/2000/svg" xmlns:xlink="http://www.w3.org/1999/xlink" width="114" height="64" viewBox="0 0 114 64">
  <defs>
    <style>
      .cls-1 {
        fill: #fff;
      }

      .cls-2 {
        clip-path: url(#clip-path);
      }

      .cls-3 {
        fill: #7e7467;
      }

      .cls-4 {
        fill: #e2dfd9;
      }

      .cls-5 {
        fill: #c2bbb2;
        fill-rule: evenodd;
      }

      .cls-6 {
        clip-path: url(#clip-path-2);
      }

      .cls-7 {
        clip-path: url(#clip-path-3);
      }

      .cls-8 {
        fill: #2775ca;
      }
    </style>
    <clipPath id="clip-path">
      <circle id="Ellipse_5747" data-name="Ellipse 5747" class="cls-1" cx="32" cy="32" r="32" transform="translate(-22200 -17778)"/>
    </clipPath>
    <clipPath id="clip-path-2">
      <rect id="Rectangle_7611" data-name="Rectangle 7611" class="cls-1" width="44.229" height="32.25" transform="translate(8.042 13.319)"/>
    </clipPath>
    <clipPath id="clip-path-3">
      <circle id="Ellipse_5748" data-name="Ellipse 5748" class="cls-1" cx="32" cy="32" r="32" transform="translate(-22150 -17778)"/>
    </clipPath>
  </defs>
  <g id="Group_20377" data-name="Group 20377" transform="translate(22200 17778)">
    <g id="Mask_Group_952" data-name="Mask Group 952" class="cls-2">
      <g id="GIDDY" transform="translate(-22198.156 -17778)">
        <path id="Path_51474" data-name="Path 51474" class="cls-3" d="M60.312,33.882V30.156C58.6,15.152,45.581,3.765,30.118,3.765A30.351,30.351,0,0,0,0,30.156v3.726a30.156,30.156,0,0,0,60.312,0Z"/>
        <path id="Path_51475" data-name="Path 51475" class="cls-3" d="M60.313,30.156A30.156,30.156,0,1,1,30.156,0,30.156,30.156,0,0,1,60.313,30.156Z"/>
        <path id="Path_51476" data-name="Path 51476" class="cls-4" d="M56.471,32A26.353,26.353,0,1,1,30.118,5.647,26.353,26.353,0,0,1,56.471,32Z"/>
        <path id="Path_51477" data-name="Path 51477" class="cls-5" d="M30.156,56.368A26.212,26.212,0,1,0,3.944,30.156,26.212,26.212,0,0,0,30.156,56.368Zm0,3.944A30.156,30.156,0,1,0,0,30.156,30.156,30.156,0,0,0,30.156,60.312Z"/>
        <g id="Group_20358" data-name="Group 20358" class="cls-6">
          <path id="Path_51478" data-name="Path 51478" class="cls-3" d="M47.877,26.057a7.19,7.19,0,0,0-6.7.806l-2.49-11.154a3.048,3.048,0,0,0-3.893-2.246l-10.734,3.4a4.66,4.66,0,0,0-3.14,3.428L19.3,27.513c-3.509-2.574-6.222-1.956-7.67-1.231-2.936,1.477-4.228,4.992-3.29,8.964,1.214,5.14,5.965,10.323,13.852,10.323,7.126,0,11.833-5.587,15.614-10.075,3.629-4.308,5.992-6.893,8.738-5.87A2.782,2.782,0,0,1,48.39,33.11c-.648,3.592-5.417,8.649-13.991,8.649v3.816c7.672,0,16.4-4.408,17.732-11.783A6.565,6.565,0,0,0,47.877,26.057ZM34.9,33.038c-3.613,4.285-7.349,8.723-12.708,8.723-5.808,0-9.283-3.712-10.152-7.391-.392-1.663-.289-3.886,1.294-4.677,1.624-.815,3.651.676,5.03,2.02l-.915,4.1h3.9l3.166-14.179a1.887,1.887,0,0,1,1.272-1.387l8.124-2.571a1.182,1.182,0,0,1,1.509.87l2.477,11.1C36.874,30.7,35.884,31.874,34.9,33.038Z"/>
        </g>
      </g>
    </g>
    <g id="Mask_Group_928" data-name="Mask Group 928" class="cls-7">
      <g id="USDC" transform="translate(-22150 -17778)">
        <path id="Path_51450" data-name="Path 51450" class="cls-8" d="M32,64A32,32,0,1,0,0,32,31.923,31.923,0,0,0,32,64Z"/>
        <path id="Path_51451" data-name="Path 51451" class="cls-1" d="M40.8,37.067c0-4.667-2.8-6.267-8.4-6.933-4-.533-4.8-1.6-4.8-3.467s1.333-3.067,4-3.067c2.4,0,3.733.8,4.4,2.8a1,1,0,0,0,.933.667h2.133A.911.911,0,0,0,40,26.133V26a6.661,6.661,0,0,0-6-5.467v-3.2c0-.533-.4-.933-1.067-1.067h-2c-.533,0-.933.4-1.067,1.067V20.4c-4,.533-6.533,3.2-6.533,6.533,0,4.4,2.667,6.133,8.267,6.8,3.733.667,4.933,1.467,4.933,3.6s-1.867,3.6-4.4,3.6c-3.467,0-4.667-1.467-5.067-3.467a.974.974,0,0,0-.933-.8H23.867a.911.911,0,0,0-.933.933v.133c.533,3.333,2.667,5.733,7.067,6.4v3.2c0,.533.4.933,1.067,1.067h2c.533,0,.933-.4,1.067-1.067v-3.2c4-.667,6.667-3.467,6.667-7.067Z"/>
        <path id="Path_51452" data-name="Path 51452" class="cls-1" d="M25.2,51.067a19.952,19.952,0,0,1,0-37.467,1.338,1.338,0,0,0,.8-1.333V10.4a1.013,1.013,0,0,0-.8-1.067.8.8,0,0,0-.533.133,23.994,23.994,0,0,0,0,45.733.811.811,0,0,0,1.2-.533C26,54.533,26,54.4,26,54.133V52.267A1.776,1.776,0,0,0,25.2,51.067Zm14.133-41.6a.811.811,0,0,0-1.2.533c-.133.133-.133.267-.133.533V12.4a1.769,1.769,0,0,0,.8,1.333,19.952,19.952,0,0,1,0,37.467,1.338,1.338,0,0,0-.8,1.333V54.4a1.013,1.013,0,0,0,.8,1.067.8.8,0,0,0,.533-.133,24.1,24.1,0,0,0,0-45.867Z"/>
      </g>
    </g>
  </g>
</svg>
