<svg xmlns="http://www.w3.org/2000/svg" xmlns:xlink="http://www.w3.org/1999/xlink" width="114" height="64" viewBox="0 0 114 64">
  <defs>
    <style>
      .cls-1 {
        fill: #fff;
      }

      .cls-2 {
        clip-path: url(#clip-path);
      }

      .cls-3 {
        fill: #7b3fe4;
      }

      .cls-4 {
        fill: #181822;
      }

      .cls-5 {
        fill: #ff9f1c;
      }
    </style>
    <clipPath id="clip-path">
      <circle id="Ellipse_5680" data-name="Ellipse 5680" class="cls-1" cx="32" cy="32" r="32" transform="translate(-21766 -19922)"/>
    </clipPath>
  </defs>
  <g id="Group_20306" data-name="Group 20306" transform="translate(22330 20723)">
    <g id="Mask_Group_836" data-name="Mask Group 836" class="cls-2" transform="translate(-514 -801)">
      <g id="Primary_Token" data-name="Primary Token" transform="translate(-21766 -19922)">
        <circle id="Ellipse_5679" data-name="Ellipse 5679" class="cls-3" cx="32" cy="32" r="32"/>
        <path id="Path_51272" data-name="Path 51272" class="cls-1" d="M53.333,32.747V42.4a3.481,3.481,0,0,1-1.707,2.977L43.293,50.2a3.323,3.323,0,0,1-3.413,0l-8.333-4.817A3.481,3.481,0,0,1,29.84,42.4v-2.71l4.267-2.485v4.71l7.467,4.349,7.467-4.349V33.239L41.573,28.89,24.08,39.059a3.466,3.466,0,0,1-3.413,0l-8.333-4.837a3.482,3.482,0,0,1-1.667-2.974V21.594a3.481,3.481,0,0,1,1.707-2.977L20.706,13.8a3.353,3.353,0,0,1,3.413,0l8.333,4.817a3.481,3.481,0,0,1,1.707,2.977V24.3l-4.293,2.469V22.089L22.4,17.741l-7.467,4.349v8.667L22.4,35.105,39.893,24.936a3.466,3.466,0,0,1,3.413,0l8.333,4.837a3.481,3.481,0,0,1,1.693,2.974Z"/>
      </g>
    </g>
    <g id="Group_20224" data-name="Group 20224" transform="translate(0 10)">
      <circle id="Ellipse_5383" data-name="Ellipse 5383" class="cls-4" cx="32" cy="32" r="32" transform="translate(-22330 -20733)"/>
      <g id="Group_20223" data-name="Group 20223" transform="translate(-5 2.729)">
        <path id="Path_51289" data-name="Path 51289" class="cls-1" d="M0,28.079H24V20.421H7.584V10.4H0Z" transform="translate(-22305 -20711.078)"/>
        <path id="Path_51290" data-name="Path 51290" class="cls-5" d="M7.584.074H0V17.755H7.584Z" transform="translate(-22305 -20724.533)"/>
      </g>
    </g>
  </g>
</svg>
