<svg xmlns="http://www.w3.org/2000/svg" xmlns:xlink="http://www.w3.org/1999/xlink" width="114" height="64" viewBox="0 0 114 64">
  <defs>
    <style>
      .cls-1, .cls-7 {
        fill: #fff;
      }

      .cls-2 {
        clip-path: url(#clip-path);
      }

      .cls-3 {
        clip-path: url(#clip-path-2);
      }

      .cls-4 {
        fill: #7b3fe4;
      }

      .cls-5 {
        clip-path: url(#clip-path-3);
      }

      .cls-6 {
        fill: #f69988;
      }

      .cls-7 {
        fill-rule: evenodd;
      }
    </style>
    <clipPath id="clip-path">
      <circle id="Ellipse_5696" data-name="Ellipse 5696" class="cls-1" cx="32" cy="32" r="32" transform="translate(-21674 -18731)"/>
    </clipPath>
    <clipPath id="clip-path-2">
      <circle id="Ellipse_5519" data-name="Ellipse 5519" class="cls-1" cx="32" cy="32" r="32" transform="translate(-20899 -19922)"/>
    </clipPath>
    <clipPath id="clip-path-3">
      <circle id="Ellipse_5697" data-name="Ellipse 5697" class="cls-1" cx="32" cy="32" r="32" transform="translate(-21624 -18731)"/>
    </clipPath>
  </defs>
  <g id="Group_20312" data-name="Group 20312" transform="translate(21674 18731)">
    <g id="Mask_Group_870" data-name="Mask Group 870" class="cls-2">
      <g id="Mask_Group_718" data-name="Mask Group 718" class="cls-3" transform="translate(-775 1191)">
        <g id="Primary_Token" data-name="Primary Token" transform="translate(-20899 -19922)">
          <circle id="Ellipse_5520" data-name="Ellipse 5520" class="cls-4" cx="32" cy="32" r="32"/>
          <path id="Path_40535" data-name="Path 40535" class="cls-1" d="M53.333,32.747V42.4a3.481,3.481,0,0,1-1.707,2.977L43.293,50.2a3.323,3.323,0,0,1-3.413,0l-8.333-4.817A3.481,3.481,0,0,1,29.84,42.4V39.69l4.267-2.485v4.71l7.467,4.349,7.467-4.349V33.239L41.573,28.89,24.08,39.059a3.466,3.466,0,0,1-3.413,0l-8.333-4.837a3.482,3.482,0,0,1-1.667-2.974V21.594a3.481,3.481,0,0,1,1.707-2.977L20.706,13.8a3.353,3.353,0,0,1,3.413,0l8.333,4.817a3.481,3.481,0,0,1,1.707,2.977V24.3l-4.293,2.469v-4.68L22.4,17.741,14.933,22.09v8.667L22.4,35.1,39.893,24.936a3.466,3.466,0,0,1,3.413,0l8.333,4.837a3.481,3.481,0,0,1,1.693,2.974Z"/>
        </g>
      </g>
    </g>
    <g id="Mask_Group_884" data-name="Mask Group 884" class="cls-5">
      <g id="LDO" transform="translate(-21624 -18731)">
        <circle id="Ellipse_5727" data-name="Ellipse 5727" class="cls-6" cx="32" cy="32" r="32"/>
        <path id="Path_51422" data-name="Path 51422" class="cls-7" d="M32.015,9.375,43.24,26.9,32.014,33.431,20.79,26.9Zm-7.789,16.7,7.789-12.163L39.8,26.075,32.014,30.6Z"/>
        <path id="Path_51423" data-name="Path 51423" class="cls-1" d="M32,37.284,18.977,29.712l-.355.555a15.859,15.859,0,1,0,26.757,0l-.356-.555L32,37.284Z"/>
      </g>
    </g>
  </g>
</svg>
