<svg xmlns="http://www.w3.org/2000/svg" xmlns:xlink="http://www.w3.org/1999/xlink" width="114" height="67" viewBox="0 0 114 67">
  <defs>
    <style>
      .cls-1 {
        fill: #fff;
      }

      .cls-2 {
        clip-path: url(#clip-path);
      }

      .cls-3 {
        clip-path: url(#clip-path-2);
      }

      .cls-4 {
        clip-path: url(#clip-path-3);
      }

      .cls-5 {
        clip-path: url(#clip-path-4);
      }

      .cls-6 {
        clip-path: url(#clip-path-5);
      }

      .cls-7 {
        fill: #191919;
      }

      .cls-8 {
        fill: #ffc209;
      }

      .cls-9 {
        clip-path: url(#clip-path-6);
      }

      .cls-10 {
        fill: #7b3fe4;
      }
    </style>
    <clipPath id="clip-path">
      <ellipse id="Ellipse_5494" data-name="Ellipse 5494" class="cls-1" cx="33" cy="33.5" rx="33" ry="33.5" transform="translate(-22164.535 -20090.02)"/>
    </clipPath>
    <clipPath id="clip-path-2">
      <ellipse id="Ellipse_2499" data-name="Ellipse 2499" class="cls-1" cx="33" cy="33.5" rx="33" ry="33.5" transform="translate(0 -0.001)"/>
    </clipPath>
    <clipPath id="clip-path-3">
      <rect id="Rectangle_5436" data-name="Rectangle 5436" width="65.684" height="65.369"/>
    </clipPath>
    <clipPath id="clip-path-4">
      <rect id="Rectangle_5435" data-name="Rectangle 5435" width="65.547" height="65.233"/>
    </clipPath>
    <clipPath id="clip-path-5">
      <rect id="Rectangle_5434" data-name="Rectangle 5434" width="65.547" height="65.369"/>
    </clipPath>
    <clipPath id="clip-path-6">
      <circle id="Ellipse_5495" data-name="Ellipse 5495" class="cls-1" cx="32" cy="32" r="32" transform="translate(-22115 -20090)"/>
    </clipPath>
  </defs>
  <g id="Group_19993" data-name="Group 19993" transform="translate(22165 20091)">
    <g id="Group_19991" data-name="Group 19991">
      <g id="Mask_Group_702" data-name="Mask Group 702" class="cls-2" transform="translate(-0.465 -0.98)">
        <g id="Mask_Group_531" data-name="Mask Group 531" class="cls-3" transform="translate(-22164.535 -20090.02)">
          <g id="NFTY_20" data-name="NFTY%20" class="cls-4" transform="translate(-0.092 0.562)">
            <g id="Group_13137" data-name="Group 13137" class="cls-5" transform="translate(0.137 0.136)">
              <g id="Group_13136" data-name="Group 13136" class="cls-6">
                <path id="Path_29941" data-name="Path 29941" class="cls-7" d="M71.85,39.965A31.755,31.755,0,1,1,40.093,8.256,31.755,31.755,0,0,1,71.85,39.965Z" transform="translate(-7.316 -7.066)"/>
                <path id="Path_29942" data-name="Path 29942" class="cls-8" d="M47.248,26.309l3.624-6.388,3.879,6.412-3.783-2.139Z" transform="translate(-4.333 -6.258)"/>
                <path id="Path_29943" data-name="Path 29943" class="cls-8" d="M47.248,26.305l3.72-2.115.018.01-.143-4.236Z" transform="translate(-4.333 -6.255)"/>
                <path id="Path_29944" data-name="Path 29944" class="cls-8" d="M50.615,19.921l-.026.046.139,4.235,3.765,2.131Z" transform="translate(-4.077 -6.258)"/>
                <path id="Path_29945" data-name="Path 29945" class="cls-8" d="M24.909,57.824v-37.9L56.463,48.252v9.571L31.219,35.129V57.824Z" transform="translate(-6.046 -6.259)"/>
                <path id="Path_29946" data-name="Path 29946" class="cls-8" d="M49.858,36.543a.45.45,0,0,1-.451-.45v-6.93a.451.451,0,0,1,.9,0v6.929a.45.45,0,0,1-.45.451Z" transform="translate(-4.168 -5.648)"/>
                <path id="Path_29947" data-name="Path 29947" class="cls-8" d="M51.67,36.543a.45.45,0,0,1-.451-.45v-6.93a.451.451,0,0,1,.9,0v6.929a.45.45,0,0,1-.45.451Z" transform="translate(-4.028 -5.648)"/>
              </g>
            </g>
          </g>
        </g>
      </g>
      <g id="Mask_Group_692" data-name="Mask Group 692" class="cls-9">
        <g id="Primary_Token" data-name="Primary Token" transform="translate(-22115 -20090)">
          <circle id="Ellipse_5508" data-name="Ellipse 5508" class="cls-10" cx="32" cy="32" r="32"/>
          <path id="Path_40526" data-name="Path 40526" class="cls-1" d="M53.333,32.747V42.4a3.481,3.481,0,0,1-1.707,2.977L43.293,50.2a3.323,3.323,0,0,1-3.413,0l-8.333-4.817A3.481,3.481,0,0,1,29.84,42.4v-2.71l4.267-2.485v4.71l7.467,4.349,7.467-4.349V33.239L41.573,28.89,24.08,39.059a3.466,3.466,0,0,1-3.413,0l-8.333-4.837a3.482,3.482,0,0,1-1.667-2.974V21.594a3.481,3.481,0,0,1,1.707-2.977L20.706,13.8a3.353,3.353,0,0,1,3.413,0l8.333,4.817a3.481,3.481,0,0,1,1.707,2.977V24.3l-4.293,2.469V22.089L22.4,17.741l-7.467,4.349v8.667L22.4,35.105,39.893,24.936a3.466,3.466,0,0,1,3.413,0l8.333,4.837a3.481,3.481,0,0,1,1.693,2.974Z"/>
        </g>
      </g>
    </g>
  </g>
</svg>
