<svg xmlns="http://www.w3.org/2000/svg" xmlns:xlink="http://www.w3.org/1999/xlink" width="114" height="64" viewBox="0 0 114 64">
  <defs>
    <style>
      .cls-1 {
        fill: #fff;
      }

      .cls-2 {
        clip-path: url(#clip-path);
      }

      .cls-3 {
        clip-path: url(#clip-path-2);
      }

      .cls-4 {
        fill: url(#linear-gradient);
      }

      .cls-5 {
        fill: url(#linear-gradient-2);
      }

      .cls-6 {
        fill: url(#linear-gradient-3);
      }

      .cls-7 {
        clip-path: url(#clip-path-3);
      }

      .cls-8 {
        fill: #7b3fe4;
      }
    </style>
    <clipPath id="clip-path">
      <circle id="Ellipse_5498" data-name="Ellipse 5498" class="cls-1" cx="32" cy="32" r="32" transform="translate(-21824 -20090)"/>
    </clipPath>
    <clipPath id="clip-path-2">
      <circle id="Ellipse_1805" data-name="Ellipse 1805" class="cls-1" cx="32" cy="32" r="32" transform="translate(-20493 -24761)"/>
    </clipPath>
    <linearGradient id="linear-gradient" x1="0.5" y1="0.044" x2="0.5" y2="0.599" gradientUnits="objectBoundingBox">
      <stop offset="0" stop-color="#a671ff"/>
      <stop offset="1" stop-color="#7039cc"/>
    </linearGradient>
    <linearGradient id="linear-gradient-2" x1="1.043" y1="0.5" x2="0.384" y2="0.5" xlink:href="#linear-gradient"/>
    <linearGradient id="linear-gradient-3" y1="0.874" y2="0.092" xlink:href="#linear-gradient"/>
    <clipPath id="clip-path-3">
      <circle id="Ellipse_5499" data-name="Ellipse 5499" class="cls-1" cx="32" cy="32" r="32" transform="translate(-21774 -20090)"/>
    </clipPath>
  </defs>
  <g id="Group_19995" data-name="Group 19995" transform="translate(21824 20090)">
    <g id="Mask_Group_704" data-name="Mask Group 704" class="cls-2">
      <g id="Mask_Group_565" data-name="Mask Group 565" class="cls-3" transform="translate(-1331 4671)">
        <g id="peco" transform="translate(-20493 -24761)">
          <circle id="Ellipse_2555" data-name="Ellipse 2555" class="cls-4" cx="32" cy="32" r="32"/>
          <path id="Path_32515" data-name="Path 32515" class="cls-1" d="M20.913,44.794,32,25.606,43.07,44.794h7.384L32,12.812,13.523,44.794Z"/>
          <path id="Path_32516" data-name="Path 32516" class="cls-5" d="M43.07,44.794,32,25.606,20.913,44.794h-7.39L2.9,45.321A32,32,0,1,0,59.716,16c7.757,13.713-.77,28.794-9.262,28.794Z"/>
          <path id="Path_32517" data-name="Path 32517" class="cls-6" d="M4.284,16h0A32,32,0,0,0,32,64C18.424,64,9.381,51.97,13.523,44.794S32,12.812,32,12.812C26.8,3.81,11.97,3.573,4.284,16Z"/>
        </g>
      </g>
    </g>
    <g id="Mask_Group_695" data-name="Mask Group 695" class="cls-7">
      <g id="Primary_Token" data-name="Primary Token" transform="translate(-21774 -20090)">
        <circle id="Ellipse_5510" data-name="Ellipse 5510" class="cls-8" cx="32" cy="32" r="32"/>
        <path id="Path_40528" data-name="Path 40528" class="cls-1" d="M53.333,32.747V42.4a3.481,3.481,0,0,1-1.707,2.977L43.293,50.2a3.323,3.323,0,0,1-3.413,0l-8.333-4.817A3.481,3.481,0,0,1,29.84,42.4v-2.71l4.267-2.485v4.71l7.467,4.349,7.467-4.349V33.239L41.573,28.89,24.08,39.059a3.466,3.466,0,0,1-3.413,0l-8.333-4.837a3.482,3.482,0,0,1-1.667-2.974V21.594a3.481,3.481,0,0,1,1.707-2.977L20.706,13.8a3.353,3.353,0,0,1,3.413,0l8.333,4.817a3.481,3.481,0,0,1,1.707,2.977V24.3l-4.293,2.469V22.089L22.4,17.741l-7.467,4.349v8.667L22.4,35.105,39.893,24.936a3.466,3.466,0,0,1,3.413,0l8.333,4.837a3.481,3.481,0,0,1,1.693,2.974Z"/>
      </g>
    </g>
  </g>
</svg>
