<svg xmlns="http://www.w3.org/2000/svg" xmlns:xlink="http://www.w3.org/1999/xlink" width="114" height="64" viewBox="0 0 114 64">
  <defs>
    <style>
      .cls-1, .cls-4 {
        fill: #fff;
      }

      .cls-2 {
        clip-path: url(#clip-path);
      }

      .cls-3 {
        fill: #1969ff;
      }

      .cls-4 {
        fill-rule: evenodd;
      }

      .cls-5 {
        clip-path: url(#clip-path-2);
      }

      .cls-10, .cls-6 {
        fill: #6b00fa;
      }

      .cls-12, .cls-14, .cls-16, .cls-6, .cls-7, .cls-8 {
        stroke: #000;
        stroke-miterlimit: 10;
      }

      .cls-12, .cls-14, .cls-6, .cls-7, .cls-8 {
        stroke-width: 0.083px;
      }

      .cls-7, .cls-9 {
        fill: #4300bf;
      }

      .cls-11, .cls-8 {
        fill: #100342;
      }

      .cls-12, .cls-16 {
        fill: none;
      }

      .cls-13 {
        fill: #100641;
      }

      .cls-14, .cls-15 {
        fill: #e0e3bd;
      }

      .cls-16 {
        stroke-width: 0.331px;
      }
    </style>
    <clipPath id="clip-path">
      <circle id="Ellipse_5695" data-name="Ellipse 5695" class="cls-1" cx="32" cy="32" r="32" transform="translate(-21808 -18965)"/>
    </clipPath>
    <clipPath id="clip-path-2">
      <circle id="Ellipse_5711" data-name="Ellipse 5711" class="cls-1" cx="32" cy="32" r="32" transform="translate(-21858 -18965)"/>
    </clipPath>
  </defs>
  <g id="Group_20265" data-name="Group 20265" transform="translate(21858 18965)">
    <circle id="Ellipse_5694" data-name="Ellipse 5694" class="cls-1" cx="32" cy="32" r="32" transform="translate(-21858 -18965)"/>
    <g id="Mask_Group_852" data-name="Mask Group 852" class="cls-2">
      <g id="FTM" transform="translate(-21808 -18965)">
        <path id="Path_51370" data-name="Path 51370" class="cls-3" d="M32,64A32,32,0,1,0,0,32,32,32,0,0,0,32,64Z"/>
        <path id="Path_51371" data-name="Path 51371" class="cls-4" d="M34.4,25.8l7.2-4.2V30Zm7.2,18L32,49.4l-9.6-5.6V34L32,39.6,41.6,34ZM22.4,21.6l7.2,4.2L22.4,30Zm10.8,6.2L40.4,32l-7.2,4.2Zm-2.4,8.4L23.6,32l7.2-4.2Zm9.6-16.6L32,24.4l-8.4-4.8,8.4-5ZM20,18.8V45l12,6.8L44,45V18.8L32,12Z"/>
      </g>
    </g>
    <g id="Mask_Group_851" data-name="Mask Group 851" class="cls-5">
      <g id="Tomb" transform="translate(-21843.406 -18958)">
        <path id="Path_51318" data-name="Path 51318" class="cls-6" d="M5.244,35.993c.181-2.712.129-5.5.452-8.278.181-1.511.5-3.009.633-4.52a58.693,58.693,0,0,0-.09-6.212,6.632,6.632,0,0,1,.077-1.821c.077-.31.194-.633.517-.7.555-.129.4-.439.284-.775-.129-.374-.245-.749-.387-1.111-.775-1.9-.116-3.6.826-5.2A20.56,20.56,0,0,1,10.5,3.631a6.151,6.151,0,0,1,4.546-1.963c.336,0,.672-.013,1.02-.039.168-.013.336-.013.517-.026.155-.013.323,0,.478-.026l.155-.039c.09,0,.181.026.258.026.194.026.375.052.568.09.374.065.749.129,1.123.207.749.142,1.485.323,2.221.517a5.529,5.529,0,0,1,1.175.413c.684.374,1.175,1.007,1.834,1.421A12.984,12.984,0,0,1,25.764,5,4.466,4.466,0,0,1,26.81,6.433a10.9,10.9,0,0,1,.826,1.756c.052.155.1.323.142.478a17.425,17.425,0,0,1,.31,2,9.27,9.27,0,0,0,.387,1.963c.052.155.116.31.181.465a1.211,1.211,0,0,1,.077.194c0,.09-.013.181-.013.271-.013,1.95-.181,3.887-.22,5.837-.065,3.151-.284,6.3-.633,9.44a4.592,4.592,0,0,0,.142,1.627,12.65,12.65,0,0,1,.258,4.778c-.194,1.369-.194,2.776-.284,4.171-.039.62-.375.878-.981.891-.71.013-1.356-.284-2.066-.3a21.918,21.918,0,0,0-2.919.31,22.175,22.175,0,0,1-4.8-.336,6.331,6.331,0,0,0-.839-.142c-.3,0-.581.013-.878,0a2.4,2.4,0,0,1-.426-.052,1.794,1.794,0,0,0-.245-.077c-.387-.039-.775-.039-1.162-.065s-.775-.039-1.162-.052c-.775-.039-1.563-.065-2.337-.09l-2.337-.077c-.194,0-.387-.013-.581-.013a4.175,4.175,0,0,0-.568-.013c-.052.013-.1.039-.142.052a1.263,1.263,0,0,1-.581-.013c-.568-.155-.71-.762-.723-1.278-.013-.349.026-.7.039-1.046C5.244,36.768,5.244,36.419,5.244,35.993Z" transform="translate(-1.114 -0.302)"/>
        <path id="Path_51319" data-name="Path 51319" class="cls-7" d="M28.2,58.326A18.4,18.4,0,0,1,28,60.482c-.077.284-.142.555-.452.672a.5.5,0,0,1-.646-.284c-.1-.181-.284-.168-.465-.181-1.459-.09-2.919-.181-4.365-.258L7.128,59.656c-1.395-.065-2.789-.1-4.184-.181-.374-.026-1.123,0-1.214-.5-.026-.155-.116-.284-.155-.439a3.763,3.763,0,0,1-.1-1.007c-.026-.775-.039-1.563-.065-2.337,0-.129,0-.258-.013-.387a.357.357,0,0,0-.065-.207.545.545,0,0,1,.116-.568.534.534,0,0,1,.646-.194,8.339,8.339,0,0,0,2.454.284c3.822.22,7.658.387,11.493.568,3.487.168,6.961.349,10.447.529,1.2.065,1.666.555,1.666,1.769C28.152,57.409,28.178,57.835,28.2,58.326Z" transform="translate(-0.248 -11.8)"/>
        <path id="Path_51320" data-name="Path 51320" class="cls-6" d="M17.358,50.525a32.13,32.13,0,0,1-3.525-.258c-.749-.116-1.472-.284-2.221-.387a21.844,21.844,0,0,0-2.428-.129,13.935,13.935,0,0,0-3.668.258,4.761,4.761,0,0,0-2.983,2.015,7.27,7.27,0,0,0,3.99,1.007c.852.052,1.7.09,2.557.142,6.289.349,12.578.7,18.867.71-.194-.594-.387-1.2-.594-1.8-.181-.529-.439-1.149-1.059-1.278a2.491,2.491,0,0,0-.62.013c-.362,0-.736-.026-1.1-.039-1.537-.052-3.086-.116-4.623-.168C19.089,50.59,18.224,50.551,17.358,50.525Z" transform="translate(-0.521 -10.909)"/>
        <path id="Path_51321" data-name="Path 51321" class="cls-7" d="M36.513,38.756a1.345,1.345,0,0,0,.529-.387,1.236,1.236,0,0,0,.142-.607c.052-.852.1-1.692.155-2.544.065-.956.116-1.911.1-2.867-.013-.9-.1-1.808-.052-2.7.052-.826.22-1.64.31-2.467.323-2.919-.362-5.863-.232-8.794.052-1.085.22-2.17.284-3.267a19.094,19.094,0,0,0-1.485-8.691,1.56,1.56,0,0,0-.4-.62,6.934,6.934,0,0,0-.891-.4A2.639,2.639,0,0,1,34.2,4.25a4.741,4.741,0,0,0-2.7-2.182,14.55,14.55,0,0,0-3.487-.633c-.826-.077-1.653-.155-2.479-.245-.4-.039-.981.09-.917.491,1.188.891,2.557,1.537,3.81,2.337a7.6,7.6,0,0,1,3.035,3.19,8.889,8.889,0,0,1,.517,1.847,34.082,34.082,0,0,1,.852,5.462,35.524,35.524,0,0,1-.116,4.055c-.116,1.769-.194,3.551-.271,5.32s-.129,3.551-.155,5.32-.052,3.551-.039,5.32c0,.891.013,1.782.026,2.66,0,.439.013.891.026,1.33.013.413-.026.865.026,1.291.09.633.8.542,1.24.349.8-.349,1.575-.762,2.376-1.149C36.087,38.962,36.371,38.756,36.513,38.756Z" transform="translate(-5.38 -0.224)"/>
        <path id="Path_51322" data-name="Path 51322" class="cls-8" d="M35.278,53.567c.052.09.116.194.22.194a.434.434,0,0,0,.181-.065,13.263,13.263,0,0,1,1.73-1.24,12.975,12.975,0,0,1,1.369-.439,8.978,8.978,0,0,0,1.808-.956c.207-.129.439-.323.4-.568a.5.5,0,0,0-.116-.232,4.993,4.993,0,0,0-1.149-1.124.629.629,0,0,0-.284-.129.778.778,0,0,0-.375.1c-.943.465-1.872.93-2.8,1.408-.465.232-.93.478-1.395.71-.387.194-.71.336-.452.8C34.71,52.547,35.02,53.051,35.278,53.567Z" transform="translate(-7.516 -10.748)"/>
        <path id="Path_51323" data-name="Path 51323" class="cls-8" d="M35.947,59.821a.552.552,0,0,0,.078.258c.142.155.387.065.568-.039l4.688-2.634a1.2,1.2,0,0,0,.426-.336,1.223,1.223,0,0,0,.129-.568c.052-1.046.09-2.092.142-3.151a1.355,1.355,0,0,0-.155-.852.878.878,0,0,0-.839-.3,2.4,2.4,0,0,0-.865.349c-1.253.7-2.505,1.382-3.758,2.066-.413.232-.917.387-.878.93.039.633.142,1.266.206,1.885.039.4.09.788.129,1.188S35.947,59.434,35.947,59.821Z" transform="translate(-7.771 -11.449)"/>
        <path id="Path_51324" data-name="Path 51324" class="cls-9" d="M26.763,9.979a.547.547,0,0,1-.039.826.536.536,0,0,1-.788-.232.562.562,0,0,1,.413-.723A.549.549,0,0,1,26.763,9.979Z" transform="translate(-5.664 -2.131)"/>
        <path id="Path_51325" data-name="Path 51325" class="cls-9" d="M29.68,12.215a.872.872,0,0,0-.026.181.3.3,0,0,0,.194.245.518.518,0,0,0,.71-.374.508.508,0,0,0-.607-.517c-.026-.013-.065.013-.077.039A1.15,1.15,0,0,0,29.68,12.215Z" transform="translate(-6.489 -2.546)"/>
        <path id="Path_51326" data-name="Path 51326" class="cls-9" d="M27.821,14.685h-.568a.185.185,0,0,0-.142.039c-.026.026-.026.065-.039.1-.026.155-.039.3-.052.452-.013.181-.013.413.142.5a1.431,1.431,0,0,0,.323.065.635.635,0,0,0,.258.065c.181,0,.3-.194.336-.374a.858.858,0,0,0-.039-.568.473.473,0,0,0-.465-.284" transform="translate(-5.908 -3.194)"/>
        <path id="Path_51327" data-name="Path 51327" class="cls-10" d="M39.031,21.86a.411.411,0,0,0-.452-.065.349.349,0,0,0-.232.362.543.543,0,0,0,.181.349c.142.142.4.013.5-.116A.41.41,0,0,0,39.031,21.86Z" transform="translate(-8.402 -4.752)"/>
        <path id="Path_51328" data-name="Path 51328" class="cls-10" d="M37.835,24.581a.586.586,0,0,0-.129-.271c-.077-.077-.232-.039-.323,0a.848.848,0,0,0-.22.155c-.026.026-.052.039-.065.077a.553.553,0,0,0-.065.207c0,.039-.039.22,0,.245a.577.577,0,0,0,.542.052A.5.5,0,0,0,37.835,24.581Z" transform="translate(-8.109 -5.303)"/>
        <path id="Path_51329" data-name="Path 51329" class="cls-9" d="M9.351,45.6a.672.672,0,0,0-.594.323.548.548,0,0,0,.1.659,1.07,1.07,0,0,0,1.007-.013c.181-.168-.065-.465-.168-.71-.155-.09-.323-.181-.491-.258" transform="translate(-1.876 -9.998)"/>
        <path id="Path_51330" data-name="Path 51330" class="cls-9" d="M8.043,40.1a3.546,3.546,0,0,0-.181.633.153.153,0,0,0,.013.129.252.252,0,0,0,.194.09.616.616,0,0,0,.529-.129.352.352,0,0,0,.077-.155.492.492,0,0,0-.155-.568.329.329,0,0,0-.5.155" transform="translate(-1.692 -8.776)"/>
        <path id="Path_51331" data-name="Path 51331" class="cls-9" d="M11.567,42.777c-.026-.065-.077-.168-.142-.194a.62.62,0,0,0-.155,0h-.142a.252.252,0,0,0-.1.013c-.052.026-.1.1-.142.142a.1.1,0,0,0-.052.052.473.473,0,0,0-.052.232c0,.026,0,.232.026.232.129.026.581.065.71.09.077.013-.142.039-.077-.013a.562.562,0,0,0,.077-.09A.66.66,0,0,0,11.567,42.777Z" transform="translate(-2.336 -9.333)"/>
        <path id="Path_51332" data-name="Path 51332" class="cls-10" d="M27.935,60.323a.591.591,0,0,0,.814-.129.92.92,0,0,0,.065-.672.328.328,0,0,0-.065-.168.238.238,0,0,0-.168-.052,3.452,3.452,0,0,0-.517-.013h-.077a.582.582,0,0,0-.181.129.481.481,0,0,0-.142.465A.752.752,0,0,0,27.935,60.323Z" transform="translate(-6.048 -13.01)"/>
        <path id="Path_51333" data-name="Path 51333" class="cls-10" d="M25.848,57.35a.389.389,0,0,0-.207.478.682.682,0,0,0,.374.181.3.3,0,0,0,.323-.22.442.442,0,0,0-.1-.323.529.529,0,0,0-.258-.245c-.116-.026-.271.077-.22.194" transform="translate(-5.602 -12.554)"/>
        <path id="Path_51334" data-name="Path 51334" class="cls-10" d="M37.292,45.877a.582.582,0,0,0-.581.181,1.019,1.019,0,0,0-.22.594.461.461,0,0,0,.065.323.376.376,0,0,0,.4.09.792.792,0,0,0,.62-.529.534.534,0,0,0-.387-.659C37.4,45.851,37.15,45.735,37.292,45.877Z" transform="translate(-7.993 -10.044)"/>
        <path id="Path_51335" data-name="Path 51335" class="cls-10" d="M38.537,41.707a.646.646,0,0,0-.555.517.4.4,0,0,0,.529.4.636.636,0,0,0-.039-.9" transform="translate(-8.321 -9.142)"/>
        <path id="Path_51336" data-name="Path 51336" class="cls-11" d="M27.766,7.983a.285.285,0,0,0-.155.387.431.431,0,0,0,.4.22.241.241,0,0,0,.207-.09.377.377,0,0,0,.026-.116,1.685,1.685,0,0,0-.039-.439,1.572,1.572,0,0,0-.426.013" transform="translate(-6.034 -1.71)"/>
        <path id="Path_51337" data-name="Path 51337" class="cls-11" d="M25.845,10.909a1.054,1.054,0,0,0-.349.077.31.31,0,0,0-.181.284c.013.155.181.258.323.323.116.052.271.1.374.013s.065-.245.142-.362a.43.43,0,0,0,.077-.129c.013-.09-.09-.155-.181-.168s-.194-.026-.232-.1" transform="translate(-5.534 -2.35)"/>
        <path id="Path_51338" data-name="Path 51338" class="cls-11" d="M23.425,7.351a.789.789,0,0,0-.31.271.429.429,0,0,0,.22.62c.245.052.465-.168.594-.387a.184.184,0,0,0,.026-.077.086.086,0,0,0-.052-.065c-.142-.1-.284-.207-.426-.3-.039-.026-.1-.052-.129,0" transform="translate(-5.038 -1.581)"/>
        <path id="Path_51339" data-name="Path 51339" class="cls-11" d="M10.739,10.221a1.145,1.145,0,0,0-.077.517.424.424,0,0,0,.374,0,.814.814,0,0,0,.284-.271.193.193,0,0,0,.039-.09.207.207,0,0,0-.065-.142.465.465,0,0,0-.3-.168.243.243,0,0,0-.258.181" transform="translate(-2.309 -2.178)"/>
        <path id="Path_51340" data-name="Path 51340" class="cls-11" d="M9.992,12.925a.224.224,0,0,0-.052.31.376.376,0,0,0,.323.116c.077-.013.168-.039.194-.1.052-.1-.026-.22-.1-.3s-.194-.194-.323-.155" transform="translate(-2.142 -2.778)"/>
        <path id="Path_51341" data-name="Path 51341" class="cls-11" d="M16.711,4.434a.685.685,0,0,0-.013.426.242.242,0,0,0,.323.065.338.338,0,0,0,.142-.323c-.026-.142-.181-.284-.31-.22" transform="translate(-3.632 -0.924)"/>
        <path id="Path_51342" data-name="Path 51342" class="cls-11" d="M31.227,20.613a.381.381,0,0,0,.1.491.349.349,0,0,0,.478-.1.361.361,0,0,0,.026-.284.37.37,0,0,0-.336-.22.535.535,0,0,0-.387.142c.052.013.09.039.142.052" transform="translate(-6.81 -4.474)"/>
        <path id="Path_51343" data-name="Path 51343" class="cls-11" d="M30.155,44.958c-.013.194-.1.375-.1.568s.129.413.323.413c.168,0,.284-.155.362-.3a3.267,3.267,0,0,0,.168-.284.185.185,0,0,0,.039-.181.156.156,0,0,0-.065-.065,1.3,1.3,0,0,0-.762-.194" transform="translate(-6.577 -9.848)"/>
        <path id="Path_51344" data-name="Path 51344" class="cls-12" d="M30.155,44.958c-.013.194-.1.375-.1.568s.129.413.323.413c.168,0,.284-.155.362-.3a3.267,3.267,0,0,0,.168-.284.185.185,0,0,0,.039-.181.156.156,0,0,0-.065-.065,1.3,1.3,0,0,0-.762-.194" transform="translate(-6.577 -9.848)"/>
        <path id="Path_51345" data-name="Path 51345" class="cls-13" d="M28.727,42.018a.547.547,0,0,0,.31.323.363.363,0,0,0,.426-.452.358.358,0,0,0-.62,0" transform="translate(-6.285 -9.142)"/>
        <path id="Path_51346" data-name="Path 51346" class="cls-13" d="M21.965,46.48a.442.442,0,0,0,.349.555.538.538,0,0,0,.555-.413.153.153,0,0,0-.013-.129.174.174,0,0,0-.116-.065c-.207-.052-.426-.1-.633-.168a1.269,1.269,0,0,0-.065.207" transform="translate(-4.792 -10.144)"/>
        <path id="Path_51347" data-name="Path 51347" class="cls-11" d="M9.59,34.569a.809.809,0,0,0-.039.349.269.269,0,0,0,.529.065.851.851,0,0,0,.039-.4c-.155-.026-.31-.052-.452-.077" transform="translate(-2.064 -7.557)"/>
        <path id="Path_51348" data-name="Path 51348" class="cls-13" d="M8.017,56.816c-.052.168-.09.387.052.5s.374.013.568.052a1,1,0,0,0,.013-.478.435.435,0,0,0-.31-.336.264.264,0,0,0-.323.258h0Z" transform="translate(-1.717 -12.408)"/>
        <path id="Path_51349" data-name="Path 51349" class="cls-13" d="M11.806,58.275c0,.207,0,.4.013.607.142.026.3.039.452.065a.223.223,0,0,0,.129-.013.206.206,0,0,0,.065-.129.685.685,0,0,0-.1-.633c-.155-.155-.491-.116-.517.1" transform="translate(-2.561 -12.744)"/>
        <path id="Path_51350" data-name="Path 51350" class="cls-13" d="M28.861,58.787a.428.428,0,0,0-.142.491.323.323,0,0,0,.465.142.8.8,0,0,0,.1-.452.243.243,0,0,0-.362-.168" transform="translate(-6.277 -12.894)"/>
        <path id="Path_51351" data-name="Path 51351" class="cls-13" d="M37.973,58.751a.55.55,0,0,0,0,.323.193.193,0,0,0,.271.1.178.178,0,0,0,.065-.1.672.672,0,0,0,.065-.349.275.275,0,0,0-.22-.245c-.116-.013-.245.1-.207.207" transform="translate(-8.313 -12.832)"/>
        <path id="Path_51352" data-name="Path 51352" class="cls-13" d="M37.075,38.832a.809.809,0,0,0-.039.349c.026.116.116.232.232.22.181,0,.258-.22.284-.4.026-.155.026-.362-.116-.426s-.3.1-.387.232" transform="translate(-8.112 -8.449)"/>
        <path id="Path_51353" data-name="Path 51353" class="cls-11" d="M38.755,13.882a.535.535,0,0,0,.013.349.221.221,0,0,0,.3.1.258.258,0,0,0,.1-.129.528.528,0,0,0,.052-.31.278.278,0,0,0-.207-.22c-.1-.013-.22.09-.194.194" transform="translate(-8.487 -2.973)"/>
        <path id="Path_51354" data-name="Path 51354" class="cls-11" d="M37.85,16.075c0,.142,0,.271.013.413a.374.374,0,0,0,.413-.31.363.363,0,0,0-.323-.4.445.445,0,0,1-.052.258" transform="translate(-8.293 -3.436)"/>
        <path id="Path_51355" data-name="Path 51355" class="cls-11" d="M40.015,16.51a.9.9,0,0,0-.065.452.306.306,0,0,0,.323.258c.194-.039.232-.31.22-.517-.013-.142-.026-.31-.142-.387s-.336.013-.284.142" transform="translate(-8.753 -3.548)"/>
        <path id="Path_51356" data-name="Path 51356" class="cls-14" d="M13.6,31.39a2.384,2.384,0,0,0-.788-2.17,7.091,7.091,0,0,1-1.95-3.693,7.449,7.449,0,0,1,4.571-7.89,7.473,7.473,0,0,1,10.137,7A5.034,5.034,0,0,1,24.124,28.3c-.478.478-.878,1.033-1.382,1.485a1.9,1.9,0,0,0-.684,1.666c.026.529-.039,1.059-.026,1.588v.1c0,.052-.013.09-.013.129a1.734,1.734,0,0,0,.013.271,1.646,1.646,0,0,0-.258.013,2.481,2.481,0,0,1-.31,0c-.194-.026-.375-.026-.568-.039a.484.484,0,0,1-.129-.013c-.077,0-.142-.013-.22-.013-.026,0-.052-.013-.09-.013h-.568c0-.077-.013-.155-.013-.232-.013-.155-.013-.31-.013-.465,0-.3-.013-.594-.013-.891a.046.046,0,0,0-.052-.052,4.487,4.487,0,0,0-.93.039c0,.181,0,.362-.013.555v.155a1.253,1.253,0,0,1-.013.22c0,.026-.013.039-.013.052a.22.22,0,0,0-.013.09,1.668,1.668,0,0,0,.013.439h-.284a1.7,1.7,0,0,1-.362-.026c-.142-.026-.3-.013-.439-.026a.736.736,0,0,1-.168-.013c-.142,0-.284-.026-.426-.026h-.22a1.272,1.272,0,0,0-.22.026c0-.129.013-.271.013-.4a1.182,1.182,0,0,1,.013-.207c0-.065.013-.129.013-.194,0-.258,0-.517-.013-.788a5.49,5.49,0,0,0-1.033-.09c-.013.3-.026.594-.052.891-.013.142-.013.3-.026.452v.116a.1.1,0,0,1-.013.065c-.013.026-.077.026-.1.026a3.987,3.987,0,0,1-.555-.013c-.077,0-.168-.013-.245-.013-.207-.013-.413-.013-.62-.026-.065,0-.142-.013-.207-.013a.382.382,0,0,0-.129-.026l-.22-.013V32.6a.492.492,0,0,1,.013-.194c.013-.026,0-.052,0-.077v-.194c0-.168.013-.323.013-.491C13.586,31.649,13.586,31.6,13.6,31.39Zm4.184-2.376c.116.013.232.013.349.026.181.013.375.026.555.052-.065-.194-.129-.387-.207-.568-.026-.077-.065-.142-.09-.207s-.065-.116-.09-.181a.078.078,0,0,1-.013-.052c-.013-.065-.039-.116-.052-.181-.065-.155-.116-.323-.181-.491a1.575,1.575,0,0,0-.09-.22.189.189,0,0,1-.026.052c-.013.026-.039.052-.052.077a8.38,8.38,0,0,0-.465.71c-.077.116-.142.245-.22.375-.039.065-.065.129-.1.181l-.039.077a.54.54,0,0,1-.1.155,1.17,1.17,0,0,0-.142.207h.22a1.253,1.253,0,0,0,.22-.013c.026,0,.065-.013.09-.013a.358.358,0,0,1,.116.013c.077,0,.142.013.22.013A.1.1,0,0,1,17.783,29.014Z" transform="translate(-2.341 -3.732)"/>
        <path id="Path_51357" data-name="Path 51357" class="cls-14" d="M13.234,31.01a2.37,2.37,0,0,0-.775-2.131,6.9,6.9,0,0,1-1.911-3.616,7.212,7.212,0,0,1,13.146-5.011A7.419,7.419,0,0,1,24.985,24.4a4.887,4.887,0,0,1-1.421,3.59c-.465.478-.852,1.02-1.356,1.446a1.865,1.865,0,0,0-.672,1.64c.026.517-.039,1.033-.026,1.55v.1c0,.039-.013.09-.013.129a1.565,1.565,0,0,0,.013.258h-.258a2.482,2.482,0,0,1-.31,0c-.181-.026-.374-.026-.555-.039a.358.358,0,0,1-.116-.013c-.077,0-.142-.013-.22-.013-.026,0-.052-.013-.077-.013h-.555c0-.077-.013-.142-.013-.22-.013-.155-.013-.3-.013-.452,0-.3-.013-.581-.013-.878a.046.046,0,0,0-.052-.052,4.242,4.242,0,0,0-.9.039c0,.181,0,.362-.013.542v.155a1.328,1.328,0,0,1-.013.22c0,.026-.013.039-.013.052a.22.22,0,0,0-.013.09,1.572,1.572,0,0,0,.013.426h-.271a1.587,1.587,0,0,1-.349-.026c-.142-.026-.284-.013-.439-.026a.736.736,0,0,1-.168-.013c-.142,0-.271-.026-.413-.026h-.22a1,1,0,0,0-.207.026c0-.129.013-.258.013-.4a.977.977,0,0,1,.013-.194c0-.065.013-.129.013-.194,0-.258,0-.517-.013-.775a6.636,6.636,0,0,0-1.007-.09c-.013.3-.026.581-.039.878-.013.142-.013.3-.026.439v.116a.1.1,0,0,1-.013.065c-.013.026-.078.026-.1.026a3.8,3.8,0,0,1-.542-.013c-.077,0-.168-.013-.245-.013-.207-.013-.413-.013-.607-.026-.065,0-.129-.013-.207-.013-.039,0-.077-.026-.129-.026l-.207-.013v-.478A.415.415,0,0,1,13.234,32c.013-.026,0-.052,0-.077v-.194c0-.155.013-.323.013-.478C13.221,31.255,13.221,31.216,13.234,31.01Zm4.107-2.337c.116.013.232.013.336.026.181.013.362.026.542.052-.065-.181-.116-.374-.194-.568-.026-.077-.065-.142-.09-.207s-.065-.116-.09-.181a.078.078,0,0,1-.013-.052c-.013-.065-.039-.116-.052-.181-.065-.155-.116-.323-.181-.478a1.575,1.575,0,0,0-.09-.22c0,.013-.026.039-.026.052s-.039.052-.052.077c-.155.232-.31.465-.452.7-.077.116-.142.245-.207.362-.039.065-.065.116-.1.181l-.039.077a.366.366,0,0,1-.1.142c-.052.065-.09.129-.142.194h.22a1.253,1.253,0,0,0,.22-.013c.026,0,.065-.013.09-.013a.358.358,0,0,1,.116.013c.077,0,.142.013.22.013A.123.123,0,0,0,17.34,28.672Z" transform="translate(-2.272 -3.713)"/>
        <path id="Path_51358" data-name="Path 51358" d="M22.249,18.164a7.124,7.124,0,0,0-7.8-.956C10.02,19.2,8.832,25.086,11.492,28.017c.374.413.659.891,1.046,1.3a1.612,1.612,0,0,1,.439,1.278,11.066,11.066,0,0,0,0,2.17l2.273.1.039-1.614.878.026v1.5c0,.039-.013.077-.013.129h.22c.155,0,.3.013.452.013.181.013.375.013.568.026.168.013.349.013.517.026.1,0,.207.013.323.013h.039a.116.116,0,0,0,.065-.013c0-.039.013-.09.013-.129v-.013a.078.078,0,0,1,.013-.052c0-.039.013-.077.013-.1V31.426l.878.026-.039,1.6c.142,0,2.389.1,2.389.1V31.091a.794.794,0,0,0-.013-.181,2.58,2.58,0,0,1,.026-.452.984.984,0,0,1,.181-.452c.026-.026.052-.065.077-.09l.1-.1c.065-.065.129-.142.194-.207.129-.142.258-.271.387-.413l.374-.413c.129-.142.245-.271.362-.413s.245-.271.362-.413.232-.271.349-.413c.065-.065.116-.142.181-.207a3.8,3.8,0,0,0,.852-1.847A7.345,7.345,0,0,0,22.249,18.164ZM14.927,30.832H14.8v.194c0,.129-.013.271-.013.4-.013.271-.026.555-.026.826L13.61,32.2c0-.116.013-.232.013-.349.013-.258.026-.517.026-.788s.026-.555.026-.826c0-.1.013-.207.013-.31,0-.052-.013-.1-.013-.142s-.013-.1-.013-.155c0-.026-.013-.039-.013-.065s-.013-.039-.026-.052a.459.459,0,0,0-.052-.116l-.116-.232a2.1,2.1,0,0,0-.142-.22.905.905,0,0,0-.1-.129c-.542-.659-1.059-1.343-1.575-2.027a4.586,4.586,0,0,1-.723-3.37,6.485,6.485,0,0,1,4.21-5.6,6.155,6.155,0,0,1,6.767,1.2,6.5,6.5,0,0,1,2.092,6.754,3.793,3.793,0,0,1-1.033,1.666c-.542.607-1.1,1.2-1.653,1.8-.026.026-.052.039-.065.065s0,.013-.013.026-.013.026-.026.039-.039.052-.052.077-.013.026-.026.039-.013.013-.013.026l-.077.155a1.781,1.781,0,0,0-.1.375.977.977,0,0,0-.013.194V32.5a.018.018,0,0,1-.026,0h-.052a1.111,1.111,0,0,1-.207-.013l-.852-.039c.013-.245.013-.491.026-.723,0-.077.013-.168.013-.245v-.4l-.168-.026a1,1,0,0,0-.194-.026l-.413-.039c-.142-.013-.284-.013-.426-.013H17.82l-.052,1.485-1.149-.052.052-1.459-.207-.039c-.142-.026-.271-.039-.413-.052s-.284-.013-.426-.026-.284,0-.426-.013h-.207" transform="translate(-2.183 -3.587)"/>
        <path id="Path_51359" data-name="Path 51359" d="M19.353,29.144c-.013-.013-.013-.039-.026-.052-.026-.039-.039-.09-.065-.129l-.039-.077c-.013-.026-.026-.039-.039-.065-.052-.077-.09-.168-.142-.245a1.2,1.2,0,0,1-.065-.129,977.58,977.58,0,0,0-.026-.052c-.013,0-.013,0-.013.013s-.013.013-.013.026-.013.026-.013.039a.282.282,0,0,1-.039.065,48696.194,48696.194,0,0,1-.284.491c-.065.1-.116.207-.181.323a.721.721,0,0,1-.065.1.523.523,0,0,0-.065.116,1.136,1.136,0,0,0-.077.129c-.026.039-.052.09-.077.129s-.052.09-.077.142-.052.09-.077.142a15636.367,15636.367,0,0,1-.155.284c-.026.052-.052.09-.077.142s-.052.09-.077.142-.052.09-.077.142-.052.09-.077.129a.523.523,0,0,0-.065.116c-.026.039-.039.077-.065.116s-.039.065-.052.1a.562.562,0,0,0-.052.09l-.039.077a.1.1,0,0,0-.026.052c-.013.013-.013.026-.026.039l-.013.013h.013a1.253,1.253,0,0,1,.22.013h2.621l.465.013H20.5c-.026-.077-.065-.142-.09-.22-.077-.181-1.046-2.2-1.059-2.221Zm-1.33,1.95c.31-.529.594-1.007.917-1.563.22.594.4,1.059.62,1.627C19.03,31.133,18.591,31.107,18.022,31.094Z" transform="translate(-3.742 -6.212)"/>
        <path id="Path_51360" data-name="Path 51360" class="cls-15" d="M8.875,19.09c0,.065.013.116.013.168Zm0,0c0,.065.013.116.013.168Z" transform="translate(-1.917 -4.164)"/>
        <path id="Path_51361" data-name="Path 51361" class="cls-16" d="M8.875,19.09c0,.065.013.116.013.168m-.013-.168c0,.065.013.116.013.168Z" transform="translate(-1.917 -4.164)"/>
        <path id="Path_51362" data-name="Path 51362" class="cls-15" d="M34.3,39.591c-.659-.529-1.149-1.214-1.769-1.808.039-.659.116-1.253.116-1.847-.013-1.627.09-3.254-.039-4.881a8.3,8.3,0,0,1,.465-2.906,12.689,12.689,0,0,0-.039-5.488,16.906,16.906,0,0,1-.129-3.784c.09-1.111.1-2.221.194-3.332a14.464,14.464,0,0,0-.142-4.714,28.772,28.772,0,0,0-.969-4.042,9.3,9.3,0,0,0-1.743-2.751,7.607,7.607,0,0,0-2.363-1.86A5.878,5.878,0,0,0,25.4,1.185C24.2,1.069,23.088.54,21.9.346A19.626,19.626,0,0,0,15.752.5c-2.738.426-5.437.956-7.542,3.048A8.36,8.36,0,0,0,5.77,6.867,5.681,5.681,0,0,1,5.2,7.939c-.891,1.511-.684,2.2-.814,4.158a3.651,3.651,0,0,1-.271,1.227C4,14.641,3.988,13.8,4,14.37c.039,1.718.052,3.435.065,5.14a24.021,24.021,0,0,1-.207,4.623A26.734,26.734,0,0,0,3.562,29a4.345,4.345,0,0,1-.077,1.085,13.259,13.259,0,0,0-.142,3.642c.09,1.653.013,3.293.207,4.985-.956.749-1.9,1.5-2.854,2.221a1.1,1.1,0,0,0-.529.956C.191,43.71.191,45.531.2,47.352a.71.71,0,0,0,.736.8c2.337.142,4.662.284,6.986.439,3.022.194,6.031.375,9.053.568,3.422.22,6.844.452,10.266.672a2.171,2.171,0,0,0,1.291-.323c1.8-1.085,3.6-2.17,5.411-3.228a1.137,1.137,0,0,0,.607-1.1c.013-1.588.052-3.177.09-4.752A.968.968,0,0,0,34.3,39.591ZM4.582,31.429a19.647,19.647,0,0,0,.271-3.254,24.151,24.151,0,0,1,.336-4.21,35.235,35.235,0,0,0,.142-5.837c-.013-.71-.026-1.421-.013-2.118,0-.181.013-.362.026-.542a2.516,2.516,0,0,0,.026-.323.2.2,0,0,1,.077-.129c.052-.065.116-.129.168-.194a.178.178,0,0,1,.052-.039.078.078,0,0,1,.052.013,2.915,2.915,0,0,1,.646.5c0,.013.465.362.465.375s-.284.659-.284.684c.555,0,.413-.181.865-.994.026-.052-.452-.375-.452-.439a.782.782,0,0,1-.142-.271,1.189,1.189,0,0,0-.168-.31c-.039-.052-.077-.09-.116-.142l-.116-.116A.117.117,0,0,1,6.377,14c-.013-.052-.039-.09-.052-.142a3.214,3.214,0,0,1-.142-.374c-.09-.245-.168-.5-.245-.762s-.155-.517-.245-.775c-.052-.142-.1-.271-.155-.413A5.732,5.732,0,0,1,6.661,8.172a2.7,2.7,0,0,0,.387-.8,5.93,5.93,0,0,1,2.079-2.8A9.248,9.248,0,0,1,10.871,3.2c.013-.013.065.026.077.026l.077.039a.366.366,0,0,1,.116.129,1.681,1.681,0,0,1,.1.22c.026.065.052.142.077.207.052.142.1.271.142.413.013.026.013.039.026.052a.045.045,0,0,0,.013.026.13.13,0,0,0,.039.013c.052.013.1.039.155.052.013,0-.052.349-.052.374v.065c0,.052-.013.116-.013.168-.013.116-.013.232-.026.349a.433.433,0,0,0,0,.129c.013.039.026.065.039.1a4.6,4.6,0,0,1,.155.981,3.92,3.92,0,0,0,.155-.465c-.013-.039-.013-.065-.026-.1-.013-.065-.026-.142-.039-.207-.013-.09-.026-.181-.039-.284,0-.039-.013-.065-.013-.1s-.013-.039,0-.065a.26.26,0,0,1,.052-.1c.013-.039.039-.077.052-.116a.329.329,0,0,1,.09.026.184.184,0,0,0,.077.026.571.571,0,0,1,.207.077.27.27,0,0,1,.077.052l.039.077c.065.168.129.349.207.517a.324.324,0,0,0,.052.09.27.27,0,0,0,.077.052c.168.1.349.207.517.31a3.658,3.658,0,0,0-.3-.362,1.437,1.437,0,0,1-.3-.672.629.629,0,0,1-.013-.155c-.129-.09-.258-.168-.387-.258a1.613,1.613,0,0,1-.155-.1.1.1,0,0,1-.026-.065c-.013-.039-.026-.065-.039-.1-.052-.142-.09-.284-.142-.413-.013-.039-.026-.09-.065-.1-.013-.013-.039-.013-.065-.026a.21.21,0,0,1-.065-.116c-.013-.052-.026-.116-.039-.168a.464.464,0,0,1-.026-.142V3.587a1.959,1.959,0,0,1-.039-.271,1.135,1.135,0,0,1,.168-.672c3.939-.581,7.916-1.059,11.377,1.976V6.428a.381.381,0,0,1-.026.168c-.013.013-.013.026-.026.052a.26.26,0,0,1-.052.1c-.039.065-.077.129-.129.207a.893.893,0,0,0-.129.245c.013-.013.026-.013.039-.026l.039-.039a.392.392,0,0,1,.09-.065.889.889,0,0,0,.168-.142.546.546,0,0,0,.065-.09c.026-.039.052-.1.077-.142a.338.338,0,0,0,.077-.168c.013-.026.026-.039.026-.065a.823.823,0,0,0,.026-.09c.013-.065.026-.116.039-.181.052-.258.065-.517.1-.775a2.443,2.443,0,0,1,.065-.3c1.072.839,2.182,1.575,2.337,3.048a20.742,20.742,0,0,0,.7,3.655,3.823,3.823,0,0,1,.194,1.072,44.948,44.948,0,0,1-.271,7.219,26.308,26.308,0,0,0-.207,3.913c0,1.395-.077,2.789-.207,4.171a11.649,11.649,0,0,0,.207,4.016,5.769,5.769,0,0,1-.013,2.1c-.155,1.382-.22,2.776-.31,4.171a3.37,3.37,0,0,1-.155,1.046c-7.025-.387-14.037-.775-21.088-1.175,0,0-.026-.22-.026-.232L4.75,37.86c-.026-.181-.039-.349-.052-.529a3.408,3.408,0,0,1,.013-.517V36.75a.879.879,0,0,1,.026-.194c.013-.065.026-.142.039-.207a3.193,3.193,0,0,1,.142-.465c.013-.026.013-.039.026-.065a.282.282,0,0,1,.065-.039c.336-.129.659-.258.994-.387.039-.013.052-.065.077-.1a.71.71,0,0,1,.09-.116c.026-.026.065-.052.09-.077a.507.507,0,0,0,.1-.181,3.51,3.51,0,0,0,.142-.323,1.258,1.258,0,0,0,.065-.142.047.047,0,0,1,.013-.039.68.68,0,0,1,.181-.155,1.348,1.348,0,0,0,.3-.31c-.1.052-.181.116-.284.181a.477.477,0,0,1-.142.065.1.1,0,0,0-.052.013.013.013,0,0,0-.013.013.716.716,0,0,0-.077.1l-.155.232c-.065.09-.129.181-.194.284s-.1.207-.207.258a.89.89,0,0,1-.1.039c-.323.1-.659.22-.981.323a.654.654,0,0,0-.194.09V35.42c.013-.065,0-.129.013-.181v-.258c0-.181-.013-.349-.013-.529-.013-.349-.039-.7-.052-1.033A6.832,6.832,0,0,1,4.582,31.429ZM4.3,39.81a.862.862,0,0,1,.62-.09c4.145.232,8.291.452,12.436.684q4.068.232,8.149.452c.129.013.258.039.4.052a7.667,7.667,0,0,1,.62,1.692c-7.916-.517-15.768-1.02-23.761-1.537A14.633,14.633,0,0,1,4.3,39.81ZM26.936,48.45a6.036,6.036,0,0,1-1.679-.052.11.11,0,0,1-.065-.039.227.227,0,0,1-.065-.052.836.836,0,0,1-.116-.1c-.077-.077-.129-.181-.207-.258-.026-.026-.065-.052-.077-.077a.728.728,0,0,1-.052-.155.1.1,0,0,0-.013-.052.067.067,0,0,1-.026-.052.982.982,0,0,1-.155-.245.22.22,0,0,1-.013-.09.424.424,0,0,0-.052-.22c-.013-.065-.026-.116-.039-.181a.1.1,0,0,0-.026-.052.348.348,0,0,0-.1-.09c-.09-.1-.181-.194-.271-.284a.709.709,0,0,0-.116-.09c.026.013.039.052.065.077a.342.342,0,0,0,.065.077.6.6,0,0,1,.1.181.273.273,0,0,0,.039.09.746.746,0,0,1,.077.22,1.274,1.274,0,0,1,.039.31c.013.09.013.194.026.284a.538.538,0,0,0,.077.026.1.1,0,0,1,.013.065,1.412,1.412,0,0,0,.1.194l.039.077v.22a.22.22,0,0,1-.013.09c-.026.039-.077.065-.065.116a.846.846,0,0,1-.181,0,.047.047,0,0,1-.039-.013,1.731,1.731,0,0,0-.258-.013c-.168-.013-.336-.026-.5-.026-1.459-.09-2.919-.194-4.378-.284s-2.919-.194-4.378-.284-2.919-.194-4.378-.284S7.4,47.287,5.938,47.2c-.736-.052-1.459-.09-2.2-.142-.362-.026-.736-.052-1.1-.065L2.1,46.952c-.039,0-.529-.026-.529-.039v-1.24l.013-.013.026-.026c.013-.026.026-.039.039-.065.039-.052.065-.09.1-.142s.09-.1.129-.155c.013-.026.026-.039.039-.065a.392.392,0,0,1,.09-.065c.039-.026.077-.039.116-.065a1.4,1.4,0,0,1,.245-.1.339.339,0,0,1,.194-.026.308.308,0,0,1,.142.077,1.345,1.345,0,0,0,.465.245c.039.013.052-.026.077-.039a1.078,1.078,0,0,1,.207-.155.1.1,0,0,1,.052-.026c.039-.026.077-.039.116-.065a1.572,1.572,0,0,1,.491-.09,1.715,1.715,0,0,0-.387-.077.417.417,0,0,0-.22.039l-.026.026c-.013.013-.039.026-.052.039L3.317,45c-.013,0-.013.013-.026.013a.129.129,0,0,0-.065.052.147.147,0,0,1-.077.039.218.218,0,0,1-.065-.026c-.013-.013-.039-.013-.052-.026a1.19,1.19,0,0,0-.1-.065c-.1-.077-.207-.181-.31-.271-.013-.013-.026-.013-.039-.026H2.529c-.039.013-.077.013-.116.026s-.039.013-.065.013H2.309c-.039,0-.077.013-.116.013l-.168.039c-.168.039-.323.077-.491.129v-2.6c8.471.542,16.917,1.1,25.4,1.64ZM24.521,4.22l-.375-.529h-.168c-.026,0-.039-.026-.065-.026l-.387-.31c-.258-.207-.529-.4-.8-.581a11.965,11.965,0,0,0-1.718-1.007,1.848,1.848,0,0,1-.8-.349c.336.052.568.09.8.129a7.531,7.531,0,0,1,2.312.478,8.763,8.763,0,0,0,1.808.426,4.887,4.887,0,0,1,2.415,1.072A2.81,2.81,0,0,1,28.5,5.2c.129.478-.323.684-.607.956v.052c0,.026.013.052.013.077.013.052.039.09.052.142a3.1,3.1,0,0,1,.142.3.728.728,0,0,1,.052.155.372.372,0,0,1,.013.168c0,.026-.039.052-.052.065-.077.1-.168.207-.245.3l.542-.181a.779.779,0,0,1,.1-.1c.039-.026.077-.065.116-.09-.039-.026-.039-.039-.039-.077s-.026-.116-.039-.168l-.039-.155c0-.026-.013-.052-.013-.077s-.026-.065-.013-.077c.142-.284.452-.336.607-.517A1.824,1.824,0,0,1,30.849,7.4c.349,1.1.439,2.26.762,3.358.555,1.963.207,3.9.065,5.85a26.874,26.874,0,0,1-.181,3.383,1.642,1.642,0,0,1-.529,1.072,6.885,6.885,0,0,0-.039,1.356.931.931,0,0,1-.271.323,2.725,2.725,0,0,1-.3.245L30.345,23a2.144,2.144,0,0,0-.271.207l-.116.116a1.352,1.352,0,0,1-.142.1c-.09.052-.181.116-.271.181-.026.026-.065.039-.077.077l-.052.052-.052.052c-.013.013-.026.026-.026.039s.013.013.013.026a1.944,1.944,0,0,1,.142.284.562.562,0,0,1,.052.09c.013.013.013.026.013.052a.344.344,0,0,1,.039.155v.077c-.013.052.013.1-.026.142s-.116.1-.168.155a.342.342,0,0,1-.077.065c-.052.052-.116.09-.168.142-.013.013-.026.013-.026.026a.058.058,0,0,0,0,.065c.039.284.077.581.116.865,0,.039.013.09.013.142a.4.4,0,0,0-.013.129,2.727,2.727,0,0,0,.026.336l.245-1.2c.181-.336.633-.4.749-.736,0-.3-.271-.375-.362-.633.478-.349.969-.71,1.511-1.111.013-.258.039-.568.052-.891.181.039.207.181.22.3.09,1.743.517,3.487.142,5.243-.129.633-.349,1.24-.426,1.872-.207,1.782.065,3.551.026,5.32a9.353,9.353,0,0,1-.207,2.725c-1.291.672-2.6,1.278-4,1.95.065-.788.09-1.485.168-2.182a29.674,29.674,0,0,1,.31-3.383,3.338,3.338,0,0,0-.052-1.472,12.327,12.327,0,0,1-.194-4.662,48.707,48.707,0,0,0,.181-5.14c.026-1.718.284-3.409.375-5.127a24.092,24.092,0,0,0-.065-5.372c-.245-1.408-.646-2.789-.814-4.223a3.972,3.972,0,0,0-1.485-2.621c-.31-.258-.594-.529-.9-.8-.077-.065-.142-.129-.22-.207-.013-.013-.026-.013-.026-.026-.026-.026-.026-.052-.039-.09Zm6.793,35.293a.045.045,0,0,0,.026.013c.013,0,.013,0,.026.013a.067.067,0,0,1,.052.026.27.27,0,0,1,.052.077c0,.039.013.077.013.129a2.086,2.086,0,0,1,0,.284.53.53,0,0,1-.013.142v.052c0,.026.026.026.052.039a.151.151,0,0,1,.077.077.085.085,0,0,1,.013.077.1.1,0,0,1-.026.065.228.228,0,0,1-.116.1,2.774,2.774,0,0,0-.336.181c-1.033.542-2.066,1.1-3.151,1.666a9.551,9.551,0,0,1-.672-1.666c1.433-.672,2.854-1.343,4.287-2.027A5.506,5.506,0,0,1,32.721,39.9a1.84,1.84,0,0,1-.684.4l-.077-.039c-.026-.013-.065-.039-.09-.052a.193.193,0,0,0-.09-.039.339.339,0,0,1-.116-.065c-.013-.013-.013-.026-.013-.052a.549.549,0,0,1-.026-.142.951.951,0,0,0-.052-.181c-.013-.052-.039-.116-.052-.168Zm.878,3.5v-.194a.233.233,0,0,1,.026-.129c.013-.026.013-.039.026-.052s.013-.013.013-.026a1.683,1.683,0,0,1,.129-.194,1.235,1.235,0,0,0,.323-.917.762.762,0,0,1,.529-.207c.09,1.266.026,2.583-.013,3.926-1.627.969-3.254,1.937-4.946,2.931V43.775c1.317-.7,2.621-1.382,3.939-2.066a.453.453,0,0,1,.077.181.433.433,0,0,1,0,.129c0,.026-.013.039-.026.065s-.013.026-.026.052l-.052.052c-.026.013-.039.039-.065.065a.393.393,0,0,0-.065.09.067.067,0,0,0-.026.052.1.1,0,0,0-.026.065,1.809,1.809,0,0,1-.129.207.159.159,0,0,0-.052.1.047.047,0,0,0,.013.039v.5c0,.09.013.168.013.258a.379.379,0,0,1-.052.207l-.039.039a.045.045,0,0,0-.013.026c0,.013-.013.013-.026.026a1.576,1.576,0,0,1-.323.258.619.619,0,0,0,.22-.065c.052-.026.1-.065.168-.09.013,0,.026-.026.052-.026h.013a1.2,1.2,0,0,0,.065-.129c.013-.013.013-.039.026-.065s.013-.039.026-.065.013-.026.013-.039a.728.728,0,0,1,.052-.155c.013-.026.013-.052.026-.077s.013-.026.013-.052a.1.1,0,0,1,.013-.065.071.071,0,0,1,.039-.065h.026Z" transform="translate(0 0)"/>
        <path id="Path_51363" data-name="Path 51363" class="cls-16" d="M24.521,4.22l-.375-.529h-.168c-.026,0-.039-.026-.065-.026l-.387-.31c-.258-.207-.529-.4-.8-.581a11.965,11.965,0,0,0-1.718-1.007,1.848,1.848,0,0,1-.8-.349c.336.052.568.09.8.129a7.531,7.531,0,0,1,2.312.478,8.763,8.763,0,0,0,1.808.426,4.887,4.887,0,0,1,2.415,1.072A2.81,2.81,0,0,1,28.5,5.2c.129.478-.323.684-.607.956v.052c0,.026.013.052.013.077.013.052.039.09.052.142a3.1,3.1,0,0,1,.142.3.728.728,0,0,1,.052.155.372.372,0,0,1,.013.168c0,.026-.039.052-.052.065-.077.1-.168.207-.245.3l.542-.181a.779.779,0,0,1,.1-.1c.039-.026.077-.065.116-.09-.039-.026-.039-.039-.039-.077s-.026-.116-.039-.168l-.039-.155c0-.026-.013-.052-.013-.077s-.026-.065-.013-.077c.142-.284.452-.336.607-.517A1.824,1.824,0,0,1,30.849,7.4c.349,1.1.439,2.26.762,3.358.555,1.963.207,3.9.065,5.85a26.874,26.874,0,0,1-.181,3.383,1.642,1.642,0,0,1-.529,1.072,6.885,6.885,0,0,0-.039,1.356.931.931,0,0,1-.271.323,2.725,2.725,0,0,1-.3.245L30.345,23a2.144,2.144,0,0,0-.271.207l-.116.116a1.352,1.352,0,0,1-.142.1c-.09.052-.181.116-.271.181-.026.026-.065.039-.077.077l-.052.052-.052.052c-.013.013-.026.026-.026.039s.013.013.013.026a1.944,1.944,0,0,1,.142.284.562.562,0,0,1,.052.09c.013.013.013.026.013.052a.344.344,0,0,1,.039.155v.077c-.013.052.013.1-.026.142s-.116.1-.168.155a.342.342,0,0,1-.077.065c-.052.052-.116.09-.168.142-.013.013-.026.013-.026.026a.058.058,0,0,0,0,.065c.039.284.077.581.116.865,0,.039.013.09.013.142a.4.4,0,0,0-.013.129,2.727,2.727,0,0,0,.026.336l.245-1.2c.181-.336.633-.4.749-.736,0-.3-.271-.375-.362-.633.478-.349.969-.71,1.511-1.111.013-.258.039-.568.052-.891.181.039.207.181.22.3.09,1.743.517,3.487.142,5.243-.129.633-.349,1.24-.426,1.872-.207,1.782.065,3.551.026,5.32a9.353,9.353,0,0,1-.207,2.725c-1.291.672-2.6,1.278-4,1.95.065-.788.09-1.485.168-2.182a29.674,29.674,0,0,1,.31-3.383,3.338,3.338,0,0,0-.052-1.472,12.327,12.327,0,0,1-.194-4.662,48.707,48.707,0,0,0,.181-5.14c.026-1.718.284-3.409.375-5.127a24.092,24.092,0,0,0-.065-5.372c-.245-1.408-.646-2.789-.814-4.223a3.972,3.972,0,0,0-1.485-2.621c-.31-.258-.594-.529-.9-.8C24.663,4.362,24.6,4.3,24.521,4.22Zm0,0c-.013-.013-.026-.013-.026-.026-.026-.026-.026-.052-.039-.09Zm7,35.345c.013.052.039.116.052.168a.951.951,0,0,1,.052.181.549.549,0,0,0,.026.142c0,.026,0,.039.013.052a.339.339,0,0,0,.116.065.193.193,0,0,1,.09.039c.026.013.065.039.09.052l.077.039a1.84,1.84,0,0,0,.684-.4A5.506,5.506,0,0,0,31.6,38.764c-1.433.684-2.854,1.356-4.287,2.027a9.551,9.551,0,0,0,.672,1.666c1.085-.568,2.118-1.124,3.151-1.666a2.774,2.774,0,0,1,.336-.181.228.228,0,0,0,.116-.1.1.1,0,0,0,.026-.065.085.085,0,0,0-.013-.077.151.151,0,0,0-.077-.077c-.026-.013-.052-.013-.052-.039V40.2a.53.53,0,0,0,.013-.142,2.086,2.086,0,0,0,0-.284c0-.052-.013-.09-.013-.129a.27.27,0,0,0-.052-.077.067.067,0,0,0-.052-.026c-.013-.013-.013-.013-.026-.013a.045.045,0,0,1-.026-.013Zm0,0-.271-.1m3.048.129c-.659-.529-1.149-1.214-1.769-1.808.039-.659.116-1.253.116-1.847-.013-1.627.09-3.254-.039-4.881a8.3,8.3,0,0,1,.465-2.906,12.689,12.689,0,0,0-.039-5.488,16.906,16.906,0,0,1-.129-3.784c.09-1.111.1-2.221.194-3.332a14.464,14.464,0,0,0-.142-4.714,28.772,28.772,0,0,0-.969-4.042,9.3,9.3,0,0,0-1.743-2.751,7.607,7.607,0,0,0-2.363-1.86A5.878,5.878,0,0,0,25.4,1.185C24.2,1.069,23.088.54,21.9.346A19.626,19.626,0,0,0,15.752.5c-2.738.426-5.437.956-7.542,3.048A8.36,8.36,0,0,0,5.77,6.867,5.681,5.681,0,0,1,5.2,7.939c-.891,1.511-.684,2.2-.814,4.158a3.651,3.651,0,0,1-.271,1.227C4,14.641,3.988,13.8,4,14.37c.039,1.718.052,3.435.065,5.14a24.021,24.021,0,0,1-.207,4.623A26.734,26.734,0,0,0,3.562,29a4.345,4.345,0,0,1-.077,1.085,13.259,13.259,0,0,0-.142,3.642c.09,1.653.013,3.293.207,4.985-.956.749-1.9,1.5-2.854,2.221a1.1,1.1,0,0,0-.529.956C.191,43.71.191,45.531.2,47.352a.71.71,0,0,0,.736.8c2.337.142,4.662.284,6.986.439,3.022.194,6.031.375,9.053.568,3.422.22,6.844.452,10.266.672a2.171,2.171,0,0,0,1.291-.323c1.8-1.085,3.6-2.17,5.411-3.228a1.137,1.137,0,0,0,.607-1.1c.013-1.588.052-3.177.09-4.752A.968.968,0,0,0,34.3,39.591ZM4.582,31.429a19.647,19.647,0,0,0,.271-3.254,24.151,24.151,0,0,1,.336-4.21,35.235,35.235,0,0,0,.142-5.837c-.013-.71-.026-1.421-.013-2.118,0-.181.013-.362.026-.542a2.516,2.516,0,0,0,.026-.323.2.2,0,0,1,.077-.129c.052-.065.116-.129.168-.194a.178.178,0,0,1,.052-.039.078.078,0,0,1,.052.013,2.915,2.915,0,0,1,.646.5c0,.013.465.362.465.375s-.284.659-.284.684c.555,0,.413-.181.865-.994.026-.052-.452-.375-.452-.439a.782.782,0,0,1-.142-.271,1.189,1.189,0,0,0-.168-.31c-.039-.052-.077-.09-.116-.142l-.116-.116A.117.117,0,0,1,6.377,14c-.013-.052-.039-.09-.052-.142a3.214,3.214,0,0,1-.142-.374c-.09-.245-.168-.5-.245-.762s-.155-.517-.245-.775c-.052-.142-.1-.271-.155-.413A5.732,5.732,0,0,1,6.661,8.172a2.7,2.7,0,0,0,.387-.8,5.93,5.93,0,0,1,2.079-2.8A9.248,9.248,0,0,1,10.871,3.2c.013-.013.065.026.077.026l.077.039a.366.366,0,0,1,.116.129,1.681,1.681,0,0,1,.1.22c.026.065.052.142.077.207.052.142.1.271.142.413.013.026.013.039.026.052a.045.045,0,0,0,.013.026.13.13,0,0,0,.039.013c.052.013.1.039.155.052.013,0-.052.349-.052.374v.065c0,.052-.013.116-.013.168-.013.116-.013.232-.026.349a.433.433,0,0,0,0,.129c.013.039.026.065.039.1a4.6,4.6,0,0,1,.155.981,3.92,3.92,0,0,0,.155-.465c-.013-.039-.013-.065-.026-.1-.013-.065-.026-.142-.039-.207-.013-.09-.026-.181-.039-.284,0-.039-.013-.065-.013-.1s-.013-.039,0-.065a.26.26,0,0,1,.052-.1c.013-.039.039-.077.052-.116a.329.329,0,0,1,.09.026.184.184,0,0,0,.077.026.571.571,0,0,1,.207.077.27.27,0,0,1,.077.052l.039.077c.065.168.129.349.207.517a.324.324,0,0,0,.052.09.27.27,0,0,0,.077.052c.168.1.349.207.517.31a3.658,3.658,0,0,0-.3-.362,1.437,1.437,0,0,1-.3-.672.629.629,0,0,1-.013-.155c-.129-.09-.258-.168-.387-.258a1.613,1.613,0,0,1-.155-.1.1.1,0,0,1-.026-.065c-.013-.039-.026-.065-.039-.1-.052-.142-.09-.284-.142-.413-.013-.039-.026-.09-.065-.1-.013-.013-.039-.013-.065-.026a.21.21,0,0,1-.065-.116c-.013-.052-.026-.116-.039-.168a.464.464,0,0,1-.026-.142V3.587a1.959,1.959,0,0,1-.039-.271,1.135,1.135,0,0,1,.168-.672c3.939-.581,7.916-1.059,11.377,1.976V6.428a.381.381,0,0,1-.026.168c-.013.013-.013.026-.026.052a.26.26,0,0,1-.052.1c-.039.065-.077.129-.129.207a.893.893,0,0,0-.129.245c.013-.013.026-.013.039-.026l.039-.039a.392.392,0,0,1,.09-.065.889.889,0,0,0,.168-.142.546.546,0,0,0,.065-.09c.026-.039.052-.1.077-.142a.338.338,0,0,0,.077-.168c.013-.026.026-.039.026-.065a.823.823,0,0,0,.026-.09c.013-.065.026-.116.039-.181.052-.258.065-.517.1-.775a2.443,2.443,0,0,1,.065-.3c1.072.839,2.182,1.575,2.337,3.048a20.742,20.742,0,0,0,.7,3.655,3.823,3.823,0,0,1,.194,1.072,44.948,44.948,0,0,1-.271,7.219,26.308,26.308,0,0,0-.207,3.913c0,1.395-.077,2.789-.207,4.171a11.649,11.649,0,0,0,.207,4.016,5.769,5.769,0,0,1-.013,2.1c-.155,1.382-.22,2.776-.31,4.171a3.37,3.37,0,0,1-.155,1.046c-7.025-.387-14.037-.775-21.088-1.175,0,0-.026-.22-.026-.232L4.75,37.86c-.026-.181-.039-.349-.052-.529a3.408,3.408,0,0,1,.013-.517V36.75a.879.879,0,0,1,.026-.194c.013-.065.026-.142.039-.207a3.193,3.193,0,0,1,.142-.465c.013-.026.013-.039.026-.065a.282.282,0,0,1,.065-.039c.336-.129.659-.258.994-.387.039-.013.052-.065.077-.1a.71.71,0,0,1,.09-.116c.026-.026.065-.052.09-.077a.507.507,0,0,0,.1-.181,3.51,3.51,0,0,0,.142-.323,1.258,1.258,0,0,0,.065-.142.047.047,0,0,1,.013-.039.68.68,0,0,1,.181-.155,1.348,1.348,0,0,0,.3-.31c-.1.052-.181.116-.284.181a.477.477,0,0,1-.142.065.1.1,0,0,0-.052.013.013.013,0,0,0-.013.013.716.716,0,0,0-.077.1l-.155.232c-.065.09-.129.181-.194.284s-.1.207-.207.258a.89.89,0,0,1-.1.039c-.323.1-.659.22-.981.323a.654.654,0,0,0-.194.09V35.42c.013-.065,0-.129.013-.181v-.258c0-.181-.013-.349-.013-.529-.013-.349-.039-.7-.052-1.033A6.832,6.832,0,0,1,4.582,31.429ZM4.3,39.81a.862.862,0,0,1,.62-.09c4.145.232,8.291.452,12.436.684q4.068.232,8.149.452c.129.013.258.039.4.052a7.667,7.667,0,0,1,.62,1.692c-7.916-.517-15.768-1.02-23.761-1.537A14.633,14.633,0,0,1,4.3,39.81ZM26.936,48.45a6.036,6.036,0,0,1-1.679-.052.11.11,0,0,1-.065-.039.227.227,0,0,1-.065-.052.836.836,0,0,1-.116-.1c-.077-.077-.129-.181-.207-.258-.026-.026-.065-.052-.077-.077a.728.728,0,0,1-.052-.155.1.1,0,0,0-.013-.052.067.067,0,0,1-.026-.052.982.982,0,0,1-.155-.245.22.22,0,0,1-.013-.09.424.424,0,0,0-.052-.22c-.013-.065-.026-.116-.039-.181a.1.1,0,0,0-.026-.052.348.348,0,0,0-.1-.09c-.09-.1-.181-.194-.271-.284a.709.709,0,0,0-.116-.09c.026.013.039.052.065.077a.342.342,0,0,0,.065.077.6.6,0,0,1,.1.181.273.273,0,0,0,.039.09.746.746,0,0,1,.077.22,1.274,1.274,0,0,1,.039.31c.013.09.013.194.026.284a.538.538,0,0,0,.077.026.1.1,0,0,1,.013.065,1.412,1.412,0,0,0,.1.194l.039.077v.22a.22.22,0,0,1-.013.09c-.026.039-.077.065-.065.116a.846.846,0,0,1-.181,0,.047.047,0,0,1-.039-.013,1.731,1.731,0,0,0-.258-.013c-.168-.013-.336-.026-.5-.026-1.459-.09-2.919-.194-4.378-.284s-2.919-.194-4.378-.284-2.919-.194-4.378-.284S7.4,47.287,5.938,47.2c-.736-.052-1.459-.09-2.2-.142-.362-.026-.736-.052-1.1-.065L2.1,46.952c-.039,0-.529-.026-.529-.039v-1.24l.013-.013.026-.026c.013-.026.026-.039.039-.065.039-.052.065-.09.1-.142s.09-.1.129-.155c.013-.026.026-.039.039-.065a.392.392,0,0,1,.09-.065c.039-.026.077-.039.116-.065a1.4,1.4,0,0,1,.245-.1.339.339,0,0,1,.194-.026.308.308,0,0,1,.142.077,1.345,1.345,0,0,0,.465.245c.039.013.052-.026.077-.039a1.078,1.078,0,0,1,.207-.155.1.1,0,0,1,.052-.026c.039-.026.077-.039.116-.065a1.572,1.572,0,0,1,.491-.09,1.715,1.715,0,0,0-.387-.077.417.417,0,0,0-.22.039l-.026.026c-.013.013-.039.026-.052.039L3.317,45c-.013,0-.013.013-.026.013a.129.129,0,0,0-.065.052.147.147,0,0,1-.077.039.218.218,0,0,1-.065-.026c-.013-.013-.039-.013-.052-.026a1.19,1.19,0,0,0-.1-.065c-.1-.077-.207-.181-.31-.271-.013-.013-.026-.013-.039-.026H2.529c-.039.013-.077.013-.116.026s-.039.013-.065.013H2.309c-.039,0-.077.013-.116.013l-.168.039c-.168.039-.323.077-.491.129v-2.6c8.471.542,16.917,1.1,25.4,1.64Zm5.256-5.437v-.194a.233.233,0,0,1,.026-.129c.013-.026.013-.039.026-.052s.013-.013.013-.026a1.683,1.683,0,0,1,.129-.194,1.235,1.235,0,0,0,.323-.917.762.762,0,0,1,.529-.207c.09,1.266.026,2.583-.013,3.926-1.627.969-3.254,1.937-4.946,2.931V43.775c1.317-.7,2.621-1.382,3.939-2.066a.453.453,0,0,1,.077.181.433.433,0,0,1,0,.129c0,.026-.013.039-.026.065s-.013.026-.026.052l-.052.052c-.026.013-.039.039-.065.065a.393.393,0,0,0-.065.09.067.067,0,0,0-.026.052.1.1,0,0,0-.026.065,1.809,1.809,0,0,1-.129.207.159.159,0,0,0-.052.1.047.047,0,0,0,.013.039v.5c0,.09.013.168.013.258a.379.379,0,0,1-.052.207l-.039.039a.045.045,0,0,0-.013.026c0,.013-.013.013-.026.026a1.576,1.576,0,0,1-.323.258.619.619,0,0,0,.22-.065c.052-.026.1-.065.168-.09.013,0,.026-.026.052-.026h.013a1.2,1.2,0,0,0,.065-.129c.013-.013.013-.039.026-.065s.013-.039.026-.065.013-.026.013-.039a.728.728,0,0,1,.052-.155c.013-.026.013-.052.026-.077s.013-.026.013-.052a.1.1,0,0,1,.013-.065.071.071,0,0,1,.039-.065h.026Z" transform="translate(0 0)"/>
        <path id="Path_51364" data-name="Path 51364" class="cls-6" d="M22.246,25.994a1.741,1.741,0,0,0-.116,1.614.807.807,0,0,0,.3.387,1.012,1.012,0,0,0,.943-.142,1.821,1.821,0,0,0,.943-.865,1.171,1.171,0,0,0-.077-.93,1.731,1.731,0,0,0-.323-.478c-.09-.09-.168-.207-.31-.22a1.427,1.427,0,0,0-.943.22A1.571,1.571,0,0,0,22.246,25.994Z" transform="translate(-4.802 -5.542)"/>
        <path id="Path_51365" data-name="Path 51365" class="cls-6" d="M14.73,26.035a1.349,1.349,0,0,0-.194.581,1.936,1.936,0,0,0,.3.981.393.393,0,0,0,.116.168.434.434,0,0,0,.181.065,1.92,1.92,0,0,0,1.73-.672,1.145,1.145,0,0,0,.181-.323,1.542,1.542,0,0,0,.039-.542.854.854,0,0,0-.555-.943,3.057,3.057,0,0,0-.465-.22.689.689,0,0,0-.362.052,1.732,1.732,0,0,0-.7.478c-.052.065-.1.116-.155.181a.453.453,0,0,0-.065.1C14.769,25.957,14.756,26.009,14.73,26.035Z" transform="translate(-3.162 -5.492)"/>
        <path id="Path_51366" data-name="Path 51366" d="M15.343,28.052a1.782,1.782,0,1,1,1.782-1.782A1.786,1.786,0,0,1,15.343,28.052Zm0-3.048a1.266,1.266,0,1,0,1.265,1.266A1.268,1.268,0,0,0,15.343,25Z" transform="translate(-2.948 -5.352)"/>
        <path id="Path_51367" data-name="Path 51367" d="M22.694,28.217a1.782,1.782,0,1,1,1.782-1.782A1.786,1.786,0,0,1,22.694,28.217Zm0-3.048a1.266,1.266,0,1,0,1.266,1.266A1.268,1.268,0,0,0,22.694,25.17Z" transform="translate(-4.565 -5.389)"/>
        <path id="Path_51368" data-name="Path 51368" d="M14.611,27.528c-.181-.271-.62-.581-.62-.891,0-.917.439-1.653,1.356-1.653h.7a3.017,3.017,0,0,1,.284.3,1.489,1.489,0,0,0-.336-.039,1.4,1.4,0,0,0-1.007,2.363Z" transform="translate(-3.042 -5.462)"/>
        <path id="Path_51369" data-name="Path 51369" d="M22.375,27.765c-.129-.013-.827-.284-.956-.309-.181-.271,0-1.278,0-1.614,0-.878,1.059-.788,1.924-.839l.258.387a1.589,1.589,0,0,0-.258-.026,1.4,1.4,0,0,0-1.395,1.395A1.469,1.469,0,0,0,22.375,27.765Z" transform="translate(-4.659 -5.465)"/>
      </g>
    </g>
  </g>
</svg>
