<svg xmlns="http://www.w3.org/2000/svg" xmlns:xlink="http://www.w3.org/1999/xlink" width="114" height="64" viewBox="0 0 114 64">
  <defs>
    <style>
      .cls-1 {
        fill: #fff;
      }

      .cls-2 {
        fill: none;
      }

      .cls-3 {
        clip-path: url(#clip-path);
      }

      .cls-4 {
        fill: #1a5aff;
      }

      .cls-5 {
        clip-path: url(#clip-path-2);
      }

      .cls-6 {
        fill: #fcfdfe;
      }

      .cls-7 {
        fill: #fafbfd;
      }

      .cls-8 {
        clip-path: url(#clip-path-3);
      }

      .cls-9 {
        fill: #2775ca;
      }
    </style>
    <clipPath id="clip-path">
      <circle id="Ellipse_1805" data-name="Ellipse 1805" class="cls-1" cx="32" cy="32" r="32" transform="translate(-20329 -24913)"/>
    </clipPath>
    <clipPath id="clip-path-2">
      <rect id="Rectangle_5462" data-name="Rectangle 5462" class="cls-2" width="32.536" height="32.931"/>
    </clipPath>
    <clipPath id="clip-path-3">
      <circle id="Ellipse_2565" data-name="Ellipse 2565" class="cls-1" cx="32" cy="32" r="32" transform="translate(-20159 -22253)"/>
    </clipPath>
  </defs>
  <g id="Group_13460" data-name="Group 13460" transform="translate(20329 24913)">
    <g id="Mask_Group_572" data-name="Mask Group 572" class="cls-3">
      <g id="Group_13459" data-name="Group 13459" transform="translate(-18094.76 -22422.439)">
        <circle id="Ellipse_2561" data-name="Ellipse 2561" class="cls-4" cx="32" cy="32" r="32" transform="translate(-2234.24 -2490.56)"/>
        <g id="Group_13458" data-name="Group 13458" transform="translate(-2218.508 -2474)">
          <g id="Group_13457" data-name="Group 13457" class="cls-5">
            <path id="Path_32582" data-name="Path 32582" class="cls-6" d="M19.482,10.886c-.006,1.873,0,3.7,0,5.536s0,3.667,0,5.5V32.912c-.131.008-.225.018-.32.018H8.981c-.053,0-.106,0-.159,0-.164-.016-.192-.045-.2-.213,0-.053,0-.106,0-.159q0-11.028,0-22.056a9.187,9.187,0,0,1,.242-1.985,10.765,10.765,0,0,1,2.2-4.534A10.612,10.612,0,0,1,14.146,1.4,10.272,10.272,0,0,1,17.192.256,9.4,9.4,0,0,1,18.917.041C19.506.035,20.1,0,20.684,0Q25.311,0,29.936,0C30.3,0,30.3,0,30.3.362V10.544c0,.035,0,.071,0,.106-.007.221-.017.235-.248.235-.837,0-1.674,0-2.512,0H19.482" transform="translate(2.232)"/>
            <path id="Path_32583" data-name="Path 32583" class="cls-7" d="M.032,10.866C-.023,10.441,0,.224.056.016.126.011.2,0,.28,0H10.586c.035,0,.071,0,.106,0,.175.013.217.058.2.232-.02.281-.029.563-.069.841-.077.539-.142,1.082-.268,1.61A10.405,10.405,0,0,1,9.87,4.616,10.636,10.636,0,0,1,8.1,7.29,10.833,10.833,0,0,1,5.267,9.545,10.721,10.721,0,0,1,2.5,10.61a10.164,10.164,0,0,1-2.273.275c-.06,0-.119-.011-.191-.018"/>
          </g>
        </g>
      </g>
    </g>
    <g id="Mask_Group_576" data-name="Mask Group 576" class="cls-8" transform="translate(-120 -2660)">
      <g id="usd-coin-usdc-logo" transform="translate(-20159 -22253)">
        <path id="Path_32584" data-name="Path 32584" class="cls-9" d="M32,64A32,32,0,1,0,0,32,31.923,31.923,0,0,0,32,64Z"/>
        <path id="Path_32585" data-name="Path 32585" class="cls-1" d="M40.8,37.067c0-4.667-2.8-6.267-8.4-6.933-4-.533-4.8-1.6-4.8-3.467s1.333-3.067,4-3.067c2.4,0,3.733.8,4.4,2.8a1,1,0,0,0,.933.667h2.133A.911.911,0,0,0,40,26.133V26a6.661,6.661,0,0,0-6-5.467v-3.2c0-.533-.4-.933-1.067-1.067h-2c-.533,0-.933.4-1.067,1.067V20.4c-4,.533-6.533,3.2-6.533,6.533,0,4.4,2.667,6.133,8.267,6.8,3.733.667,4.933,1.467,4.933,3.6s-1.867,3.6-4.4,3.6c-3.467,0-4.667-1.467-5.067-3.467a.974.974,0,0,0-.933-.8H23.867a.911.911,0,0,0-.933.933v.133c.533,3.333,2.667,5.733,7.067,6.4v3.2c0,.533.4.933,1.067,1.067h2c.533,0,.933-.4,1.067-1.067v-3.2c4-.667,6.667-3.467,6.667-7.067Z"/>
        <path id="Path_32586" data-name="Path 32586" class="cls-1" d="M25.2,51.067a19.952,19.952,0,0,1,0-37.467,1.338,1.338,0,0,0,.8-1.333V10.4a1.013,1.013,0,0,0-.8-1.067.8.8,0,0,0-.533.133,23.994,23.994,0,0,0,0,45.733.811.811,0,0,0,1.2-.533C26,54.533,26,54.4,26,54.133V52.267A1.776,1.776,0,0,0,25.2,51.067Zm14.133-41.6a.811.811,0,0,0-1.2.533c-.133.133-.133.267-.133.533V12.4a1.769,1.769,0,0,0,.8,1.333,19.952,19.952,0,0,1,0,37.467,1.338,1.338,0,0,0-.8,1.333V54.4a1.013,1.013,0,0,0,.8,1.067.8.8,0,0,0,.533-.133,24.1,24.1,0,0,0,0-45.867Z"/>
      </g>
    </g>
  </g>
</svg>
