<svg xmlns="http://www.w3.org/2000/svg" xmlns:xlink="http://www.w3.org/1999/xlink" width="114" height="64" viewBox="0 0 114 64">
  <defs>
    <style>
      .cls-1 {
        fill: #fff;
      }

      .cls-2 {
        clip-path: url(#clip-path);
      }

      .cls-3 {
        clip-path: url(#clip-path-2);
      }

      .cls-4 {
        fill: #2775ca;
      }

      .cls-5 {
        clip-path: url(#clip-path-3);
      }

      .cls-6 {
        fill: #101010;
        stroke: #fff;
        stroke-width: 2.953px;
      }

      .cls-7 {
        fill: #00ff1a;
        fill-rule: evenodd;
      }
    </style>
    <clipPath id="clip-path">
      <circle id="Ellipse_5569" data-name="Ellipse 5569" class="cls-1" cx="32" cy="32" r="32" transform="translate(-21241 -19922)"/>
    </clipPath>
    <clipPath id="clip-path-2">
      <circle id="Ellipse_1807" data-name="Ellipse 1807" class="cls-1" cx="32" cy="32" r="32" transform="translate(-24693 -23472)"/>
    </clipPath>
    <clipPath id="clip-path-3">
      <circle id="Ellipse_5482" data-name="Ellipse 5482" class="cls-1" cx="32" cy="32" r="32" transform="translate(-22107 -19604)"/>
    </clipPath>
  </defs>
  <g id="Group_20082" data-name="Group 20082" transform="translate(22157 19604)">
    <g id="Mask_Group_767" data-name="Mask Group 767" class="cls-2" transform="translate(-916 318)">
      <g id="Mask_Group_73" data-name="Mask Group 73" class="cls-3" transform="translate(3452 3550)">
        <g id="usd-coin-usdc-logo" transform="translate(-24693 -23472)">
          <path id="Path_17670" data-name="Path 17670" class="cls-4" d="M32,64A31.923,31.923,0,1,0,9.35,54.65,32,32,0,0,0,32,64Z"/>
          <path id="Path_17671" data-name="Path 17671" class="cls-1" d="M40.8,37.067c0-4.667-2.8-6.267-8.4-6.933-4-.533-4.8-1.6-4.8-3.467s1.333-3.067,4-3.067c2.4,0,3.733.8,4.4,2.8a1,1,0,0,0,.933.667h2.133A.911.911,0,0,0,40,26.133V26a6.661,6.661,0,0,0-6-5.467v-3.2c0-.533-.4-.933-1.067-1.067h-2c-.533,0-.933.4-1.067,1.067V20.4c-4,.533-6.533,3.2-6.533,6.533,0,4.4,2.667,6.133,8.267,6.8,3.733.667,4.933,1.467,4.933,3.6s-1.867,3.6-4.4,3.6c-3.467,0-4.667-1.467-5.067-3.467a.974.974,0,0,0-.933-.8H23.867a.911.911,0,0,0-.933.933v.133c.533,3.333,2.667,5.733,7.067,6.4v3.2c0,.533.4.933,1.067,1.067h2c.533,0,.933-.4,1.067-1.067v-3.2c4-.667,6.667-3.467,6.667-7.067Z"/>
          <path id="Path_17672" data-name="Path 17672" class="cls-1" d="M25.2,51.067a19.952,19.952,0,0,1,0-37.467,1.338,1.338,0,0,0,.8-1.333V10.4a1.013,1.013,0,0,0-.8-1.067.8.8,0,0,0-.533.133,23.994,23.994,0,0,0,0,45.733.811.811,0,0,0,1.2-.533C26,54.533,26,54.4,26,54.133V52.267a1.776,1.776,0,0,0-.8-1.2Zm14.133-41.6a.811.811,0,0,0-1.2.533c-.133.133-.133.267-.133.533V12.4a1.769,1.769,0,0,0,.8,1.333,19.952,19.952,0,0,1,0,37.467,1.338,1.338,0,0,0-.8,1.333V54.4a1.013,1.013,0,0,0,.8,1.067.8.8,0,0,0,.533-.133,24.1,24.1,0,0,0,0-45.867Z"/>
        </g>
      </g>
    </g>
    <g id="Mask_Group_768" data-name="Mask Group 768" class="cls-5">
      <g id="Deer" transform="translate(-22106.027 -19601.566)">
        <circle id="Ellipse_5570" data-name="Ellipse 5570" class="cls-6" cx="28.05" cy="28.05" r="28.05" transform="translate(1.476 1.476)"/>
        <g id="Group_20079" data-name="Group 20079">
          <path id="Path_40638" data-name="Path 40638" class="cls-7" d="M62.053,25.156H55.407a5.905,5.905,0,0,0-5.27,3.241L44.643,39.266H37.114l-.626.023L27.413,61.566H19.792l9.034-22.277H22.249a5.905,5.905,0,0,0-5.418,3.555l-4.468,10.3h-7.5l5.388-13.41a11.81,11.81,0,0,1,10.959-7.407H38.345l3.761-7.171H36.593L33.1,18.32H14.025L7.374,4.447h6.65l3.695,7.037H30.413L23.628-2.434h6.785L41.027,18.32H59.163Z"/>
        </g>
      </g>
    </g>
  </g>
</svg>
