<svg xmlns="http://www.w3.org/2000/svg" xmlns:xlink="http://www.w3.org/1999/xlink" width="115" height="66" viewBox="0 0 115 66">
  <defs>
    <style>
      .cls-1, .cls-4 {
        fill: #fff;
      }

      .cls-2 {
        clip-path: url(#clip-path);
      }

      .cls-3 {
        fill: #2775ca;
      }

      .cls-4 {
        stroke: #000;
      }

      .cls-5 {
        clip-path: url(#clip-path-2);
      }

      .cls-6 {
        fill: url(#radial-gradient);
      }

      .cls-7 {
        fill: url(#linear-gradient);
      }

      .cls-8 {
        fill: url(#linear-gradient-2);
      }

      .cls-9 {
        fill: url(#linear-gradient-3);
      }

      .cls-10 {
        fill: url(#radial-gradient-2);
      }

      .cls-11 {
        stroke: none;
      }

      .cls-12 {
        fill: none;
      }
    </style>
    <clipPath id="clip-path">
      <circle id="Ellipse_5549" data-name="Ellipse 5549" class="cls-1" cx="33" cy="33" r="33" transform="translate(-20159 -22253)"/>
    </clipPath>
    <clipPath id="clip-path-2">
      <path id="Path_40615" data-name="Path 40615" class="cls-1" d="M32,0A32,32,0,1,1,0,32,32,32,0,0,1,32,0Z"/>
    </clipPath>
    <radialGradient id="radial-gradient" cx="0.468" cy="0.494" r="0.576" gradientTransform="matrix(0.752, 0.591, 0.434, -0.636, -3.907, 13.428)" gradientUnits="objectBoundingBox">
      <stop offset="0" stop-color="#88f5f8" stop-opacity="0.698"/>
      <stop offset="0.73" stop-color="#88f5f8" stop-opacity="0"/>
    </radialGradient>
    <linearGradient id="linear-gradient" x1="0.148" y1="1.143" x2="1.28" y2="-0.092" gradientUnits="objectBoundingBox">
      <stop offset="0" stop-color="#8697ff"/>
      <stop offset="0.29" stop-color="#7a7bf5"/>
      <stop offset="0.76" stop-color="#6853e7"/>
      <stop offset="1" stop-color="#6144e1"/>
    </linearGradient>
    <linearGradient id="linear-gradient-2" x1="0.126" y1="1.595" x2="0.911" y2="0.75" gradientUnits="objectBoundingBox">
      <stop offset="0" stop-color="#afffff"/>
      <stop offset="0.68" stop-color="#5adfe6"/>
      <stop offset="1" stop-color="#36d1dc"/>
    </linearGradient>
    <linearGradient id="linear-gradient-3" x1="0.87" y1="2.966" x2="0.154" y2="3.681" gradientUnits="objectBoundingBox">
      <stop offset="0" stop-color="#f7971e"/>
      <stop offset="0.16" stop-color="#f9a616"/>
      <stop offset="0.47" stop-color="#fcbe0a"/>
      <stop offset="0.76" stop-color="#fecd03"/>
      <stop offset="1" stop-color="#ffd200"/>
    </linearGradient>
    <radialGradient id="radial-gradient-2" cx="0.49" cy="0.476" r="0.459" gradientTransform="matrix(0.628, -0.763, -0.891, -0.779, 4.014, 7.937)" gradientUnits="objectBoundingBox">
      <stop offset="0" stop-color="#b4a7fe" stop-opacity="0.698"/>
      <stop offset="0.46" stop-color="#b4a7fe" stop-opacity="0"/>
    </radialGradient>
  </defs>
  <g id="Group_20073" data-name="Group 20073" transform="translate(20513 24671)">
    <g id="Mask_Group_755" data-name="Mask Group 755" class="cls-2" transform="translate(-354 -2418)">
      <g id="usd-coin-usdc-logo" transform="translate(-20159 -22253)">
        <path id="Path_40616" data-name="Path 40616" class="cls-3" d="M33,66A33,33,0,1,0,0,33,32.921,32.921,0,0,0,33,66Z"/>
        <path id="Path_40617" data-name="Path 40617" class="cls-1" d="M41.358,37.717c0-4.812-2.888-6.462-8.663-7.15-4.125-.55-4.95-1.65-4.95-3.575s1.375-3.162,4.125-3.162c2.475,0,3.85.825,4.537,2.888a1.034,1.034,0,0,0,.963.687h2.2a.94.94,0,0,0,.963-.962V26.3a6.869,6.869,0,0,0-6.188-5.637v-3.3c0-.55-.412-.963-1.1-1.1H31.183c-.55,0-.963.413-1.1,1.1v3.162c-4.125.55-6.737,3.3-6.737,6.738,0,4.537,2.75,6.325,8.525,7.012,3.85.687,5.088,1.512,5.088,3.713S35.033,41.7,32.421,41.7c-3.575,0-4.813-1.513-5.225-3.575a1,1,0,0,0-.962-.825H23.9a.94.94,0,0,0-.962.963V38.4c.55,3.437,2.75,5.912,7.287,6.6v3.3c0,.55.413.962,1.1,1.1h2.063c.55,0,.963-.412,1.1-1.1V45c4.125-.688,6.875-3.575,6.875-7.288Z" transform="translate(0.717 0.508)"/>
        <path id="Path_40618" data-name="Path 40618" class="cls-1" d="M25.74,52.371a20.576,20.576,0,0,1,0-38.637,1.38,1.38,0,0,0,.825-1.375V10.433a1.045,1.045,0,0,0-.825-1.1.828.828,0,0,0-.55.137,24.743,24.743,0,0,0,0,47.163.836.836,0,0,0,1.238-.55c.138-.137.138-.275.138-.55V53.608A1.831,1.831,0,0,0,25.74,52.371Zm14.575-42.9a.836.836,0,0,0-1.238.55c-.138.138-.138.275-.138.55V12.5a1.824,1.824,0,0,0,.825,1.375,20.576,20.576,0,0,1,0,38.637,1.38,1.38,0,0,0-.825,1.375v1.925a1.045,1.045,0,0,0,.825,1.1.828.828,0,0,0,.55-.137,24.849,24.849,0,0,0,0-47.3Z" transform="translate(0.248 0.292)"/>
      </g>
    </g>
    <g id="Ellipse_5546" data-name="Ellipse 5546" class="cls-4" transform="translate(-20464 -24671)">
      <circle class="cls-11" cx="33" cy="33" r="33"/>
      <circle class="cls-12" cx="33" cy="33" r="32.5"/>
    </g>
    <g id="Mask_Group_754" data-name="Mask Group 754" class="cls-5" transform="translate(-20463 -24670)">
      <g id="Layer_2" data-name="Layer 2" transform="translate(-35.22 -42.091)">
        <g id="Layer_1" data-name="Layer 1" transform="translate(8.854 -1.671)">
          <g id="Group_20072" data-name="Group 20072" transform="translate(0)">
            <path id="Path_40609" data-name="Path 40609" class="cls-1" d="M51.173,82.671A32.279,32.279,0,1,0,18.894,50.392,32.279,32.279,0,0,0,51.173,82.671Z" transform="translate(7.227 25.703)"/>
            <path id="Path_40610" data-name="Path 40610" class="cls-6" d="M96.612,101.279c-14.3,19.529-45.949,20.659-70.707,2.55S-7.359,55.185,6.941,35.656,52.89,14.981,77.648,33.073,110.912,81.75,96.612,101.279Z" transform="translate(0.001 11.781)"/>
            <path id="Path_40611" data-name="Path 40611" class="cls-7" d="M60.766,30.36a2.711,2.711,0,0,0-1.017-1.792A27.711,27.711,0,0,0,42.77,23.4a27.712,27.712,0,0,0-16.947,5.165,2.711,2.711,0,0,0-1.017,1.792c-.533,4.212-1.372,19.8,14.106,28.212a8.07,8.07,0,0,0,7.715,0C62.137,50.164,61.3,34.573,60.766,30.36Z" transform="translate(15.631 33.5)"/>
            <path id="Path_40612" data-name="Path 40612" class="cls-8" d="M45.332,36.016a4.664,4.664,0,0,0-.581-1.21,4.5,4.5,0,0,0-.839-.9,6.458,6.458,0,0,0-1-.629,4.245,4.245,0,0,0-1.049-.355,4.616,4.616,0,0,0-1.017-.129H33.986a1.517,1.517,0,0,1-1.162-.436,1.953,1.953,0,0,1,0-2.421,1.469,1.469,0,0,1,1.162-.452H44.348a.759.759,0,0,0,.823-.71V27.155a.742.742,0,0,0-.742-.742H33.986a5.487,5.487,0,0,0-1.614.242,4.971,4.971,0,0,0-1.517.823,4.68,4.68,0,0,0-1.178,1.469,5.536,5.536,0,0,0,0,4.455,4.681,4.681,0,0,0,1.178,1.469,4.971,4.971,0,0,0,1.517.823,5.488,5.488,0,0,0,1.614.242h6.859a1.791,1.791,0,0,1,.662.129,1.466,1.466,0,0,1,.823.855,2.292,2.292,0,0,1,.113.678,1.7,1.7,0,0,1-.42,1.21,1.614,1.614,0,0,1-1.178.436H29.128a.71.71,0,0,0-.629,1.033l.823,1.614a.726.726,0,0,0,.646.387H40.845a5.648,5.648,0,0,0,1-.1,5.117,5.117,0,0,0,2.05-.968,3.454,3.454,0,0,0,.839-.9,4.439,4.439,0,0,0,.581-1.21,5.681,5.681,0,0,0,0-3.115Z" transform="translate(21.3 37.964)"/>
            <path id="Path_40613" data-name="Path 40613" class="cls-9" d="M34.965,33.829a4.455,4.455,0,1,0-4.551-4.471A4.519,4.519,0,0,0,34.965,33.829Z" transform="translate(24.243 35.761)"/>
            <path id="Path_40614" data-name="Path 40614" class="cls-10" d="M109.053,17.093c26.453,22.45,32.8,58.458,14.154,80.44s-55.229,21.611-81.666-.839S8.714,38.219,27.371,16.237,82.584-5.358,109.053,17.093Z" transform="translate(-5.36 0)"/>
          </g>
        </g>
      </g>
    </g>
  </g>
</svg>
