<svg xmlns="http://www.w3.org/2000/svg" xmlns:xlink="http://www.w3.org/1999/xlink" width="114" height="64" viewBox="0 0 114 64">
  <defs>
    <style>
      .cls-1 {
        fill: #fff;
      }

      .cls-2 {
        clip-path: url(#clip-path);
      }

      .cls-3 {
        fill: #2775ca;
      }

      .cls-4 {
        clip-path: url(#clip-path-2);
      }

      .cls-5 {
        fill: url(#radial-gradient);
      }

      .cls-6 {
        fill: url(#radial-gradient-2);
      }

      .cls-7 {
        fill: url(#linear-gradient);
      }

      .cls-8 {
        fill: url(#linear-gradient-2);
      }

      .cls-9 {
        fill: url(#linear-gradient-3);
      }
    </style>
    <clipPath id="clip-path">
      <circle id="Ellipse_2549" data-name="Ellipse 2549" class="cls-1" cx="32" cy="32" r="32" transform="translate(-20159 -22253)"/>
    </clipPath>
    <clipPath id="clip-path-2">
      <circle id="Ellipse_1805" data-name="Ellipse 1805" class="cls-1" cx="32" cy="32" r="32"/>
    </clipPath>
    <radialGradient id="radial-gradient" cx="0.468" cy="0.494" r="0.576" gradientTransform="matrix(0.752, 0.591, 0.434, -0.636, -3.907, 13.428)" gradientUnits="objectBoundingBox">
      <stop offset="0" stop-color="#88f5f8" stop-opacity="0.698"/>
      <stop offset="0.73" stop-color="#88f5f8" stop-opacity="0"/>
    </radialGradient>
    <radialGradient id="radial-gradient-2" cx="0.49" cy="0.476" r="0.459" gradientTransform="matrix(0.628, -0.763, -0.891, -0.779, 4.014, 7.937)" gradientUnits="objectBoundingBox">
      <stop offset="0" stop-color="#b4a7fe" stop-opacity="0.698"/>
      <stop offset="0.46" stop-color="#b4a7fe" stop-opacity="0"/>
    </radialGradient>
    <linearGradient id="linear-gradient" x1="0.148" y1="1.143" x2="1.28" y2="-0.092" gradientUnits="objectBoundingBox">
      <stop offset="0" stop-color="#8697ff"/>
      <stop offset="0.29" stop-color="#7a7bf5"/>
      <stop offset="0.76" stop-color="#6853e7"/>
      <stop offset="1" stop-color="#6144e1"/>
    </linearGradient>
    <linearGradient id="linear-gradient-2" x1="0.126" y1="1.595" x2="0.911" y2="0.75" gradientUnits="objectBoundingBox">
      <stop offset="0" stop-color="#afffff"/>
      <stop offset="0.68" stop-color="#5adfe6"/>
      <stop offset="1" stop-color="#36d1dc"/>
    </linearGradient>
    <linearGradient id="linear-gradient-3" x1="0.87" y1="2.966" x2="0.154" y2="3.681" gradientUnits="objectBoundingBox">
      <stop offset="0" stop-color="#f7971e"/>
      <stop offset="0.16" stop-color="#f9a616"/>
      <stop offset="0.47" stop-color="#fcbe0a"/>
      <stop offset="0.76" stop-color="#fecd03"/>
      <stop offset="1" stop-color="#ffd200"/>
    </linearGradient>
  </defs>
  <g id="Group_13426" data-name="Group 13426" transform="translate(20660 24675)">
    <g id="Mask_Group_560" data-name="Mask Group 560" class="cls-2" transform="translate(-501 -2422)">
      <g id="usd-coin-usdc-logo" transform="translate(-20159 -22253)">
        <path id="Path_32474" data-name="Path 32474" class="cls-3" d="M32,64A32,32,0,1,0,0,32,31.923,31.923,0,0,0,32,64Z"/>
        <path id="Path_32475" data-name="Path 32475" class="cls-1" d="M40.8,37.067c0-4.667-2.8-6.267-8.4-6.933-4-.533-4.8-1.6-4.8-3.467s1.333-3.067,4-3.067c2.4,0,3.733.8,4.4,2.8a1,1,0,0,0,.933.667h2.133A.911.911,0,0,0,40,26.133V26a6.661,6.661,0,0,0-6-5.467v-3.2c0-.533-.4-.933-1.067-1.067h-2c-.533,0-.933.4-1.067,1.067V20.4c-4,.533-6.533,3.2-6.533,6.533,0,4.4,2.667,6.133,8.267,6.8,3.733.667,4.933,1.467,4.933,3.6s-1.867,3.6-4.4,3.6c-3.467,0-4.667-1.467-5.067-3.467a.974.974,0,0,0-.933-.8H23.867a.911.911,0,0,0-.933.933v.133c.533,3.333,2.667,5.733,7.067,6.4v3.2c0,.533.4.933,1.067,1.067h2c.533,0,.933-.4,1.067-1.067v-3.2c4-.667,6.667-3.467,6.667-7.067Z"/>
        <path id="Path_32476" data-name="Path 32476" class="cls-1" d="M25.2,51.067a19.952,19.952,0,0,1,0-37.467,1.338,1.338,0,0,0,.8-1.333V10.4a1.013,1.013,0,0,0-.8-1.067.8.8,0,0,0-.533.133,23.994,23.994,0,0,0,0,45.733.811.811,0,0,0,1.2-.533C26,54.533,26,54.4,26,54.133V52.267A1.776,1.776,0,0,0,25.2,51.067Zm14.133-41.6a.811.811,0,0,0-1.2.533c-.133.133-.133.267-.133.533V12.4a1.769,1.769,0,0,0,.8,1.333,19.952,19.952,0,0,1,0,37.467,1.338,1.338,0,0,0-.8,1.333V54.4a1.013,1.013,0,0,0,.8,1.067.8.8,0,0,0,.533-.133,24.1,24.1,0,0,0,0-45.867Z"/>
      </g>
    </g>
    <g id="Mask_Group_557" data-name="Mask Group 557" class="cls-4" transform="translate(-20610 -24675)">
      <g id="Layer_2" data-name="Layer 2" transform="translate(-35.22 -42.091)">
        <g id="Layer_1" data-name="Layer 1" transform="translate(8.854 -1.671)">
          <g id="Group_13420" data-name="Group 13420" transform="translate(0)">
            <path id="Path_32459" data-name="Path 32459" class="cls-1" d="M51.173,82.671A32.279,32.279,0,1,0,18.894,50.392,32.279,32.279,0,0,0,51.173,82.671Z" transform="translate(7.227 25.703)"/>
            <path id="Path_32460" data-name="Path 32460" class="cls-5" d="M96.612,101.279c-14.3,19.529-45.949,20.659-70.707,2.55S-7.359,55.185,6.941,35.656,52.89,14.981,77.648,33.073,110.912,81.75,96.612,101.279Z" transform="translate(0.001 11.781)"/>
            <path id="Path_32461" data-name="Path 32461" class="cls-6" d="M109.053,17.093c26.453,22.45,32.8,58.458,14.154,80.44s-55.229,21.611-81.666-.839S8.714,38.219,27.371,16.237,82.584-5.358,109.053,17.093Z" transform="translate(-5.36 0)"/>
            <path id="Path_32462" data-name="Path 32462" class="cls-7" d="M60.766,30.36a2.711,2.711,0,0,0-1.017-1.792A27.711,27.711,0,0,0,42.77,23.4a27.712,27.712,0,0,0-16.947,5.165,2.711,2.711,0,0,0-1.017,1.792c-.533,4.212-1.372,19.8,14.106,28.212a8.07,8.07,0,0,0,7.715,0C62.137,50.164,61.3,34.573,60.766,30.36Z" transform="translate(15.631 33.5)"/>
            <path id="Path_32463" data-name="Path 32463" class="cls-8" d="M45.332,36.016a4.664,4.664,0,0,0-.581-1.21,4.5,4.5,0,0,0-.839-.9,6.458,6.458,0,0,0-1-.629,4.245,4.245,0,0,0-1.049-.355,4.616,4.616,0,0,0-1.017-.129H33.986a1.517,1.517,0,0,1-1.162-.436,1.953,1.953,0,0,1,0-2.421,1.469,1.469,0,0,1,1.162-.452H44.348a.759.759,0,0,0,.823-.71V27.155a.742.742,0,0,0-.742-.742H33.986a5.487,5.487,0,0,0-1.614.242,4.971,4.971,0,0,0-1.517.823,4.68,4.68,0,0,0-1.178,1.469,5.536,5.536,0,0,0,0,4.455,4.681,4.681,0,0,0,1.178,1.469,4.971,4.971,0,0,0,1.517.823,5.488,5.488,0,0,0,1.614.242h6.859a1.791,1.791,0,0,1,.662.129,1.466,1.466,0,0,1,.823.855,2.292,2.292,0,0,1,.113.678,1.7,1.7,0,0,1-.42,1.21,1.614,1.614,0,0,1-1.178.436H29.128a.71.71,0,0,0-.629,1.033l.823,1.614a.726.726,0,0,0,.646.387H40.845a5.648,5.648,0,0,0,1-.1,5.117,5.117,0,0,0,2.05-.968,3.454,3.454,0,0,0,.839-.9,4.439,4.439,0,0,0,.581-1.21,5.681,5.681,0,0,0,0-3.115Z" transform="translate(21.3 37.964)"/>
            <path id="Path_32464" data-name="Path 32464" class="cls-9" d="M34.965,33.829a4.455,4.455,0,1,0-4.551-4.471A4.519,4.519,0,0,0,34.965,33.829Z" transform="translate(24.243 35.761)"/>
          </g>
        </g>
      </g>
    </g>
  </g>
</svg>
