<svg xmlns="http://www.w3.org/2000/svg" xmlns:xlink="http://www.w3.org/1999/xlink" width="114" height="64" viewBox="0 0 114 64">
  <defs>
    <style>
      .cls-1 {
        fill: #fff;
      }

      .cls-2 {
        clip-path: url(#clip-path);
      }

      .cls-3 {
        fill: #2775ca;
      }

      .cls-4 {
        clip-path: url(#clip-path-2);
      }

      .cls-5 {
        fill: #03254c;
      }

      .cls-6, .cls-7 {
        fill: #ffad4f;
      }

      .cls-7 {
        opacity: 0.5;
      }
    </style>
    <clipPath id="clip-path">
      <circle id="Ellipse_5541" data-name="Ellipse 5541" class="cls-1" cx="32" cy="32" r="32" transform="translate(-21913 -21453)"/>
    </clipPath>
    <clipPath id="clip-path-2">
      <circle id="Ellipse_5322" data-name="Ellipse 5322" class="cls-1" cx="32" cy="32" r="32" transform="translate(-22116 -21387)"/>
    </clipPath>
  </defs>
  <g id="Group_20083" data-name="Group 20083" transform="translate(22166 21387)">
    <g id="Mask_Group_749" data-name="Mask Group 749" class="cls-2" transform="translate(-253 66)">
      <g id="usd-coin-usdc-logo" transform="translate(-21913 -21453)">
        <path id="Path_40595" data-name="Path 40595" class="cls-3" d="M32,64A32,32,0,1,0,0,32,31.923,31.923,0,0,0,32,64Z"/>
        <path id="Path_40596" data-name="Path 40596" class="cls-1" d="M40.8,37.067c0-4.667-2.8-6.267-8.4-6.933-4-.533-4.8-1.6-4.8-3.467s1.333-3.067,4-3.067c2.4,0,3.733.8,4.4,2.8a1,1,0,0,0,.933.667h2.133A.911.911,0,0,0,40,26.133V26a6.661,6.661,0,0,0-6-5.467v-3.2c0-.533-.4-.933-1.067-1.067h-2c-.533,0-.933.4-1.067,1.067V20.4c-4,.533-6.533,3.2-6.533,6.533,0,4.4,2.667,6.133,8.267,6.8,3.733.667,4.933,1.467,4.933,3.6s-1.867,3.6-4.4,3.6c-3.467,0-4.667-1.467-5.067-3.467a.974.974,0,0,0-.933-.8H23.867a.911.911,0,0,0-.933.933v.133c.533,3.333,2.667,5.733,7.067,6.4v3.2c0,.533.4.933,1.067,1.067h2c.533,0,.933-.4,1.067-1.067v-3.2c4-.667,6.667-3.467,6.667-7.067Z"/>
        <path id="Path_40597" data-name="Path 40597" class="cls-1" d="M25.2,51.067a19.952,19.952,0,0,1,0-37.467,1.338,1.338,0,0,0,.8-1.333V10.4a1.013,1.013,0,0,0-.8-1.067.8.8,0,0,0-.533.133,23.994,23.994,0,0,0,0,45.733.811.811,0,0,0,1.2-.533C26,54.533,26,54.4,26,54.133V52.267A1.776,1.776,0,0,0,25.2,51.067Zm14.133-41.6a.811.811,0,0,0-1.2.533c-.133.133-.133.267-.133.533V12.4a1.769,1.769,0,0,0,.8,1.333,19.952,19.952,0,0,1,0,37.467,1.338,1.338,0,0,0-.8,1.333V54.4a1.013,1.013,0,0,0,.8,1.067.8.8,0,0,0,.533-.133,24.1,24.1,0,0,0,0-45.867Z"/>
      </g>
    </g>
    <g id="Mask_Group_746" data-name="Mask Group 746" class="cls-4">
      <g id="Ann" transform="translate(-22116 -21387)">
        <path id="Path_40584" data-name="Path 40584" class="cls-5" d="M64,32A32,32,0,1,0,32,64,32,32,0,0,0,64,32Z"/>
        <path id="Path_40585" data-name="Path 40585" class="cls-6" d="M10.077,44.6,25.035,18.657,27.7,23.1l-8,13.984L35.83,32.967,26.307,16.55l5.035-8.74,15.844,27.1Z"/>
        <path id="Path_40586" data-name="Path 40586" d="M8.48,49.41l39.2-13.394,7.795,13.391Z"/>
        <path id="Path_40587" data-name="Path 40587" class="cls-7" d="M8.48,49.41l39.2-13.394,7.795,13.391Z"/>
      </g>
    </g>
  </g>
</svg>
