<svg xmlns="http://www.w3.org/2000/svg" xmlns:xlink="http://www.w3.org/1999/xlink" width="114" height="64" viewBox="0 0 114 64">
  <defs>
    <style>
      .cls-1 {
        fill: #fff;
      }

      .cls-2 {
        clip-path: url(#clip-path);
      }

      .cls-3 {
        clip-path: url(#clip-path-2);
      }

      .cls-4 {
        fill: #2775ca;
      }

      .cls-5 {
        clip-path: url(#clip-path-3);
      }

      .cls-6 {
        fill: #101010;
        stroke: #fff;
        stroke-width: 2.844px;
      }

      .cls-7 {
        fill: #00ff1a;
        fill-rule: evenodd;
      }
    </style>
    <clipPath id="clip-path">
      <circle id="Ellipse_5565" data-name="Ellipse 5565" class="cls-1" cx="32" cy="32" r="32" transform="translate(-21241 -19922)"/>
    </clipPath>
    <clipPath id="clip-path-2">
      <circle id="Ellipse_1807" data-name="Ellipse 1807" class="cls-1" cx="32" cy="32" r="32" transform="translate(-24693 -23472)"/>
    </clipPath>
    <clipPath id="clip-path-3">
      <circle id="Ellipse_5456" data-name="Ellipse 5456" class="cls-1" cx="32" cy="32" r="32" transform="translate(-21249 -19772)"/>
    </clipPath>
  </defs>
  <g id="Group_20077" data-name="Group 20077" transform="translate(21299 19772)">
    <g id="Mask_Group_763" data-name="Mask Group 763" class="cls-2" transform="translate(-58 150)">
      <g id="Mask_Group_73" data-name="Mask Group 73" class="cls-3" transform="translate(3452 3550)">
        <g id="usd-coin-usdc-logo" transform="translate(-24693 -23472)">
          <path id="Path_17670" data-name="Path 17670" class="cls-4" d="M32,64A31.923,31.923,0,1,0,9.35,54.65,32,32,0,0,0,32,64Z"/>
          <path id="Path_17671" data-name="Path 17671" class="cls-1" d="M40.8,37.067c0-4.667-2.8-6.267-8.4-6.933-4-.533-4.8-1.6-4.8-3.467s1.333-3.067,4-3.067c2.4,0,3.733.8,4.4,2.8a1,1,0,0,0,.933.667h2.133A.911.911,0,0,0,40,26.133V26a6.661,6.661,0,0,0-6-5.467v-3.2c0-.533-.4-.933-1.067-1.067h-2c-.533,0-.933.4-1.067,1.067V20.4c-4,.533-6.533,3.2-6.533,6.533,0,4.4,2.667,6.133,8.267,6.8,3.733.667,4.933,1.467,4.933,3.6s-1.867,3.6-4.4,3.6c-3.467,0-4.667-1.467-5.067-3.467a.974.974,0,0,0-.933-.8H23.867a.911.911,0,0,0-.933.933v.133c.533,3.333,2.667,5.733,7.067,6.4v3.2c0,.533.4.933,1.067,1.067h2c.533,0,.933-.4,1.067-1.067v-3.2c4-.667,6.667-3.467,6.667-7.067Z"/>
          <path id="Path_17672" data-name="Path 17672" class="cls-1" d="M25.2,51.067a19.952,19.952,0,0,1,0-37.467,1.338,1.338,0,0,0,.8-1.333V10.4a1.013,1.013,0,0,0-.8-1.067.8.8,0,0,0-.533.133,23.994,23.994,0,0,0,0,45.733.811.811,0,0,0,1.2-.533C26,54.533,26,54.4,26,54.133V52.267a1.776,1.776,0,0,0-.8-1.2Zm14.133-41.6a.811.811,0,0,0-1.2.533c-.133.133-.133.267-.133.533V12.4a1.769,1.769,0,0,0,.8,1.333,19.952,19.952,0,0,1,0,37.467,1.338,1.338,0,0,0-.8,1.333V54.4a1.013,1.013,0,0,0,.8,1.067.8.8,0,0,0,.533-.133,24.1,24.1,0,0,0,0-45.867Z"/>
        </g>
      </g>
    </g>
    <g id="Mask_Group_764" data-name="Mask Group 764" class="cls-5">
      <g id="XDSHARE" transform="translate(-21245.855 -19764.889)">
        <circle id="Ellipse_5566" data-name="Ellipse 5566" class="cls-6" cx="27.022" cy="27.022" r="27.022" transform="translate(1.422 1.422)"/>
        <path id="Path_40636" data-name="Path 40636" class="cls-7" d="M18.219-7.111H40.127V19.83l19.6,26.155H-2.019L18.219,19.8ZM24.856-.474V22.069L11.5,39.348H46.462L33.49,22.041V-.474Z"/>
      </g>
    </g>
  </g>
</svg>
