<svg xmlns="http://www.w3.org/2000/svg" xmlns:xlink="http://www.w3.org/1999/xlink" width="114" height="64" viewBox="0 0 114 64">
  <defs>
    <style>
      .cls-1, .cls-9 {
        fill: #fff;
      }

      .cls-2 {
        fill: none;
      }

      .cls-3 {
        clip-path: url(#clip-path);
      }

      .cls-4 {
        fill: #2775ca;
      }

      .cls-5 {
        clip-path: url(#clip-path-2);
      }

      .cls-6 {
        clip-path: url(#clip-path-3);
      }

      .cls-7 {
        fill: url(#linear-gradient);
      }

      .cls-8 {
        fill: #1d3f1d;
      }

      .cls-12, .cls-9 {
        opacity: 0.4;
      }

      .cls-9 {
        isolation: isolate;
      }

      .cls-10 {
        fill: #0d723b;
      }

      .cls-11 {
        fill: #4db96b;
      }
    </style>
    <clipPath id="clip-path">
      <circle id="Ellipse_2658" data-name="Ellipse 2658" class="cls-1" cx="32" cy="32" r="32" transform="translate(-21093 -22253)"/>
    </clipPath>
    <clipPath id="clip-path-2">
      <circle id="Ellipse_1891" data-name="Ellipse 1891" class="cls-1" cx="32" cy="32" r="32" transform="translate(-20765 -23593)"/>
    </clipPath>
    <clipPath id="clip-path-3">
      <rect id="Rectangle_6065" data-name="Rectangle 6065" class="cls-2" width="64" height="64"/>
    </clipPath>
    <linearGradient id="linear-gradient" x1="0.207" y1="-12.448" x2="0.785" y2="-11.635" gradientUnits="objectBoundingBox">
      <stop offset="0" stop-color="#4496d2"/>
      <stop offset="1" stop-color="#58ba4d"/>
    </linearGradient>
  </defs>
  <g id="Group_14149" data-name="Group 14149" transform="translate(20815 23573)">
    <g id="Mask_Group_600" data-name="Mask Group 600" class="cls-3" transform="translate(278 -1320)">
      <g id="usd-coin-usdc-logo" transform="translate(-21093 -22253)">
        <path id="Path_33696" data-name="Path 33696" class="cls-4" d="M32,64A32,32,0,1,0,0,32,31.923,31.923,0,0,0,32,64Z"/>
        <path id="Path_33697" data-name="Path 33697" class="cls-1" d="M40.8,37.067c0-4.667-2.8-6.267-8.4-6.933-4-.533-4.8-1.6-4.8-3.467s1.333-3.067,4-3.067c2.4,0,3.733.8,4.4,2.8a1,1,0,0,0,.933.667h2.133A.911.911,0,0,0,40,26.133V26a6.661,6.661,0,0,0-6-5.467v-3.2c0-.533-.4-.933-1.067-1.067h-2c-.533,0-.933.4-1.067,1.067V20.4c-4,.533-6.533,3.2-6.533,6.533,0,4.4,2.667,6.133,8.267,6.8,3.733.667,4.933,1.467,4.933,3.6s-1.867,3.6-4.4,3.6c-3.467,0-4.667-1.467-5.067-3.467a.974.974,0,0,0-.933-.8H23.867a.911.911,0,0,0-.933.933v.133c.533,3.333,2.667,5.733,7.067,6.4v3.2c0,.533.4.933,1.067,1.067h2c.533,0,.933-.4,1.067-1.067v-3.2c4-.667,6.667-3.467,6.667-7.067Z"/>
        <path id="Path_33698" data-name="Path 33698" class="cls-1" d="M25.2,51.067a19.952,19.952,0,0,1,0-37.467,1.338,1.338,0,0,0,.8-1.333V10.4a1.013,1.013,0,0,0-.8-1.067.8.8,0,0,0-.533.133,23.994,23.994,0,0,0,0,45.733.811.811,0,0,0,1.2-.533C26,54.533,26,54.4,26,54.133V52.267A1.776,1.776,0,0,0,25.2,51.067Zm14.133-41.6a.811.811,0,0,0-1.2.533c-.133.133-.133.267-.133.533V12.4a1.769,1.769,0,0,0,.8,1.333,19.952,19.952,0,0,1,0,37.467,1.338,1.338,0,0,0-.8,1.333V54.4a1.013,1.013,0,0,0,.8,1.067.8.8,0,0,0,.533-.133,24.1,24.1,0,0,0,0-45.867Z"/>
      </g>
    </g>
    <g id="Mask_Group_598" data-name="Mask Group 598" class="cls-5" transform="translate(0 20)">
      <g id="b" transform="translate(-20765 -23593)">
        <g id="c">
          <g id="Group_14145" data-name="Group 14145" class="cls-6">
            <g id="Group_14144" data-name="Group 14144">
              <path id="Path_33540" data-name="Path 33540" class="cls-7" d="M32,64A32,32,0,1,0,0,32,31.991,31.991,0,0,0,32,64Z"/>
              <path id="Path_33541" data-name="Path 33541" class="cls-8" d="M40.4,42.987H53.44L51.307,40l-9.04-12.8L32.64,13.6,23.013,27.2l-9.04,12.773L11.84,42.987H24.88l-2.64-3.84H19.227l3.52-4.96L28.96,42.96h7.387l6.213-8.747,3.493,4.96H43.04Zm-6.027-3.84h-3.44l-5.84-8.24,7.573-10.693L40.24,30.907l-5.84,8.24Z"/>
              <path id="Path_33542" data-name="Path 33542" class="cls-8" d="M11.84,42.987l-.64-.96,1.813-.64Z"/>
              <path id="Path_33543" data-name="Path 33543" class="cls-8" d="M40.4,42.987l-.64-.96,1.76-.507Z"/>
              <path id="Path_33544" data-name="Path 33544" class="cls-1" d="M39.76,42.027H52.8L50.667,39.04l-9.04-12.8L32,12.64l-9.627,13.6-9.04,12.773L11.2,42.027H24.24l-2.64-3.84H18.587l3.52-4.96L28.32,42h7.387l6.213-8.747,3.493,4.96H42.4l-2.64,3.813Zm-6.027-3.84h-3.44l-5.84-8.24,7.573-10.693L39.6,29.947l-5.84,8.24Z"/>
              <path id="Path_33545" data-name="Path 33545" class="cls-9" d="M32.32,5.76l.933.533V7.387l-.933.533-.933-.533V6.293ZM26.933,6.8l.187,1.067,1.013.373.827-.693L28.773,6.48,27.76,6.107ZM22.64,8.053l.373,1.013,1.067.187.693-.827L24.4,7.413l-1.067-.187Zm-4.027,2,.533.933H20.24l.533-.933L20.24,9.12H19.147l-.533.933Zm-3.6,2.667.693.827,1.067-.187.373-1.013-.693-.827-1.067.187L15.04,12.72ZM11.92,15.973l.827.693,1.013-.373.187-1.067-.827-.693-1.013.373ZM9.44,19.707l.933.533.933-.533V18.613l-.933-.533-.933.533ZM7.653,23.813l1.013.373.827-.693-.187-1.067-1.013-.373-.827.693ZM6.587,28.187l1.067.187.693-.827-.373-1.013-1.067-.187-.693.827Zm-.293,4.48H7.387l.533-.96-.533-.933H6.293l-.533.933ZM6.8,37.12l1.067-.187L8.24,35.92l-.693-.827L6.48,35.28l-.373,1.013Zm1.253,4.293,1.013-.373.187-1.067-.827-.693-1.013.373L7.227,40.72Zm2,4.027.933-.533V43.813l-.933-.533-.933.533v1.093l.933.533Zm2.667,3.6.827-.693L13.36,47.28l-1.013-.373-.827.693.187,1.067Zm3.253,3.093.693-.827-.373-1.013-1.067-.187-.693.827.373,1.013Zm3.733,2.48.533-.933-.533-.933H18.613l-.533.933.533.933ZM23.813,56.4l.373-1.013-.693-.827-1.067.187-.373,1.013.693.8,1.067-.187Zm4.373,1.067.187-1.067-.827-.693-1.013.373-.187,1.067.827.693Zm4.48.293V56.667l-.96-.533-.933.533V57.76l.933.533Zm4.453-.507-.187-1.067-1.013-.373-.827.693.187,1.067,1.013.373ZM41.413,56l-.373-1.013L39.973,54.8l-.693.827.373,1.013,1.067.187Zm4.027-2-.533-.933H43.813L43.28,54l.533.933h1.093Zm3.6-2.667-.693-.827-1.067.187-.373,1.013.693.827,1.067-.187Zm3.093-3.253-.827-.693-1.04.373-.187,1.067.827.693,1.013-.373Zm2.48-3.733-.933-.533-.933.533V45.44l.933.533.933-.533ZM56.4,40.24l-1.013-.373-.827.693.187,1.067L55.76,42l.827-.693Zm1.067-4.347L56.4,35.707l-.693.827.373,1.013,1.067.187.693-.827Zm.293-4.48H56.667l-.533.933.533.933H57.76l.533-.933-.533-.96Zm-.507-4.453-1.067.187-.373,1.013.693.827,1.067-.187.373-1.013Zm-1.28-4.293-1.013.373-.187,1.067.827.693,1.013-.373L56.8,23.36Zm-2-4.027-.933.533v1.093l.933.533.933-.533V19.173Zm-2.667-3.6-.827.693.187,1.067,1.013.373.827-.693-.187-1.067-1.013-.347Zm-3.253-3.093-.693.827.347,1.013,1.067.187.693-.827-.373-1.013-1.067-.187ZM44.32,9.467l-.533.933.533.933h1.093l.533-.933-.533-.933ZM40.213,7.68,39.84,8.693l.693.827L41.6,9.333l.373-1.013-.693-.827ZM35.84,6.613,35.653,7.68l.827.693L37.493,8l.187-1.067-.827-.693Z"/>
              <path id="Path_33546" data-name="Path 33546" class="cls-10" d="M32,3.84a28.224,28.224,0,1,1-19.893,8.267A28.208,28.208,0,0,1,32,3.84ZM32,0A31.912,31.912,0,1,0,54.613,9.333,32.055,32.055,0,0,0,32,0Z"/>
              <path id="Path_33547" data-name="Path 33547" class="cls-1" d="M32,4.8a27.183,27.183,0,1,1,.027-.027Zm0-.64a27.909,27.909,0,1,1,.027.027Z"/>
              <path id="Path_33548" data-name="Path 33548" class="cls-11" d="M32,3.52a28.5,28.5,0,0,1,15.813,4.8A28.492,28.492,0,0,1,59.92,37.547,28.465,28.465,0,1,1,32,3.52ZM32,0A31.912,31.912,0,1,0,54.613,9.333,32.055,32.055,0,0,0,32,0Z"/>
              <g id="Group_14143" data-name="Group 14143">
                <g id="Group_14069" data-name="Group 14069" class="cls-12">
                  <g id="Group_13997" data-name="Group 13997" class="cls-12">
                    <path id="Path_33549" data-name="Path 33549" class="cls-1" d="M32.16.8h-.32V2.587h.32Z"/>
                  </g>
                  <g id="Group_13998" data-name="Group 13998" class="cls-12">
                    <path id="Path_33550" data-name="Path 33550" class="cls-1" d="M29.547.827h-.32l.16,1.84h.32Z"/>
                  </g>
                  <g id="Group_13999" data-name="Group 13999" class="cls-12">
                    <path id="Path_33551" data-name="Path 33551" class="cls-1" d="M26.747,1.253l-.32.053.32,1.76.32-.053-.32-1.76Z"/>
                  </g>
                  <g id="Group_14000" data-name="Group 14000" class="cls-12">
                    <path id="Path_33552" data-name="Path 33552" class="cls-1" d="M24.08,1.813l-.32.08.453,1.733.32-.08L24.08,1.813Z"/>
                  </g>
                  <g id="Group_14001" data-name="Group 14001" class="cls-12">
                    <path id="Path_33553" data-name="Path 33553" class="cls-1" d="M21.467,2.64l-.293.107.613,1.68.293-.107Z"/>
                  </g>
                  <g id="Group_14002" data-name="Group 14002" class="cls-12">
                    <path id="Path_33554" data-name="Path 33554" class="cls-1" d="M18.96,3.653l-.293.133.747,1.627.293-.133Z"/>
                  </g>
                  <g id="Group_14003" data-name="Group 14003" class="cls-12">
                    <path id="Path_33555" data-name="Path 33555" class="cls-1" d="M16.533,4.907l-.267.16.907,1.547.267-.16-.907-1.547Z"/>
                  </g>
                  <g id="Group_14004" data-name="Group 14004" class="cls-12">
                    <path id="Path_33556" data-name="Path 33556" class="cls-1" d="M14.24,6.347l-.267.187L15.013,8l.267-.187Z"/>
                  </g>
                  <g id="Group_14005" data-name="Group 14005" class="cls-12">
                    <path id="Path_33557" data-name="Path 33557" class="cls-1" d="M12.053,8l-.24.213L12.96,9.6l.24-.213Z"/>
                  </g>
                  <g id="Group_14006" data-name="Group 14006" class="cls-12">
                    <path id="Path_33558" data-name="Path 33558" class="cls-1" d="M10.053,9.813l-.213.213,1.28,1.28.213-.213Z"/>
                  </g>
                  <g id="Group_14007" data-name="Group 14007" class="cls-12">
                    <path id="Path_33559" data-name="Path 33559" class="cls-1" d="M8.187,11.813l-.213.24L9.36,13.2l.213-.24Z"/>
                  </g>
                  <g id="Group_14008" data-name="Group 14008" class="cls-12">
                    <path id="Path_33560" data-name="Path 33560" class="cls-1" d="M6.533,13.973l-.187.267,1.467,1.04L8,15.013Z"/>
                  </g>
                  <g id="Group_14009" data-name="Group 14009" class="cls-12">
                    <path id="Path_33561" data-name="Path 33561" class="cls-1" d="M5.067,16.267l-.16.267,1.547.907.16-.267-1.547-.907Z"/>
                  </g>
                  <g id="Group_14010" data-name="Group 14010" class="cls-12">
                    <path id="Path_33562" data-name="Path 33562" class="cls-1" d="M3.787,18.667l-.133.293,1.627.747.133-.293Z"/>
                  </g>
                  <g id="Group_14011" data-name="Group 14011" class="cls-12">
                    <path id="Path_33563" data-name="Path 33563" class="cls-1" d="M2.72,21.173l-.107.293,1.68.613.107-.293-1.68-.613Z"/>
                  </g>
                  <g id="Group_14012" data-name="Group 14012" class="cls-12">
                    <path id="Path_33564" data-name="Path 33564" class="cls-1" d="M1.893,23.76l-.08.32,1.733.453.08-.32L1.893,23.76Z"/>
                  </g>
                  <g id="Group_14013" data-name="Group 14013" class="cls-12">
                    <path id="Path_33565" data-name="Path 33565" class="cls-1" d="M1.307,26.427l-.053.32,1.76.32.053-.32-1.76-.32Z"/>
                  </g>
                  <g id="Group_14014" data-name="Group 14014" class="cls-12">
                    <path id="Path_33566" data-name="Path 33566" class="cls-1" d="M.933,29.12v.32l1.76.16v-.32l-1.76-.16Z"/>
                  </g>
                  <g id="Group_14015" data-name="Group 14015" class="cls-12">
                    <path id="Path_33567" data-name="Path 33567" class="cls-1" d="M2.587,31.84H.8v.32H2.587Z"/>
                  </g>
                  <g id="Group_14016" data-name="Group 14016" class="cls-12">
                    <path id="Path_33568" data-name="Path 33568" class="cls-1" d="M2.693,34.4l-1.787.16v.32l1.813-.16V34.4Z"/>
                  </g>
                  <g id="Group_14017" data-name="Group 14017" class="cls-12">
                    <path id="Path_33569" data-name="Path 33569" class="cls-1" d="M3.013,36.96l-1.76.32.053.32,1.76-.32Z"/>
                  </g>
                  <g id="Group_14018" data-name="Group 14018" class="cls-12">
                    <path id="Path_33570" data-name="Path 33570" class="cls-1" d="M3.573,39.467,1.84,39.92l.08.32,1.733-.453Z"/>
                  </g>
                  <g id="Group_14019" data-name="Group 14019" class="cls-12">
                    <path id="Path_33571" data-name="Path 33571" class="cls-1" d="M4.32,41.92l-1.68.613.107.293,1.68-.613Z"/>
                  </g>
                  <g id="Group_14020" data-name="Group 14020" class="cls-12">
                    <path id="Path_33572" data-name="Path 33572" class="cls-1" d="M5.28,44.293l-1.627.747.133.293,1.627-.747Z"/>
                  </g>
                  <g id="Group_14021" data-name="Group 14021" class="cls-12">
                    <path id="Path_33573" data-name="Path 33573" class="cls-1" d="M6.453,46.56l-1.547.907.16.267,1.547-.907Z"/>
                  </g>
                  <g id="Group_14022" data-name="Group 14022" class="cls-12">
                    <path id="Path_33574" data-name="Path 33574" class="cls-1" d="M7.813,48.72,6.347,49.76l.187.267L8,48.987Z"/>
                  </g>
                  <g id="Group_14023" data-name="Group 14023" class="cls-12">
                    <path id="Path_33575" data-name="Path 33575" class="cls-1" d="M9.387,50.773,8,51.92l.213.24L9.6,51.013Z"/>
                  </g>
                  <g id="Group_14024" data-name="Group 14024" class="cls-12">
                    <path id="Path_33576" data-name="Path 33576" class="cls-1" d="M11.093,52.667l-1.28,1.28.213.213,1.28-1.28Z"/>
                  </g>
                  <g id="Group_14025" data-name="Group 14025" class="cls-12">
                    <path id="Path_33577" data-name="Path 33577" class="cls-1" d="M12.987,54.427,11.84,55.813l.24.213,1.147-1.387Z"/>
                  </g>
                  <g id="Group_14026" data-name="Group 14026" class="cls-12">
                    <path id="Path_33578" data-name="Path 33578" class="cls-1" d="M15.013,56l-1.04,1.467.267.187,1.04-1.467Z"/>
                  </g>
                  <g id="Group_14027" data-name="Group 14027" class="cls-12">
                    <path id="Path_33579" data-name="Path 33579" class="cls-1" d="M17.147,57.387l-.907,1.547.267.16.907-1.547Z"/>
                  </g>
                  <g id="Group_14028" data-name="Group 14028" class="cls-12">
                    <path id="Path_33580" data-name="Path 33580" class="cls-1" d="M19.44,58.587l-.747,1.627.293.133.747-1.627Z"/>
                  </g>
                  <g id="Group_14029" data-name="Group 14029" class="cls-12">
                    <path id="Path_33581" data-name="Path 33581" class="cls-1" d="M21.787,59.573l-.613,1.68.293.107.613-1.68Z"/>
                  </g>
                  <g id="Group_14030" data-name="Group 14030" class="cls-12">
                    <path id="Path_33582" data-name="Path 33582" class="cls-1" d="M24.24,60.347l-.453,1.733.32.08.453-1.733Z"/>
                  </g>
                  <g id="Group_14031" data-name="Group 14031" class="cls-12">
                    <path id="Path_33583" data-name="Path 33583" class="cls-1" d="M26.747,60.933l-.32,1.76.32.053.32-1.76Z"/>
                  </g>
                  <g id="Group_14032" data-name="Group 14032" class="cls-12">
                    <path id="Path_33584" data-name="Path 33584" class="cls-1" d="M29.28,61.28l-.16,1.787h.32l.16-1.76h-.32Z"/>
                  </g>
                  <g id="Group_14033" data-name="Group 14033" class="cls-12">
                    <path id="Path_33585" data-name="Path 33585" class="cls-1" d="M32.16,61.413h-.32V63.2h.32Z"/>
                  </g>
                  <g id="Group_14034" data-name="Group 14034" class="cls-12">
                    <path id="Path_33586" data-name="Path 33586" class="cls-1" d="M35.013,61.413h-.32l.16,1.84h.32Z"/>
                  </g>
                  <g id="Group_14035" data-name="Group 14035" class="cls-12">
                    <path id="Path_33587" data-name="Path 33587" class="cls-1" d="M37.253,60.933l-.32.053.32,1.76.32-.053Z"/>
                  </g>
                  <g id="Group_14036" data-name="Group 14036" class="cls-12">
                    <path id="Path_33588" data-name="Path 33588" class="cls-1" d="M39.76,60.347l-.32.08.453,1.733.32-.08Z"/>
                  </g>
                  <g id="Group_14037" data-name="Group 14037" class="cls-12">
                    <path id="Path_33589" data-name="Path 33589" class="cls-1" d="M42.213,59.573l-.293.107.613,1.68.293-.107Z"/>
                  </g>
                  <g id="Group_14038" data-name="Group 14038" class="cls-12">
                    <path id="Path_33590" data-name="Path 33590" class="cls-1" d="M44.56,58.587l-.293.133.747,1.627.293-.133Z"/>
                  </g>
                  <g id="Group_14039" data-name="Group 14039" class="cls-12">
                    <path id="Path_33591" data-name="Path 33591" class="cls-1" d="M46.827,57.387l-.267.16.907,1.547.267-.16Z"/>
                  </g>
                  <g id="Group_14040" data-name="Group 14040" class="cls-12">
                    <path id="Path_33592" data-name="Path 33592" class="cls-1" d="M48.987,56l-.267.187,1.04,1.467.267-.187Z"/>
                  </g>
                  <g id="Group_14041" data-name="Group 14041" class="cls-12">
                    <path id="Path_33593" data-name="Path 33593" class="cls-1" d="M51.013,54.427l-.24.213,1.147,1.387.24-.213Z"/>
                  </g>
                  <g id="Group_14042" data-name="Group 14042" class="cls-12">
                    <path id="Path_33594" data-name="Path 33594" class="cls-1" d="M52.907,52.667l-.213.213,1.28,1.28.213-.213Z"/>
                  </g>
                  <g id="Group_14043" data-name="Group 14043" class="cls-12">
                    <path id="Path_33595" data-name="Path 33595" class="cls-1" d="M54.613,50.773l-.213.24,1.387,1.147L56,51.92Z"/>
                  </g>
                  <g id="Group_14044" data-name="Group 14044" class="cls-12">
                    <path id="Path_33596" data-name="Path 33596" class="cls-1" d="M56.187,48.72,56,48.987l1.467,1.04.187-.267Z"/>
                  </g>
                  <g id="Group_14045" data-name="Group 14045" class="cls-12">
                    <path id="Path_33597" data-name="Path 33597" class="cls-1" d="M57.547,46.56l-.16.267,1.547.907.16-.267Z"/>
                  </g>
                  <g id="Group_14046" data-name="Group 14046" class="cls-12">
                    <path id="Path_33598" data-name="Path 33598" class="cls-1" d="M58.72,44.267l-.133.293,1.627.747.133-.293Z"/>
                  </g>
                  <g id="Group_14047" data-name="Group 14047" class="cls-12">
                    <path id="Path_33599" data-name="Path 33599" class="cls-1" d="M59.68,41.893l-.107.293,1.68.613.107-.293Z"/>
                  </g>
                  <g id="Group_14048" data-name="Group 14048" class="cls-12">
                    <path id="Path_33600" data-name="Path 33600" class="cls-1" d="M60.427,39.467l-.08.32,1.733.453.08-.32Z"/>
                  </g>
                  <g id="Group_14049" data-name="Group 14049" class="cls-12">
                    <path id="Path_33601" data-name="Path 33601" class="cls-1" d="M60.987,36.96l-.053.32,1.76.32.053-.32Z"/>
                  </g>
                  <g id="Group_14050" data-name="Group 14050" class="cls-12">
                    <path id="Path_33602" data-name="Path 33602" class="cls-1" d="M61.307,34.4v.32l1.76.16v-.32Z"/>
                  </g>
                  <g id="Group_14051" data-name="Group 14051" class="cls-12">
                    <path id="Path_33603" data-name="Path 33603" class="cls-1" d="M63.2,31.84H61.413v.32H63.2Z"/>
                  </g>
                  <g id="Group_14052" data-name="Group 14052" class="cls-12">
                    <path id="Path_33604" data-name="Path 33604" class="cls-1" d="M63.067,29.12l-1.787.16v.32l1.813-.16v-.32Z"/>
                  </g>
                  <g id="Group_14053" data-name="Group 14053" class="cls-12">
                    <path id="Path_33605" data-name="Path 33605" class="cls-1" d="M62.693,26.427l-1.76.32.053.32,1.76-.32Z"/>
                  </g>
                  <g id="Group_14054" data-name="Group 14054" class="cls-12">
                    <path id="Path_33606" data-name="Path 33606" class="cls-1" d="M62.107,23.76l-1.733.453.08.32,1.733-.453Z"/>
                  </g>
                  <g id="Group_14055" data-name="Group 14055" class="cls-12">
                    <path id="Path_33607" data-name="Path 33607" class="cls-1" d="M61.253,21.173l-1.68.613.107.293,1.68-.613Z"/>
                  </g>
                  <g id="Group_14056" data-name="Group 14056" class="cls-12">
                    <path id="Path_33608" data-name="Path 33608" class="cls-1" d="M60.213,18.667l-1.627.747.133.293,1.627-.747Z"/>
                  </g>
                  <g id="Group_14057" data-name="Group 14057" class="cls-12">
                    <path id="Path_33609" data-name="Path 33609" class="cls-1" d="M58.933,16.267l-1.547.907.16.267,1.547-.907Z"/>
                  </g>
                  <g id="Group_14058" data-name="Group 14058" class="cls-12">
                    <path id="Path_33610" data-name="Path 33610" class="cls-1" d="M57.467,13.973,56,15.013l.187.267,1.467-1.04Z"/>
                  </g>
                  <g id="Group_14059" data-name="Group 14059" class="cls-12">
                    <path id="Path_33611" data-name="Path 33611" class="cls-1" d="M55.787,11.813,54.4,12.96l.213.24L56,12.053Z"/>
                  </g>
                  <g id="Group_14060" data-name="Group 14060" class="cls-12">
                    <path id="Path_33612" data-name="Path 33612" class="cls-1" d="M53.947,9.813l-1.28,1.28.213.213,1.28-1.28Z"/>
                  </g>
                  <g id="Group_14061" data-name="Group 14061" class="cls-12">
                    <path id="Path_33613" data-name="Path 33613" class="cls-1" d="M51.947,8,50.8,9.387l.24.213,1.147-1.387Z"/>
                  </g>
                  <g id="Group_14062" data-name="Group 14062" class="cls-12">
                    <path id="Path_33614" data-name="Path 33614" class="cls-1" d="M49.76,6.347,48.72,7.813,48.987,8l1.04-1.467Z"/>
                  </g>
                  <g id="Group_14063" data-name="Group 14063" class="cls-12">
                    <path id="Path_33615" data-name="Path 33615" class="cls-1" d="M47.467,4.907,46.56,6.453l.267.16.907-1.547-.267-.16Z"/>
                  </g>
                  <g id="Group_14064" data-name="Group 14064" class="cls-12">
                    <path id="Path_33616" data-name="Path 33616" class="cls-1" d="M45.04,3.653,44.293,5.28l.293.133.747-1.627Z"/>
                  </g>
                  <g id="Group_14065" data-name="Group 14065" class="cls-12">
                    <path id="Path_33617" data-name="Path 33617" class="cls-1" d="M42.507,2.613l-.613,1.68.293.107L42.8,2.72l-.293-.107Z"/>
                  </g>
                  <g id="Group_14066" data-name="Group 14066" class="cls-12">
                    <path id="Path_33618" data-name="Path 33618" class="cls-1" d="M39.92,1.813l-.453,1.733.32.08.453-1.733-.32-.08Z"/>
                  </g>
                  <g id="Group_14067" data-name="Group 14067" class="cls-12">
                    <path id="Path_33619" data-name="Path 33619" class="cls-1" d="M37.253,1.253l-.32,1.76.32.053.32-1.76-.32-.053Z"/>
                  </g>
                  <g id="Group_14068" data-name="Group 14068" class="cls-12">
                    <path id="Path_33620" data-name="Path 33620" class="cls-1" d="M34.56.907,34.4,2.693h.32l.16-1.76h-.32Z"/>
                  </g>
                </g>
                <g id="Group_14142" data-name="Group 14142" class="cls-12">
                  <g id="Group_14070" data-name="Group 14070" class="cls-12">
                    <path id="Path_33621" data-name="Path 33621" class="cls-1" d="M30.88.827h-.32l.08,1.813h.32Z"/>
                  </g>
                  <g id="Group_14071" data-name="Group 14071" class="cls-12">
                    <path id="Path_33622" data-name="Path 33622" class="cls-1" d="M28.16,1.04l-.32.053.24,1.787.32-.053L28.16,1.04Z"/>
                  </g>
                  <g id="Group_14072" data-name="Group 14072" class="cls-12">
                    <path id="Path_33623" data-name="Path 33623" class="cls-1" d="M25.467,1.493l-.32.08.373,1.76.32-.08Z"/>
                  </g>
                  <g id="Group_14073" data-name="Group 14073" class="cls-12">
                    <path id="Path_33624" data-name="Path 33624" class="cls-1" d="M22.827,2.187l-.293.107L23.067,4l.293-.107-.533-1.707Z"/>
                  </g>
                  <g id="Group_14074" data-name="Group 14074" class="cls-12">
                    <path id="Path_33625" data-name="Path 33625" class="cls-1" d="M20.267,3.093l-.293.133.693,1.653.293-.133-.693-1.653Z"/>
                  </g>
                  <g id="Group_14075" data-name="Group 14075" class="cls-12">
                    <path id="Path_33626" data-name="Path 33626" class="cls-1" d="M17.787,4.213l-.293.16.827,1.6.293-.16Z"/>
                  </g>
                  <g id="Group_14076" data-name="Group 14076" class="cls-12">
                    <path id="Path_33627" data-name="Path 33627" class="cls-1" d="M15.387,5.467l-.267.16.96,1.52.267-.16Z"/>
                  </g>
                  <g id="Group_14077" data-name="Group 14077" class="cls-12">
                    <path id="Path_33628" data-name="Path 33628" class="cls-1" d="M13.2,7.12l-.267.187,1.093,1.44.267-.187Z"/>
                  </g>
                  <g id="Group_14078" data-name="Group 14078" class="cls-12">
                    <path id="Path_33629" data-name="Path 33629" class="cls-1" d="M11.093,8.853l-.24.213,1.2,1.333.24-.213Z"/>
                  </g>
                  <g id="Group_14079" data-name="Group 14079" class="cls-12">
                    <path id="Path_33630" data-name="Path 33630" class="cls-1" d="M9.147,10.747l-.213.24,1.333,1.227.213-.24Z"/>
                  </g>
                  <g id="Group_14080" data-name="Group 14080" class="cls-12">
                    <path id="Path_33631" data-name="Path 33631" class="cls-1" d="M7.387,12.827l-.187.267,1.413,1.093L8.8,13.92Z"/>
                  </g>
                  <g id="Group_14081" data-name="Group 14081" class="cls-12">
                    <path id="Path_33632" data-name="Path 33632" class="cls-1" d="M5.813,15.04l-.16.267,1.52.96L7.333,16Z"/>
                  </g>
                  <g id="Group_14082" data-name="Group 14082" class="cls-12">
                    <path id="Path_33633" data-name="Path 33633" class="cls-1" d="M4.427,17.387l-.16.293,1.6.827.16-.293Z"/>
                  </g>
                  <g id="Group_14083" data-name="Group 14083" class="cls-12">
                    <path id="Path_33634" data-name="Path 33634" class="cls-1" d="M3.253,19.84l-.133.293,1.653.693.133-.293L3.253,19.84Z"/>
                  </g>
                  <g id="Group_14084" data-name="Group 14084" class="cls-12">
                    <path id="Path_33635" data-name="Path 33635" class="cls-1" d="M2.32,22.4l-.107.293,1.707.533.107-.293Z"/>
                  </g>
                  <g id="Group_14085" data-name="Group 14085" class="cls-12">
                    <path id="Path_33636" data-name="Path 33636" class="cls-1" d="M1.6,25.013l-.08.32,1.76.4.08-.32-1.76-.4Z"/>
                  </g>
                  <g id="Group_14086" data-name="Group 14086" class="cls-12">
                    <path id="Path_33637" data-name="Path 33637" class="cls-1" d="M1.093,27.707l-.053.32,1.787.24.053-.32-1.787-.24Z"/>
                  </g>
                  <g id="Group_14087" data-name="Group 14087" class="cls-12">
                    <path id="Path_33638" data-name="Path 33638" class="cls-1" d="M.827,30.4v.32l1.787.08v-.32Z"/>
                  </g>
                  <g id="Group_14088" data-name="Group 14088" class="cls-12">
                    <path id="Path_33639" data-name="Path 33639" class="cls-1" d="M2.613,33.067l-1.787.08v.32l1.813-.08v-.32Z"/>
                  </g>
                  <g id="Group_14089" data-name="Group 14089" class="cls-12">
                    <path id="Path_33640" data-name="Path 33640" class="cls-1" d="M2.827,35.627l-1.787.24.053.32,1.787-.24Z"/>
                  </g>
                  <g id="Group_14090" data-name="Group 14090" class="cls-12">
                    <path id="Path_33641" data-name="Path 33641" class="cls-1" d="M3.253,38.133l-1.76.373.08.32,1.76-.373Z"/>
                  </g>
                  <g id="Group_14091" data-name="Group 14091" class="cls-12">
                    <path id="Path_33642" data-name="Path 33642" class="cls-1" d="M3.893,40.64l-1.707.533.107.293L4,40.933Z"/>
                  </g>
                  <g id="Group_14092" data-name="Group 14092" class="cls-12">
                    <path id="Path_33643" data-name="Path 33643" class="cls-1" d="M4.747,43.04l-1.653.693.133.293,1.653-.693Z"/>
                  </g>
                  <g id="Group_14093" data-name="Group 14093" class="cls-12">
                    <path id="Path_33644" data-name="Path 33644" class="cls-1" d="M5.813,45.387l-1.6.827.16.293,1.6-.827Z"/>
                  </g>
                  <g id="Group_14094" data-name="Group 14094" class="cls-12">
                    <path id="Path_33645" data-name="Path 33645" class="cls-1" d="M7.067,47.6l-1.52.96.16.267,1.52-.96Z"/>
                  </g>
                  <g id="Group_14095" data-name="Group 14095" class="cls-12">
                    <path id="Path_33646" data-name="Path 33646" class="cls-1" d="M8.64,49.467,7.227,50.56l.187.24,1.413-1.093Z"/>
                  </g>
                  <g id="Group_14096" data-name="Group 14096" class="cls-12">
                    <path id="Path_33647" data-name="Path 33647" class="cls-1" d="M10.16,51.707l-1.333,1.2.213.24,1.333-1.2Z"/>
                  </g>
                  <g id="Group_14097" data-name="Group 14097" class="cls-12">
                    <path id="Path_33648" data-name="Path 33648" class="cls-1" d="M11.973,53.52l-1.227,1.333.24.213,1.227-1.333Z"/>
                  </g>
                  <g id="Group_14098" data-name="Group 14098" class="cls-12">
                    <path id="Path_33649" data-name="Path 33649" class="cls-1" d="M13.813,55.2,12.72,56.613l.24.187,1.093-1.413Z"/>
                  </g>
                  <g id="Group_14099" data-name="Group 14099" class="cls-12">
                    <path id="Path_33650" data-name="Path 33650" class="cls-1" d="M16,56.667l-.96,1.52.267.16.96-1.52Z"/>
                  </g>
                  <g id="Group_14100" data-name="Group 14100" class="cls-12">
                    <path id="Path_33651" data-name="Path 33651" class="cls-1" d="M18.213,57.973l-.827,1.6.293.16.827-1.6Z"/>
                  </g>
                  <g id="Group_14101" data-name="Group 14101" class="cls-12">
                    <path id="Path_33652" data-name="Path 33652" class="cls-1" d="M20.533,59.067,19.84,60.72l.293.133.693-1.653Z"/>
                  </g>
                  <g id="Group_14102" data-name="Group 14102" class="cls-12">
                    <path id="Path_33653" data-name="Path 33653" class="cls-1" d="M22.933,59.973,22.4,61.68l.293.107.533-1.707Z"/>
                  </g>
                  <g id="Group_14103" data-name="Group 14103" class="cls-12">
                    <path id="Path_33654" data-name="Path 33654" class="cls-1" d="M25.413,60.667l-.4,1.76.32.08.4-1.76Z"/>
                  </g>
                  <g id="Group_14104" data-name="Group 14104" class="cls-12">
                    <path id="Path_33655" data-name="Path 33655" class="cls-1" d="M27.947,61.12l-.24,1.787.32.053.24-1.787Z"/>
                  </g>
                  <g id="Group_14105" data-name="Group 14105" class="cls-12">
                    <path id="Path_33656" data-name="Path 33656" class="cls-1" d="M30.48,61.36l-.08,1.787h.32l.08-1.787Z"/>
                  </g>
                  <g id="Group_14106" data-name="Group 14106" class="cls-12">
                    <path id="Path_33657" data-name="Path 33657" class="cls-1" d="M33.387,61.36h-.32l.08,1.813h.32Z"/>
                  </g>
                  <g id="Group_14107" data-name="Group 14107" class="cls-12">
                    <path id="Path_33658" data-name="Path 33658" class="cls-1" d="M35.92,61.147l-.32.053.24,1.787.32-.053Z"/>
                  </g>
                  <g id="Group_14108" data-name="Group 14108" class="cls-12">
                    <path id="Path_33659" data-name="Path 33659" class="cls-1" d="M38.453,60.693l-.32.08.373,1.76.32-.08Z"/>
                  </g>
                  <g id="Group_14109" data-name="Group 14109" class="cls-12">
                    <path id="Path_33660" data-name="Path 33660" class="cls-1" d="M40.933,60l-.293.107.533,1.707.293-.107Z"/>
                  </g>
                  <g id="Group_14110" data-name="Group 14110" class="cls-12">
                    <path id="Path_33661" data-name="Path 33661" class="cls-1" d="M43.333,59.12l-.293.133.693,1.653.293-.133Z"/>
                  </g>
                  <g id="Group_14111" data-name="Group 14111" class="cls-12">
                    <path id="Path_33662" data-name="Path 33662" class="cls-1" d="M45.653,58.027l-.293.16.827,1.6.293-.16Z"/>
                  </g>
                  <g id="Group_14112" data-name="Group 14112" class="cls-12">
                    <path id="Path_33663" data-name="Path 33663" class="cls-1" d="M47.92,56.267l-.267.16.96,1.52.267-.16Z"/>
                  </g>
                  <g id="Group_14113" data-name="Group 14113" class="cls-12">
                    <path id="Path_33664" data-name="Path 33664" class="cls-1" d="M49.973,55.28l-.267.187,1.093,1.44.267-.187Z"/>
                  </g>
                  <g id="Group_14114" data-name="Group 14114" class="cls-12">
                    <path id="Path_33665" data-name="Path 33665" class="cls-1" d="M51.947,53.627l-.24.213,1.2,1.333.24-.213Z"/>
                  </g>
                  <g id="Group_14115" data-name="Group 14115" class="cls-12">
                    <path id="Path_33666" data-name="Path 33666" class="cls-1" d="M53.733,51.787l-.213.24,1.333,1.227.213-.24Z"/>
                  </g>
                  <g id="Group_14116" data-name="Group 14116" class="cls-12">
                    <path id="Path_33667" data-name="Path 33667" class="cls-1" d="M55.387,49.813l-.187.267,1.413,1.093.187-.24L55.387,49.84Z"/>
                  </g>
                  <g id="Group_14117" data-name="Group 14117" class="cls-12">
                    <path id="Path_33668" data-name="Path 33668" class="cls-1" d="M56.853,47.707l-.16.267,1.52.96.16-.267Z"/>
                  </g>
                  <g id="Group_14118" data-name="Group 14118" class="cls-12">
                    <path id="Path_33669" data-name="Path 33669" class="cls-1" d="M58.133,45.493l-.16.293,1.6.827.16-.293Z"/>
                  </g>
                  <g id="Group_14119" data-name="Group 14119" class="cls-12">
                    <path id="Path_33670" data-name="Path 33670" class="cls-1" d="M59.2,43.173l-.133.293,1.653.693.133-.293Z"/>
                  </g>
                  <g id="Group_14120" data-name="Group 14120" class="cls-12">
                    <path id="Path_33671" data-name="Path 33671" class="cls-1" d="M60.08,40.747l-.107.293,1.707.533.107-.293Z"/>
                  </g>
                  <g id="Group_14121" data-name="Group 14121" class="cls-12">
                    <path id="Path_33672" data-name="Path 33672" class="cls-1" d="M60.72,38.267l-.08.32,1.76.4.08-.32Z"/>
                  </g>
                  <g id="Group_14122" data-name="Group 14122" class="cls-12">
                    <path id="Path_33673" data-name="Path 33673" class="cls-1" d="M61.173,35.733l-.053.32,1.787.24.053-.32Z"/>
                  </g>
                  <g id="Group_14123" data-name="Group 14123" class="cls-12">
                    <path id="Path_33674" data-name="Path 33674" class="cls-1" d="M61.387,33.2v.32l1.787.08v-.32Z"/>
                  </g>
                  <g id="Group_14124" data-name="Group 14124" class="cls-12">
                    <path id="Path_33675" data-name="Path 33675" class="cls-1" d="M63.173,30.533l-1.787.08v.32l1.813-.08v-.32Z"/>
                  </g>
                  <g id="Group_14125" data-name="Group 14125" class="cls-12">
                    <path id="Path_33676" data-name="Path 33676" class="cls-1" d="M62.933,27.84l-1.787.24.053.32,1.787-.24Z"/>
                  </g>
                  <g id="Group_14126" data-name="Group 14126" class="cls-12">
                    <path id="Path_33677" data-name="Path 33677" class="cls-1" d="M62.453,25.147l-1.76.373.08.32,1.76-.373Z"/>
                  </g>
                  <g id="Group_14127" data-name="Group 14127" class="cls-12">
                    <path id="Path_33678" data-name="Path 33678" class="cls-1" d="M61.733,22.533l-1.707.533.107.293,1.707-.533Z"/>
                  </g>
                  <g id="Group_14128" data-name="Group 14128" class="cls-12">
                    <path id="Path_33679" data-name="Path 33679" class="cls-1" d="M60.8,19.973l-1.653.693.133.293,1.653-.693-.133-.293Z"/>
                  </g>
                  <g id="Group_14129" data-name="Group 14129" class="cls-12">
                    <path id="Path_33680" data-name="Path 33680" class="cls-1" d="M59.627,17.52l-1.6.827.16.293,1.6-.827Z"/>
                  </g>
                  <g id="Group_14130" data-name="Group 14130" class="cls-12">
                    <path id="Path_33681" data-name="Path 33681" class="cls-1" d="M58.267,15.173l-1.52.96.16.267,1.52-.96Z"/>
                  </g>
                  <g id="Group_14131" data-name="Group 14131" class="cls-12">
                    <path id="Path_33682" data-name="Path 33682" class="cls-1" d="M56.48,12.72l-1.413,1.093.187.24,1.413-1.093Z"/>
                  </g>
                  <g id="Group_14132" data-name="Group 14132" class="cls-12">
                    <path id="Path_33683" data-name="Path 33683" class="cls-1" d="M54.933,10.853l-1.333,1.2.213.24,1.333-1.2Z"/>
                  </g>
                  <g id="Group_14133" data-name="Group 14133" class="cls-12">
                    <path id="Path_33684" data-name="Path 33684" class="cls-1" d="M53.013,8.933l-1.227,1.333.24.213,1.227-1.333Z"/>
                  </g>
                  <g id="Group_14134" data-name="Group 14134" class="cls-12">
                    <path id="Path_33685" data-name="Path 33685" class="cls-1" d="M50.88,7.307,49.787,8.72l.24.187L51.12,7.493Z"/>
                  </g>
                  <g id="Group_14135" data-name="Group 14135" class="cls-12">
                    <path id="Path_33686" data-name="Path 33686" class="cls-1" d="M48.693,5.627l-.96,1.52.267.16.96-1.52Z"/>
                  </g>
                  <g id="Group_14136" data-name="Group 14136" class="cls-12">
                    <path id="Path_33687" data-name="Path 33687" class="cls-1" d="M46.32,4.293l-.827,1.6.293.16.827-1.6Z"/>
                  </g>
                  <g id="Group_14137" data-name="Group 14137" class="cls-12">
                    <path id="Path_33688" data-name="Path 33688" class="cls-1" d="M43.867,3.147,43.173,4.8l.293.133L44.16,3.28Z"/>
                  </g>
                  <g id="Group_14138" data-name="Group 14138" class="cls-12">
                    <path id="Path_33689" data-name="Path 33689" class="cls-1" d="M41.307,2.213,40.773,3.92l.293.107L41.6,2.32Z"/>
                  </g>
                  <g id="Group_14139" data-name="Group 14139" class="cls-12">
                    <path id="Path_33690" data-name="Path 33690" class="cls-1" d="M38.667,1.52l-.4,1.76.32.08.4-1.76Z"/>
                  </g>
                  <g id="Group_14140" data-name="Group 14140" class="cls-12">
                    <path id="Path_33691" data-name="Path 33691" class="cls-1" d="M35.973,1.067l-.24,1.787.32.053.24-1.787Z"/>
                  </g>
                  <g id="Group_14141" data-name="Group 14141" class="cls-12">
                    <path id="Path_33692" data-name="Path 33692" class="cls-1" d="M33.28.827,33.2,2.613h.32L33.6.827Z"/>
                  </g>
                </g>
              </g>
            </g>
          </g>
        </g>
      </g>
    </g>
  </g>
</svg>
