<svg xmlns="http://www.w3.org/2000/svg" xmlns:xlink="http://www.w3.org/1999/xlink" width="114" height="64" viewBox="0 0 114 64">
  <defs>
    <style>
      .cls-1 {
        fill: #fff;
      }

      .cls-2 {
        clip-path: url(#clip-path);
      }

      .cls-3 {
        fill: #53ae94;
      }

      .cls-4 {
        clip-path: url(#clip-path-2);
      }

      .cls-5 {
        fill: #fff1d9;
      }

      .cls-6 {
        fill: #482402;
      }

      .cls-6, .cls-7 {
        fill-rule: evenodd;
      }

      .cls-7 {
        fill: #f6e6d2;
      }

      .cls-8 {
        fill: #e89b37;
      }

      .cls-9 {
        fill: rgba(0,0,0,0);
      }

      .cls-10 {
        fill: #e28432;
      }
    </style>
    <clipPath id="clip-path">
      <circle id="Ellipse_5532" data-name="Ellipse 5532" class="cls-1" cx="32" cy="32" r="32" transform="translate(-23439 -23605)"/>
    </clipPath>
    <clipPath id="clip-path-2">
      <circle id="Ellipse_5300" data-name="Ellipse 5300" class="cls-1" cx="32" cy="32" r="32" transform="translate(-21250 -21705)"/>
    </clipPath>
  </defs>
  <g id="Group_20054" data-name="Group 20054" transform="translate(21300 21705)">
    <g id="Mask_Group_738" data-name="Mask Group 738" class="cls-2" transform="translate(2139 1900)">
      <g id="tether-seeklogo.com" transform="translate(-23439 -23605)">
        <path id="Path_40561" data-name="Path 40561" class="cls-3" d="M32,0A32,32,0,1,1,0,32,32,32,0,0,1,32,0"/>
        <path id="Path_40562" data-name="Path 40562" class="cls-1" d="M35.949,27.736v-4.76H46.835V15.723H17.193v7.253H28.08v4.756c-8.848.406-15.5,2.159-15.5,4.258s6.656,3.852,15.5,4.26V51.5h7.872V36.25c8.832-.408,15.471-2.159,15.471-4.256s-6.639-3.848-15.471-4.256m0,7.22v0c-.222.014-1.363.083-3.9.083-2.031,0-3.46-.058-3.964-.084v.006c-7.817-.346-13.652-1.708-13.652-3.336s5.836-2.988,13.652-3.335V33.6c.512.035,1.976.122,4,.122,2.428,0,3.648-.1,3.872-.122V28.288c7.8.348,13.623,1.71,13.623,3.333s-5.824,2.986-13.623,3.334"/>
      </g>
    </g>
    <g id="Mask_Group_739" data-name="Mask Group 739" class="cls-4">
      <g id="baby" transform="translate(-21250 -21705)">
        <circle id="Ellipse_5533" data-name="Ellipse 5533" class="cls-5" cx="32" cy="32" r="32"/>
        <path id="Path_40563" data-name="Path 40563" class="cls-6" d="M36.955,46.94a11.4,11.4,0,1,1-4.172-15.571A11.4,11.4,0,0,1,36.955,46.94Zm-14.431,2.2a9.119,9.119,0,1,0-3.338-12.457A9.119,9.119,0,0,0,22.524,49.138Z"/>
        <path id="Path_40564" data-name="Path 40564" class="cls-6" d="M33.2,44.774a7.067,7.067,0,1,1-2.587-9.654A7.067,7.067,0,0,1,33.2,44.774Zm-8.514.612a4.787,4.787,0,1,0-1.752-6.54A4.787,4.787,0,0,0,24.69,45.386Z"/>
        <path id="Path_40565" data-name="Path 40565" class="cls-7" d="M30.2,35.837a6.239,6.239,0,1,0,2.284,8.523A6.239,6.239,0,0,0,30.2,35.837Zm-11.017.844a9.119,9.119,0,1,1,3.338,12.457A9.119,9.119,0,0,1,19.187,36.681Z"/>
        <path id="Path_40566" data-name="Path 40566" class="cls-8" d="M45.869,22.383a6.808,6.808,0,0,1-3.084,2.8,2.195,2.195,0,0,0-.926,2.919,16.016,16.016,0,0,1,3.123,11.373,1.442,1.442,0,0,0,.959,1.46A5.7,5.7,0,1,1,41.075,51.2L15.31,36.329a5.7,5.7,0,1,1,6.458-9.348,1.442,1.442,0,0,0,1.744.1A16.016,16.016,0,0,1,34.922,24.1c1.057.13,2.167-1.2,2.065-2.261a6.809,6.809,0,0,1,.886-4.072c1.889-3.271,4.932-2.418,8.2-.529C46.075,17.237,47.757,19.111,45.869,22.383Z"/>
        <path id="Path_40567" data-name="Path 40567" class="cls-9" d="M45.869,22.383a6.808,6.808,0,0,1-3.084,2.8,2.195,2.195,0,0,0-.926,2.919,16.016,16.016,0,0,1,3.123,11.373,1.442,1.442,0,0,0,.959,1.46A5.7,5.7,0,1,1,41.075,51.2L15.31,36.329a5.7,5.7,0,1,1,6.458-9.348,1.442,1.442,0,0,0,1.744.1A16.016,16.016,0,0,1,34.922,24.1c1.057.13,2.167-1.2,2.065-2.261a6.809,6.809,0,0,1,.886-4.072c1.889-3.271,4.932-2.418,8.2-.529C46.075,17.237,47.757,19.111,45.869,22.383Z"/>
        <path id="Path_40568" data-name="Path 40568" class="cls-10" d="M43.3,38.508a16.016,16.016,0,0,0-3.123-11.373l-.623,1.08c.942,4.493.177,4.577-.2,8.013a1.442,1.442,0,0,0,.96,1.46,5.7,5.7,0,1,1-4.867,10.267l3.949,2.28a5.7,5.7,0,1,0,4.867-10.267A1.442,1.442,0,0,1,43.3,38.508Z"/>
        <path id="Path_40569" data-name="Path 40569" class="cls-6" d="M41.84,23.111A4.56,4.56,0,1,0,35.406,19.4,4.464,4.464,0,0,1,34.248,22.7a4.032,4.032,0,0,1-3.454,1.437A13.736,13.736,0,0,0,21.011,26.7a3.72,3.72,0,0,1-4.534-.172,3.459,3.459,0,0,0-.458-.315,3.42,3.42,0,1,0-3.42,5.923l29.615,17.1a3.42,3.42,0,0,0,3.42-5.923,3.464,3.464,0,0,0-.5-.239,3.72,3.72,0,0,1-2.416-3.841,13.736,13.736,0,0,0-2.678-9.75,4.032,4.032,0,0,1-.482-3.71A4.464,4.464,0,0,1,41.84,23.111Zm.945,2.075a6.839,6.839,0,1,0-9.648-5.57c.1,1.06-1.008,2.391-2.065,2.261a16.016,16.016,0,0,0-11.411,2.981,1.442,1.442,0,0,1-1.744-.1,5.7,5.7,0,1,0-6.458,9.348L41.075,51.2a5.7,5.7,0,1,0,4.867-10.267,1.442,1.442,0,0,1-.959-1.46A16.016,16.016,0,0,0,41.859,28.1,2.194,2.194,0,0,1,42.785,25.186Z"/>
        <path id="Path_40570" data-name="Path 40570" class="cls-6" d="M32.231,28.361a1.14,1.14,0,0,1-1.382.83,8.436,8.436,0,0,0-3.3-.049,6.91,6.91,0,0,0-3.9,2.033,1.14,1.14,0,1,1-1.663-1.56A9.186,9.186,0,0,1,27.147,26.9a10.69,10.69,0,0,1,4.254.082A1.14,1.14,0,0,1,32.231,28.361Z"/>
      </g>
    </g>
  </g>
</svg>
