<svg xmlns="http://www.w3.org/2000/svg" xmlns:xlink="http://www.w3.org/1999/xlink" width="114" height="64" viewBox="0 0 114 64">
  <defs>
    <style>
      .cls-1, .cls-3, .cls-7, .cls-9 {
        fill: none;
      }

      .cls-1 {
        stroke: rgba(0,0,0,0);
      }

      .cls-2, .cls-8 {
        fill: #fff;
      }

      .cls-4 {
        clip-path: url(#clip-path);
      }

      .cls-5 {
        clip-path: url(#clip-path-2);
      }

      .cls-6 {
        fill: #103f68;
      }

      .cls-7 {
        stroke: #fff;
        stroke-width: 2.125px;
      }

      .cls-7, .cls-8, .cls-9 {
        fill-rule: evenodd;
      }

      .cls-9 {
        stroke: #979797;
        stroke-width: 0.125px;
      }

      .cls-10 {
        clip-path: url(#clip-path-4);
      }

      .cls-11 {
        fill: url(#radial-gradient);
      }

      .cls-12 {
        clip-path: url(#clip-path-5);
      }
    </style>
    <clipPath id="clip-path">
      <circle id="Ellipse_2572" data-name="Ellipse 2572" class="cls-1" cx="32" cy="32" r="32"/>
    </clipPath>
    <clipPath id="clip-path-2">
      <circle id="Ellipse_1807" data-name="Ellipse 1807" class="cls-2" cx="32" cy="32" r="32"/>
    </clipPath>
    <clipPath id="clip-path-4">
      <circle id="Ellipse_2574" data-name="Ellipse 2574" class="cls-3" cx="32" cy="32" r="32"/>
    </clipPath>
    <radialGradient id="radial-gradient" cx="0.498" cy="0" r="1.503" gradientTransform="translate(0.745 1) rotate(90) scale(1 0.745)" gradientUnits="objectBoundingBox">
      <stop offset="0" stop-color="#a56eff"/>
      <stop offset="1" stop-color="#126df5"/>
    </radialGradient>
    <clipPath id="clip-path-5">
      <rect id="Rectangle_5466" data-name="Rectangle 5466" class="cls-3" width="64" height="64"/>
    </clipPath>
  </defs>
  <g id="Group_13482" data-name="Group 13482" transform="translate(20001 24751)">
    <g id="Mask_Group_580" data-name="Mask Group 580" class="cls-4" transform="translate(-20001 -24751)">
      <g id="Group_720" data-name="Group 720">
        <g id="Mask_Group_11" data-name="Mask Group 11" class="cls-5">
          <g id="Mask_Group_471" data-name="Mask Group 471" class="cls-5">
            <g id="Page-1">
              <circle id="Oval" class="cls-6" cx="32" cy="32" r="32"/>
              <path id="Polygon" class="cls-7" d="M32.188,11.164,50.232,21.582V42.418L32.188,52.836,14.143,42.418V21.582Z" transform="translate(0)"/>
              <path id="Path" class="cls-8" d="M24.379,19.561l-1.686,7.632H41.121l-1.8-7.632Z" transform="translate(0)"/>
              <path id="Path-2" class="cls-8" d="M22.626,29.8l-4.989,3.74,6.8,11.908h2.735l3.212-3.02v-1.5l-3.335-3.2v-5.1Z"/>
              <path id="Path-2-2" data-name="Path-2" class="cls-8" d="M4.989,15.65,0,11.908,6.8,0H9.535l3.211,3.02v1.5L9.411,7.72v5.1Z" transform="translate(46.13 45.395) rotate(180)"/>
              <path id="Path-3" class="cls-9" transform="translate(0)"/>
              <path id="Path-4" class="cls-8" d="M27.068,28.362l1.623,4.257-.5,4.771,7.4-.024-.452-4.747,1.6-4.257Z"/>
            </g>
          </g>
        </g>
      </g>
    </g>
    <g id="Group_13476" data-name="Group 13476" transform="translate(-19951 -24751)">
      <g id="Group_13473" data-name="Group 13473">
        <g id="Group_13472" data-name="Group 13472" class="cls-10">
          <rect id="Rectangle_5465" data-name="Rectangle 5465" class="cls-11" width="64" height="64"/>
        </g>
      </g>
      <g id="Group_13475" data-name="Group 13475">
        <g id="Group_13474" data-name="Group 13474" class="cls-12">
          <path id="Path_32599" data-name="Path 32599" class="cls-2" d="M21.315,28.757l6.66-6.649h8.06l6.66,6.649L32,39.453Zm29.136-.076L43.52,35.613H38.541l6.931-6.932-7.04-6.986H43.39Zm-8.4,8.407L32,47.143,21.944,37.088h4.99L32,42.154l5.065-5.066ZM18.527,28.681l6.932,6.932H20.48l-6.932-6.932,7.062-6.986H25.6ZM33.334,53.63,56.927,30.091a1.9,1.9,0,0,0,0-2.679l-10.6-10.587a1.878,1.878,0,0,0-1.334-.553H18.961a1.878,1.878,0,0,0-1.334.553L7.072,27.412a1.9,1.9,0,0,0,0,2.679L30.665,53.684a1.887,1.887,0,0,0,2.669,0ZM19.677,19.8H44.312l8.97,8.96L32,50.04,10.717,28.757Z"/>
        </g>
      </g>
    </g>
  </g>
</svg>
