<svg xmlns="http://www.w3.org/2000/svg" xmlns:xlink="http://www.w3.org/1999/xlink" width="115" height="66" viewBox="0 0 115 66">
  <defs>
    <style>
      .cls-1, .cls-4 {
        fill: #fff;
      }

      .cls-2 {
        clip-path: url(#clip-path);
      }

      .cls-3 {
        fill: #2c3851;
      }

      .cls-4 {
        stroke: #000;
      }

      .cls-5 {
        clip-path: url(#clip-path-2);
      }

      .cls-6 {
        fill: url(#radial-gradient);
      }

      .cls-7 {
        fill: url(#linear-gradient);
      }

      .cls-8 {
        fill: url(#linear-gradient-2);
      }

      .cls-9 {
        fill: url(#linear-gradient-3);
      }

      .cls-10 {
        fill: url(#radial-gradient-2);
      }

      .cls-11 {
        stroke: none;
      }

      .cls-12 {
        fill: none;
      }
    </style>
    <clipPath id="clip-path">
      <circle id="Ellipse_2547" data-name="Ellipse 2547" class="cls-1" cx="32.5" cy="32.5" r="32.5"/>
    </clipPath>
    <clipPath id="clip-path-2">
      <path id="Path_40598" data-name="Path 40598" class="cls-1" d="M32,0A32,32,0,1,1,0,32,32,32,0,0,1,32,0Z"/>
    </clipPath>
    <radialGradient id="radial-gradient" cx="0.468" cy="0.494" r="0.576" gradientTransform="matrix(0.752, 0.591, 0.434, -0.636, -3.907, 13.428)" gradientUnits="objectBoundingBox">
      <stop offset="0" stop-color="#88f5f8" stop-opacity="0.698"/>
      <stop offset="0.73" stop-color="#88f5f8" stop-opacity="0"/>
    </radialGradient>
    <linearGradient id="linear-gradient" x1="0.148" y1="1.143" x2="1.28" y2="-0.092" gradientUnits="objectBoundingBox">
      <stop offset="0" stop-color="#8697ff"/>
      <stop offset="0.29" stop-color="#7a7bf5"/>
      <stop offset="0.76" stop-color="#6853e7"/>
      <stop offset="1" stop-color="#6144e1"/>
    </linearGradient>
    <linearGradient id="linear-gradient-2" x1="0.126" y1="1.595" x2="0.911" y2="0.75" gradientUnits="objectBoundingBox">
      <stop offset="0" stop-color="#afffff"/>
      <stop offset="0.68" stop-color="#5adfe6"/>
      <stop offset="1" stop-color="#36d1dc"/>
    </linearGradient>
    <linearGradient id="linear-gradient-3" x1="0.87" y1="2.966" x2="0.154" y2="3.681" gradientUnits="objectBoundingBox">
      <stop offset="0" stop-color="#f7971e"/>
      <stop offset="0.16" stop-color="#f9a616"/>
      <stop offset="0.47" stop-color="#fcbe0a"/>
      <stop offset="0.76" stop-color="#fecd03"/>
      <stop offset="1" stop-color="#ffd200"/>
    </linearGradient>
    <radialGradient id="radial-gradient-2" cx="0.49" cy="0.476" r="0.459" gradientTransform="matrix(0.628, -0.763, -0.891, -0.779, 4.014, 7.937)" gradientUnits="objectBoundingBox">
      <stop offset="0" stop-color="#b4a7fe" stop-opacity="0.698"/>
      <stop offset="0.46" stop-color="#b4a7fe" stop-opacity="0"/>
    </radialGradient>
  </defs>
  <g id="Group_20071" data-name="Group 20071" transform="translate(20818 24679)">
    <g id="Mask_Group_558" data-name="Mask Group 558" class="cls-2" transform="translate(-20818 -24678)">
      <g id="_0x2D03bECE6747ADC00E1a131BBA1469C15fD11e03" data-name="0x2D03bECE6747ADC00E1a131BBA1469C15fD11e03" transform="translate(0 -0.001)">
        <circle id="Ellipse_2546" data-name="Ellipse 2546" class="cls-3" cx="32.5" cy="32.5" r="32.5"/>
        <g id="Group_13421" data-name="Group 13421" transform="translate(12.716 15.986)">
          <path id="Path_32465" data-name="Path 32465" class="cls-1" d="M32.3,51.117a11.306,11.306,0,0,1-8.047-3.333l-8.409-8.408a11.391,11.391,0,0,1,0-16.093l4.2-4.2A11.306,11.306,0,0,1,28.1,15.745h8.409a11.306,11.306,0,0,1,8.047,3.333l4.2,4.2a11.393,11.393,0,0,1,0,16.093l-8.409,8.408A11.3,11.3,0,0,1,32.3,51.117ZM28.1,20.261a6.819,6.819,0,0,0-4.853,2.011l-4.2,4.2a6.872,6.872,0,0,0,0,9.707l8.409,8.408a6.863,6.863,0,0,0,9.707,0l8.409-8.408a6.872,6.872,0,0,0,0-9.707l-4.2-4.2a6.819,6.819,0,0,0-4.853-2.011H28.1Z" transform="translate(-12.521 -15.745)"/>
          <path id="Path_32466" data-name="Path 32466" class="cls-1" d="M32.208,44.979a6.494,6.494,0,0,1-4.623-1.915l-7-7a6.541,6.541,0,0,1,0-9.243l3.5-3.5a6.493,6.493,0,0,1,4.622-1.914h7a6.493,6.493,0,0,1,4.622,1.914l3.5,3.5a6.541,6.541,0,0,1,0,9.243l-7,7A6.485,6.485,0,0,1,32.208,44.979Zm-3.5-19.1a2.024,2.024,0,0,0-1.46.6l-3.5,3.5a2.07,2.07,0,0,0,0,2.921l7,7a2.092,2.092,0,0,0,2.921,0l7-7a2.069,2.069,0,0,0,0-2.921l-3.5-3.5a2.024,2.024,0,0,0-1.46-.6h-7Z" transform="translate(-12.424 -15.657)"/>
          <path id="Path_32467" data-name="Path 32467" class="cls-1" d="M32.118,39.343l-7.667-7.667,4.81-4.81h5.715l4.81,4.81Z" transform="translate(-12.334 -15.571)"/>
        </g>
      </g>
    </g>
    <g id="Ellipse_5542" data-name="Ellipse 5542" class="cls-4" transform="translate(-20769 -24679)">
      <circle class="cls-11" cx="33" cy="33" r="33"/>
      <circle class="cls-12" cx="33" cy="33" r="32.5"/>
    </g>
    <g id="Mask_Group_750" data-name="Mask Group 750" class="cls-5" transform="translate(-20768 -24678)">
      <g id="Layer_2" data-name="Layer 2" transform="translate(-35.22 -42.091)">
        <g id="Layer_1" data-name="Layer 1" transform="translate(8.854 -1.671)">
          <g id="Group_13420" data-name="Group 13420" transform="translate(0)">
            <path id="Path_32459" data-name="Path 32459" class="cls-1" d="M51.173,82.671A32.279,32.279,0,1,0,18.894,50.392,32.279,32.279,0,0,0,51.173,82.671Z" transform="translate(7.227 25.703)"/>
            <path id="Path_32460" data-name="Path 32460" class="cls-6" d="M96.612,101.279c-14.3,19.529-45.949,20.659-70.707,2.55S-7.359,55.185,6.941,35.656,52.89,14.981,77.648,33.073,110.912,81.75,96.612,101.279Z" transform="translate(0.001 11.781)"/>
            <path id="Path_32462" data-name="Path 32462" class="cls-7" d="M60.766,30.36a2.711,2.711,0,0,0-1.017-1.792A27.711,27.711,0,0,0,42.77,23.4a27.712,27.712,0,0,0-16.947,5.165,2.711,2.711,0,0,0-1.017,1.792c-.533,4.212-1.372,19.8,14.106,28.212a8.07,8.07,0,0,0,7.715,0C62.137,50.164,61.3,34.573,60.766,30.36Z" transform="translate(15.631 33.5)"/>
            <path id="Path_32463" data-name="Path 32463" class="cls-8" d="M45.332,36.016a4.664,4.664,0,0,0-.581-1.21,4.5,4.5,0,0,0-.839-.9,6.458,6.458,0,0,0-1-.629,4.245,4.245,0,0,0-1.049-.355,4.616,4.616,0,0,0-1.017-.129H33.986a1.517,1.517,0,0,1-1.162-.436,1.953,1.953,0,0,1,0-2.421,1.469,1.469,0,0,1,1.162-.452H44.348a.759.759,0,0,0,.823-.71V27.155a.742.742,0,0,0-.742-.742H33.986a5.487,5.487,0,0,0-1.614.242,4.971,4.971,0,0,0-1.517.823,4.68,4.68,0,0,0-1.178,1.469,5.536,5.536,0,0,0,0,4.455,4.681,4.681,0,0,0,1.178,1.469,4.971,4.971,0,0,0,1.517.823,5.488,5.488,0,0,0,1.614.242h6.859a1.791,1.791,0,0,1,.662.129,1.466,1.466,0,0,1,.823.855,2.292,2.292,0,0,1,.113.678,1.7,1.7,0,0,1-.42,1.21,1.614,1.614,0,0,1-1.178.436H29.128a.71.71,0,0,0-.629,1.033l.823,1.614a.726.726,0,0,0,.646.387H40.845a5.648,5.648,0,0,0,1-.1,5.117,5.117,0,0,0,2.05-.968,3.454,3.454,0,0,0,.839-.9,4.439,4.439,0,0,0,.581-1.21,5.681,5.681,0,0,0,0-3.115Z" transform="translate(21.3 37.964)"/>
            <path id="Path_32464" data-name="Path 32464" class="cls-9" d="M34.965,33.829a4.455,4.455,0,1,0-4.551-4.471A4.519,4.519,0,0,0,34.965,33.829Z" transform="translate(24.243 35.761)"/>
            <path id="Path_32461" data-name="Path 32461" class="cls-10" d="M109.053,17.093c26.453,22.45,32.8,58.458,14.154,80.44s-55.229,21.611-81.666-.839S8.714,38.219,27.371,16.237,82.584-5.358,109.053,17.093Z" transform="translate(-5.36 0)"/>
          </g>
        </g>
      </g>
    </g>
  </g>
</svg>
