<svg xmlns="http://www.w3.org/2000/svg" xmlns:xlink="http://www.w3.org/1999/xlink" width="114" height="64" viewBox="0 0 114 64">
  <defs>
    <style>
      .cls-1 {
        fill: #fff;
      }

      .cls-2 {
        clip-path: url(#clip-path);
      }

      .cls-3 {
        fill: #f0b90b;
      }

      .cls-4 {
        clip-path: url(#clip-path-2);
      }

      .cls-5 {
        fill: #fff1d9;
      }

      .cls-6 {
        fill: #482402;
      }

      .cls-6, .cls-7 {
        fill-rule: evenodd;
      }

      .cls-7 {
        fill: #f6e6d2;
      }

      .cls-8 {
        fill: #e89b37;
      }

      .cls-9 {
        fill: rgba(0,0,0,0);
      }

      .cls-10 {
        fill: #e28432;
      }
    </style>
    <clipPath id="clip-path">
      <circle id="Ellipse_5594" data-name="Ellipse 5594" class="cls-1" cx="32" cy="32" r="32" transform="translate(-21338 -21922)"/>
    </clipPath>
    <clipPath id="clip-path-2">
      <circle id="Ellipse_5444" data-name="Ellipse 5444" class="cls-1" cx="32" cy="32" r="32" transform="translate(-21418 -19604)"/>
    </clipPath>
  </defs>
  <g id="Group_20094" data-name="Group 20094" transform="translate(21468 19594)">
    <g id="Mask_Group_777" data-name="Mask Group 777" class="cls-2" transform="translate(-130 2328)">
      <g id="BNB" transform="translate(-21338 -21922)">
        <circle id="Ellipse_5593" data-name="Ellipse 5593" class="cls-3" cx="32" cy="32" r="32"/>
        <path id="Path_40663" data-name="Path 40663" class="cls-1" d="M20.6,17.27l11.272-6.561L43.145,17.27,39,19.694l-7.128-4.137-7.128,4.137Zm22.544,8.275L39,23.121l-7.128,4.137-7.128-4.137L20.6,25.545v4.848l7.128,4.137v8.275l4.144,2.424,4.144-2.424V34.531l7.128-4.137Zm0,13.123V33.82L39,36.244v4.848Zm2.942,1.713-7.128,4.137v4.848l11.272-6.561V29.683l-4.144,2.424ZM41.943,21.408l4.144,2.424V28.68l4.144-2.424V21.408l-4.144-2.424ZM27.728,46.274v4.848l4.144,2.424,4.144-2.424V46.274L31.873,48.7ZM20.6,38.668l4.144,2.424V36.244L20.6,33.82Zm7.128-17.26,4.144,2.424,4.144-2.424-4.144-2.424Zm-10.07,2.424L21.8,21.408l-4.144-2.424-4.144,2.424v4.848l4.144,2.424Zm0,8.275-4.144-2.424V42.805l11.272,6.561V44.519l-7.128-4.137Z"/>
      </g>
    </g>
    <g id="Mask_Group_775" data-name="Mask Group 775" class="cls-4" transform="translate(0 10)">
      <g id="Baby" transform="translate(-21418 -19604)">
        <circle id="Ellipse_5590" data-name="Ellipse 5590" class="cls-5" cx="32" cy="32" r="32"/>
        <path id="Path_40654" data-name="Path 40654" class="cls-6" d="M36.955,46.94a11.4,11.4,0,1,1-4.172-15.571A11.4,11.4,0,0,1,36.955,46.94Zm-14.431,2.2a9.119,9.119,0,1,0-3.338-12.457A9.119,9.119,0,0,0,22.524,49.138Z"/>
        <path id="Path_40655" data-name="Path 40655" class="cls-6" d="M33.2,44.774a7.067,7.067,0,1,1-2.587-9.654A7.067,7.067,0,0,1,33.2,44.774Zm-8.514.612a4.787,4.787,0,1,0-1.752-6.54A4.787,4.787,0,0,0,24.69,45.386Z"/>
        <path id="Path_40656" data-name="Path 40656" class="cls-7" d="M30.2,35.837a6.239,6.239,0,1,0,2.284,8.523A6.239,6.239,0,0,0,30.2,35.837Zm-11.017.844a9.119,9.119,0,1,1,3.338,12.457A9.119,9.119,0,0,1,19.187,36.681Z"/>
        <path id="Path_40657" data-name="Path 40657" class="cls-8" d="M45.869,22.383a6.808,6.808,0,0,1-3.084,2.8,2.195,2.195,0,0,0-.926,2.919,16.016,16.016,0,0,1,3.123,11.373,1.442,1.442,0,0,0,.959,1.46A5.7,5.7,0,1,1,41.075,51.2L15.31,36.329a5.7,5.7,0,1,1,6.458-9.348,1.442,1.442,0,0,0,1.744.1A16.016,16.016,0,0,1,34.922,24.1c1.057.13,2.167-1.2,2.065-2.261a6.809,6.809,0,0,1,.886-4.072c1.889-3.271,4.932-2.418,8.2-.529C46.075,17.237,47.757,19.111,45.869,22.383Z"/>
        <path id="Path_40658" data-name="Path 40658" class="cls-9" d="M45.869,22.383a6.808,6.808,0,0,1-3.084,2.8,2.195,2.195,0,0,0-.926,2.919,16.016,16.016,0,0,1,3.123,11.373,1.442,1.442,0,0,0,.959,1.46A5.7,5.7,0,1,1,41.075,51.2L15.31,36.329a5.7,5.7,0,1,1,6.458-9.348,1.442,1.442,0,0,0,1.744.1A16.016,16.016,0,0,1,34.922,24.1c1.057.13,2.167-1.2,2.065-2.261a6.809,6.809,0,0,1,.886-4.072c1.889-3.271,4.932-2.418,8.2-.529C46.075,17.237,47.757,19.111,45.869,22.383Z"/>
        <path id="Path_40659" data-name="Path 40659" class="cls-10" d="M43.3,38.508a16.016,16.016,0,0,0-3.123-11.373l-.623,1.08c.942,4.493.177,4.577-.2,8.013a1.442,1.442,0,0,0,.96,1.46,5.7,5.7,0,1,1-4.867,10.267l3.949,2.28a5.7,5.7,0,1,0,4.867-10.267A1.442,1.442,0,0,1,43.3,38.508Z"/>
        <path id="Path_40660" data-name="Path 40660" class="cls-6" d="M41.84,23.111A4.56,4.56,0,1,0,35.406,19.4,4.464,4.464,0,0,1,34.248,22.7a4.032,4.032,0,0,1-3.454,1.437A13.736,13.736,0,0,0,21.011,26.7a3.72,3.72,0,0,1-4.534-.172,3.459,3.459,0,0,0-.458-.315,3.42,3.42,0,1,0-3.42,5.923l29.615,17.1a3.42,3.42,0,0,0,3.42-5.923,3.464,3.464,0,0,0-.5-.239,3.72,3.72,0,0,1-2.416-3.841,13.736,13.736,0,0,0-2.678-9.75,4.032,4.032,0,0,1-.482-3.71A4.464,4.464,0,0,1,41.84,23.111Zm.945,2.075a6.839,6.839,0,1,0-9.648-5.57c.1,1.06-1.008,2.391-2.065,2.261a16.016,16.016,0,0,0-11.411,2.981,1.442,1.442,0,0,1-1.744-.1,5.7,5.7,0,1,0-6.458,9.348L41.075,51.2a5.7,5.7,0,1,0,4.867-10.267,1.442,1.442,0,0,1-.959-1.46A16.016,16.016,0,0,0,41.859,28.1,2.194,2.194,0,0,1,42.785,25.186Z"/>
        <path id="Path_40661" data-name="Path 40661" class="cls-6" d="M32.231,28.361a1.14,1.14,0,0,1-1.382.83,8.436,8.436,0,0,0-3.3-.049,6.91,6.91,0,0,0-3.9,2.033,1.14,1.14,0,1,1-1.663-1.56A9.186,9.186,0,0,1,27.147,26.9a10.69,10.69,0,0,1,4.254.082A1.14,1.14,0,0,1,32.231,28.361Z"/>
      </g>
    </g>
  </g>
</svg>
