<svg xmlns="http://www.w3.org/2000/svg" xmlns:xlink="http://www.w3.org/1999/xlink" width="114" height="64" viewBox="0 0 114 64">
  <defs>
    <style>
      .cls-1 {
        fill: #fff;
      }

      .cls-2 {
        clip-path: url(#clip-path);
      }

      .cls-3 {
        clip-path: url(#clip-path-2);
      }

      .cls-4 {
        fill: #f3ba2f;
      }

      .cls-5 {
        clip-path: url(#clip-path-3);
      }

      .cls-6 {
        fill: #fff1d9;
      }

      .cls-7 {
        fill: #482402;
      }

      .cls-7, .cls-8 {
        fill-rule: evenodd;
      }

      .cls-8 {
        fill: #f6e6d2;
      }

      .cls-9 {
        fill: #e89b37;
      }

      .cls-10 {
        fill: rgba(0,0,0,0);
      }

      .cls-11 {
        fill: #e28432;
      }
    </style>
    <clipPath id="clip-path">
      <circle id="Ellipse_5587" data-name="Ellipse 5587" class="cls-1" cx="32" cy="32" r="32" transform="translate(-22321 -19922)"/>
    </clipPath>
    <clipPath id="clip-path-2">
      <circle id="Ellipse_1807" data-name="Ellipse 1807" class="cls-1" cx="32" cy="32" r="32" transform="translate(-24465 -23674)"/>
    </clipPath>
    <clipPath id="clip-path-3">
      <circle id="Ellipse_5444" data-name="Ellipse 5444" class="cls-1" cx="32" cy="32" r="32" transform="translate(-21418 -19604)"/>
    </clipPath>
  </defs>
  <g id="Group_20094" data-name="Group 20094" transform="translate(21468 19594)">
    <g id="Mask_Group_772" data-name="Mask Group 772" class="cls-2" transform="translate(853 328)">
      <g id="Group_997" data-name="Group 997" transform="translate(2144 4312)">
        <g id="Mask_Group_5" data-name="Mask Group 5" class="cls-3" transform="translate(0 -560)">
          <g id="BNB" transform="translate(-24465 -23674)">
            <path id="Path_118" data-name="Path 118" class="cls-4" d="M32,64A32,32,0,1,0,0,32,32,32,0,0,0,32,64Z"/>
            <path id="Path_119" data-name="Path 119" class="cls-1" d="M24.23,28.808,32,21.04l7.772,7.772,4.52-4.52L32,12,19.71,24.288ZM12,32l4.52-4.52L21.038,32l-4.52,4.52Zm12.23,3.192L32,42.96l7.772-7.772,4.52,4.518L32,52,19.71,39.712l-.006-.006ZM42.958,32l4.52-4.52L52,32l-4.52,4.52Zm-6.376,0h0L32,36.588l-4.582-4.58L27.408,32l.008-.006.8-.8.39-.39L32,27.412,36.584,32Z"/>
          </g>
        </g>
      </g>
    </g>
    <g id="Mask_Group_775" data-name="Mask Group 775" class="cls-5" transform="translate(0 10)">
      <g id="Baby" transform="translate(-21418 -19604)">
        <circle id="Ellipse_5590" data-name="Ellipse 5590" class="cls-6" cx="32" cy="32" r="32"/>
        <path id="Path_40654" data-name="Path 40654" class="cls-7" d="M36.955,46.94a11.4,11.4,0,1,1-4.172-15.571A11.4,11.4,0,0,1,36.955,46.94Zm-14.431,2.2a9.119,9.119,0,1,0-3.338-12.457A9.119,9.119,0,0,0,22.524,49.138Z"/>
        <path id="Path_40655" data-name="Path 40655" class="cls-7" d="M33.2,44.774a7.067,7.067,0,1,1-2.587-9.654A7.067,7.067,0,0,1,33.2,44.774Zm-8.514.612a4.787,4.787,0,1,0-1.752-6.54A4.787,4.787,0,0,0,24.69,45.386Z"/>
        <path id="Path_40656" data-name="Path 40656" class="cls-8" d="M30.2,35.837a6.239,6.239,0,1,0,2.284,8.523A6.239,6.239,0,0,0,30.2,35.837Zm-11.017.844a9.119,9.119,0,1,1,3.338,12.457A9.119,9.119,0,0,1,19.187,36.681Z"/>
        <path id="Path_40657" data-name="Path 40657" class="cls-9" d="M45.869,22.383a6.808,6.808,0,0,1-3.084,2.8,2.195,2.195,0,0,0-.926,2.919,16.016,16.016,0,0,1,3.123,11.373,1.442,1.442,0,0,0,.959,1.46A5.7,5.7,0,1,1,41.075,51.2L15.31,36.329a5.7,5.7,0,1,1,6.458-9.348,1.442,1.442,0,0,0,1.744.1A16.016,16.016,0,0,1,34.922,24.1c1.057.13,2.167-1.2,2.065-2.261a6.809,6.809,0,0,1,.886-4.072c1.889-3.271,4.932-2.418,8.2-.529C46.075,17.237,47.757,19.111,45.869,22.383Z"/>
        <path id="Path_40658" data-name="Path 40658" class="cls-10" d="M45.869,22.383a6.808,6.808,0,0,1-3.084,2.8,2.195,2.195,0,0,0-.926,2.919,16.016,16.016,0,0,1,3.123,11.373,1.442,1.442,0,0,0,.959,1.46A5.7,5.7,0,1,1,41.075,51.2L15.31,36.329a5.7,5.7,0,1,1,6.458-9.348,1.442,1.442,0,0,0,1.744.1A16.016,16.016,0,0,1,34.922,24.1c1.057.13,2.167-1.2,2.065-2.261a6.809,6.809,0,0,1,.886-4.072c1.889-3.271,4.932-2.418,8.2-.529C46.075,17.237,47.757,19.111,45.869,22.383Z"/>
        <path id="Path_40659" data-name="Path 40659" class="cls-11" d="M43.3,38.508a16.016,16.016,0,0,0-3.123-11.373l-.623,1.08c.942,4.493.177,4.577-.2,8.013a1.442,1.442,0,0,0,.96,1.46,5.7,5.7,0,1,1-4.867,10.267l3.949,2.28a5.7,5.7,0,1,0,4.867-10.267A1.442,1.442,0,0,1,43.3,38.508Z"/>
        <path id="Path_40660" data-name="Path 40660" class="cls-7" d="M41.84,23.111A4.56,4.56,0,1,0,35.406,19.4,4.464,4.464,0,0,1,34.248,22.7a4.032,4.032,0,0,1-3.454,1.437A13.736,13.736,0,0,0,21.011,26.7a3.72,3.72,0,0,1-4.534-.172,3.459,3.459,0,0,0-.458-.315,3.42,3.42,0,1,0-3.42,5.923l29.615,17.1a3.42,3.42,0,0,0,3.42-5.923,3.464,3.464,0,0,0-.5-.239,3.72,3.72,0,0,1-2.416-3.841,13.736,13.736,0,0,0-2.678-9.75,4.032,4.032,0,0,1-.482-3.71A4.464,4.464,0,0,1,41.84,23.111Zm.945,2.075a6.839,6.839,0,1,0-9.648-5.57c.1,1.06-1.008,2.391-2.065,2.261a16.016,16.016,0,0,0-11.411,2.981,1.442,1.442,0,0,1-1.744-.1,5.7,5.7,0,1,0-6.458,9.348L41.075,51.2a5.7,5.7,0,1,0,4.867-10.267,1.442,1.442,0,0,1-.959-1.46A16.016,16.016,0,0,0,41.859,28.1,2.194,2.194,0,0,1,42.785,25.186Z"/>
        <path id="Path_40661" data-name="Path 40661" class="cls-7" d="M32.231,28.361a1.14,1.14,0,0,1-1.382.83,8.436,8.436,0,0,0-3.3-.049,6.91,6.91,0,0,0-3.9,2.033,1.14,1.14,0,1,1-1.663-1.56A9.186,9.186,0,0,1,27.147,26.9a10.69,10.69,0,0,1,4.254.082A1.14,1.14,0,0,1,32.231,28.361Z"/>
      </g>
    </g>
  </g>
</svg>
