<svg xmlns="http://www.w3.org/2000/svg" xmlns:xlink="http://www.w3.org/1999/xlink" width="114" height="64" viewBox="0 0 114 64">
  <defs>
    <style>
      .cls-1 {
        fill: #fff;
      }

      .cls-2 {
        fill: none;
      }

      .cls-3 {
        clip-path: url(#clip-path);
      }

      .cls-4 {
        clip-path: url(#clip-path-2);
      }

      .cls-5 {
        clip-path: url(#clip-path-3);
      }

      .cls-6 {
        fill: #5a5564;
      }

      .cls-7 {
        fill: #f09242;
      }

      .cls-8 {
        fill: #282138;
      }

      .cls-9 {
        clip-path: url(#clip-path-4);
      }

      .cls-10 {
        fill: #7b3fe4;
      }
    </style>
    <clipPath id="clip-path">
      <circle id="Ellipse_5483" data-name="Ellipse 5483" class="cls-1" cx="32" cy="32" r="32" transform="translate(-22157 -19922)"/>
    </clipPath>
    <clipPath id="clip-path-2">
      <rect id="Rectangle_7545" data-name="Rectangle 7545" class="cls-2" width="64" height="64"/>
    </clipPath>
    <clipPath id="clip-path-3">
      <circle id="Ellipse_1850" data-name="Ellipse 1850" class="cls-1" cx="32" cy="32" r="32" transform="translate(-24807 -23472)"/>
    </clipPath>
    <clipPath id="clip-path-4">
      <circle id="Ellipse_5468" data-name="Ellipse 5468" class="cls-1" cx="32" cy="32" r="32" transform="translate(-22107 -19922)"/>
    </clipPath>
  </defs>
  <g id="Group_20003" data-name="Group 20003" transform="translate(22157 19922)">
    <g id="Mask_Group_709" data-name="Mask Group 709" class="cls-3">
      <g id="Repeat_Grid_4" data-name="Repeat Grid 4" class="cls-4" transform="translate(-22157 -19922)">
        <g id="Group_995" data-name="Group 995" transform="translate(24807 24032)">
          <circle id="Ellipse_1807" data-name="Ellipse 1807" class="cls-1" cx="32" cy="32" r="32" transform="translate(-24807 -24032)"/>
          <g id="Mask_Group_72" data-name="Mask Group 72" class="cls-5" transform="translate(0 -560)">
            <g id="Layer_2" data-name="Layer 2" transform="translate(-24807 -23472)">
              <g id="Layer_1" data-name="Layer 1">
                <g id="Page-1">
                  <g id="wbtc_colour" data-name="wbtc colour">
                    <path id="Shape" class="cls-6" d="M52.185,13.431l-1.757,1.757a24.877,24.877,0,0,1,0,33.576l1.757,1.757a27.39,27.39,0,0,0,0-37.131Z"/>
                    <path id="Shape-2" data-name="Shape" class="cls-6" d="M15.23,13.584a24.877,24.877,0,0,1,33.576,0l1.757-1.757a27.39,27.39,0,0,0-37.131,0Z"/>
                    <path id="Shape-3" data-name="Shape" class="cls-6" d="M13.584,48.782a24.877,24.877,0,0,1,0-33.558l-1.757-1.757a27.39,27.39,0,0,0,0,37.131Z"/>
                    <path id="Shape-4" data-name="Shape" class="cls-6" d="M48.782,50.4a24.877,24.877,0,0,1-33.576,0l-1.757,1.757a27.39,27.39,0,0,0,37.131,0Z"/>
                    <path id="Shape-5" data-name="Shape" class="cls-7" d="M43.094,26.137c-.351-3.667-3.515-4.9-7.515-5.272v-5.05H32.486v4.956H30.014V15.815H26.945V20.9H20.671v3.31s2.284-.041,2.249,0a1.6,1.6,0,0,1,1.757,1.359V39.486a1.084,1.084,0,0,1-.375.756,1.072,1.072,0,0,1-.8.269c.041.035-2.249,0-2.249,0l-.586,3.7h6.215v5.166h3.093v-5.09h2.472V49.35h3.1V44.242c5.225-.316,8.868-1.6,9.325-6.5.369-3.936-1.482-5.694-4.44-6.4C42.233,30.459,43.346,28.819,43.094,26.137Zm-4.335,11c0,3.843-6.584,3.4-8.681,3.4V33.722c2.1.006,8.682-.6,8.682,3.415Zm-1.435-9.606c0,3.515-5.494,3.087-7.24,3.087v-6.2c1.746,0,7.241-.548,7.241,3.113Z"/>
                    <path id="Shape-6" data-name="Shape" class="cls-8" d="M31.994,64A32,32,0,1,1,64,32,32,32,0,0,1,31.994,64Zm0-61.5a29.487,29.487,0,1,0,20.87,8.632A29.487,29.487,0,0,0,31.994,2.5Z"/>
                  </g>
                </g>
              </g>
            </g>
          </g>
        </g>
      </g>
    </g>
    <g id="Mask_Group_700" data-name="Mask Group 700" class="cls-9">
      <g id="Primary_Token" data-name="Primary Token" transform="translate(-22107 -19922)">
        <circle id="Ellipse_5515" data-name="Ellipse 5515" class="cls-10" cx="32" cy="32" r="32"/>
        <path id="Path_40533" data-name="Path 40533" class="cls-1" d="M53.333,32.747V42.4a3.481,3.481,0,0,1-1.707,2.977L43.293,50.2a3.323,3.323,0,0,1-3.413,0l-8.333-4.817A3.481,3.481,0,0,1,29.84,42.4v-2.71l4.267-2.485v4.71l7.467,4.349,7.467-4.349V33.239L41.573,28.89,24.08,39.059a3.466,3.466,0,0,1-3.413,0l-8.333-4.837a3.482,3.482,0,0,1-1.667-2.974V21.594a3.481,3.481,0,0,1,1.707-2.977L20.706,13.8a3.353,3.353,0,0,1,3.413,0l8.333,4.817a3.481,3.481,0,0,1,1.707,2.977V24.3l-4.293,2.469V22.089L22.4,17.741l-7.467,4.349v8.667L22.4,35.105,39.893,24.936a3.466,3.466,0,0,1,3.413,0l8.333,4.837a3.481,3.481,0,0,1,1.693,2.974Z"/>
      </g>
    </g>
  </g>
</svg>
